<svg viewBox="0 -94 512.00003 512" xmlns="http://www.w3.org/2000/svg"><path d="m512 229.941406c0 50.945313-39.871094 92.269532-90.765625 94.089844l-.664063.007812c-2.070312.011719-62.222656.019532-155.695312.019532h-8.875c-76.777344 0-153.265625 0-157.125-.019532l-.390625-.007812c-55.222656-1.671875-98.484375-46.253906-98.484375-101.515625 0-42.753906 26.859375-80.960937 66.960938-95.492187.097656-35.324219 28.871093-64.027344 64.214843-64.027344 15.3125 0 29.984375 5.425781 41.59375 15.3125 15.96875-35.945313 46.652344-62.226563 83.230469-72.964844 11.910156-3.492188 24.4375-5.34375 37.296875-5.34375 72.714844 0 131.867187 59.164062 131.867187 131.867188 0 1.28125-.019531 2.613281-.078124 4.203124 48.886718 3.722657 86.914062 44.613282 86.914062 93.871094zm0 0" fill="#51faff"/><path d="m512 229.941406c0 50.945313-39.871094 92.269532-90.765625 94.089844l-.664063.007812c-2.070312.011719-62.222656.019532-155.695312.019532h-8.875v-318.714844c11.910156-3.492188 24.4375-5.34375 37.296875-5.34375 72.714844 0 131.867187 59.164062 131.867187 131.867188 0 1.28125-.019531 2.613281-.078124 4.203124 48.886718 3.722657 86.914062 44.613282 86.914062 93.871094zm0 0" fill="#00e7f0"/></svg>