<svg viewBox="0 0 512 512.00001" xmlns="http://www.w3.org/2000/svg"><g fill="#ff9468"><path d="m333.171875 496.824219v.109375c0 8.277344-6.714844 14.996094-14.992187 14.996094-.382813 0-.761719-.03125-1.140626-.058594l-94.039062.128906c-.007812 0-.019531 0-.019531 0-2.089844 0-4.066407-.429688-5.867188-1.199219-5.46875-2.238281-9.316406-7.597656-9.316406-13.867187 0-53.238282-21.691406-101.511719-56.699219-136.429688-34.910156-34.828125-83.042968-56.378906-136.101562-56.378906-8.277344 0-14.996094-6.710938-14.996094-14.996094v-95.335937c0-8.277344 6.71875-14.996094 14.996094-14.996094h.019531.019531c84.890625 0 164.703125 33.019531 224.769532 92.996094.0625.050781.132812.121093.191406.179687 60.058594 60.070313 93.148437 139.914063 93.175781 224.851563zm0 0"/><path d="m134.09375 444.953125c0 36.96875-30.082031 67.046875-67.046875 67.046875-18.582031 0-35.429687-7.597656-47.582031-19.863281-12.027344-12.117188-19.464844-28.800781-19.464844-47.183594 0-36.964844 30.078125-67.046875 67.046875-67.046875 18.382813 0 35.066406 7.4375 47.183594 19.464844 12.265625 12.15625 19.863281 29 19.863281 47.582031zm0 0"/><path d="m511.550781 496.414062v.019532.011718.121094c0 8.277344-6.707031 14.992188-14.996093 14.992188-.519532 0-1.050782-.027344-1.558594-.089844l-92.378906.242188h-.039063c-2.679687 0-5.199219-.710938-7.378906-1.949219-4.6875-2.53125-7.875-7.5-7.875-13.195313 0-50.273437-9.847657-99.035156-29.261719-144.929687-18.742188-44.324219-45.582031-84.128907-79.769531-118.328125-.011719-.011719-.011719-.011719-.019531-.019532-34.199219-34.199218-74.023438-61.050781-118.359376-79.804687-45.882812-19.402344-94.648437-29.25-144.917968-29.25-8.277344 0-14.996094-6.714844-14.996094-14.992187v-94.246094c0-8.277344 6.71875-14.996094 14.996094-14.996094 67.023437 0 132.0625 13.136719 193.289062 39.035156 59.128906 25.003906 112.230469 60.808594 157.824219 106.402344.011719.011719.023437.019531.023437.03125 45.601563 45.59375 81.390626 98.683594 106.390626 157.804688 25.882812 61.1875 39.007812 126.164062 39.027343 193.140624zm0 0"/></g><path d="m114.230469 397.371094c12.265625 12.15625 19.863281 29 19.863281 47.582031 0 36.96875-30.082031 67.046875-67.046875 67.046875-18.582031 0-35.429687-7.597656-47.582031-19.863281zm0 0" fill="#ff712f"/><path d="m239.996094 271.972656c60.058594 60.070313 93.148437 139.914063 93.175781 224.851563v.109375c0 8.277344-6.714844 14.996094-14.992187 14.996094-.382813 0-.761719-.03125-1.140626-.058594l-94.039062.128906c-.007812 0-.019531 0-.019531 0-2.089844 0-4.066407-.429688-5.867188-1.199219-5.46875-2.238281-9.316406-7.597656-9.316406-13.867187 0-53.238282-21.691406-101.511719-56.699219-136.429688l88.707032-88.710937c.0625.050781.132812.121093.191406.179687zm0 0" fill="#ff712f"/><path d="m511.550781 496.414062v.019532.011718.121094c0 8.277344-6.707031 14.992188-14.996093 14.992188-.519532 0-1.050782-.027344-1.558594-.089844l-92.378906.242188h-.039063c-2.679687 0-5.199219-.710938-7.378906-1.949219-4.6875-2.53125-7.875-7.5-7.875-13.195313 0-50.273437-9.847657-99.035156-29.261719-144.929687-18.742188-44.324219-45.582031-84.128907-79.769531-118.328125l87.839843-87.839844c45.601563 45.59375 81.390626 98.683594 106.390626 157.804688 25.882812 61.1875 39.007812 126.164062 39.027343 193.140624zm0 0" fill="#ff712f"/></svg>