<svg viewBox="-76 1 511 511.99994" xmlns="http://www.w3.org/2000/svg"><path d="m180.484375 0c-99.242187 0-179.984375 80.742188-179.984375 179.972656 0 6.902344.503906 14.1875 1.519531 22.273438 6.152344 55.96875 36.34375 123.253906 89.714844 199.988281 39.324219 56.519531 76.347656 96.457031 77.910156 98.125l10.828125 11.640625.011719-.011719 10.828125-11.617187c1.5625-1.679688 38.671875-41.675782 78.046875-98.277344 53.441406-76.832031 83.59375-144.183594 89.617187-200.171875.996094-8.085937 1.480469-15.273437 1.480469-21.976563-.03125-99.222656-80.769531-179.945312-179.972656-179.945312zm.007813 271.980469h-.007813c-50.414063-.011719-91.425781-41.023438-91.425781-91.433594 0-50.421875 41.011718-91.425781 91.425781-91.433594h.007813c50.402343 0 91.40625 41.011719 91.40625 91.433594 0 50.410156-41.003907 91.433594-91.40625 91.433594zm0 0" fill="#ff5b5b"/><path d="m360.457031 179.945312c0 6.703126-.484375 13.890626-1.480469 21.976563-6.023437 55.988281-36.175781 123.339844-89.617187 200.171875-39.375 56.601562-76.484375 96.597656-78.046875 98.277344l-10.828125 11.617187v-240.007812h.007813c50.402343 0 91.40625-41.023438 91.40625-91.433594 0-50.421875-41.003907-91.433594-91.40625-91.433594h-.007813v-89.113281c99.203125 0 179.941406 80.722656 179.972656 179.945312zm0 0" fill="#ff3636"/></svg>