<svg viewBox="1 -10 511.99969 511" xmlns="http://www.w3.org/2000/svg"><path d="m494.152344 233.0625-98.515625 71.574219c-4.597657 3.351562-6.515625 9.226562-4.757813 14.644531l37.628906 115.800781c5.875 18.089844-.261718 36.996094-15.644531 48.171875-7.699219 5.597656-16.515625 8.386719-25.332031 8.386719s-17.632812-2.789063-25.320312-8.386719l-98.515626-71.566406c-2.277343-1.667969-4.957031-2.496094-7.636718-2.507812-2.71875-.011719-5.4375.820312-7.757813 2.507812l-98.511719 71.566406c-15.382812 11.183594-35.265624 11.183594-50.652343 0-15.382813-11.175781-21.519531-30.082031-15.644531-48.171875l37.628906-115.800781c1.757812-5.417969-.160156-11.292969-4.769532-14.644531l-98.503906-71.574219c-15.382812-11.175781-21.523437-30.078125-15.65625-48.171875 5.878906-18.082031 21.964844-29.765625 40.988282-29.765625h121.753906c5.699218 0 10.707031-3.640625 12.464844-9.058594l37.625-115.796875c5.871093-18.082031 21.964843-29.769531 40.976562-29.769531h.058594c18.984375.019531 35.058594 11.707031 40.917968 29.769531l37.625 115.796875c1.757813 5.417969 6.765626 9.058594 12.464844 9.058594h121.753906c19.023438 0 35.109376 11.683594 40.988282 29.765625 5.867187 18.09375-.273438 36.996094-15.65625 48.171875zm0 0" fill="#ffb64c"/><path d="m494.152344 233.0625-98.515625 71.574219c-4.597657 3.351562-6.515625 9.226562-4.757813 14.644531l37.628906 115.800781c5.875 18.089844-.261718 36.996094-15.644531 48.171875-7.699219 5.597656-16.515625 8.386719-25.332031 8.386719s-17.632812-2.789063-25.320312-8.386719l-98.515626-71.566406c-2.277343-1.667969-4.957031-2.496094-7.636718-2.507812v-408.679688c18.984375.019531 35.058594 11.707031 40.917968 29.769531l37.625 115.796875c1.757813 5.417969 6.765626 9.058594 12.464844 9.058594h121.753906c19.023438 0 35.109376 11.683594 40.988282 29.765625 5.867187 18.09375-.273438 36.996094-15.65625 48.171875zm0 0" fill="#ff9f00"/></svg>