<svg viewBox="0 -45 512.00001 512" xmlns="http://www.w3.org/2000/svg"><path d="m450.542969 293.335938c-30.902344 73.054687-99.394531 122-177.480469 128.265624-.097656.011719-.199219.011719-.296875.019532-5.488281.441406-11.019531.671875-16.585937.671875h-.191407c-84.617187 0-160.832031-50.273438-194.160156-128.066407l27.570313-11.816406c21.53125 50.273438 63.9375 87.140625 114.578124 102.285156-15.292968-21.734374-34.027343-53.382812-46.480468-91.75-2.5625-7.875 1.757812-16.332031 9.636718-18.890624 7.875-2.558594 16.332032 1.757812 18.890626 9.636718 15.085937 46.472656 40.707031 82.570313 54.980468 100.3125v-95.925781c0-8.277344 6.710938-14.984375 14.984375-14.992187h.191407c8.199218.097656 14.816406 6.777343 14.816406 14.992187v96.15625c14.273437-17.8125 39.972656-54.109375 55-100.542969 2.546875-7.878906 11.003906-12.195312 18.882812-9.648437 7.878906 2.550781 12.195313 11.007812 9.644532 18.882812-12.402344 38.328125-31.058594 69.964844-46.3125 91.730469 50.84375-15.246094 93.296874-52.375 114.710937-103.003906zm0 0" fill="#a8ebfa"/><path d="m450.53125 128.914062-27.621094 11.6875c-21.359375-50.472656-63.644531-87.53125-114.296875-102.84375 15.421875 21.929688 34.1875 53.789063 46.472657 92.457032 2.507812 7.886718-1.851563 16.3125-9.746094 18.824218-1.511719.476563-3.039063.707032-4.550782.707032-6.355468 0-12.253906-4.066406-14.285156-10.453125-15.023437-47.265625-41.125-83.824219-55.507812-101.585938v95.597657c0 8.226562-6.617188 14.894531-14.816406 14.992187h-.191407c-8.273437-.007813-14.984375-6.707031-14.984375-14.992187v-95.058594c-14.414062 17.804687-40.464844 54.28125-55.429687 101.074218-2.039063 6.367188-7.925781 10.4375-14.273438 10.4375-1.519531 0-3.058593-.230468-4.578125-.71875-7.886718-2.519531-12.238281-10.957031-9.707031-18.84375 12.386719-38.777343 31.316406-70.695312 46.78125-92.570312-50.839844 15.246094-93.304687 52.382812-114.71875 103.015625l-27.621094-11.6875c16.566407-39.164063 43.9375-71.402344 77.804688-93.84375 33.855469-22.453125 74.203125-35.109375 116.726562-35.109375h.191407c4.679687 0 9.316406.171875 13.933593.480469l4.96875.378906c77.222657 6.9375 144.800781 55.652344 175.449219 128.054687zm0 0" fill="#a8ebfa"/><path d="m256.179688 148.296875v-148.296875c4.679687 0 9.316406.171875 13.933593.480469l4.96875.378906c77.222657 6.9375 144.800781 55.652344 175.449219 128.054687l-27.621094 11.6875c-21.359375-50.472656-63.644531-87.53125-114.296875-102.84375 15.421875 21.929688 34.1875 53.789063 46.472657 92.457032 2.507812 7.886718-1.851563 16.3125-9.746094 18.824218-1.511719.476563-3.039063.707032-4.550782.707032-6.355468 0-12.253906-4.066406-14.285156-10.453125-15.023437-47.265625-41.125-83.824219-55.507812-101.585938v95.597657c0 8.226562-6.617188 14.894531-14.816406 14.992187zm0 0" fill="#76e2f8"/><path d="m450.542969 293.335938c-30.902344 73.054687-99.394531 122-177.480469 128.265624-.097656.011719-.199219.011719-.296875.019532-5.488281.441406-11.019531.671875-16.585937.671875v-149.207031c8.199218.097656 14.816406 6.777343 14.816406 14.992187v96.15625c14.273437-17.8125 39.972656-54.109375 55-100.542969 2.546875-7.878906 11.003906-12.195312 18.882812-9.648437 7.878906 2.550781 12.195313 11.007812 9.644532 18.882812-12.402344 38.328125-31.058594 69.964844-46.3125 91.730469 50.84375-15.246094 93.296874-52.375 114.710937-103.003906zm0 0" fill="#76e2f8"/><path d="m512 158.105469v106.082031c0 21.140625-17.195312 38.347656-38.335938 38.347656h-435.316406c-21.144531 0-38.347656-17.207031-38.347656-38.347656v-106.082031c0-21.144531 17.203125-38.347657 38.347656-38.347657h435.316406c21.140626 0 38.335938 17.203126 38.335938 38.347657zm0 0" fill="#6aa9ff"/><path d="m512 158.105469v106.082031c0 21.140625-17.195312 38.347656-38.335938 38.347656h-217.484374v-182.777344h217.484374c21.140626 0 38.335938 17.203126 38.335938 38.347657zm0 0" fill="#2682ff"/><path d="m68.667969 180.28125c0-2.8125 1.941406-5.261719 5.824219-7.34375 3.882812-2.082031 7.679687-3.121094 11.394531-3.121094 3.933593 0 6.351562 1.347656 7.253906 4.050782l15.019531 42.867187 10.804688-36.285156c1.011718-3.375 3.878906-5.066407 8.605468-5.066407 4.726563 0 7.59375 1.6875 8.605469 5.066407l10.804688 36.285156 15.019531-42.871094c.898438-2.699219 3.261719-4.050781 7.089844-4.050781 3.710937 0 7.507812 1.074219 11.390625 3.207031 3.882812 2.140625 5.824219 4.671875 5.824219 7.597657 0 1.238281-.226563 2.304687-.675782 3.207031l-25.992187 64.976562c-1.238281 3.035157-4.613281 4.554688-10.125 4.554688-6.074219 0-9.679688-1.519531-10.800781-4.554688l-11.140626-29.367187-11.136718 29.367187c-1.128906 3.035157-4.785156 4.554688-10.972656 4.554688-5.398438 0-8.71875-1.519531-9.957032-4.554688l-25.992187-64.976562c-.5625-1.460938-.84375-2.644531-.84375-3.542969zm0 0" fill="#fff"/><path d="m309.082031 173.019531c-3.878906-2.128906-7.679687-3.210937-11.386719-3.210937-3.828124 0-6.1875 1.359375-7.085937 4.058594l-15.027344 42.867187-10.796875-36.289063c-1.019531-3.378906-3.886718-5.058593-8.605468-5.058593-4.726563 0-7.597657 1.679687-8.605469 5.058593l-10.808594 36.289063-15.023437-42.867187c-.898438-2.699219-3.320313-4.058594-7.257813-4.058594-3.707031 0-7.507813 1.050781-11.386719 3.128906-3.886718 2.082031-5.828125 4.53125-5.828125 7.339844 0 .898437.28125 2.089844.851563 3.546875l25.988281 64.976562c1.230469 3.039063 4.558594 4.558594 9.957031 4.558594 6.1875 0 9.847656-1.519531 10.96875-4.558594l11.144532-29.367187 11.136718 29.367187c1.121094 3.039063 4.726563 4.558594 10.796875 4.558594 5.515625 0 8.886719-1.519531 10.125-4.558594l25.992188-64.976562c.449219-.898438.679687-1.96875.679687-3.207031 0-2.929688-1.941406-5.457032-5.828125-7.597657zm0 0" fill="#fff"/><g fill="#96fff6"><path d="m325.878906 180.28125c0-2.8125 1.941406-5.261719 5.824219-7.34375 3.878906-2.082031 7.675781-3.121094 11.390625-3.121094 3.9375 0 6.355469 1.347656 7.257812 4.050782l15.019532 42.867187 10.800781-36.285156c1.011719-3.375 3.882813-5.066407 8.609375-5.066407s7.59375 1.6875 8.605469 5.066407l10.800781 36.285156 15.023438-42.871094c.898437-2.699219 3.261718-4.050781 7.085937-4.050781 3.714844 0 7.511719 1.074219 11.394531 3.207031 3.878906 2.140625 5.820313 4.671875 5.820313 7.597657 0 1.238281-.226563 2.304687-.671875 3.207031l-25.992188 64.976562c-1.238281 3.035157-4.613281 4.554688-10.125 4.554688-6.078125 0-9.679687-1.519531-10.804687-4.554688l-11.136719-29.367187-11.140625 29.367187c-1.125 3.035157-4.78125 4.554688-10.96875 4.554688-5.402344 0-8.722656-1.519531-9.957031-4.554688l-25.992188-64.976562c-.5625-1.460938-.84375-2.644531-.84375-3.542969zm0 0"/><path d="m314.910156 180.617188c0 1.238281-.230468 2.308593-.679687 3.207031l-25.992188 64.976562c-1.238281 3.039063-4.609375 4.558594-10.125 4.558594-6.070312 0-9.675781-1.519531-10.796875-4.558594l-11.136718-29.367187v-44.046875c4.71875 0 7.585937 1.679687 8.605468 5.058593l10.796875 36.289063 15.027344-42.867187c.898437-2.699219 3.257813-4.058594 7.085937-4.058594 3.707032 0 7.507813 1.082031 11.386719 3.210937 3.886719 2.140625 5.828125 4.667969 5.828125 7.597657zm0 0"/></g></svg>