<svg viewBox="-28 0 512 512.00002" xmlns="http://www.w3.org/2000/svg"><path d="m456.128906 307.402344v189.574218c0 8.292969-6.730468 15.023438-15.019531 15.023438h-85.503906c-8.292969 0-15.023438-6.730469-15.023438-15.023438v-195.53125c0-16.902343-13.75-30.652343-30.652343-30.652343-.992188 0-1.964844.046875-2.9375.136719-15.53125 1.484374-27.730469 14.601562-27.730469 30.515624v195.53125c0 8.292969-6.71875 15.023438-15.019531 15.023438h-89.621094c-9.230469 0-16.753906-7.519531-16.753906-16.765625v-326.851563c0-9.242187 7.523437-16.765624 16.753906-16.765624h87.886718c9.246094 0 16.753907 7.523437 16.753907 16.765624v7.101563c8.785156-4.328125 18.109375-7.511719 27.730469-9.445313 6.621093-1.339843 13.390624-2.09375 20.222656-2.210937 26.96875-.503906 53.203125 8.710937 73.835937 25.9375 35 29.210937 55.078125 72.09375 55.078125 117.636719zm0 0" fill="#2682ff"/><g fill="#6aa9ff"><path d="m121.90625 169.164062v325.289063c0 9.675781-7.871094 17.546875-17.546875 17.546875h-86.3125c-9.675781 0-17.546875-7.871094-17.546875-17.546875v-325.289063c0-9.671874 7.871094-17.546874 17.546875-17.546874h86.3125c9.675781 0 17.546875 7.875 17.546875 17.546874zm0 0"/><path d="m122.40625 61.199219c0 33.746093-27.460938 61.199219-61.207031 61.199219-33.738281 0-61.199219-27.453126-61.199219-61.199219 0-33.75 27.460938-61.199219 61.199219-61.199219 33.746093 0 61.207031 27.449219 61.207031 61.199219zm0 0"/></g></svg>