<svg viewBox="0 0 512 512.0001" xmlns="http://www.w3.org/2000/svg"><path d="m511.945312 245.636719v.683593c-1.53125 66.980469-29.019531 129.402344-77.382812 175.753907-47.144531 45.171875-108.695312 69.875-173.804688 69.886719-1.550781 0-3.09375-.019532-4.644531-.050782h-.652343c-29.757813 0-59.023438-4.972656-87.070313-14.792968l-49.738281 31.070312c-4.023438 2.511719-8.597656 3.8125-13.242188 3.8125-1.710937 0-3.445312-.179688-5.15625-.539062-11.550781-2.402344-19.9375-12.863282-19.9375-24.875v-61.886719c-50.738281-45.484375-79.964844-110.386719-80.316406-178.640625v-.421875c1.53125-66.980469 29.015625-129.402344 77.382812-175.753907 48.296876-46.285156 111.714844-71.089843 178.589844-69.835937h.140625c66.792969-1.214844 130.171875 23.582031 178.449219 69.835937 48.363281 46.351563 75.851562 108.773438 77.382812 175.753907zm0 0" fill="#6aa9ff"/><path d="m511.945312 245.636719v.683593c-1.53125 66.980469-29.019531 129.402344-77.382812 175.753907-47.144531 45.171875-108.695312 69.875-173.804688 69.886719-1.550781 0-3.09375-.019532-4.644531-.050782v-491.863281c66.792969-1.214844 130.171875 23.582031 178.449219 69.835937 48.363281 46.351563 75.851562 108.773438 77.382812 175.753907zm0 0" fill="#2682ff"/><path d="m424.390625 203.386719-120.53125 120.535156c-9.199219 9.199219-24.144531 9.769531-34.023437 1.300781l-13.722657-11.761718-43.433593-37.214844-95.320313 51.96875c-3.8125 2.074218-7.945313 3.074218-12.03125 3.074218-6.433594 0-12.761719-2.503906-17.605469-7.316406-4.742187-4.714844-7.367187-11-7.386718-17.6875-.019532-6.695312 2.5625-12.992187 7.277343-17.738281l120.515625-120.511719c9.195313-9.199218 24.140625-9.78125 34.019532-1.3125l13.964843 11.972656 43.128907 36.992188 95.320312-51.96875c10.871094-5.925781 24.65625-2.910156 32.0625 7 7.40625 9.867188 6.445312 23.902344-2.234375 32.667969zm0 0" fill="#fff"/><path d="m424.390625 203.386719-120.53125 120.535156c-9.199219 9.199219-24.144531 9.769531-34.023437 1.300781l-13.722657-11.761718v-134.765626l43.128907 36.992188 95.320312-51.96875c10.871094-5.925781 24.65625-2.910156 32.0625 7 7.40625 9.867188 6.445312 23.902344-2.234375 32.667969zm0 0" fill="#96fff6"/></svg>