<svg viewBox="0 0 511 511.99981" xmlns="http://www.w3.org/2000/svg"><path d="m512.445312 245.636719v.683593c-1.53125 66.980469-29.019531 129.402344-77.382812 175.753907-47.144531 45.171875-108.695312 69.875-173.804688 69.886719-1.601562 0-3.183593-.019532-4.785156-.050782h-.511718c-29.757813 0-59.023438-4.972656-87.070313-14.792968l-49.738281 31.070312c-4.023438 2.511719-8.597656 3.8125-13.242188 3.8125-1.722656 0-3.445312-.179688-5.15625-.539062-11.550781-2.402344-19.9375-12.863282-19.9375-24.875v-61.890626c-50.738281-45.480468-79.964844-110.382812-80.316406-178.636718v-.421875c1.53125-66.980469 29.015625-129.402344 77.382812-175.753907 48.304688-46.285156 111.707032-71.097656 178.589844-69.835937 66.863282-1.242187 130.28125 23.550781 178.589844 69.835937 48.363281 46.351563 75.851562 108.773438 77.382812 175.753907zm0 0" fill="#ffb64c"/><path d="m512.445312 245.636719v.683593c-1.53125 66.980469-29.019531 129.402344-77.382812 175.753907-47.144531 45.171875-108.695312 69.875-173.804688 69.886719-1.601562 0-3.183593-.019532-4.785156-.050782v-491.863281c66.863282-1.242187 130.28125 23.550781 178.589844 69.835937 48.363281 46.351563 75.851562 108.773438 77.382812 175.753907zm0 0" fill="#ff9f00"/><g fill="#fff"><path d="m381.488281 189.285156c0 8.289063-6.722656 15.015625-15.011719 15.015625h-220.007812c-8.289062 0-15.015625-6.726562-15.015625-15.015625 0-8.296875 6.726563-15.015625 15.015625-15.015625h220.007812c8.289063 0 15.011719 6.71875 15.011719 15.015625zm0 0"/><path d="m381.488281 255.699219c0 8.285156-6.722656 15.011719-15.011719 15.011719h-220.007812c-8.289062 0-15.015625-6.726563-15.015625-15.011719 0-8.289063 6.726563-15.015625 15.015625-15.015625h220.007812c8.289063 0 15.011719 6.726562 15.011719 15.015625zm0 0"/><path d="m381.488281 322.109375c0 8.296875-6.722656 15.015625-15.011719 15.015625h-108.171874c-.621094 0-1.230469-.039062-1.832032-.121094-7.429687-.902344-13.183594-7.214844-13.183594-14.894531 0-7.667969 5.753907-13.992187 13.183594-14.894531.601563-.078125 1.210938-.117188 1.832032-.117188h108.171874c8.289063 0 15.011719 6.726563 15.011719 15.011719zm0 0"/></g><path d="m381.488281 322.109375c0 8.296875-6.722656 15.015625-15.011719 15.015625h-108.171874c-.621094 0-1.230469-.039062-1.832032-.121094v-29.789062c.601563-.078125 1.210938-.117188 1.832032-.117188h108.171874c8.289063 0 15.011719 6.726563 15.011719 15.011719zm0 0" fill="#96fff6"/><path d="m381.488281 255.699219c0 8.285156-6.722656 15.011719-15.011719 15.011719h-110.003906v-30.027344h110.003906c8.289063 0 15.011719 6.726562 15.011719 15.015625zm0 0" fill="#96fff6"/><path d="m366.476562 204.300781h-110.003906v-30.03125h110.003906c8.289063 0 15.011719 6.71875 15.011719 15.015625 0 8.289063-6.722656 15.015625-15.011719 15.015625zm0 0" fill="#96fff6"/></svg>