<svg viewBox="0 0 512 512" xmlns="http://www.w3.org/2000/svg"><path d="m512 256c0 68.375-26.625 132.667969-74.984375 181.015625-48.347656 48.359375-112.640625 74.984375-181.015625 74.984375s-132.667969-26.625-181.015625-74.984375c-48.359375-48.347656-74.984375-112.640625-74.984375-181.015625s26.625-132.667969 74.984375-181.015625c48.347656-48.359375 112.640625-74.984375 181.015625-74.984375s132.667969 26.625 181.015625 74.984375c48.359375 48.347656 74.984375 112.640625 74.984375 181.015625zm0 0" fill="#ff9468"/><path d="m512 256c0 68.375-26.625 132.667969-74.984375 181.015625-48.347656 48.359375-112.640625 74.984375-181.015625 74.984375v-512c68.375 0 132.667969 26.625 181.015625 74.984375 48.359375 48.347656 74.984375 112.640625 74.984375 181.015625zm0 0" fill="#ff712f"/><path d="m214.726562 211.230469c-8.292968 0-15.015624-6.722657-15.015624-15.011719 0-17.078125-13.890626-30.96875-30.96875-30.96875-17.074219 0-30.96875 13.890625-30.96875 30.96875 0 8.289062-6.722657 15.011719-15.011719 15.011719-8.292969 0-15.015625-6.722657-15.015625-15.011719 0-33.636719 27.363281-61 60.996094-61 33.632812 0 61 27.363281 61 61 0 8.289062-6.722657 15.011719-15.015626 15.011719zm0 0" fill="#fff"/><path d="m393.933594 211.230469c-8.289063 0-15.011719-6.722657-15.011719-15.011719 0-17.078125-13.894531-30.96875-30.96875-30.96875-17.078125 0-30.96875 13.890625-30.96875 30.96875 0 8.289062-6.722656 15.011719-15.015625 15.011719s-15.015625-6.722657-15.015625-15.011719c0-33.636719 27.363281-61 61-61 33.632813 0 60.996094 27.363281 60.996094 61 0 8.289062-6.722657 15.011719-15.015625 15.011719zm0 0" fill="#96fff6"/><path d="m359.882812 361.761719c0 8.300781-6.71875 15.015625-15.015624 15.015625-8.289063 0-15.015626-6.714844-15.015626-15.015625 0-40.539063-32.980468-73.519531-73.519531-73.519531h-.332031c-40.390625.179687-73.179688 33.089843-73.179688 73.519531 0 8.300781-6.726562 15.015625-15.015624 15.015625-8.300782 0-15.015626-6.714844-15.015626-15.015625 0-56.984375 46.265626-103.371094 103.210938-103.550781h.332031c57.105469 0 103.550781 46.457031 103.550781 103.550781zm0 0" fill="#fff"/><path d="m359.882812 361.761719c0 8.300781-6.71875 15.015625-15.015624 15.015625-8.289063 0-15.015626-6.714844-15.015626-15.015625 0-40.539063-32.980468-73.519531-73.519531-73.519531h-.332031v-30.03125h.332031c57.105469 0 103.550781 46.457031 103.550781 103.550781zm0 0" fill="#96fff6"/></svg>