<svg viewBox="-28 0 511 511.99947" xmlns="http://www.w3.org/2000/svg"><path d="m235.835938 254.480469-25.5625 26.664062-201.578126 210.257813c-5.273437-7.679688-8.195312-16.886719-8.195312-26.683594v-417.449219c0-10.539062 3.371094-20.398437 9.4375-28.414062l200.335938 208.964843zm0 0" fill="#6aa9ff"/><path d="m330.320312 155.933594-73.683593 76.859375-46.363281-48.351563-175.152344-182.691406c12.039062-3.394531 24.941406-1.851562 36.179687 4.644531l138.972657 80.230469zm0 0" fill="#a8ebfa"/><path d="m332.183594 354.980469-121.910156 70.382812-138.972657 80.230469c-7.386719 4.265625-15.492187 6.40625-23.597656 6.40625-4.996094 0-9.992187-.820312-14.816406-2.441406l177.386719-185.023438 46.363281-48.355468zm0 0" fill="#ff5b5b"/><path d="m432.824219 215.117188-75.730469-43.722657-79.664062 83.089844 81.527343 85.035156 73.867188-42.644531c14.777343-8.53125 23.601562-23.816406 23.601562-40.878906 0-17.066406-8.824219-32.347656-23.601562-40.878906zm0 0" fill="#ff9f00"/><path d="m235.835938 254.480469-25.5625 26.664062v-53.324219zm0 0" fill="#2682ff"/><path d="m256.636719 232.792969-46.363281-48.351563v-97.816406l120.046874 69.308594zm0 0" fill="#76e2f8"/><path d="m332.183594 354.980469-121.910156 70.382812v-100.828125l46.363281-48.355468zm0 0" fill="#ff3636"/></svg>