<svg viewBox="0 0 512 512.00039" xmlns="http://www.w3.org/2000/svg"><path d="m511.945312 245.636719v.679687c-1.53125 66.984375-29.015624 129.40625-77.382812 175.757813-47.144531 45.171875-108.691406 69.878906-173.804688 69.886719-1.601562 0-3.183593-.019532-4.785156-.050782h-.5c-29.757812 0-59.035156-4.972656-87.082031-14.792968l-49.738281 31.070312c-4.023438 2.511719-8.597656 3.8125-13.242188 3.8125-1.710937 0-3.441406-.179688-5.144531-.539062-11.5625-2.402344-19.949219-12.863282-19.949219-24.875v-61.886719c-50.738281-45.484375-79.964844-110.375-80.316406-178.640625v-.421875c1.53125-66.984375 29.019531-129.402344 77.382812-175.757813 48.308594-46.28125 111.738282-71.074218 178.589844-69.8359372 66.863282-1.2382808 130.285156 23.5546872 178.589844 69.8359372 48.367188 46.355469 75.851562 108.773438 77.382812 175.757813zm0 0" fill="#ffb64c"/><path d="m511.945312 245.636719v.679687c-1.53125 66.984375-29.015624 129.40625-77.382812 175.757813-47.144531 45.171875-108.691406 69.878906-173.804688 69.886719-1.601562 0-3.183593-.019532-4.785156-.050782v-491.8671872c66.863282-1.2382808 130.285156 23.5546872 178.589844 69.8359372 48.367188 46.355469 75.851562 108.773438 77.382812 175.757813zm0 0" fill="#ff9f00"/><path d="m421.609375 248.820312c0-25.644531-5.882813-49.945312-16.382813-71.628906-.292968-.730468-.640624-1.429687-1.042968-2.101562-24.964844-49.746094-74.351563-85.210938-132.324219-90.546875-1.484375-.339844-3.015625-.457031-4.527344-.347657-3.542969-.230468-7.113281-.363281-10.707031-.363281-.222656 0-.429688 0-.652344.011719-32.011718.121094-61.886718 9.398438-87.152344 25.355469-25.445312 16.054687-46.214843 38.875-59.765624 65.902343-.402344.667969-.75 1.359376-1.042969 2.082032-10.488281 21.679687-16.382813 45.984375-16.382813 71.636718 0 .089844.007813.171876.007813.25 0 .019532-.007813.039063-.007813.070313s.007813.058594.007813.101563c.058593 25.53125 5.957031 49.714843 16.417969 71.296874.257812.640626.570312 1.261719.917968 1.863282 27.007813 53.960937 82.710938 91.164062 147 91.40625.222656.007812.429688.007812.652344.007812 4.433594 0 8.828125-.1875 13.171875-.53125.078125-.007812.148437-.007812.230469-.019531 58.835937-4.753906 109.03125-40.507813 134.238281-90.863281.347656-.601563.660156-1.222656.929687-1.875 10.449219-21.570313 16.34375-45.761719 16.40625-71.285156 0-.042969.007813-.070313.007813-.101563s-.007813-.050781-.007813-.070313c0-.078124.007813-.160156.007813-.25zm-213.902344-125.777343c-7.96875 12.210937-16.476562 27.3125-23.601562 44.710937h-35.3125c14.992187-19.890625 35.351562-35.515625 58.914062-44.710937zm-76.011719 74.738281h42.371094c-2.972656 11.492188-5.125 23.644531-6.066406 36.34375h-45.535156c1.382812-12.730469 4.546875-24.921875 9.230468-36.34375zm-.011718 102.058594c-4.601563-11.222656-7.726563-23.203125-9.148438-35.683594h45.554688c1.011718 12.449219 3.164062 24.390625 6.105468 35.683594zm17.085937 30.027344h35.503907c7.160156 17.4375 15.667968 32.582031 23.625 44.8125-23.652344-9.1875-44.09375-24.851563-59.128907-44.8125zm92.839844 40.679687c-7.328125-9.96875-16.40625-23.875-24.421875-40.679687h24.421875zm0-70.707031h-36.175781c-3.421875-11.203125-5.984375-23.164063-7.195313-35.683594h43.371094zm0-65.714844h-43.480469c1.140625-12.761719 3.734375-24.941406 7.207032-36.34375h36.273437zm0-66.371094h-24.523437c8.046874-16.828125 17.167968-30.738281 24.523437-40.699218zm122.835937 0h-35.203124c-7.066407-17.328125-15.496094-32.390625-23.410157-44.59375 23.429688 9.199219 43.679688 24.785156 58.613281 44.59375zm-92.808593-41.148437c7.410156 10.027343 16.628906 24.09375 24.726562 41.148437h-24.726562zm0 71.175781h36.375c3.433593 11.390625 5.996093 23.574219 7.117187 36.34375h-43.492187zm0 66.375h43.351562c-1.21875 12.5-3.792969 24.472656-7.226562 35.683594h-36.125zm0 106.5v-40.789062h24.382812c-8.007812 16.828124-17.074219 30.78125-24.382812 40.789062zm33.84375 3.972656c7.917969-12.230468 16.386719-27.363281 23.511719-44.761718h35.472656c-15.003906 19.917968-35.390625 35.5625-58.984375 44.761718zm76.070312-74.789062h-42.507812c2.941406-11.300782 5.09375-23.234375 6.105469-35.683594h45.550781c-1.410157 12.480469-4.542969 24.460938-9.148438 35.683594zm-36.304687-65.714844c-.929688-12.699219-3.070313-24.851562-6.023438-36.34375h42.320313c4.683593 11.421875 7.847656 23.613281 9.226562 36.34375zm0 0" fill="#fff"/><path d="m421.609375 248.820312c0-25.644531-5.882813-49.945312-16.382813-71.628906-.292968-.730468-.640624-1.429687-1.042968-2.101562-24.964844-49.746094-74.351563-85.210938-132.324219-90.546875-1.484375-.339844-3.015625-.457031-4.527344-.347657-3.542969-.230468-7.113281-.363281-10.707031-.363281-.222656 0-.429688 0-.652344.011719v329.964844c.222656.007812.429688.007812.652344.007812 4.433594 0 8.828125-.1875 13.171875-.53125.078125-.007812.148437-.007812.230469-.019531 58.835937-4.753906 109.03125-40.507813 134.238281-90.863281.347656-.601563.660156-1.222656.929687-1.875 10.449219-21.570313 16.34375-45.761719 16.40625-71.285156 0-.042969.007813-.070313.007813-.101563s-.007813-.050781-.007813-.070313c0-.078124.007813-.160156.007813-.25zm-57.164063-81.066406h-35.203124c-7.066407-17.328125-15.496094-32.390625-23.410157-44.59375 23.429688 9.199219 43.679688 24.785156 58.613281 44.59375zm-92.808593-41.148437c7.410156 10.027343 16.628906 24.09375 24.726562 41.148437h-24.726562zm0 71.175781h36.375c3.433593 11.390625 5.996093 23.574219 7.117187 36.34375h-43.492187zm0 66.375h43.351562c-1.21875 12.5-3.792969 24.472656-7.226562 35.683594h-36.125zm0 106.5v-40.789062h24.382812c-8.007812 16.828124-17.074219 30.78125-24.382812 40.789062zm33.84375 3.972656c7.917969-12.230468 16.386719-27.363281 23.511719-44.761718h35.472656c-15.003906 19.917968-35.390625 35.5625-58.984375 44.761718zm76.070312-74.789062h-42.507812c2.941406-11.300782 5.09375-23.234375 6.105469-35.683594h45.550781c-1.410157 12.480469-4.542969 24.460938-9.148438 35.683594zm-36.304687-65.714844c-.929688-12.699219-3.070313-24.851562-6.023438-36.34375h42.320313c4.683593 11.421875 7.847656 23.613281 9.226562 36.34375zm0 0" fill="#96fff6"/></svg>