<svg viewBox="-68 0 512 512.00001" xmlns="http://www.w3.org/2000/svg"><g fill="#51faff"><path d="m223.890625 136.003906-21.957031 21.902344-64 63.871094c-2.929688 2.921875-6.769532 4.382812-10.601563 4.382812-3.839843 0-7.691406-1.46875-10.621093-4.402344-5.851563-5.871093-5.839844-15.363281.019531-21.222656l85.203125-85.015625.761718-.757812c5.871094-5.851563 15.363282-5.84375 21.222657.019531 5.851562 5.871094 5.84375 15.371094-.027344 21.222656zm0 0"/><path d="m220.929688 395.320312c-2.941407 3-6.832032 4.511719-10.722657 4.511719-2.890625 0-5.769531-.832031-8.273437-2.492187-.777344-.511719-1.527344-1.109375-2.21875-1.789063l-82.785156-80.964843c-5.921876-5.792969-6.019532-15.285157-.230469-21.214844 5.792969-5.921875 15.292969-6.03125 21.214843-.230469l64.019532 62.613281 18.753906 18.34375c5.933594 5.800782 6.03125 15.289063.242188 21.222656zm0 0"/><path d="m321.027344 257.785156c0 8.28125-6.710938 15.003906-15.003906 15.003906h-160.949219c-8.289063 0-15-6.722656-15-15.003906 0-8.292968 6.710937-15.003906 15-15.003906h160.949219c8.292968 0 15.003906 6.710938 15.003906 15.003906zm0 0"/></g><path d="m306.023438 272.789062h-104.089844v-30.007812h104.089844c8.292968 0 15.003906 6.710938 15.003906 15.003906 0 8.28125-6.710938 15.003906-15.003906 15.003906zm0 0" fill="#00e7f0"/><path d="m220.6875 374.097656c5.933594 5.800782 6.03125 15.289063.242188 21.222656-2.941407 3-6.832032 4.511719-10.722657 4.511719-2.890625 0-5.769531-.832031-8.273437-2.492187v-41.585938zm0 0" fill="#00e7f0"/><path d="m223.890625 136.003906-21.957031 21.902344v-42.386719l.761718-.757812c5.871094-5.851563 15.363282-5.84375 21.222657.019531 5.851562 5.871094 5.84375 15.371094-.027344 21.222656zm0 0" fill="#00e7f0"/><path d="m160.078125 257.785156c0 44.128906-35.894531 80.023438-80.035156 80.035156h-.007813c-44.128906 0-80.035156-35.90625-80.035156-80.035156 0-44.136718 35.90625-80.042968 80.035156-80.042968h.007813c44.140625.007812 80.035156 35.90625 80.035156 80.042968zm0 0" fill="#6aa9ff"/><path d="m340.988281 80.042969c0 44.140625-35.90625 80.046875-80.042969 80.046875-23.332031 0-44.367187-10.035156-59.011718-26.027344-13.058594-14.242188-21.03125-33.226562-21.03125-54.019531s7.972656-39.777344 21.03125-54.019531c14.644531-15.992188 35.679687-26.023438 59.011718-26.023438 44.136719 0 80.042969 35.90625 80.042969 80.042969zm0 0" fill="#ff5e95"/><path d="m341.519531 431.957031c0 44.136719-35.90625 80.042969-80.042969 80.042969-.179687 0-.351562 0-.53125-.011719-20.753906-.128906-39.675781-8.210937-53.828124-21.351562-15.785157-14.621094-25.675782-35.515625-25.675782-58.679688 0-23.164062 9.890625-44.058593 25.675782-58.671875 14.152343-13.152344 33.074218-21.222656 53.828124-21.351562.179688-.011719.351563-.011719.53125-.011719 44.136719 0 80.042969 35.90625 80.042969 80.035156zm0 0" fill="#ff5e95"/><path d="m363.613281 287.851562c-8.03125 8.03125-18.703125 12.453126-30.066406 12.453126-11.359375 0-22.03125-4.421876-30.0625-12.453126-16.582031-16.582031-16.582031-43.558593 0-60.140624 8.03125-8.03125 18.703125-12.453126 30.0625-12.453126 11.363281 0 22.035156 4.421876 30.066406 12.453126 16.582031 16.582031 16.582031 43.558593 0 60.140624zm0 0" fill="#ff5e95"/><path d="m160.078125 257.785156c0 44.128906-35.90625 80.035156-80.042969 80.035156v-160.078124c44.136719 0 80.042969 35.90625 80.042969 80.042968zm0 0" fill="#6aa9ff"/><path d="m260.945312 160.089844v-160.089844c44.136719 0 80.042969 35.90625 80.042969 80.042969 0 44.140625-35.90625 80.046875-80.042969 80.046875zm0 0" fill="#ff3980"/><path d="m341.519531 431.957031c0 44.136719-35.90625 80.042969-80.042969 80.042969-.179687 0-.351562 0-.53125-.011719v-160.054687c.179688-.011719.351563-.011719.53125-.011719 44.136719 0 80.042969 35.90625 80.042969 80.035156zm0 0" fill="#ff3980"/><path d="m363.613281 287.851562c-8.03125 8.03125-18.703125 12.453126-30.066406 12.453126v-85.046876c11.363281 0 22.035156 4.421876 30.066406 12.453126 16.582031 16.582031 16.582031 43.558593 0 60.140624zm0 0" fill="#ff3980"/><path d="m160.078125 257.785156c0 44.128906-35.894531 80.023438-80.035156 80.035156v-160.078124c44.140625.007812 80.035156 35.90625 80.035156 80.042968zm0 0" fill="#2682ff"/></svg>