<svg viewBox="0 0 512 512.00039" xmlns="http://www.w3.org/2000/svg"><path d="m511.945312 245.636719v.679687c-1.53125 66.984375-29.015624 129.40625-77.382812 175.757813-47.144531 45.171875-108.691406 69.878906-173.804688 69.886719-1.640624 0-3.273437-.019532-4.914062-.050782h-.371094c-29.757812 0-59.035156-4.972656-87.082031-14.792968l-49.738281 31.070312c-4.023438 2.511719-8.597656 3.8125-13.242188 3.8125-1.710937 0-3.441406-.179688-5.144531-.539062-11.5625-2.402344-19.949219-12.863282-19.949219-24.875v-61.886719c-50.738281-45.484375-79.964844-110.375-80.316406-178.640625v-.421875c1.53125-66.984375 29.019531-129.402344 77.382812-175.757813 48.238282-46.222656 111.535157-71.015625 178.320313-69.8359372h.269531c66.882813-1.2382808 130.285156 23.5546872 178.589844 69.8359372 48.367188 46.355469 75.851562 108.773438 77.382812 175.757813zm0 0" fill="#ffb64c"/><path d="m511.945312 245.636719v.679687c-1.53125 66.984375-29.015624 129.40625-77.382812 175.757813-47.144531 45.171875-108.691406 69.878906-173.804688 69.886719-1.640624 0-3.273437-.019532-4.914062-.050782h-.140625v-491.8671872h.269531c66.882813-1.2382808 130.285156 23.5546872 178.589844 69.8359372 48.367188 46.355469 75.851562 108.773438 77.382812 175.757813zm0 0" fill="#ff9f00"/><path d="m320.925781 342.179688v26.09375c0 15.203124-12.371093 27.578124-27.578125 27.578124h-74.398437c-15.207031 0-27.578125-12.375-27.578125-27.578124v-26.09375c0-13.542969 9.820312-24.84375 22.710937-27.144532v-51.03125c-12.890625-2.3125-22.710937-13.601562-22.710937-27.144531v-26.09375c0-15.207031 12.371094-27.578125 27.578125-27.578125h50.726562c15.203125 0 27.578125 12.371094 27.578125 27.578125v103.636719c13.359375 1.933594 23.671875 13.652344 23.671875 27.777344zm0 0" fill="#fff"/><path d="m297.484375 130.578125c0 23.433594-18.578125 42.609375-41.78125 43.589844-.621094.03125-1.242187.042969-1.863281.042969-24.050782 0-43.628906-19.578126-43.628906-43.632813 0-24.0625 19.578124-43.640625 43.628906-43.640625.621094 0 1.242187.007812 1.863281.039062 23.203125.980469 41.78125 20.160157 41.78125 43.601563zm0 0" fill="#fff"/><g fill="#96fff6"><path d="m255.703125 174.167969v-87.191407c23.203125.980469 41.78125 20.160157 41.78125 43.601563 0 23.433594-18.578125 42.613281-41.78125 43.589844zm0 0"/><path d="m320.925781 342.179688v26.09375c0 15.203124-12.371093 27.578124-27.578125 27.578124h-37.644531v-212.664062h13.972656c15.203125 0 27.578125 12.371094 27.578125 27.578125v103.636719c13.359375 1.933594 23.671875 13.652344 23.671875 27.777344zm0 0"/></g></svg>