<svg viewBox="0 0 512 512" xmlns="http://www.w3.org/2000/svg"><path d="m512 138.597656v234.804688c0 76.421875-62.175781 138.597656-138.597656 138.597656h-234.804688c-76.421875 0-138.597656-62.175781-138.597656-138.597656v-234.804688c0-76.421875 62.175781-138.597656 138.597656-138.597656h234.804688c76.421875 0 138.597656 62.175781 138.597656 138.597656zm0 0" fill="#6aa9ff"/><path d="m512 138.597656v234.804688c0 76.421875-62.175781 138.597656-138.597656 138.597656h-117.222656v-512h117.222656c76.421875 0 138.597656 62.175781 138.597656 138.597656zm0 0" fill="#2682ff"/><path d="m107.957031 351.566406v-188.601562c0-3.671875 1.644531-6.574219 4.933594-8.703125 3.285156-2.128907 7.152344-3.191407 11.605469-3.191407h56c38.882812 0 58.324218 17.023438 58.324218 51.066407 0 23.601562-8.226562 38.980469-24.664062 46.136719 9.867188 3.871093 17.308594 9.332031 22.34375 16.390624 5.027344 7.066407 7.542969 17.363282 7.542969 30.902344v6.09375c0 21.472656-5.222657 37.097656-15.667969 46.863282-10.445312 9.769531-24.570312 14.652343-42.363281 14.652343h-61.515625c-4.835938 0-8.804688-1.160156-11.894532-3.480469-3.097656-2.324218-4.644531-5.03125-4.644531-8.128906zm37.429688-118.09375h32.5c7.542969 0 13.296875-2.222656 17.265625-6.671875 3.960937-4.449219 5.945312-10.542969 5.945312-18.28125 0-7.542969-2.078125-13.492187-6.238281-17.84375-4.160156-4.355469-9.914063-6.527343-17.261719-6.527343h-32.210937zm0 96.625h32.789062c18.761719 0 28.144531-10.542968 28.144531-31.628906v-4.640625c0-10.832031-2.371093-18.667969-7.105468-23.503906-4.746094-4.832031-11.753906-7.253907-21.039063-7.253907h-32.789062zm0 0" fill="#fff"/><g fill="#96fff6"><path d="m280.3125 306.304688v-24.664063c0-15.859375 6.1875-29.496094 18.570312-40.914063 12.375-11.410156 27.367188-17.117187 44.972657-17.117187 16.441406 0 30.511719 5.199219 42.21875 15.59375 11.703125 10.398437 17.554687 23.464844 17.554687 39.207031 0 5.746094-.726562 10.484375-2.175781 14.222656-1.453125 3.734376-3.675781 6.367188-6.675781 7.898438s-5.757813 2.496094-8.269532 2.875c-2.515624.386719-5.800781.574219-9.863281.574219h-58.902343v4.355469c0 8.316406 3.089843 15.042968 9.285156 20.164062 6.1875 5.128906 14.40625 7.691406 24.664062 7.691406 7.347656 0 14.601563-1.835937 21.761719-5.515625 7.152344-3.671875 11.796875-5.511719 13.925781-5.511719 4.0625 0 7.445313 1.886719 10.15625 5.65625 2.707032 3.773438 4.0625 7.402344 4.0625 10.882813 0 5.417969-4.886718 10.785156-14.652344 16.105469-9.769531 5.320312-21.90625 7.976562-36.414062 7.976562-20.703125 0-37.578125-5.460937-50.632812-16.394531-13.058594-10.925781-19.585938-25.289063-19.585938-43.085937zm37.429688-24.375h42.363281c3.089843 0 5.269531-.496094 6.527343-1.492188 1.257813-.992188 1.886719-2.933594 1.886719-5.824219 0-6.320312-2.464843-11.472656-7.398437-15.449219-4.933594-3.96875-10.980469-5.960937-18.136719-5.960937-6.773437 0-12.671875 1.945313-17.699219 5.828125-5.03125 3.882812-7.542968 8.988281-7.542968 15.308594zm0 0"/><path d="m389.394531 207.878906h-93.871093c-8.289063 0-15.007813-6.71875-15.007813-15.007812 0-8.289063 6.71875-15.007813 15.007813-15.007813h93.871093c8.289063 0 15.007813 6.71875 15.007813 15.007813 0 8.289062-6.71875 15.007812-15.007813 15.007812zm0 0"/></g></svg>