<svg viewBox="0 -45 512.00002 512" xmlns="http://www.w3.org/2000/svg"><path d="m255.980469 0c-39.191407 0-71.074219 31.882812-71.074219 71.074219v50.304687h142.140625v-50.304687c0-39.191407-31.886719-71.074219-71.066406-71.074219zm41.03125 91.347656h-82.074219v-20.273437c0-22.632813 18.410156-41.042969 41.042969-41.042969 22.625 0 41.03125 18.410156 41.03125 41.042969zm0 0" fill="#ffb64c"/><path d="m327.046875 71.074219v50.304687h-71.066406v-30.03125h41.03125v-20.273437c0-22.632813-18.40625-41.042969-41.03125-41.042969v-30.03125c39.179687 0 71.066406 31.882812 71.066406 71.074219zm0 0" fill="#ff9f00"/><path d="m512 108.816406v296.472656c0 9.628907-7.839844 17.46875-17.46875 17.46875h-477.0625c-9.628906 0-17.46875-7.839843-17.46875-17.46875v-296.472656c0-9.632812 7.839844-17.46875 17.46875-17.46875h477.0625c9.628906 0 17.46875 7.835938 17.46875 17.46875zm0 0" fill="#6aa9ff"/><path d="m512 108.816406v296.472656c0 9.628907-7.839844 17.46875-17.46875 17.46875h-238.550781v-331.410156h238.550781c9.628906 0 17.46875 7.835938 17.46875 17.46875zm0 0" fill="#2682ff"/><path d="m67.921875 91.347656h96.410156v331.410156h-96.410156zm0 0" fill="#ff9468"/><path d="m347.625 91.347656h96.414062v331.410156h-96.414062zm0 0" fill="#ff712f"/></svg>