<svg viewBox="0 0 512.002 512" xmlns="http://www.w3.org/2000/svg"><path d="m83.042969 401.894531c14.492187 0 27.035156-5.199219 37.285156-15.449219s15.449219-22.796874 15.449219-37.285156c0-14.488281-5.199219-27.035156-15.449219-37.289062-10.253906-10.246094-22.796875-15.441406-37.285156-15.441406-14.492188 0-27.035157 5.195312-37.285157 15.445312s-15.449218 22.792969-15.449218 37.285156c0 14.492188 5.199218 27.035156 15.453125 37.285156 10.25 10.25 22.792969 15.449219 37.28125 15.449219zm0 0" fill="#51faff"/><path d="m166.375 447.742188c-.796875-4.453126-1.835938-8.6875-3.082031-12.582032-1.359375-4.246094-3.199219-8.421875-5.46875-12.417968-2.480469-4.363282-5.429688-8.191407-8.769531-11.390626-3.6875-3.527343-8.140626-6.339843-13.246094-8.363281-5.0625-2.003906-10.605469-3.019531-16.480469-3.019531-4.929687 0-8.789063 2.246094-12.328125 4.550781-2.121094 1.386719-4.523438 2.933594-7.1875 4.636719-1.121094.714844-3.269531 1.828125-7.152344 3.082031-5.761718 1.867188-11.222656 1.867188-16.992187 0-3.878907-1.253906-6.03125-2.367187-7.144531-3.078125-2.671876-1.707031-5.070313-3.253906-7.207032-4.648437-3.53125-2.296875-7.390625-4.542969-12.316406-4.542969-5.875 0-11.421875 1.019531-16.480469 3.023438-5.101562 2.019531-9.558593 4.832031-13.257812 8.367187-3.332031 3.195313-6.277344 7.023437-8.753907 11.382813-2.269531 3.992187-4.109374 8.171874-5.46875 12.417968-1.246093 3.890625-2.28125 8.125-3.082031 12.578125-.78125 4.347657-1.3125 8.492188-1.578125 12.324219-.25 3.636719-.378906 7.40625-.378906 11.207031 0 15.058594 6.433594 24.347657 11.835938 29.488281 7.640624 7.277344 17.535156 10.964844 29.402343 10.964844h85.855469c11.867188 0 21.761719-3.691406 29.40625-10.964844 5.398438-5.136718 11.835938-14.421874 11.835938-29.492187 0-3.816406-.132813-7.585937-.382813-11.207031-.269531-3.820313-.796875-7.960938-1.578125-12.316406zm0 0" fill="#51faff"/><path d="m373.976562 349.160156c0 14.492188 5.195313 27.035156 15.449219 37.285156 10.253907 10.25 22.796875 15.449219 37.285157 15.449219 14.488281 0 27.035156-5.199219 37.285156-15.449219s15.445312-22.796874 15.445312-37.285156c0-14.488281-5.195312-27.035156-15.449218-37.289062-10.25-10.246094-22.792969-15.441406-37.285157-15.441406-14.488281 0-27.035156 5.195312-37.28125 15.445312-10.253906 10.25-15.449219 22.796875-15.449219 37.285156zm0 0" fill="#00e7f0"/><path d="m511.617188 460.058594c-.265626-3.816406-.792969-7.960938-1.574219-12.316406-.800781-4.453126-1.835938-8.6875-3.085938-12.582032-1.355469-4.246094-3.195312-8.421875-5.46875-12.417968-2.476562-4.363282-5.425781-8.191407-8.765625-11.390626-3.6875-3.527343-8.144531-6.339843-13.25-8.363281-5.0625-2.003906-10.605468-3.019531-16.476562-3.019531-4.929688 0-8.789063 2.246094-12.328125 4.550781-2.125 1.386719-4.523438 2.933594-7.1875 4.636719-1.121094.714844-3.273438 1.828125-7.152344 3.082031-5.765625 1.867188-11.222656 1.867188-16.996094 0-3.878906-1.253906-6.027343-2.367187-7.140625-3.078125-2.671875-1.707031-5.070312-3.253906-7.207031-4.644531-3.53125-2.300781-7.390625-4.546875-12.316406-4.546875-5.878907 0-11.421875 1.019531-16.480469 3.023438-5.101562 2.019531-9.558594 4.832031-13.257812 8.367187-3.335938 3.195313-6.28125 7.023437-8.757813 11.382813-2.269531 3.992187-4.109375 8.171874-5.46875 12.417968-1.242187 3.890625-2.28125 8.125-3.078125 12.578125-.78125 4.347657-1.3125 8.492188-1.578125 12.324219-.25 3.636719-.378906 7.40625-.378906 11.207031 0 15.058594 6.433593 24.347657 11.835937 29.488281 7.640625 7.277344 17.535156 10.964844 29.402344 10.964844h85.855469c11.867187 0 21.761719-3.691406 29.40625-10.964844 5.398437-5.136718 11.835937-14.421874 11.835937-29.492187-.003906-3.816406-.132812-7.585937-.386718-11.207031zm0 0" fill="#00e7f0"/><path d="m307.609375 52.726562c0 14.492188-5.195313 27.03125-15.445313 37.289063-10.257812 10.25-22.796874 15.445313-37.289062 15.445313-14.484375 0-27.035156-5.195313-37.28125-15.445313-10.25-10.246094-15.453125-22.796875-15.453125-37.289063 0-14.484374 5.203125-27.035156 15.453125-37.28125 10.246094-10.25 22.789062-15.445312 37.28125-15.445312s27.03125 5.195312 37.28125 15.445312c10.257812 10.246094 15.453125 22.796876 15.453125 37.28125zm0 0" fill="#51faff"/><path d="m340.164062 174.828125c0 15.074219-6.433593 24.363281-11.828124 29.496094-7.644532 7.277343-17.542969 10.96875-29.414063 10.96875h-85.84375c-11.871094 0-21.769531-3.691407-29.414063-10.96875-5.394531-5.144531-11.832031-14.433594-11.832031-29.484375 0-3.804688.132813-7.578125.382813-11.210938.257812-3.832031.789062-7.976562 1.570312-12.320312.800782-4.453125 1.839844-8.6875 3.082032-12.578125 1.359374-4.253907 3.203124-8.429688 5.476562-12.421875 2.46875-4.355469 5.421875-8.1875 8.753906-11.378906 3.695313-3.535157 8.148438-6.355469 13.253906-8.367188 5.0625-2.011719 10.609376-3.023438 16.484376-3.023438 4.921874 0 8.785156 2.242188 12.320312 4.542969 2.128906 1.390625 4.523438 2.933594 7.203125 4.644531 1.113281.710938 3.265625 1.832032 7.136719 3.082032 2.492187.800781 4.933594 1.273437 7.378906 1.371094 3.179688.140624 6.355469-.308594 9.617188-1.371094 3.882812-1.25 6.035156-2.371094 7.15625-3.082032 2.660156-1.710937 5.0625-3.253906 7.183593-4.632812 3.535157-2.3125 7.398438-4.554688 12.332031-4.554688 5.867188 0 11.410157 1.011719 16.472657 3.011719 5.105469 2.03125 9.570312 4.84375 13.253906 8.367188 3.34375 3.203125 6.285156 7.027343 8.765625 11.390625 2.273438 3.992187 4.113281 8.175781 5.464844 12.421875 1.25 3.890625 2.292968 8.125 3.082031 12.578125.78125 4.355468 1.3125 8.5 1.582031 12.3125.25 3.621094.378906 7.394531.378906 11.207031zm0 0" fill="#51faff"/><path d="m316.835938 461.773438c0 8.285156-6.714844 15.011718-15.011719 15.011718h-93.902344c-8.285156 0-15.011719-6.726562-15.011719-15.011718 0-8.296876 6.726563-15.011719 15.011719-15.011719h93.902344c8.296875 0 15.011719 6.714843 15.011719 15.011719zm0 0" fill="#6aa9ff"/><path d="m164.015625 225.976562c-6.738281-4.832031-16.117187-3.28125-20.945313 3.457032l-25.738281 35.914062c-4.828125 6.742188-3.277343 16.117188 3.460938 20.949219 2.648437 1.898437 5.703125 2.8125 8.730469 2.8125 4.675781 0 9.285156-2.179687 12.21875-6.269531l25.734374-35.917969c4.828126-6.738281 3.28125-16.117187-3.460937-20.945313zm0 0" fill="#6aa9ff"/><path d="m380.230469 289.105469c3.023437 0 6.082031-.910157 8.730469-2.808594 6.742187-4.832031 8.289062-14.207031 3.460937-20.949219l-25.738281-35.914062c-4.832032-6.742188-14.210938-8.289063-20.949219-3.460938-6.738281 4.832032-8.285156 14.207032-3.457031 20.949219l25.734375 35.914063c2.933593 4.09375 7.539062 6.269531 12.21875 6.269531zm0 0" fill="#2682ff"/><path d="m292.164062 90.015625c-10.257812 10.25-22.796874 15.445313-37.289062 15.445313v-105.460938c14.492188 0 27.03125 5.195312 37.28125 15.445312 10.257812 10.246094 15.453125 22.796876 15.453125 37.28125 0 14.492188-5.195313 27.03125-15.445313 37.289063zm0 0" fill="#00e7f0"/><path d="m316.835938 461.773438c0 8.285156-6.714844 15.011718-15.011719 15.011718h-46.949219v-30.023437h46.949219c8.296875 0 15.011719 6.714843 15.011719 15.011719zm0 0" fill="#2682ff"/><path d="m340.164062 174.828125c0 15.074219-6.433593 24.363281-11.828124 29.496094-7.644532 7.277343-17.542969 10.96875-29.414063 10.96875h-44.046875v-98.113281c3.179688.140624 6.355469-.308594 9.617188-1.371094 3.882812-1.25 6.035156-2.371094 7.15625-3.082032 2.660156-1.710937 5.0625-3.253906 7.183593-4.632812 3.535157-2.3125 7.398438-4.554688 12.332031-4.554688 5.867188 0 11.410157 1.011719 16.472657 3.011719 5.105469 2.03125 9.570312 4.84375 13.253906 8.367188 3.34375 3.203125 6.285156 7.027343 8.765625 11.390625 2.273438 3.992187 4.113281 8.175781 5.464844 12.421875 1.25 3.890625 2.292968 8.125 3.082031 12.578125.78125 4.355468 1.3125 8.5 1.582031 12.3125.25 3.621094.378906 7.394531.378906 11.207031zm0 0" fill="#00e7f0"/></svg>