<svg viewBox="0 0 512 512.00002" xmlns="http://www.w3.org/2000/svg"><path d="m59.46875 159.441406c-32.789062 0-59.46875 26.675782-59.46875 59.46875 0 32.789063 26.679688 59.46875 59.46875 59.46875h108.578125v-118.9375zm0 0" fill="#ff5b5b"/><path d="m246.375 310.34375c0 50.808594-13.191406 99.136719-37.148438 136.066406-27.425781 42.296875-65.671874 65.589844-107.699218 65.589844-18.121094 0-33.476563-12.121094-38.375-28.683594-.210938-.703125-.390625-1.402344-.550782-2.121094-.710937-2.953124-1.082031-6.03125-1.082031-9.203124 0-22.0625 17.953125-40.007813 40.007813-40.007813 8.101562 0 24.144531-3.78125 40.566406-29.105469 15.644531-24.132812 24.265625-56.988281 24.265625-92.535156zm0 0" fill="#ff9468"/><path d="m246.375 310.34375c0 50.808594-13.191406 99.136719-37.148438 136.066406-27.425781 42.296875-65.671874 65.589844-107.699218 65.589844-18.121094 0-33.476563-12.121094-38.375-28.683594-.210938-.703125-.390625-1.402344-.550782-2.121094l11.140626-.269531c17.34375-.429687 34.445312-4.210937 50.320312-11.222656.109375-.050781.21875-.089844.328125-.140625 19.984375-8.832031 37.207031-23.285156 49.390625-41.90625.199219-.3125.410156-.621094.609375-.929688 16.003906-24.695312 29.335937-52.082031 32.117187-116.382812zm0 0" fill="#ff712f"/><path d="m433.179688 52.6875-.011719 341.582031c0 6.308594-3.980469 12.03125-9.890625 14.25-1.722656.640625-3.511719.953125-5.292969.953125-4.328125 0-8.582031-1.839844-11.519531-5.222656-22.835938-26.324219-49-44.867188-80.007813-56.710938-17.332031-6.609374-36.726562-11.359374-58.550781-14.300781-18-2.441406-37.65625-3.632812-59.179688-3.632812-58.007812 0-105.597656-47.195313-106.089843-105.21875-.238281-27.863281 10.632812-54.328125 30.617187-74.53125 20.3125-20.554688 48.449219-32.386719 77.195313-32.476563 20.78125-.058594 39.855469-1.238281 57.457031-3.640625 60.472656-8.210937 103.539062-30.707031 138.566406-71.023437l.011719-.007813c4.140625-4.773437 10.890625-6.484375 16.8125-4.273437 5.910156 2.210937 9.882813 7.941406 9.882813 14.253906zm0 0" fill="#ffb64c"/><path d="m433.179688 52.6875-.011719 341.582031c0 6.308594-3.980469 12.03125-9.890625 14.25-1.722656.640625-3.511719.953125-5.292969.953125-4.328125 0-8.582031-1.839844-11.519531-5.222656-22.835938-26.324219-49-44.867188-80.007813-56.710938-17.332031-6.609374-36.726562-11.359374-58.550781-14.300781v-219.5c60.472656-8.210937 103.539062-30.707031 138.566406-71.023437l.011719-.007813c4.140625-4.773437 10.890625-6.484375 16.8125-4.273437 5.910156 2.210937 9.882813 7.941406 9.882813 14.253906zm0 0" fill="#ff9f00"/><path d="m486.613281 0h-58.503906c-13.75 0-24.941406 11.1875-24.941406 24.941406v387.933594c0 13.753906 11.191406 24.941406 24.941406 24.941406h58.503906c13.75 0 24.941407-11.1875 24.941407-24.941406v-387.933594c0-13.753906-11.191407-24.941406-24.941407-24.941406zm0 0" fill="#ff3636"/></svg>