<?xml version="1.0" encoding="iso-8859-1"?>
<!-- Generator: Adobe Illustrator 19.0.0, SVG Export Plug-In . SVG Version: 6.00 Build 0)  -->
<svg version="1.1" id="Layer_1" xmlns="http://www.w3.org/2000/svg" xmlns:xlink="http://www.w3.org/1999/xlink" x="0px" y="0px"
	 viewBox="0 0 512 512" style="enable-background:new 0 0 512 512;" xml:space="preserve">
<circle style="fill:#73CA53;" cx="256" cy="256" r="256"/>
<path style="fill:#5CA83B;" d="M346.241,199.778c-1.924,0.134-3.848-0.026-5.77-0.667c-46.545-24.135-110.33-32.754-144.808,8.62
	c-35.873,42.396-30.101,100.212-22.078,153.031L317.393,504.57c81.465-20.054,147.58-79.096,177.424-156.215L346.241,199.778z"/>
<g>
	<path style="fill:#FFFFFF;" d="M374.493,247.286c-8.487-28.994-29.324-53.653-55.374-68.591
		c-29.758-17.118-67.105-18.86-99.075-7.021c-16.172,6.468-30.78,16.586-42.784,29.187c-0.207-25.934-0.017-51.883-0.112-77.829
		c0.038-5.044-3.055-10.064-7.801-11.947c-5.482-2.208-11.888-2.158-17.324,0.16c-4.582,1.981-7.433,6.861-7.516,11.769
		c-0.248,26.36,0.367,52.724,0.207,79.081c-0.16,28.548,0.367,57.075,0.234,85.626c0.657,16.098,4.28,32.151,10.997,46.821
		c11.892,25.386,33.092,46.309,58.677,57.765c21.547,9.171,45.79,12.886,68.898,8.182c28.291-4.946,54.248-20.978,71.695-43.725
		c16.474-21.135,24.614-48.026,24.904-74.655C379.735,270.336,377.908,258.579,374.493,247.286z M346.548,296.122
		c-2.679,18.806-11.876,36.6-25.647,49.695c-12.054,12.086-28.036,20.085-44.897,22.707c-19.442,3.22-40.015-0.693-56.901-10.885
		c-8.907-5.465-16.746-12.607-23.371-20.677c-23.368-28.782-24.771-73.24-3.105-103.334c6.98-9.25,15.186-17.761,25.129-23.847
		c10.505-6.616,22.566-10.6,34.883-12.033c20.552-2.403,42.12,2.729,58.92,14.958c12.578,9.437,23.03,21.985,29.212,36.505
		C346.796,263.945,349.194,280.359,346.548,296.122z"/>
	<path style="fill:#FFFFFF;" d="M214.557,257.643c-8.108,0.174-16.725,3.822-20.911,11.086c-2.744,4.884-4.417,10.645-3.5,16.263
		c1.114,6.178,3.756,12.409,8.854,16.322c6.897,5.287,16.681,6.963,24.679,3.194c8.054-3.15,12.886-11.323,14.038-19.611
		c0.883-6.196-0.991-12.648-4.532-17.737C229.05,261.139,221.694,257.974,214.557,257.643z"/>
</g>
<path style="fill:#D1D1D1;" d="M374.493,247.286c-8.487-28.994-29.324-53.653-55.374-68.591
	c-18.894-10.869-40.848-15.517-62.543-14.446v33.135c19.344-1.353,39.255,3.872,54.986,15.326
	c12.578,9.437,23.03,21.985,29.212,36.505c6.022,14.733,8.421,31.144,5.775,46.907c-2.679,18.806-11.876,36.6-25.647,49.695
	c-12.054,12.086-28.036,20.085-44.897,22.707c-6.411,1.062-12.945,1.333-19.428,0.872v32.944c9.004,0.512,18.056-0.041,26.941-1.85
	c28.291-4.946,54.248-20.978,71.696-43.725c16.474-21.135,24.614-48.026,24.904-74.655
	C379.735,270.336,377.908,258.579,374.493,247.286z"/>
<g>
</g>
<g>
</g>
<g>
</g>
<g>
</g>
<g>
</g>
<g>
</g>
<g>
</g>
<g>
</g>
<g>
</g>
<g>
</g>
<g>
</g>
<g>
</g>
<g>
</g>
<g>
</g>
<g>
</g>
</svg>
