<?xml version="1.0" encoding="iso-8859-1"?>
<!-- Generator: Adobe Illustrator 19.0.0, SVG Export Plug-In . SVG Version: 6.00 Build 0)  -->
<svg version="1.1" id="Layer_1" xmlns="http://www.w3.org/2000/svg" xmlns:xlink="http://www.w3.org/1999/xlink" x="0px" y="0px"
	 viewBox="0 0 512 512" style="enable-background:new 0 0 512 512;" xml:space="preserve">
<circle style="fill:#72C94C;" cx="256" cy="256" r="256"/>
<path style="fill:#52A02E;" d="M348.45,109.468L163.552,402.532l108.925,108.925c128.255-8.149,230.831-110.726,238.982-238.982
	L348.45,109.468z"/>
<path style="fill:#FFFFFF;" d="M348.45,109.468h-59.082l-24.345,47.121c-2.941,5.692-8.813,9.268-15.219,9.268H163.55v74.84h46.689
	c5.168,0,8.502,5.473,6.13,10.066l-52.817,102.235v49.535h58.982l24.345-47.121c2.941-5.692,8.813-9.268,15.219-9.268h86.352v-74.84
	h-46.789c-5.168,0-8.502-5.473-6.13-10.066L348.45,158.81V109.468L348.45,109.468z"/>
<path style="fill:#D1D1D1;" d="M165.107,402.532h57.427l24.345-47.121c2.941-5.692,8.813-9.268,15.219-9.268h86.352v-74.84h-46.789
	c-5.168,0-8.502-5.475-6.13-10.066L348.45,158.81v-49.342h-0.288L165.107,402.532z"/>
<g>
</g>
<g>
</g>
<g>
</g>
<g>
</g>
<g>
</g>
<g>
</g>
<g>
</g>
<g>
</g>
<g>
</g>
<g>
</g>
<g>
</g>
<g>
</g>
<g>
</g>
<g>
</g>
<g>
</g>
</svg>
