<?xml version="1.0" encoding="iso-8859-1"?>
<!-- Generator: Adobe Illustrator 19.0.0, SVG Export Plug-In . SVG Version: 6.00 Build 0)  -->
<svg version="1.1" id="Layer_1" xmlns="http://www.w3.org/2000/svg" xmlns:xlink="http://www.w3.org/1999/xlink" x="0px" y="0px"
	 viewBox="0 0 512 512" style="enable-background:new 0 0 512 512;" xml:space="preserve">
<circle style="fill:#CB462D;" cx="256" cy="256" r="256"/>
<path style="fill:#AA2B1A;" d="M174.573,394.688l115.105,115.105c111.816-14.695,200.888-101.548,218.952-212.268L360.896,149.742
	c25.41,42.86-125.593-38.571-157.763-8.094c-17.239,20.687-36.202,44.247-56.889,58.039l4.17,92.163l73.406,73.331L174.573,394.688"
	/>
<path style="fill:#FFFFFF;" d="M348.036,138.686c-25.186-18.842-58.342-29.218-93.358-29.218c-34.959,0-67.775,10.616-92.403,29.891
	c-25.934,20.299-40.219,47.792-40.219,77.421c0,27.445,4.33,48.668,25.569,73.137c2.55,2.938,7.025,3.175,9.847,0.498l20.871-19.809
	c2.626-2.493,2.825-6.599,0.483-9.359c-12.895-15.186-14.417-26.26-14.417-44.468c0-35.819,40.495-64.96,90.271-64.96
	c25.933,0,50.078,7.38,67.989,20.78c16.074,12.024,24.926,27.436,24.926,43.396c0,15.301-3.391,36.264-19.546,49.24
	c-15.207,12.214-39.474,15.46-68.368,9.159v-77.705c0-3.758-3.046-6.804-6.804-6.804h-30.148c-3.758,0-6.804,3.046-6.804,6.804
	v158.484c-0.212,1.617-1.215,2.557-1.66,2.9c-1.193,0.921-2.184,0.717-2.508,0.65l-25.05-5.106c-3.682-0.75-7.275,1.626-8.025,5.308
	l-6.02,29.539c-0.75,3.682,1.626,7.275,5.308,8.025l25.05,5.106c3.082,0.629,6.192,0.938,9.288,0.938
	c10.271,0,20.375-3.401,28.698-9.828c11.08-8.554,17.875-21.49,18.642-35.492l0.033-0.598v-39.1
	c9.299,1.558,18.327,2.332,27.005,2.332c26.719,0,50.121-7.327,67.884-21.592c23.145-18.587,35.38-47.033,35.38-82.26
	C389.944,186.359,375.062,158.903,348.036,138.686z"/>
<path style="fill:#D1D1D1;" d="M348.036,138.686c-25.186-18.842-58.342-29.218-93.358-29.218c-5.563,0-11.061,0.298-16.491,0.827
	v42.627c5.351-0.714,10.857-1.105,16.491-1.105c25.933,0,50.078,7.38,67.989,20.78c16.074,12.024,24.924,27.436,24.924,43.396
	c0,15.301-3.391,36.264-19.546,49.24c-15.207,12.214-39.474,15.46-68.368,9.159v-77.705c0-3.758-3.046-6.804-6.804-6.804h-14.686
	v204.814c0.955-0.633,1.9-1.288,2.815-1.993c11.08-8.554,17.875-21.49,18.642-35.492l0.033-0.598v-39.1
	c9.299,1.558,18.325,2.332,27.005,2.332c26.719,0,50.121-7.327,67.884-21.592c23.143-18.587,35.38-47.033,35.38-82.261
	C389.944,186.359,375.062,158.903,348.036,138.686z"/>
<g>
</g>
<g>
</g>
<g>
</g>
<g>
</g>
<g>
</g>
<g>
</g>
<g>
</g>
<g>
</g>
<g>
</g>
<g>
</g>
<g>
</g>
<g>
</g>
<g>
</g>
<g>
</g>
<g>
</g>
</svg>
