<?xml version="1.0" encoding="iso-8859-1"?>
<!-- Generator: Adobe Illustrator 19.0.0, SVG Export Plug-In . SVG Version: 6.00 Build 0)  -->
<svg version="1.1" id="Layer_1" xmlns="http://www.w3.org/2000/svg" xmlns:xlink="http://www.w3.org/1999/xlink" x="0px" y="0px"
	 viewBox="0 0 512 512" style="enable-background:new 0 0 512 512;" xml:space="preserve">
<circle style="fill:#65A2D9;" cx="256" cy="256" r="256"/>
<path style="fill:#3A7CA5;" d="M346.281,165.443c-53.317-5.544-107.382-33.278-155.789,2.638
	C147.394,199.111,176.7,256,178.424,300.822c1.21,18.156-2.912,33.428-9.513,48.871l153.483,153.593
	c88.004-23.569,157.296-92.853,180.881-180.85L346.281,165.443z"/>
<g>
	<path style="fill:#FFFFFF;" d="M390.711,278.349c-4.651-6.428-6.803-14.276-6.796-22.206c0-0.047,0-0.093,0-0.14
		c0-70.647-57.27-127.917-127.914-127.917c-15.458,0-30.267,2.751-43.979,7.777c-7.416,2.72-15.544,3.241-23.149,1.1
		c-6.716-1.891-13.895-2.691-21.33-2.177c-31.229,2.15-56.37,27.743-57.99,59.006c-0.771,14.922,3.701,28.763,11.736,39.864
		c4.646,6.428,6.803,14.276,6.796,22.211v0.14c0,70.644,57.266,127.914,127.914,127.914c15.458,0,30.267-2.748,43.979-7.777
		c7.416-2.72,15.544-3.241,23.149-1.1c6.716,1.895,13.895,2.691,21.33,2.181c31.229-2.148,56.37-27.743,57.99-59.004
		C403.218,303.294,398.746,289.452,390.711,278.349L390.711,278.349z M260.684,233.067c25.791,6.135,64.765,15.405,64.765,58.337
		c0,21.147-10.416,37.283-29.327,45.428c-13.495,5.811-28.77,6.596-41.934,6.596c-40.45,0-65.993-31.451-67.065-32.79
		c-6.625-8.307-5.261-20.414,3.048-27.039c8.309-6.625,20.416-5.261,27.039,3.048c0.057,0.069,15.336,17.618,36.976,18.303
		c26.057,0.824,32.011-6.928,32.782-13.545c0.941-8.083-6.249-14.015-35.192-20.901c-24.535-5.832-61.611-14.651-61.611-54.189
		c0-12.314,5.008-52.488,69.448-52.488c40.691,0,64.712,32.035,65.715,33.399c6.292,8.563,4.455,20.604-4.108,26.898
		c-8.523,6.266-20.49,4.475-26.808-3.984c-0.453-0.581-14.202-15.879-34.799-17.834c-15.582-1.481-30.968,4.141-30.968,12.441
		C228.649,223.541,233.067,226.499,260.684,233.067L260.684,233.067z"/>
	<path style="fill:#FFFFFF;" d="M286.972,291.404c0.86-7.377-5.063-12.962-28.098-19.115v32.716
		C280.974,304.802,286.249,297.605,286.972,291.404z"/>
</g>
<path style="fill:#D1D1D1;" d="M390.711,278.349c-4.651-6.428-6.804-14.276-6.796-22.207c0-0.047,0-0.093,0-0.14
	c0-69.684-55.73-126.312-125.042-127.845v35.683c0.253-0.002,0.488-0.014,0.743-0.014c40.691,0,64.712,32.035,65.715,33.399
	c6.292,8.563,4.455,20.604-4.108,26.898c-8.523,6.266-20.49,4.475-26.808-3.984c-0.453-0.581-14.202-15.879-34.799-17.834
	c-0.248-0.024-0.495-0.029-0.743-0.05v30.377c0.596,0.143,1.191,0.288,1.81,0.434c25.791,6.135,64.765,15.403,64.765,58.337
	c0,21.147-10.416,37.283-29.327,45.428c-11.921,5.134-25.231,6.344-37.248,6.556v40.464c14.417-0.319,28.246-2.998,41.103-7.713
	c7.416-2.72,15.544-3.241,23.149-1.1c6.716,1.895,13.895,2.691,21.33,2.181c31.229-2.148,56.37-27.743,57.99-59.004
	C403.218,303.294,398.746,289.452,390.711,278.349z"/>
<path style="fill:#FFFFFF;" d="M228.649,214.747c0,8.597,4.236,11.619,30.225,17.886v-30.377
	C243.55,201.019,228.649,206.577,228.649,214.747z"/>
<g>
</g>
<g>
</g>
<g>
</g>
<g>
</g>
<g>
</g>
<g>
</g>
<g>
</g>
<g>
</g>
<g>
</g>
<g>
</g>
<g>
</g>
<g>
</g>
<g>
</g>
<g>
</g>
<g>
</g>
</svg>
