<?xml version="1.0" encoding="iso-8859-1"?>
<!-- Generator: Adobe Illustrator 19.0.0, SVG Export Plug-In . SVG Version: 6.00 Build 0)  -->
<svg version="1.1" id="Layer_1" xmlns="http://www.w3.org/2000/svg" xmlns:xlink="http://www.w3.org/1999/xlink" x="0px" y="0px"
	 viewBox="0 0 512 512" style="enable-background:new 0 0 512 512;" xml:space="preserve">
<circle style="fill:#63AD86;" cx="256" cy="256" r="256"/>
<g>
	<path style="fill:#3F8961;" d="M156.365,150.985l145.606,133.747l-67.806,85.045c0,0-88.978-126.419-99.368-205.145
		L156.365,150.985z"/>
	<path style="fill:#3F8961;" d="M346.355,126.226c-3.251,1.195-6.542,2.205-9.331,2.205c-24.135-1.724-51.717,5.172-62.061,27.582
		c-20.687,41.374-6.896,91.367,36.202,122.397c1.724,1.724-3.448,15.515-10.343,22.411c-18.963,24.135-36.202,44.822-62.061,60.337
		c-12.245,7.347-27.969,10.345-43.465,13.319l128.445,128.445c98.007-26.827,172.544-110.425,186.054-213.256L346.355,126.226z"/>
</g>
<g>
	<path style="fill:#FFFFFF;" d="M394.307,253.452c-0.634-4.451-4.687-7.596-9.157-7.101c-3.384,0.374-6.827,0.638-10.14,0.638
		c-21.806,0-52.934-1.651-72.18-14.493c-1.674-1.162-3.268-2.382-4.767-3.677c-14.441-12.419-17.58-27.72-17.665-38.369
		c-0.116-14.091,3.22-24.479,9.914-30.88c5.951-5.684,13.224-6.875,15.817-6.875c0.133,0,0.252,0.003,0.36,0.012
		c0.805,0.045,8.037,0.646,13.341,8.418c4.101,6.004,9.132,19.646,2.794,47.599c-0.679,2.991,0.976,6.008,3.851,7.077
		c9.98,3.703,22.55,5.21,32.29,5.799c2.989,0.183,5.684-1.851,6.318-4.782c2.927-13.479,4.148-25.969,3.629-37.314
		c-0.76-16.674-5.191-31.054-13.176-42.751c-10.964-16.062-28.439-26.24-46.742-27.215c-13.138-0.705-32.742,3.862-48.356,18.782
		c-10.768,10.292-23.545,29.489-23.274,62.488c0.229,27.705,11.843,52.846,32.702,70.789c6.375,5.484,14.551,11.09,24.904,15.91
		c-11.257,19.909-23.445,36.505-33.571,48.857c-9.48,11.557-18.222,20.74-24.748,27.167
		c-32.844-26.072-52.267-74.888-63.074-113.373c-10.568-37.633-14.893-72.299-16.365-86.821c-0.405-4.003-3.918-6.961-7.937-6.69
		l-14.277,0.962l21.568-1.439l-35.538,2.375c-4.208,0.283-7.351,3.982-6.939,8.176c1.522,15.591,6.075,52.869,17.646,94.342
		c8.913,31.939,20.183,59.809,33.508,82.841c17.505,30.256,38.74,52.441,63.116,65.929c3.275,1.81,6.878,2.7,10.462,2.7
		c4.908,0,9.785-1.669,13.74-4.923c0.779-0.641,19.275-15.965,41.496-42.898c12.986-15.739,24.669-32.322,34.735-49.281
		c3.15-5.31,6.144-10.664,8.978-16.05c15.179,1.91,32.806,2.129,53.21-0.186c4.653-0.529,7.94-4.82,7.28-9.454L394.307,253.452z"/>
	<polygon style="fill:#FFFFFF;" points="149.158,146.649 149.161,146.649 156.365,146.168 	"/>
	<path style="fill:#FFFFFF;" d="M134.797,147.609l14.358-0.958c-0.028,0.002-0.053-0.005-0.083-0.002L134.797,147.609z"/>
</g>
<path style="fill:#D1D1D1;" d="M398.062,279.74l-3.755-26.288c-0.634-4.451-4.687-7.596-9.157-7.101
	c-3.384,0.374-6.827,0.638-10.14,0.638c-21.806,0-52.934-1.651-72.18-14.493c-1.674-1.162-3.268-2.382-4.767-3.677
	c-14.441-12.419-17.58-27.72-17.665-38.369c-0.116-14.091,3.22-24.479,9.914-30.88c5.951-5.684,13.224-6.875,15.817-6.875
	c0.133,0,0.252,0.003,0.36,0.012c0.805,0.045,8.037,0.646,13.341,8.418c4.101,6.004,9.132,19.646,2.794,47.599
	c-0.679,2.991,0.976,6.008,3.851,7.077c9.98,3.703,22.55,5.21,32.29,5.799c2.989,0.183,5.684-1.851,6.318-4.782
	c2.927-13.479,4.148-25.969,3.629-37.314c-0.76-16.674-5.191-31.054-13.176-42.751c-10.964-16.062-28.439-26.24-46.742-27.215
	c-13.138-0.705-32.742,3.862-48.356,18.782c-10.768,10.292-23.545,29.489-23.274,62.488c0.229,27.705,11.843,52.846,32.702,70.789
	c6.375,5.484,14.551,11.09,24.904,15.91c-11.257,19.909-23.445,36.505-33.571,48.857c-9.48,11.557-18.222,20.74-24.748,27.167
	c-0.772-0.614-1.531-1.252-2.288-1.889v50.386c1.474,0.31,2.965,0.503,4.458,0.503c4.908,0,9.785-1.669,13.74-4.923
	c0.779-0.641,19.275-15.965,41.496-42.899c12.986-15.739,24.669-32.322,34.735-49.281c3.15-5.31,6.144-10.664,8.978-16.05
	c15.179,1.91,32.806,2.129,53.21-0.186C395.435,288.663,398.722,284.374,398.062,279.74z"/>
<g>
</g>
<g>
</g>
<g>
</g>
<g>
</g>
<g>
</g>
<g>
</g>
<g>
</g>
<g>
</g>
<g>
</g>
<g>
</g>
<g>
</g>
<g>
</g>
<g>
</g>
<g>
</g>
<g>
</g>
</svg>
