<?xml version="1.0" encoding="iso-8859-1"?>
<!-- Generator: Adobe Illustrator 19.0.0, SVG Export Plug-In . SVG Version: 6.00 Build 0)  -->
<svg version="1.1" id="Layer_1" xmlns="http://www.w3.org/2000/svg" xmlns:xlink="http://www.w3.org/1999/xlink" x="0px" y="0px"
	 viewBox="0 0 512 512" style="enable-background:new 0 0 512 512;" xml:space="preserve">
<circle style="fill:#DC4373;" cx="256" cy="256" r="256"/>
<path style="fill:#C13366;" d="M358.334,151.376c-6.666,2.577-14.305,1.838-17.863-0.534
	c-43.098-24.135-89.643-31.03-132.741-18.963c-61.693,18.227-86.893,86.635-86.73,150.494
	c11.311,21.068,26.279,52.617,30.927,76.552l149.12,149.123C406.313,489.36,489.339,406.344,508.04,301.084L358.334,151.376z"/>
<path style="fill:#F0F1F1;" d="M255.997,109.654c-80.796,0-146.529,65.655-146.529,146.348s65.733,146.342,146.529,146.342
	c80.799,0,146.535-65.646,146.535-146.342C402.532,175.309,336.796,109.654,255.997,109.654L255.997,109.654z M352.418,178.728
	c16.715,20.716,26.872,46.878,27.341,75.386c-5.561-1.141-29.115-5.534-57.263-5.534c-9.082,0-18.641,0.455-28.224,1.639
	c-0.809-1.967-1.619-3.927-2.469-5.906c-2.486-5.846-5.163-11.645-7.937-17.36C327.187,209.105,348.084,184.334,352.418,178.728
	L352.418,178.728z M255.997,132.563c31.223,0,59.764,11.6,81.563,30.706c-3.451,4.708-22.166,28.101-63.938,43.884
	c-19.335-35.344-40.498-64.61-45.535-71.406C237.063,133.668,246.405,132.563,255.997,132.563L255.997,132.563z M202.821,144.558
	c4.268,5.879,25.464,35.459,45.296,70.518c-53.224,13.991-100.488,14.903-111.895,14.903h-1.212
	C143.205,192.212,168.722,160.83,202.821,144.558L202.821,144.558z M132.201,256.195c0-1.019,0.017-2.038,0.05-3.051
	c0.74,0.009,1.833,0.009,3.25,0.009c15.363,0,68.691-1.269,123.644-17.577c3.336,6.523,6.511,13.145,9.464,19.763
	c-1.388,0.398-2.757,0.796-4.117,1.241c-61.874,19.983-95.884,72.888-101.117,81.536
	C143.986,316.268,132.201,287.587,132.201,256.195L132.201,256.195z M255.997,379.818c-28.393,0-54.596-9.616-75.505-25.74
	c3.537-6.934,29.206-53.15,97.013-76.75c0.041-0.017,0.086-0.033,0.136-0.045c17.003,44.265,24.204,81.417,26.179,92.931
	C289.104,376.401,272.944,379.818,255.997,379.818L255.997,379.818z M326.115,358.026c-1.66-9.526-8.33-44.344-23.726-86.809
	c8.635-1.343,17.036-1.874,24.914-1.874c25.874,0,46.115,5.665,50.817,7.102C372.529,310.167,353.223,339.349,326.115,358.026
	L326.115,358.026z"/>
<path style="fill:#D1D1D1;" d="M255.997,109.654c-0.191,0-0.379,0.014-0.571,0.014v22.902c0.19,0,0.379-0.009,0.571-0.009
	c31.223,0,59.764,11.6,81.563,30.706c-3.451,4.708-22.166,28.101-63.938,43.884c-6.07-11.097-12.321-21.594-18.196-30.984v60.478
	c1.238-0.353,2.477-0.705,3.717-1.072c3.336,6.523,6.511,13.145,9.464,19.763c-1.388,0.398-2.757,0.796-4.117,1.239
	c-3.098,1.002-6.106,2.105-9.064,3.26v26.614c6.811-3.281,14.145-6.359,22.078-9.121c0.041-0.017,0.086-0.033,0.136-0.045
	c17.003,44.265,24.204,81.417,26.179,92.931c-14.714,6.187-30.873,9.604-47.823,9.604c-0.191,0-0.379-0.012-0.571-0.012v22.525
	c0.191,0,0.379,0.014,0.571,0.014c80.799,0,146.535-65.646,146.535-146.342C402.532,175.309,336.796,109.654,255.997,109.654z
	 M291.804,244.312c-2.486-5.846-5.163-11.645-7.937-17.36c43.32-17.848,64.217-42.618,68.551-48.225
	c16.715,20.716,26.874,46.878,27.341,75.385c-5.561-1.141-29.115-5.534-57.261-5.534c-9.082,0-18.641,0.457-28.224,1.639
	C293.462,248.251,292.654,246.291,291.804,244.312z M326.115,358.026c-1.66-9.526-8.33-44.344-23.726-86.809
	c8.635-1.343,17.036-1.874,24.914-1.874c25.874,0,46.115,5.665,50.817,7.102C372.529,310.167,353.223,339.349,326.115,358.026z"/>
<g>
</g>
<g>
</g>
<g>
</g>
<g>
</g>
<g>
</g>
<g>
</g>
<g>
</g>
<g>
</g>
<g>
</g>
<g>
</g>
<g>
</g>
<g>
</g>
<g>
</g>
<g>
</g>
<g>
</g>
</svg>
