<?xml version="1.0" encoding="iso-8859-1"?>
<!-- Generator: Adobe Illustrator 19.0.0, SVG Export Plug-In . SVG Version: 6.00 Build 0)  -->
<svg version="1.1" id="Layer_1" xmlns="http://www.w3.org/2000/svg" xmlns:xlink="http://www.w3.org/1999/xlink" x="0px" y="0px"
	 viewBox="0 0 512 512" style="enable-background:new 0 0 512 512;" xml:space="preserve">
<circle style="fill:#DC4373;" cx="256" cy="256" r="256"/>
<path style="fill:#C13366;" d="M351.925,119.624c-39.193,9.34-79.784,11.414-121.784,3.636c-34.478-6.896-65.508,8.62-63.785,46.545
	c3.265,75.097,12.686,157.924-10.075,229.119l112.764,112.747c127.769-6.415,230.833-106.508,241.942-232.986L351.925,119.624z"/>
<path style="fill:#FFFFFF;" d="M353.073,120.772c-6.135-7.185-15.07-11.304-24.519-11.304h-145.11
	c-17.782,0-32.246,14.465-32.246,32.246v246.065c0,6.13,3.787,11.616,9.513,13.791c1.71,0.646,3.479,0.962,5.232,0.962
	c4.139,0,8.183-1.743,11.04-4.965l77.824-87.733h52.229c15.956,0,29.351-11.438,31.846-27.2l21.521-135.878
	C361.879,137.426,359.208,127.953,353.073,120.772L353.073,120.772z M317.014,191.772h-68.979c-8.268,0-15.232,6.77-15.077,15.036
	c0.152,8.014,6.694,14.464,14.746,14.464h62.388c4.539,0,8.001,4.055,7.297,8.535l-6.989,44.32
	c-0.569,3.591-3.665,6.237-7.301,6.234l-54.925-0.028c-4.217,0-8.233,1.807-11.033,4.961l-56.446,63.631V141.714
	c0-1.515,1.229-2.748,2.744-2.748h139.093c4.501,0,7.952,3.993,7.306,8.447l-5.516,38.036
	C323.796,189.08,320.686,191.772,317.014,191.772L317.014,191.772z"/>
<path style="fill:#D1D1D1;" d="M353.073,120.772c-6.135-7.185-15.07-11.304-24.519-11.304h-73.128v29.498h67.108
	c4.501,0,7.952,3.993,7.306,8.447l-5.516,38.036c-0.528,3.632-3.637,6.325-7.309,6.325h-61.588v29.501h54.667
	c4.539,0,8.001,4.055,7.297,8.535l-6.989,44.32c-0.569,3.591-3.665,6.237-7.301,6.234l-47.675-0.024v29.494h51.61
	c15.956,0,29.351-11.438,31.846-27.2l21.521-135.878C361.879,137.426,359.208,127.953,353.073,120.772z"/>
<g>
</g>
<g>
</g>
<g>
</g>
<g>
</g>
<g>
</g>
<g>
</g>
<g>
</g>
<g>
</g>
<g>
</g>
<g>
</g>
<g>
</g>
<g>
</g>
<g>
</g>
<g>
</g>
<g>
</g>
</svg>
