<?xml version="1.0" encoding="iso-8859-1"?>
<!-- Generator: Adobe Illustrator 19.0.0, SVG Export Plug-In . SVG Version: 6.00 Build 0)  -->
<svg version="1.1" id="Layer_1" xmlns="http://www.w3.org/2000/svg" xmlns:xlink="http://www.w3.org/1999/xlink" x="0px" y="0px"
	 viewBox="0 0 512 512" style="enable-background:new 0 0 512 512;" xml:space="preserve">
<circle style="fill:#607EA3;" cx="256" cy="256" r="256"/>
<path style="fill:#41607F;" d="M371.509,133.541l-72.275,48.968l-27.736-33.711l-62.466,42.437l-29.162-38.355l-56.084,20.292
	l37.822,47.016l-52.141,90.888l196.11,196.11c112.116-22.004,197.984-117.186,205.821-233.763L371.509,133.541z"/>
<path style="fill:#FFFFFF;" d="M336.293,217.46L336.293,217.46c-20.142,0-38.171,9.002-50.319,23.188
	c-8.406-19.444-27.751-33.056-50.283-33.056l0,0c-17.461,0-33.001,8.182-43.029,20.909c-5.127-17.673-21.425-30.599-40.753-30.599
	l0,0c-23.44,0-42.441,19.001-42.441,42.441v70.734h71.459v42.553h89.126v40.469h132.479V283.701
	C402.532,247.118,372.876,217.46,336.293,217.46z"/>
<circle style="fill:#D1D1D1;" cx="336.696" cy="164.478" r="46.563"/>
<g>
	<circle style="fill:#FFFFFF;" cx="236.02" cy="163.788" r="38.502"/>
	<circle style="fill:#FFFFFF;" cx="152.169" cy="163.943" r="29.837"/>
</g>
<g>
	<path style="fill:#D1D1D1;" d="M336.293,217.46c-20.142,0-38.171,9.002-50.319,23.188c-8.406-19.444-27.751-33.056-50.283-33.056
		c-0.319,0-0.633,0.022-0.95,0.028v146.008h35.314v40.469h132.477V283.7C402.532,247.117,372.876,217.46,336.293,217.46z"/>
	<path style="fill:#D1D1D1;" d="M236.022,125.283c-0.431,0-0.857,0.019-1.283,0.033v76.936c0.428,0.014,0.853,0.033,1.283,0.033
		c21.263,0,38.502-17.237,38.502-38.5S257.286,125.283,236.022,125.283z"/>
</g>
<g>
</g>
<g>
</g>
<g>
</g>
<g>
</g>
<g>
</g>
<g>
</g>
<g>
</g>
<g>
</g>
<g>
</g>
<g>
</g>
<g>
</g>
<g>
</g>
<g>
</g>
<g>
</g>
<g>
</g>
</svg>
