<?xml version="1.0" encoding="iso-8859-1"?>
<!-- Generator: Adobe Illustrator 19.0.0, SVG Export Plug-In . SVG Version: 6.00 Build 0)  -->
<svg version="1.1" id="Layer_1" xmlns="http://www.w3.org/2000/svg" xmlns:xlink="http://www.w3.org/1999/xlink" x="0px" y="0px"
	 viewBox="0 0 512 512" style="enable-background:new 0 0 512 512;" xml:space="preserve">
<circle style="fill:#FFC91B;" cx="256" cy="256" r="256"/>
<path style="fill:#D3A218;" d="M317.49,140.574c-2.855,0.39-7.427-0.627-9.773-1.8c-32.754-15.515-81.024-25.859-105.158,6.896
	c-18.963,22.411-18.963,53.441-31.03,81.024c-1.724,6.896-15.515,1.724-18.963,6.896c-12.067,10.343,12.067,24.135,15.515,32.754
	c10.343,31.03-24.135,41.374-48.269,58.613c-4.856,3.034-4.386,9.476-4.584,14.676l170.63,170.625
	c103.945-12.076,188.897-86.4,216.581-184.734L317.49,140.574z"/>
<path style="fill:#FFFFFF;" d="M255.869,130.572c39.336,0.012,72.099,32.758,72.144,72.187c0.012,9.233,0.297,17.737,0.819,25.571
	c0.321,4.834,4.342,8.414,8.951,8.414c0.681,0,1.372-0.076,2.065-0.238l12.322-2.891c0.526-0.122,1.052-0.179,1.57-0.179
	c3.129,0,6.01,2.138,6.713,5.304c0.993,4.477-1.514,8.999-5.851,10.516L335.9,256.81c-4.724,1.903-7.259,7.042-5.927,11.959
	c15.005,55.477,56.916,49.705,56.916,56.935c0,9.075-31.591,10.357-34.444,13.21c-2.855,2.855-0.126,16.708-6.503,19.39
	c-1.2,0.507-2.908,0.683-4.992,0.683c-4.803,0-11.598-0.938-18.756-0.938c-6.21,0-12.697,0.707-18.399,3.339
	c-15.127,6.99-29.712,20.044-47.794,20.044c-18.079,0-32.666-13.053-47.794-20.044c-5.704-2.634-12.188-3.339-18.399-3.339
	c-7.159,0-13.955,0.938-18.758,0.938c-2.081,0-3.791-0.178-4.992-0.683c-6.377-2.682-3.644-16.536-6.503-19.39
	c-2.853-2.853-34.444-4.137-34.444-13.21c0-7.228,41.912-1.46,56.916-56.935c1.333-4.917-1.203-10.056-5.927-11.962l-18.706-7.551
	c-4.336-1.519-6.844-6.041-5.847-10.516c0.702-3.169,3.584-5.308,6.713-5.304c0.519,0,1.045,0.059,1.57,0.179l12.322,2.891
	c0.693,0.162,1.384,0.238,2.062,0.238c4.611,0,8.632-3.581,8.952-8.414c0.522-7.833,0.807-16.337,0.819-25.571
	C184.032,163.33,216.536,130.588,255.869,130.572 M255.874,114.928h-0.012c-11.74,0.003-23.176,2.362-33.992,7.013
	c-10.38,4.461-19.723,10.826-27.767,18.91c-8.032,8.078-14.353,17.453-18.791,27.869c-4.611,10.828-6.958,22.273-6.973,34.02
	c-0.007,5.768-0.126,11.362-0.355,16.722l-4.586-1.076c-1.681-0.395-3.41-0.593-5.139-0.596c-4.989,0-9.909,1.686-13.857,4.748
	c-4.118,3.196-7.006,7.745-8.13,12.814c-2.677,12.06,3.98,24.233,15.52,28.517l13.727,5.539c-9.09,27.9-25.852,33.246-37.135,36.848
	c-2.998,0.957-5.582,1.783-8.045,3.003c-9.814,4.87-10.874,13.124-10.874,16.444c0,6.361,3.01,12.166,8.478,16.346
	c2.722,2.081,6.096,3.798,10.312,5.249c5.744,1.977,12.405,3.232,17.817,4.237c0.262,2.007,0.645,4.162,1.293,6.334
	c2.682,9.016,8.347,13.052,12.626,14.851c4.06,1.708,8.256,1.907,11.057,1.907c2.741,0,5.637-0.217,8.706-0.443
	c3.291-0.245,6.694-0.495,10.052-0.495c5.203,0,9.075,0.621,11.84,1.898c3.794,1.753,7.818,4.117,12.081,6.618
	c11.86,6.97,25.307,14.865,42.272,14.865c16.963,0,30.408-7.895,42.272-14.865c4.262-2.501,8.287-4.865,12.081-6.618
	c2.765-1.277,6.637-1.898,11.84-1.898c3.358,0,6.761,0.252,10.05,0.495c3.067,0.226,5.968,0.443,8.707,0.443
	c2.801,0,6.997-0.198,11.055-1.907c4.28-1.8,9.945-5.835,12.628-14.851c0.645-2.172,1.029-4.327,1.293-6.334
	c5.411-1.005,12.073-2.262,17.817-4.237c4.217-1.452,7.587-3.169,10.312-5.249c5.466-4.18,8.478-9.985,8.478-16.346
	c0-3.322-1.06-11.574-10.874-16.444c-2.463-1.222-5.051-2.046-8.045-3.003c-11.286-3.6-28.048-8.945-37.138-36.848l13.727-5.539
	c11.54-4.28,18.201-16.456,15.524-28.517c-1.124-5.068-4.015-9.619-8.13-12.814c-3.948-3.062-8.87-4.748-13.857-4.748
	c-1.726,0-3.458,0.202-5.139,0.596l-4.587,1.076c-0.229-5.36-0.352-10.954-0.357-16.722c-0.012-11.755-2.377-23.212-7.027-34.056
	c-4.461-10.411-10.819-19.784-18.892-27.86c-8.077-8.075-17.444-14.431-27.848-18.889
	C279.056,117.291,267.611,114.931,255.874,114.928L255.874,114.928z"/>
<path style="fill:#D1D1D1;" d="M391.658,309.258c-2.463-1.222-5.051-2.048-8.046-3.003c-11.286-3.6-28.048-8.945-37.138-36.848
	l13.727-5.539c11.54-4.28,18.201-16.456,15.524-28.517c-1.124-5.068-4.015-9.619-8.13-12.814c-3.948-3.062-8.87-4.748-13.857-4.748
	c-1.726,0-3.458,0.202-5.139,0.596l-4.587,1.076c-0.229-5.36-0.352-10.954-0.357-16.722c-0.012-11.755-2.377-23.212-7.027-34.056
	c-4.461-10.411-10.819-19.784-18.891-27.86c-8.077-8.075-17.444-14.431-27.848-18.889c-10.835-4.644-22.28-7.002-34.016-7.006
	h-0.012c-0.531,0-1.057,0.031-1.586,0.04v15.644c0.531-0.012,1.058-0.041,1.591-0.041c39.336,0.012,72.099,32.758,72.144,72.187
	c0.012,9.233,0.297,17.737,0.819,25.571c0.321,4.834,4.342,8.414,8.951,8.414c0.681,0,1.372-0.076,2.065-0.238l12.322-2.891
	c0.526-0.122,1.052-0.179,1.57-0.179c3.129,0,6.01,2.138,6.713,5.304c0.993,4.477-1.514,8.999-5.851,10.516l-18.703,7.554
	c-4.724,1.903-7.259,7.042-5.927,11.959c15.005,55.477,56.916,49.705,56.916,56.934c0,9.075-31.591,10.357-34.444,13.21
	c-2.855,2.855-0.126,16.708-6.503,19.39c-1.2,0.507-2.908,0.683-4.992,0.683c-4.803,0-11.598-0.94-18.756-0.94
	c-6.21,0-12.697,0.707-18.399,3.339c-15.127,6.99-29.712,20.044-47.794,20.044c-0.581,0-1.15-0.05-1.724-0.076v15.667
	c0.574,0.019,1.141,0.05,1.724,0.05c16.963,0,30.408-7.895,42.272-14.865c4.262-2.501,8.287-4.865,12.081-6.618
	c2.765-1.277,6.637-1.898,11.84-1.898c3.358,0,6.761,0.252,10.05,0.495c3.067,0.226,5.966,0.443,8.707,0.443
	c2.801,0,6.997-0.198,11.055-1.907c4.28-1.8,9.945-5.835,12.628-14.851c0.645-2.172,1.029-4.327,1.293-6.334
	c5.411-1.005,12.073-2.262,17.817-4.237c4.217-1.452,7.587-3.169,10.312-5.249c5.466-4.18,8.478-9.985,8.478-16.346
	C402.532,322.382,401.472,314.13,391.658,309.258z"/>
<g>
</g>
<g>
</g>
<g>
</g>
<g>
</g>
<g>
</g>
<g>
</g>
<g>
</g>
<g>
</g>
<g>
</g>
<g>
</g>
<g>
</g>
<g>
</g>
<g>
</g>
<g>
</g>
<g>
</g>
</svg>
