<?xml version="1.0" encoding="iso-8859-1"?>
<!-- Generator: Adobe Illustrator 19.0.0, SVG Export Plug-In . SVG Version: 6.00 Build 0)  -->
<svg version="1.1" id="Layer_1" xmlns="http://www.w3.org/2000/svg" xmlns:xlink="http://www.w3.org/1999/xlink" x="0px" y="0px"
	 viewBox="0 0 512 512" style="enable-background:new 0 0 512 512;" xml:space="preserve">
<circle style="fill:#7AD768;" cx="256" cy="256" r="256"/>
<path style="fill:#51A83F;" d="M397.321,207.082l-156.569-19.608L115.5,208.593l60.626,49.131l-43.494,11.035L179,312.889
	l-33.63,15.074l175.685,175.687c91.133-23.874,162.438-96.715,184.117-188.716L397.321,207.082z"/>
<path style="fill:#FFFFFF;" d="M340.697,342.666c-2.581,4.415-7.223,6.877-11.993,6.877c-2.377,0-4.786-0.612-6.989-1.898
	c-36.462-21.309-78.586-24.735-107.508-23.854c-32.039,0.974-55.534,7.299-55.767,7.365c-7.385,2.017-15.017-2.329-17.044-9.712
	c-2.026-7.383,2.307-15.012,9.688-17.044c1.058-0.291,26.343-7.159,61.5-8.318c20.709-0.683,40.646,0.76,59.249,4.289
	c23.562,4.47,45.054,12.316,63.883,23.319C342.335,327.552,344.564,336.05,340.697,342.666z M366.492,289.09
	c-3.055,5.23-8.556,8.145-14.205,8.145c-2.817,0-5.67-0.724-8.278-2.248c-43.189-25.241-93.087-29.296-127.347-28.255
	c-37.952,1.155-65.783,8.647-66.058,8.723c-8.747,2.386-17.789-2.758-20.189-11.505c-2.4-8.747,2.732-17.78,11.476-20.19
	c1.255-0.345,31.203-8.48,72.849-9.854c24.533-0.809,48.147,0.9,70.182,5.08c27.91,5.296,53.369,14.588,75.671,27.622
	C368.433,271.188,371.074,281.253,366.492,289.09z M382.35,240.376c-3.455,0-6.954-0.888-10.154-2.758
	c-102.681-60.007-235.877-24.333-237.209-23.966c-10.735,2.958-21.833-3.346-24.79-14.081c-2.958-10.735,3.346-21.833,14.081-24.79
	c1.538-0.424,38.272-10.402,89.357-12.086c30.092-0.991,59.058,1.105,86.087,6.232c34.235,6.494,65.464,17.892,92.819,33.88
	c9.612,5.618,12.852,17.965,7.233,27.577C396.026,236.801,389.28,240.376,382.35,240.376z"/>
<g>
	<path style="fill:#D1D1D1;" d="M321.717,347.645c2.201,1.286,4.61,1.898,6.989,1.898c4.77,0,9.413-2.462,11.993-6.877
		c3.867-6.615,1.638-15.113-4.979-18.98c-18.828-11.004-40.322-18.849-63.883-23.319c-9.306-1.765-18.944-3.008-28.846-3.725
		l-2.236,27.691C265.935,326.161,295.309,332.21,321.717,347.645z"/>
	<path style="fill:#D1D1D1;" d="M392.54,202.809c-27.355-15.988-58.585-27.386-92.819-33.88
		c-14.779-2.803-30.155-4.667-45.961-5.649l-3.246,40.181c39.003,2.327,82.556,11.293,121.682,34.159
		c3.198,1.869,6.697,2.758,10.154,2.758c6.93,0,13.676-3.577,17.423-9.992C405.392,220.772,402.154,208.427,392.54,202.809z"/>
	<path style="fill:#D1D1D1;" d="M344.011,294.988c2.608,1.524,5.461,2.248,8.278,2.248c5.649,0,11.15-2.915,14.205-8.145
		c4.58-7.837,1.941-17.903-5.897-22.481c-22.302-13.033-47.761-22.326-75.671-27.62c-11.874-2.253-24.221-3.763-36.909-4.572
		l-2.648,32.773C275.79,269.11,311.768,276.144,344.011,294.988z"/>
</g>
<g>
</g>
<g>
</g>
<g>
</g>
<g>
</g>
<g>
</g>
<g>
</g>
<g>
</g>
<g>
</g>
<g>
</g>
<g>
</g>
<g>
</g>
<g>
</g>
<g>
</g>
<g>
</g>
<g>
</g>
</svg>
