<?xml version="1.0" encoding="iso-8859-1"?>
<!-- Generator: Adobe Illustrator 19.0.0, SVG Export Plug-In . SVG Version: 6.00 Build 0)  -->
<svg version="1.1" id="Layer_1" xmlns="http://www.w3.org/2000/svg" xmlns:xlink="http://www.w3.org/1999/xlink" x="0px" y="0px"
	 viewBox="0 0 512 512" style="enable-background:new 0 0 512 512;" xml:space="preserve">
<circle style="fill:#DB9044;" cx="256" cy="256" r="256"/>
<path style="fill:#B76F2E;" d="M505.677,312.746L321.315,128.379l-42.318,80.153l17.448,18.16l-2.662,9.459l-62.255-62.259
	l-96.501,45.173l80.553,80.556l-27.315,66.522l136.504,136.504C414.837,477.586,484.907,404.523,505.677,312.746z"/>
<g>
	<path style="fill:#F0F1F1;" d="M230.262,344.255c-7.249-16.513-11.276-34.233-11.681-51.952
		c-11.676,18.123-20.54,36.648-26.579,49.94c-0.402,0.805-0.402,1.21-0.805,2.015c-2.012,5.237-4.027,9.264-5.237,12.886
		c-1.61,4.027,0.402,8.859,4.832,10.471c3.222,1.21,7.649,2.82,12.886,4.832c0.809,0.402,1.21,0.402,2.015,0.802
		c14.1,4.832,33.427,10.069,54.372,13.693C247.58,374.862,237.511,360.364,230.262,344.255"/>
	<path style="fill:#F0F1F1;" d="M258.451,211.754c-41.077-84.17-132.899-81.353-147.397-43.494
		c-11.276,28.996,37.454,97.864,149.416,47.925l0,0C260.067,215.785,258.86,212.563,258.451,211.754"/>
	<path style="fill:#F0F1F1;" d="M277.785,206.119c-22.952-56.789,17.318-89.41,39.065-80.951
		c16.513,6.444,25.372,55.174-37.855,83.363l0,0C278.995,208.131,278.187,206.52,277.785,206.119"/>
	<path style="fill:#F0F1F1;" d="M395.381,270.153c-9.666-21.345-26.984-37.05-47.519-44.299c-2.012-0.805-4.024-1.21-6.444-1.21
		c-10.471,0-20.94,8.859-21.747,19.735c-1.61,18.525,2.012,37.054,10.066,55.174c8.058,17.723,19.33,32.621,33.427,43.898
		c3.627,2.82,8.459,4.027,12.886,4.027c8.459,0,16.513-4.429,19.735-12.081C404.645,315.661,405.051,291.899,395.381,270.153"/>
	<path style="fill:#F0F1F1;" d="M347.457,364.796c-17.723-13.693-31.816-31.813-41.481-53.963
		c-10.069-22.552-14.096-45.508-12.081-68.06c0.402-6.444,2.417-12.486,5.237-17.72c-0.402,0-1.207,0.402-1.615,0.402l0,0
		c-0.805,0.4-2.012,0.4-2.817,0.805c-6.042,1.61-12.081,4.429-17.318,7.249c-2.817,1.61-5.234,3.222-8.054,4.832
		c-13.693,9.261-24.969,25.369-26.579,42.287c-1.61,18.12,1.61,36.648,9.261,54.368c7.654,17.318,18.93,31.415,32.625,42.287
		c8.456,6.847,23.357,10.874,35.843,10.874c13.693,0,28.189-5.237,39.87-12.486c0,0,0.402,0,0.402-0.402
		c0.805-0.405,1.61-1.21,2.417-1.61c0.405-0.409,0.809-0.809,1.21-0.809C357.931,371.24,352.292,368.419,347.457,364.796"/>
</g>
<g>
	<path style="fill:#D1D1D1;" d="M229.495,342.388l-43.698,19.966c0.71,2.31,2.431,4.33,4.996,5.263
		c3.222,1.21,7.649,2.82,12.886,4.832c0.809,0.4,1.21,0.4,2.015,0.802c14.102,4.832,33.427,10.069,54.372,13.693
		c-12.486-12.081-22.556-26.579-29.805-42.687C229.99,343.638,229.755,343.009,229.495,342.388z"/>
	<path style="fill:#D1D1D1;" d="M277.785,206.119c-22.952-56.789,17.318-89.41,39.065-80.951
		c16.513,6.444,25.372,55.174-37.855,83.363l0,0C278.995,208.131,278.187,206.52,277.785,206.119"/>
	<path style="fill:#D1D1D1;" d="M393.971,267.233l-65.298,29.836c0.348,0.827,0.696,1.657,1.064,2.482
		c8.058,17.723,19.33,32.621,33.427,43.898c3.627,2.82,8.459,4.027,12.886,4.027c8.459,0,16.513-4.427,19.735-12.081
		c8.859-19.735,9.264-43.498-0.405-65.243C394.933,269.164,394.452,268.198,393.971,267.233z"/>
	<path style="fill:#D1D1D1;" d="M305.976,310.832c-0.422-0.945-0.817-1.889-1.217-2.836l-53.76,24.564
		c0.331,0.812,0.66,1.624,1.01,2.432c7.654,17.318,18.93,31.416,32.625,42.287c8.456,6.847,23.357,10.874,35.843,10.874
		c13.693,0,28.189-5.237,39.87-12.486c0,0,0.4,0,0.4-0.4c0.805-0.405,1.61-1.21,2.417-1.61c0.405-0.409,0.809-0.809,1.21-0.809
		c-6.444-1.61-12.081-4.432-16.918-8.054C329.733,351.103,315.64,332.983,305.976,310.832z"/>
</g>
<g>
</g>
<g>
</g>
<g>
</g>
<g>
</g>
<g>
</g>
<g>
</g>
<g>
</g>
<g>
</g>
<g>
</g>
<g>
</g>
<g>
</g>
<g>
</g>
<g>
</g>
<g>
</g>
<g>
</g>
</svg>
