<svg viewBox="0 0 512.00001 512.00001" xmlns="http://www.w3.org/2000/svg"><path d="m512 256c0-68.375-26.628906-132.664062-74.984375-181.015625-42.914063-42.914063-98.382813-68.695313-158.113281-73.953125l-5.457032-.429688c-5.78125-.390624-11.597656-.601562-17.445312-.601562-34.1875 0-67.355469 6.65625-98.015625 19.363281-30.660156 12.695313-58.828125 31.449219-83 55.621094-48.355469 48.351563-74.984375 112.640625-74.984375 181.015625 0 .128906.0117188.269531.0117188.398438 0 .042968-.0117188.070312-.0117188.101562 0 .050781.0117188.109375.0117188.160156.1679692 68.136719 26.7773432 132.164063 74.9726562 180.355469 48.351563 48.355469 112.640625 74.984375 181.015625 74.984375 6.847656 0 13.644531-.28125 20.394531-.808594.058594-.011718.109375-.011718.167969-.019531 60.628906-4.789063 116.980469-30.679687 160.453125-74.15625 48.195313-48.191406 74.804687-112.21875 74.972656-180.355469 0-.050781.011719-.109375.011719-.160156 0-.03125-.011719-.058594-.011719-.101562 0-.128907.011719-.269532.011719-.398438zm-415.8125-159.8125c29.269531-29.269531 65.15625-49.515625 104.28125-59.359375-8.046875 10.863281-17.234375 24.320313-26.441406 40.035156-11.792969 20.132813-21.03125 39.554688-28.238282 57.988281h-80.671874c8.816406-13.824218 19.203124-26.789062 31.070312-38.664062zm-47.125 68.65625h86.429688c-8.667969 29.347656-12.265626 55.367188-13.304688 76.660156h-91.726562c1.6875-26.757812 8.003906-52.628906 18.601562-76.660156zm-18.535156 106.652344h91.757812c1.472656 26.917968 6.507813 52.359375 13.445313 75.621094h-86.6875c-10.445313-23.722657-16.746094-49.230469-18.515625-75.621094zm65.660156 144.316406c-11.886719-11.882812-22.273438-24.871094-31.101562-38.703125h81.003906c8.707031 22.171875 18.652344 41.625 27.917968 57.527344 9.289063 15.945312 18.542969 29.589843 26.652344 40.585937-39.207031-9.828125-75.152344-30.097656-104.472656-59.410156zm144.816406 62.078125c-12.863281-15.113281-41.183594-51.460937-62.488281-100.78125h62.488281zm0-130.773437h-73.894531c-7.644531-23.3125-13.183594-48.742188-14.792969-75.621094h88.6875zm0-105.613282h-88.796875c1.46875-27.507812 7.097657-53.378906 14.695313-76.660156h74.101562zm0-106.652344h-62.777344c6.847657-15.945312 14.265626-30.117187 21.242188-42.09375 16.226562-27.8125 32.621094-48.324218 41.535156-58.691406zm174.808594-38.664062c11.867188 11.875 22.253906 24.839844 31.070312 38.664062h-80.550781c-8.789062-22.550781-18.882812-42.292968-28.28125-58.367187-9.035156-15.457031-18.042969-28.730469-25.980469-39.507813 38.917969 9.886719 74.605469 30.078126 103.742188 59.210938zm-144.816406-62.738281c12.855468 14.992187 41.554687 51.5625 62.957031 101.402343h-62.957031zm0 131.394531h74.261718c7.667969 23.589844 13.125 49.371094 14.546876 76.660156h-88.808594zm0 106.652344h88.667968c-1.640624 27.089844-7.269531 52.609375-14.785156 75.621094h-73.882812zm0 206.734375v-101.121094h62.558594c-6.78125 15.8125-14.097657 29.898437-20.996094 41.832031-16.242188 28.089844-32.667969 48.835938-41.5625 59.289063zm144.816406-62.417969c-29.25 29.25-65.105469 49.484375-104.191406 59.332031 8.046875-10.96875 17.234375-24.5625 26.449218-40.417969 11.625-20.011718 20.753907-39.304687 27.910157-57.617187h80.933593c-8.828124 13.832031-19.214843 26.820313-31.101562 38.703125zm47.144531-68.695312h-86.679687c8.546875-28.847657 12.246094-54.488282 13.4375-75.621094h91.757812c-1.769531 26.390625-8.070312 51.898437-18.515625 75.621094zm-73.113281-105.613282c-1.289062-27.328125-6.277344-53.109375-13.234375-76.660156h86.328125c10.597656 24.03125 16.914062 49.902344 18.601562 76.660156zm0 0" fill="#a8ebfa"/><path d="m512 256c0-68.375-26.628906-132.664062-74.984375-181.015625-42.914063-42.914063-98.382813-68.695313-158.113281-73.953125l-5.457032-.429688c-5.78125-.390624-11.597656-.601562-17.445312-.601562v512c6.847656 0 13.644531-.28125 20.394531-.808594.058594-.011718.109375-.011718.167969-.019531 60.628906-4.789063 116.980469-30.679687 160.453125-74.15625 48.195313-48.191406 74.804687-112.21875 74.972656-180.355469 0-.050781.011719-.109375.011719-.160156 0-.03125-.011719-.058594-.011719-.101562 0-.128907.011719-.269532.011719-.398438zm-96.1875-159.8125c11.867188 11.875 22.253906 24.839844 31.070312 38.664062h-80.550781c-8.789062-22.550781-18.882812-42.292968-28.28125-58.367187-9.035156-15.457031-18.042969-28.730469-25.980469-39.507813 38.917969 9.886719 74.605469 30.078126 103.742188 59.210938zm-144.816406-62.738281c12.855468 14.992187 41.554687 51.5625 62.957031 101.402343h-62.957031zm0 131.394531h74.261718c7.667969 23.589844 13.125 49.371094 14.546876 76.660156h-88.808594zm0 106.652344h88.667968c-1.640624 27.089844-7.269531 52.609375-14.785156 75.621094h-73.882812zm0 206.734375v-101.121094h62.558594c-6.78125 15.8125-14.097657 29.898437-20.996094 41.832031-16.242188 28.089844-32.667969 48.835938-41.5625 59.289063zm144.816406-62.417969c-29.25 29.25-65.105469 49.484375-104.191406 59.332031 8.046875-10.96875 17.234375-24.5625 26.449218-40.417969 11.625-20.011718 20.753907-39.304687 27.910157-57.617187h80.933593c-8.828124 13.832031-19.214843 26.820313-31.101562 38.703125zm47.144531-68.695312h-86.679687c8.546875-28.847657 12.246094-54.488282 13.4375-75.621094h91.757812c-1.769531 26.390625-8.070312 51.898437-18.515625 75.621094zm-73.113281-105.613282c-1.289062-27.328125-6.277344-53.109375-13.234375-76.660156h86.328125c10.597656 24.03125 16.914062 49.902344 18.601562 76.660156zm0 0" fill="#76e2f8"/></svg>