<svg viewBox="0 -45 512.00018 512" xmlns="http://www.w3.org/2000/svg"><path d="m511.242188 72.65625-.21875.8125c-7.238282 23.289062-21.109376 42.265625-39.476563 54.164062-2.632813 140.5625-94.128906 257.792969-215.6875 287.691407-19.636719 4.832031-40.074219 7.386719-61.042969 7.386719-85.453125 0-152.992187-14.925782-185.300781-40.957032l-.628906-.5-.570313-.570312c-7.675781-7.6875-10.199218-17.753906-6.894531-27.632813l.296875-.832031c3.996094-10 13.804688-16.734375 24.421875-16.792969 21.859375-.382812 40.988281-2.984375 58.339844-8.046875-27.683594-12.871094-46.917969-35.171875-58.359375-67.429687-3.84375-10.058594-.519532-21.230469 8.335937-27.875 2.195313-1.640625 4.664063-2.882813 7.289063-3.714844-15.382813-17.761719-26.742188-37.972656-33.109375-59.339844l-.199219-.660156-.140625-.679687c-2.164063-10.808594 2.671875-21.921876 11.53125-26.714844 3.710937-2.132813 7.746094-3.230469 11.796875-3.320313-4.371094-9.410156-7.546875-19.070312-9.425781-28.785156-5.226563-26.925781-.910157-53.910156 12.808593-80.210937l3.183594-6.355469c2.542969-5.085938 7.398438-8.65625 13.003906-9.558594 5.59375-.910156 11.339844.941406 15.351563 4.953125l5.785156 5.796875c45.699219 47.910156 86.644531 70.652344 157.417969 86.203125 2.699219-23.25 11.6875-45.097656 26.109375-63.375 2.433594-3.082031 5.015625-6.0625 7.75-8.925781 22.546875-23.640625 52.664063-36.921875 84.792969-37.3750002h.207031c23.441406 0 52.515625 13.3828122 70.101563 22.8203122 15.09375-4.933593 33.269531-12.578125 52.125-20.65625 8.828124-4.144531 19.699218-2.253906 26.644531 4.695313 6.796875 6.792968 8.675781 16.382812 5.074219 25.699218-1.371094 3.824219-2.921876 7.566407-4.652344 11.230469 2.582031 1.179688 4.941406 2.792969 6.933594 4.785157 6.035156 6.035156 8.558593 15.484374 6.40625 24.070312zm0 0" fill="#a8ebfa"/><path d="m511.242188 72.65625-.21875.8125c-7.238282 23.289062-21.109376 42.265625-39.476563 54.164062-2.632813 140.5625-94.128906 257.792969-215.6875 287.691407v-369.011719c2.433594-3.082031 5.015625-6.0625 7.75-8.925781 22.546875-23.640625 52.664063-36.921875 84.792969-37.3750002h.207031c23.441406 0 52.515625 13.3828122 70.101563 22.8203122 15.09375-4.933593 33.269531-12.578125 52.125-20.65625 8.828124-4.144531 19.699218-2.253906 26.644531 4.695313 6.796875 6.792968 8.675781 16.382812 5.074219 25.699218-1.371094 3.824219-2.921876 7.566407-4.652344 11.230469 2.582031 1.179688 4.941406 2.792969 6.933594 4.785157 6.035156 6.035156 8.558593 15.484374 6.40625 24.070312zm0 0" fill="#76e2f8"/></svg>