<svg viewBox="0 0 511 511.99987" xmlns="http://www.w3.org/2000/svg"><path d="m480.386719 333.554688h-65.71875v-155.117188h65.71875c6.429687 0 13.453125-2.988281 17.902343-7.628906 13.707032-14.304688 17.796876-32.441406 10.945313-48.503906-6.351563-14.894532-20.917969-24.507813-37.101563-24.507813h-57.464843v-65.6875c0-6.433594-3.003907-13.457031-7.632813-17.898437-14.304687-13.710938-32.441406-17.804688-48.515625-10.953126-14.882812 6.363282-24.507812 20.917969-24.507812 37.101563v57.4375h-155.113281v-65.6875c0-6.433594-2.988282-13.457031-7.632813-17.898437-14.300781-13.710938-32.4375-17.804688-48.503906-10.953126-14.894531 6.363282-24.503907 20.917969-24.503907 37.101563v57.4375h-65.648437c-6.433594 0-13.457031 2.992187-17.898437 7.632813-13.710938 14.304687-17.804688 32.4375-10.953126 48.503906 6.351563 14.894531 20.917969 24.503906 37.101563 24.503906h57.398437v155.117188h-65.648437c-6.433594 0-13.464844 3-17.898437 7.640624-13.710938 14.304688-17.804688 32.441407-10.953126 48.503907 6.351563 14.882812 20.917969 24.507812 37.101563 24.507812h57.398437v65.6875c0 6.421875 2.988282 13.453125 7.628907 17.894531 14.304687 13.714844 32.441406 17.804688 48.503906 10.945313 14.894531-6.351563 24.507813-20.917969 24.507813-37.101563v-57.425781h155.113281v65.6875c0 6.421875 3.003906 13.453125 7.632812 17.894531 9.742188 9.335938 21.257813 14.207032 32.679688 14.207032 5.363281 0 10.703125-1.070313 15.835937-3.261719 14.882813-6.351563 24.507813-20.917969 24.507813-37.101563v-57.425781h57.464843c16.183594 0 30.75-9.625 37.101563-24.507812 6.851563-16.0625 2.761719-34.199219-10.945313-48.503907-4.449218-4.640624-11.472656-7.640624-17.902343-7.640624zm-146.375 0h-155.113281v-155.117188h155.113281zm0 0" fill="#51faff"/><path d="m498.289062 341.195312c13.707032 14.304688 17.796876 32.441407 10.945313 48.503907-6.351563 14.882812-20.917969 24.507812-37.101563 24.507812h-57.464843v57.425781c0 16.183594-9.625 30.75-24.507813 37.101563-5.132812 2.191406-10.472656 3.261719-15.835937 3.261719-11.421875 0-22.9375-4.871094-32.679688-14.207032-4.628906-4.441406-7.632812-11.472656-7.632812-17.894531v-65.6875h-77.511719v-80.652343h77.511719v-155.117188h-77.511719v-80.640625h77.511719v-57.4375c0-16.183594 9.625-30.738281 24.507812-37.101563 16.074219-6.851562 34.210938-2.757812 48.515625 10.953126 4.628906 4.441406 7.632813 11.464843 7.632813 17.898437v65.6875h57.464843c16.183594 0 30.75 9.613281 37.101563 24.507813 6.851563 16.0625 2.761719 34.199218-10.945313 48.503906-4.449218 4.640625-11.472656 7.628906-17.902343 7.628906h-65.71875v155.117188h65.71875c6.429687 0 13.453125 3 17.902343 7.640624zm0 0" fill="#00e7f0"/></svg>