<svg viewBox="1 0 511.99949 511" xmlns="http://www.w3.org/2000/svg"><path d="m509.175781 220.964844c-5.796875 33.808594-17.066406 63.582031-33.519531 88.5-13.488281 20.445312-30.464844 37.671875-50.4375 51.203125-35.058594 23.726562-67.785156 28.492187-73.992188 29.210937l-.769531.089844-72.027343.820312-21.398438.25-17.683594 88.542969c-3.703125 18.554688-20.117187 32.015625-39.03125 32.015625h-99.800781c-12.148437 0-23.476563-5.445312-31.074219-14.933594-7.59375-9.476562-10.425781-21.726562-7.765625-33.574218l6.054688-27.261719 210.699219-202.863281 158.328124-152.441406c21.183594 8.757812 38.140626 20.566406 50.398438 35.128906 22.097656 26.210937 29.503906 61.648437 22.019531 105.3125zm0 0" fill="#aed0ff"/><path d="m509.175781 220.964844c-5.796875 33.808594-17.066406 63.582031-33.519531 88.5-13.488281 20.445312-30.464844 37.671875-50.4375 51.203125-35.058594 23.726562-67.785156 28.492187-73.992188 29.210937l-.769531.089844-72.027343.820312v-157.824218l158.328124-152.441406c21.183594 8.757812 38.140626 20.566406 50.398438 35.128906 22.097656 26.210937 29.503906 61.648437 22.019531 105.3125zm0 0" fill="#6aa9ff"/><path d="m448.476562 160.367188c-5.796874 33.804687-17.066406 63.578124-33.507812 88.5-13.5 20.4375-30.472656 37.671874-50.449219 51.199218-35.050781 23.730469-67.785156 28.496094-73.988281 29.203125l-.773438.09375-11.328124.128907-82.09375.941406-17.6875 88.550781c-3.703126 18.542969-20.113282 32.015625-39.03125 32.015625h-99.796876c-12.152343 0-23.480468-5.445312-31.074218-14.933594-7.597656-9.488281-10.429688-21.726562-7.769532-33.585937l82.449219-370.875c4.121094-18.4375 20.792969-31.496094 39.699219-31.097657 46.617188 1.023438 129.472656 1.890626 150.429688 1.890626 1.632812 0 3.265624.011718 4.875.03125 67.644531.851562 120.097656 19.457031 148.027343 52.613281 22.097657 26.21875 29.503907 61.660156 22.019531 105.324219zm0 0" fill="#6aa9ff"/><path d="m448.476562 160.367188c-5.796874 33.804687-17.066406 63.578124-33.507812 88.5-13.5 20.4375-30.472656 37.671874-50.449219 51.199218-35.050781 23.730469-67.785156 28.496094-73.988281 29.203125l-.773438.09375-11.328124.128907v-327.0625c67.644531.851562 120.097656 19.457031 148.027343 52.613281 22.097657 26.21875 29.503907 61.660156 22.019531 105.324219zm0 0" fill="#2682ff"/></svg>