<svg viewBox="-36 1 511 511.99999" xmlns="http://www.w3.org/2000/svg"><path d="m190.136719 187.398438-81.5 140.609374c-5.324219 9.183594-15.226563 14.898438-25.855469 14.898438h-52.351562c-10.789063 0-20.453126-5.574219-25.867188-14.917969-5.40625-9.34375-5.414062-20.5-.039062-29.855469l72.34375-125.902343-33.15625-70.441407c-4.378907-9.300781-3.707032-20.039062 1.804687-28.730468 5.515625-8.683594 14.9375-13.878906 25.234375-13.878906h54c11.480469 0 22.074219 6.707031 27 17.085937l39.53125 83.34375c4.21875 8.890625 3.789062 19.277344-1.144531 27.789063zm0 0" fill="#6aa9ff"/><path d="m435.535156 44.472656-144.839844 258.824219 95.132813 163.808594c5.433594 9.363281 5.464844 20.542969.058594 29.917969-5.394531 9.382812-15.078125 14.976562-25.894531 14.976562h-52.304688c-10.585938 0-20.472656-5.675781-25.804688-14.816406l-98.914062-169.34375c-8.832031-15.128906-9.015625-34.039063-.453125-49.328125v-.007813l147.386719-263.214844c5.285156-9.433593 15.269531-15.289062 26.078125-15.289062h53.476562c10.71875 0 20.351563 5.523438 25.777344 14.769531 5.421875 9.25 5.535156 20.351563.300781 29.703125zm0 0" fill="#a8ebfa"/><path d="m435.535156 44.472656-144.839844 258.824219 95.132813 163.808594c5.433594 9.363281 5.464844 20.542969.058594 29.917969-5.394531 9.382812-15.078125 14.976562-25.894531 14.976562h-10.519532l-115.0625-210.5 160.238282-301.5h14.808593c10.71875 0 20.351563 5.523438 25.777344 14.769531 5.421875 9.25 5.535156 20.351563.300781 29.703125zm0 0" fill="#76e2f8"/><path d="m190.136719 187.398438-81.5 140.609374c-5.324219 9.183594-15.226563 14.898438-25.855469 14.898438h-38.738281l94.390625-169.863281-52.011719-113.863281h38.328125c11.480469 0 22.074219 6.707031 27 17.085937l39.53125 83.34375c4.21875 8.890625 3.789062 19.277344-1.144531 27.789063zm0 0" fill="#2682ff"/></svg>