<svg viewBox="0 0 512 512.00039" xmlns="http://www.w3.org/2000/svg"><path d="m215.632812 62.089844v165.984375c0 10.867187-8.839843 19.703125-19.707031 19.703125l-88.109375-.019532-88.121094-.019531c-10.847656 0-19.6835932-8.828125-19.695312-19.675781v-142.039062c-.0117188-9.804688 7.320312-18.203126 17.054688-19.523438l90.761718-12.328125 85.460938-11.605469c5.636718-.761718 11.328125.9375 15.605468 4.6875 4.289063 3.738282 6.75 9.148438 6.75 14.835938zm0 0" fill="#ff5b5b"/><path d="m511.496094 285.839844-.058594 206.464844c0 5.699218-2.46875 11.117187-6.78125 14.867187-3.609375 3.128906-8.195312 4.828125-12.914062 4.828125-.910157 0-1.832032-.070312-2.75-.191406l-116.253907-16.355469-121.792969-17.136719c-9.667968-1.359375-16.96875-9.746094-16.96875-19.515625v-172.96875c0-10.867187 8.839844-19.707031 19.707032-19.707031h238.105468c5.269532 0 10.21875 2.050781 13.9375 5.777344 1.859376 1.859375 3.300782 4.03125 4.28125 6.390625.980469 2.359375 1.488282 4.910156 1.488282 7.546875zm0 0" fill="#ffb64c"/><path d="m215.703125 285.832031v167.730469c0 5.691406-2.46875 11.097656-6.757813 14.847656-3.609374 3.148438-8.21875 4.847656-12.949218 4.847656-.890625 0-1.789063-.058593-2.679688-.179687l-85.5-11.714844-90.578125-12.417969c-9.699219-1.332031-17.027343-9.71875-17.027343-19.515624l-.011719-143.597657c0-5.261719 2.050781-10.210937 5.769531-13.929687 3.730469-3.726563 8.667969-5.777344 13.9375-5.777344h176.089844c10.859375 0 19.707031 8.839844 19.707031 19.707031zm0 0" fill="#6aa9ff"/><path d="m511.4375 19.699219v206.445312c0 10.855469-8.839844 19.695313-19.695312 19.695313h-238.058594c-10.867188 0-19.707032-8.839844-19.707032-19.695313v-171.800781c0-4.859375 1.820313-9.390625 4.832032-12.867188 3.019531-3.480468 7.226562-5.929687 12.035156-6.628906l121.894531-17.738281 116.164063-16.90625c5.65625-.820313 11.394531.851563 15.726562 4.601563 4.328125 3.746093 6.808594 9.175781 6.808594 14.894531zm0 0" fill="#a8ebfa"/><path d="m195.925781 247.777344-88.109375-.019532v-193.585937l85.460938-11.605469c5.636718-.761718 11.328125.9375 15.605468 4.6875 4.289063 3.738282 6.75 9.148438 6.75 14.835938v165.984375c0 10.867187-8.839843 19.703125-19.707031 19.703125zm0 0" fill="#ff3636"/><path d="m215.703125 285.832031v167.730469c0 5.691406-2.46875 11.097656-6.757813 14.847656-3.609374 3.148438-8.21875 4.847656-12.949218 4.847656-.890625 0-1.789063-.058593-2.679688-.179687l-85.5-11.714844v-195.238281h88.179688c10.859375 0 19.707031 8.839844 19.707031 19.707031zm0 0" fill="#2682ff"/><path d="m491.742188 245.839844h-119.003907v-228.730469l116.164063-16.90625c5.65625-.820313 11.394531.851563 15.726562 4.601563 4.328125 3.746093 6.808594 9.175781 6.808594 14.894531v206.445312c0 10.855469-8.839844 19.695313-19.695312 19.695313zm0 0" fill="#76e2f8"/><path d="m511.496094 285.839844-.058594 206.464844c0 5.699218-2.46875 11.117187-6.78125 14.867187-3.609375 3.128906-8.195312 4.828125-12.914062 4.828125-.910157 0-1.832032-.070312-2.75-.191406l-116.253907-16.355469v-229.328125h119.050781c5.269532 0 10.21875 2.050781 13.9375 5.777344 1.859376 1.859375 3.300782 4.03125 4.28125 6.390625.980469 2.359375 1.488282 4.910156 1.488282 7.546875zm0 0" fill="#ff9f00"/></svg>