<svg viewBox="-110 0 511 512" xmlns="http://www.w3.org/2000/svg"><path d="m204.832031 141.957031v31.347657h58.273438c4.390625 0 8.644531 1.082031 12.292969 3.121093 7.875 4.402344 12.769531 12.726563 12.769531 21.722657l-.03125 79.242187c0 13.6875-11.136719 24.835937-24.832031 24.835937h-58.472657v184.941407c0 13.6875-11.136719 24.832031-24.832031 24.832031h-81.996094c-13.6875 0-24.835937-11.144531-24.835937-24.832031v-184.941407h-47.835938c-13.695312 0-24.832031-11.148437-24.832031-24.835937v-79.253906c0-13.6875 11.136719-24.832031 24.832031-24.832031h47.835938v-39.679688c0-39.351562 12.359375-72.820312 35.730469-96.804688 9.507812-9.753906 20.53125-17.640624 32.859374-23.582031 18.128907-8.726562 39.050782-13.238281 62.023438-13.238281l62.523438.101562c13.679687.019532 24.792968 11.164063 24.792968 24.832032v73.582031c0 13.695313-11.136718 24.832031-24.832031 24.832031l-42.09375.019532c-12.835937 0-16.109375 2.570312-16.808594 3.363281-1.152343 1.308593-2.53125 5.011719-2.53125 15.226562zm0 0" fill="#6aa9ff"/><path d="m204.832031 141.957031v31.347657h58.273438c4.390625 0 8.644531 1.082031 12.292969 3.121093 7.875 4.402344 12.769531 12.726563 12.769531 21.722657l-.03125 79.242187c0 13.6875-11.136719 24.835937-24.832031 24.835937h-58.472657v184.941407c0 13.6875-11.136719 24.832031-24.832031 24.832031h-38.242188v-498.761719c18.128907-8.726562 39.050782-13.238281 62.023438-13.238281l62.523438.101562c13.679687.019532 24.792968 11.164063 24.792968 24.832032v73.582031c0 13.695313-11.136718 24.832031-24.832031 24.832031l-42.09375.019532c-12.835937 0-16.109375 2.570312-16.808594 3.363281-1.152343 1.308593-2.53125 5.011719-2.53125 15.226562zm0 0" fill="#2682ff"/></svg>