<svg viewBox="0 0 512 512" xmlns="http://www.w3.org/2000/svg"><path d="m512 138.597656v234.804688c0 76.421875-62.175781 138.597656-138.597656 138.597656h-234.804688c-76.421875 0-138.597656-62.175781-138.597656-138.597656v-234.804688c0-76.421875 62.175781-138.597656 138.597656-138.597656h234.804688c76.421875 0 138.597656 62.175781 138.597656 138.597656zm0 0" fill="#ff5e95"/><path d="m512 138.597656v234.804688c0 76.421875-62.175781 138.597656-138.597656 138.597656h-117.261719v-512h117.261719c76.421875 0 138.597656 62.175781 138.597656 138.597656zm0 0" fill="#ff3980"/><path d="m256 116.003906c-77.191406 0-139.996094 62.804688-139.996094 139.996094s62.804688 139.996094 139.996094 139.996094 139.996094-62.804688 139.996094-139.996094-62.804688-139.996094-139.996094-139.996094zm0 249.976563c-60.644531 0-109.980469-49.335938-109.980469-109.980469s49.335938-109.980469 109.980469-109.980469 109.980469 49.335938 109.980469 109.980469-49.335938 109.980469-109.980469 109.980469zm0 0" fill="#fff"/><g fill="#96fff6"><path d="m399.34375 66.285156c-22.808594 0-41.367188 18.554688-41.367188 41.367188s18.558594 41.371094 41.367188 41.371094c22.8125 0 41.371094-18.558594 41.371094-41.371094s-18.558594-41.367188-41.371094-41.367188zm0 0"/><path d="m395.996094 256c0 77.191406-62.804688 139.996094-139.996094 139.996094v-30.015625c60.644531 0 109.980469-49.335938 109.980469-109.980469s-49.335938-109.980469-109.980469-109.980469v-30.015625c77.191406 0 139.996094 62.804688 139.996094 139.996094zm0 0"/></g></svg>