<svg viewBox="-26 1 511 511.99994" xmlns="http://www.w3.org/2000/svg"><path d="m458.851562 245.765625c-.667968 15.71875-7.1875 29.886719-17.109374 39.777344 9.382812 9.199219 14.359374 21.648437 13.8125 35.96875-.171876 14.347656-4.582032 25.816406-13.082032 34.085937-3.289062 3.203125-6.957031 5.671875-10.847656 7.589844 6.578125 8.699219 10.128906 19.28125 10.128906 30.488281 0 15.289063-5.789062 29.238281-16.289062 39.269531-8.570313 8.1875-19.769532 13.308594-31.636719 14.648438 1.847656 5.109375 2.707031 10.679688 2.46875 16.527344-.019531 2.332031-.238281 6.640625-.578125 8.679687-.773438 4.621094-2.082031 8.761719-3.960938 12.472657-1.890624 3.71875-4.351562 6.996093-7.410156 9.90625-11.558594 11-25.507812 16.820312-40.328125 16.820312-.007812 0-41.097656-.050781-54.347656-.050781-22.636719 0-43.144531-.648438-61.796875-1.988281-37.65625-2.691407-67.714844-8.171876-92.324219-16.699219-7.839843-2.75-14.6875-5.808594-20.738281-8.5-10.699219-4.761719-19.136719-8.53125-27.90625-8.53125h-35.699219c-10.808593 0-26.457031-1.148438-37.507812-11.148438-11.828125-10.707031-13.199219-26.238281-13.199219-36.976562l.011719-163.210938c0-14.988281 4.609375-27.636719 13.308593-36.597656 6.269532-6.429687 17.828126-14.097656 37.386719-14.097656.960938 0 2.019531.007812 3.167969.019531 11.160156.128906 29.511719.320312 41.390625-9.992188.71875-1.378906 1.417969-2.679687 2.058594-3.847656.421875-.851562.820312-1.550781 1.121093-2.070312.109376-.191406.21875-.371094.320313-.558594.820313-1.953125 1.789063-3.679688 2.9375-5.210938 6.332031-10.589843 13.449219-20.46875 19.640625-27.21875 13.679688-14.960937 26.359375-22.699218 37.535156-29.527343 13.132813-8.019531 22.621094-13.820313 30.878906-29.9375l.570313-1.132813c12.371094-24.097656 17.488281-34.078125 20.578125-46.046875 1.050781-4.058593 1.511719-8.320312 1.371094-12.667969-.789063-11.871093 3.101562-28.1875 15.097656-37.929687 5.082031-4.128906 11.621094-7.066406 19.871094-7.9882812l.828125-.0898438h.832031c16.886719 0 31.015625 4 42.015625 11.890625 16.378906 11.726563 24.679687 30.796875 24.679687 56.65625 0 46.136719-11.28125 83.042969-21.019531 106.304687l115.855469 14.546876c27.757812 1.589843 49.195312 26.738281 47.914062 56.367187zm0 0" fill="#ffbb85"/><path d="m458.851562 245.765625c-.667968 15.71875-7.1875 29.886719-17.109374 39.777344 9.382812 9.199219 14.359374 21.648437 13.8125 35.96875-.171876 14.347656-4.582032 25.816406-13.082032 34.085937-3.289062 3.203125-6.957031 5.671875-10.847656 7.589844 6.578125 8.699219 10.128906 19.28125 10.128906 30.488281 0 15.289063-5.789062 29.238281-16.289062 39.269531-8.570313 8.1875-19.769532 13.308594-31.636719 14.648438 1.847656 5.109375 2.707031 10.679688 2.46875 16.527344-.019531 2.332031-.238281 6.640625-.578125 8.679687-.773438 4.621094-2.082031 8.761719-3.960938 12.472657-1.890624 3.71875-4.351562 6.996093-7.410156 9.90625-11.558594 11-25.507812 16.820312-40.328125 16.820312-.007812 0-41.097656-.050781-54.347656-.050781-22.636719 0-43.144531-.648438-61.796875-1.988281v-501.882813c5.082031-4.128906 11.621094-7.066406 19.871094-7.9882812l.828125-.0898438h.832031c16.886719 0 31.015625 4 42.015625 11.890625 16.378906 11.726563 24.679687 30.796875 24.679687 56.65625 0 46.136719-11.28125 83.042969-21.019531 106.304687l115.855469 14.546876c27.757812 1.589843 49.195312 26.738281 47.914062 56.367187zm0 0" fill="#f5a86c"/></svg>