<svg viewBox="-26 1 511 511.99994" xmlns="http://www.w3.org/2000/svg"><path d="m410.9375 322.601562-115.855469 14.546876c9.738281 23.261718 21.019531 60.167968 21.019531 106.304687 0 25.859375-8.300781 44.929687-24.679687 56.65625-11 7.890625-25.128906 11.890625-42.015625 11.890625h-.832031l-.828125-.101562c-6.820313-.757813-12.917969-3.039063-18.039063-6.636719-6.46875-4.550781-11.390625-11.210938-14.21875-19.539063-3.070312-9.070312-2.851562-17.378906-2.722656-19.691406.152344-4.367188-.308594-8.636719-1.359375-12.71875-3.089844-11.957031-8.207031-21.9375-20.566406-46.035156l-.582032-1.121094c-8.257812-16.128906-17.746093-21.929688-30.878906-29.949219-11.175781-6.828125-23.855468-14.566406-37.546875-29.539062-6.179687-6.746094-13.296875-16.628907-19.628906-27.207031-1.128906-1.519532-2.097656-3.238282-2.9375-5.210938-.101563-.199219-.210937-.378906-.320313-.558594-.300781-.53125-.699218-1.21875-1.121093-2.070312-.640625-1.167969-1.339844-2.46875-2.058594-3.847656-11.878906-10.3125-30.238281-10.121094-41.398437-9.992188-1.140626.011719-2.199219.019531-3.160157.019531-19.558593 0-31.117187-7.667969-37.386719-14.105469-8.699218-8.953124-13.308593-21.601562-13.308593-36.589843l-.011719-163.210938c0-22.4375 7.539062-31.847656 13.199219-36.976562 11.050781-10 26.699219-11.148438 37.507812-11.148438h35.699219c8.769531 0 17.207031-3.769531 27.90625-8.53125 6.050781-2.699219 12.898438-5.75 20.679688-8.480469 25.046874-8.679687 55.695312-14.199218 94.214843-16.847656 18.160157-1.25 38.066407-1.8593748 59.964844-1.8593748 13.25 0 54.339844-.0507812 54.339844-.0507812 14.828125 0 28.777343 5.820312 40.335937 16.828125 6.121094 5.808594 9.839844 13.128906 11.371094 22.359375.339844 2.050781.558594 6.351562.578125 8.679688.238281 5.859374-.621094 11.417968-2.46875 16.539062 11.878906 1.339844 23.066406 6.460938 31.636719 14.640625 10.5 10.039063 16.289062 23.988281 16.289062 39.277344 0 11.207031-3.550781 21.789062-10.128906 30.488281 3.890625 1.910156 7.558594 4.386719 10.847656 7.578125 8.5 8.269531 12.910156 19.738281 13.082032 34.089844.546874 14.316406-4.429688 26.765625-13.8125 35.976562 9.921874 9.890625 16.441406 24.058594 17.109374 39.777344 1.28125 29.628906-20.15625 54.765625-47.914062 56.367187zm0 0" fill="#ff5b5b"/><path d="m410.9375 322.601562-115.855469 14.546876c9.738281 23.261718 21.019531 60.167968 21.019531 106.304687 0 25.859375-8.300781 44.929687-24.679687 56.65625-11 7.890625-25.128906 11.890625-42.015625 11.890625h-.832031l-.828125-.101562c-6.820313-.757813-12.917969-3.039063-18.039063-6.636719v-503.351563c18.160157-1.25 38.066407-1.8593748 59.964844-1.8593748 13.25 0 54.339844-.0507812 54.339844-.0507812 14.828125 0 28.777343 5.820312 40.335937 16.828125 6.121094 5.808594 9.839844 13.128906 11.371094 22.359375.339844 2.050781.558594 6.351562.578125 8.679688.238281 5.859374-.621094 11.417968-2.46875 16.539062 11.878906 1.339844 23.066406 6.460938 31.636719 14.640625 10.5 10.039063 16.289062 23.988281 16.289062 39.277344 0 11.207031-3.550781 21.789062-10.128906 30.488281 3.890625 1.910156 7.558594 4.386719 10.847656 7.578125 8.5 8.269531 12.910156 19.738281 13.082032 34.089844.546874 14.316406-4.429688 26.765625-13.8125 35.976562 9.921874 9.890625 16.441406 24.058594 17.109374 39.777344 1.28125 29.628906-20.15625 54.765625-47.914062 56.367187zm0 0" fill="#ff3636"/></svg>