<svg viewBox="0 -60 512.00038 512" xmlns="http://www.w3.org/2000/svg"><path d="m509.265625 28.3125-212.492187 350.382812c-3.824219 6.113282-10.058594 10.464844-17.101563 11.9375-1.761719.371094-3.550781.550782-5.34375.550782-5.28125 0-10.515625-1.589844-14.90625-4.601563l-50.160156-34.203125-51 33.839844c-6.804688 4.484375-15.449219 4.863281-22.613281 1.011719-7.144532-3.851563-11.585938-11.265625-11.585938-19.359375v-78.507813c0-6.644531 3.179688-12.996093 8.503906-16.96875l113.507813-84.75-9.558594 5.042969-136.066406 71.753906c-6.964844 3.671875-15.328125 3.191406-21.832031-1.253906l-67.140626-45.824219c-8.144531-5.503906-12.488281-15.070312-11.277343-24.914062 1.222656-9.90625 7.804687-18.183594 17.191406-21.59375l469.652344-169.71875c7.394531-2.722657 15.71875-.449219 20.730469 5.664062 5.035156 6.132813 5.625 14.769531 1.492187 21.511719zm0 0" fill="#51faff"/><path d="m507.773438 6.800781-261.699219 180.84375-113.507813 84.75c-5.324218 3.972657-8.503906 10.324219-8.503906 16.96875v78.507813c0 8.09375 4.441406 15.507812 11.585938 19.359375 7.164062 3.851562 15.808593 3.472656 22.613281-1.011719l51-33.839844 50.160156 34.203125c4.390625 3.011719 9.625 4.601563 14.90625 4.601563 1.792969 0 3.582031-.179688 5.34375-.550782 7.042969-1.472656 13.277344-5.824218 17.101563-11.9375l212.492187-350.382812c4.132813-6.742188 3.542969-15.378906-1.492187-21.511719zm0 0" fill="#00e7f0"/></svg>