<svg viewBox="0 0 512 512.00001" xmlns="http://www.w3.org/2000/svg"><path d="m511.988281 256.003906c0 68.375-26.625 132.667969-74.96875 181.015625-48.316406 48.316407-112.539062 74.941407-180.855469 74.980469h-.167968c-68.375 0-132.667969-26.625-181.015625-74.980469-48.355469-48.347656-74.980469-112.640625-74.980469-181.015625 0-68.382812 26.625-132.664062 74.980469-181.023437 48.347656-48.34375 112.640625-74.980469 181.015625-74.980469h.167968c68.316407.0390625 132.539063 26.675781 180.855469 74.980469 48.34375 48.359375 74.96875 112.640625 74.96875 181.023437zm0 0" fill="#ffb64c"/><path d="m511.988281 256.003906c0 68.375-26.625 132.667969-74.96875 181.015625-48.316406 48.316407-112.539062 74.941407-180.855469 74.980469v-512c68.316407.0390625 132.539063 26.675781 180.855469 74.980469 48.34375 48.359375 74.96875 112.640625 74.96875 181.023437zm0 0" fill="#ff9f00"/><path d="m214.722656 211.234375c-8.292968 0-15.015625-6.722656-15.015625-15.015625 0-17.074219-13.890625-30.964844-30.96875-30.964844-17.074219 0-30.964843 13.890625-30.964843 30.964844 0 8.292969-6.722657 15.015625-15.015626 15.015625-8.292968 0-15.015624-6.722656-15.015624-15.015625 0-33.632812 27.363281-60.996094 60.996093-60.996094 33.636719 0 60.996094 27.363282 60.996094 60.996094 0 8.292969-6.722656 15.015625-15.011719 15.015625zm0 0" fill="#fff"/><path d="m393.925781 211.234375c-8.289062 0-15.011719-6.722656-15.011719-15.015625 0-17.074219-13.894531-30.964844-30.96875-30.964844-17.078124 0-30.96875 13.890625-30.96875 30.964844 0 8.292969-6.722656 15.015625-15.011718 15.015625-8.292969 0-15.015625-6.722656-15.015625-15.015625 0-33.632812 27.363281-60.996094 60.996093-60.996094 33.632813 0 60.996094 27.363282 60.996094 60.996094 0 8.292969-6.722656 15.015625-15.015625 15.015625zm0 0" fill="#96fff6"/><path d="m359.714844 273.230469c0 57.09375-46.453125 103.550781-103.550782 103.550781-57.09375 0-103.546874-46.457031-103.546874-103.550781 0-8.285157 6.726562-15.011719 15.011718-15.011719 8.300782 0 15.015625 6.726562 15.015625 15.011719 0 40.539062 32.980469 73.519531 73.519531 73.519531 40.539063 0 73.519532-32.980469 73.519532-73.519531 0-8.285157 6.71875-15.011719 15.015625-15.011719 8.289062 0 15.015625 6.726562 15.015625 15.011719zm0 0" fill="#fff"/><path d="m359.714844 273.230469c0 57.09375-46.453125 103.550781-103.550782 103.550781v-30.03125c40.539063 0 73.519532-32.980469 73.519532-73.519531 0-8.285157 6.71875-15.011719 15.015625-15.011719 8.289062 0 15.015625 6.726562 15.015625 15.011719zm0 0" fill="#96fff6"/></svg>