<svg viewBox="-54 0 512 512" xmlns="http://www.w3.org/2000/svg"><path d="m404.074219 136.191406v357.609375c0 10.042969-8.167969 18.199219-18.207031 18.199219h-367.660157c-10.039062 0-18.207031-8.15625-18.207031-18.199219v-475.601562c0-10.042969 8.167969-18.199219 18.207031-18.199219h249.664063c4.707031 0 9.121094 1.832031 12.441406 5.15625l118.605469 118.605469c3.324219 3.3125 5.15625 7.726562 5.15625 12.429687zm0 0" fill="#ff5e95"/><path d="m404.074219 136.191406v357.609375c0 10.042969-8.167969 18.199219-18.207031 18.199219h-183.828126v-512h65.832032c4.707031 0 9.121094 1.832031 12.441406 5.15625l118.605469 118.605469c3.324219 3.3125 5.15625 7.726562 5.15625 12.429687zm0 0" fill="#ff3980"/><path d="m404.074219 136.191406v15.015625h-135.582031c-8.296876 0-15.015626-6.714843-15.015626-15.015625v-136.191406h14.394532c4.707031 0 9.121094 1.832031 12.441406 5.15625l118.605469 118.605469c3.324219 3.3125 5.15625 7.726562 5.15625 12.429687zm0 0" fill="#f30051"/><g fill="#fff"><path d="m342.265625 250.773438c0 8.289062-6.726563 15.015624-15.015625 15.015624h-191.808594c-8.289062 0-15.015625-6.726562-15.015625-15.015624 0-8.285157 6.726563-15.011719 15.015625-15.011719h191.808594c8.289062 0 15.015625 6.726562 15.015625 15.011719zm0 0"/><path d="m342.265625 319.640625c0 8.289063-6.726563 15.015625-15.015625 15.015625h-191.808594c-8.289062 0-15.015625-6.726562-15.015625-15.015625 0-8.285156 6.726563-15.011719 15.015625-15.011719h191.808594c8.289062 0 15.015625 6.726563 15.015625 15.011719zm0 0"/><path d="m342.265625 388.507812c0 8.289063-6.726563 15.015626-15.015625 15.015626h-191.808594c-8.289062 0-15.015625-6.726563-15.015625-15.015626 0-8.296874 6.726563-15.011718 15.015625-15.011718h191.808594c8.289062 0 15.015625 6.714844 15.015625 15.011718zm0 0"/><path d="m76.824219 265.789062c-.488281 0-.980469-.019531-1.472657-.070312-.488281-.050781-.980468-.128906-1.460937-.21875-.480469-.101562-.960937-.222656-1.421875-.359375-.46875-.152344-.929688-.3125-1.378906-.503906-.460938-.1875-.902344-.398438-1.332032-.628907-.429687-.21875-.859374-.480468-1.261718-.75-.410156-.269531-.8125-.5625-1.191406-.871093-.378907-.3125-.75-.652344-1.089844-.992188-.351563-.347656-.683594-.71875-1.003906-1.101562-.296876-.378907-.597657-.769531-.867188-1.179688-.273438-.410156-.523438-.832031-.753906-1.261719-.226563-.429687-.4375-.878906-.628906-1.332031-.191407-.449219-.351563-.921875-.5-1.378906-.140626-.472656-.261719-.953125-.359376-1.433594-.09375-.480469-.171874-.96875-.210937-1.449219-.050781-.492187-.082031-.992187-.082031-1.484374 0-.488282.03125-.988282.082031-1.46875.039063-.492188.117187-.980469.210937-1.460938.097657-.480469.21875-.960938.359376-1.421875.148437-.472656.308593-.941406.5-1.394531.191406-.449219.398437-.890625.628906-1.320313.230468-.441406.480468-.859375.753906-1.269531.269531-.402344.570312-.800781.867188-1.183594.320312-.378906.652343-.75 1.003906-1.097656.339844-.34375.710937-.683594 1.089844-.992188.382812-.3125.78125-.601562 1.191406-.871093.398437-.269531.832031-.519531 1.261718-.75.429688-.230469.871094-.441407 1.332032-.632813.449218-.1875.910156-.347656 1.378906-.5.460938-.140625.941406-.257812 1.421875-.359375.480469-.089843.972656-.171875 1.460937-.210937.980469-.101563 1.972657-.101563 2.953126 0 .480468.039062.972656.121094 1.453124.210937.480469.101563.960938.21875 1.429688.359375.460938.152344.933594.3125 1.382812.5.449219.191406.898438.402344 1.332032.632813.429687.230469.851562.480469 1.261718.75.410157.269531.800782.558593 1.179688.871093.382812.308594.75.648438 1.101562.992188.339844.347656.683594.71875.992188 1.097656.308594.382813.597656.78125.871094 1.183594.269531.410156.527344.828125.757812 1.269531.222656.429688.441406.871094.621094 1.320313.191406.453125.363281.921875.5 1.394531.140625.460937.261719.941406.363281 1.421875.097657.480469.167969.96875.21875 1.460938.050781.480468.070313.980468.070313 1.46875 0 .492187-.019532.992187-.070313 1.484374-.050781.480469-.121093.96875-.21875 1.449219-.101562.480469-.222656.960938-.363281 1.433594-.136719.457031-.308594.929687-.5 1.378906-.179688.453125-.398438.902344-.621094 1.332031-.226562.429688-.488281.851563-.757812 1.261719-.273438.410157-.5625.800781-.871094 1.179688-.3125.382812-.652344.753906-.992188 1.101562-.351562.339844-.71875.679688-1.101562.992188-.378906.308593-.769531.601562-1.179688.871093-.410156.269532-.832031.53125-1.261718.75-.433594.230469-.882813.441407-1.332032.628907-.449218.191406-.921874.351562-1.382812.503906-.46875.136719-.949219.257813-1.429688.359375-.480468.089844-.972656.167969-1.453124.21875-.488282.050781-.988282.070312-1.480469.070312zm0 0"/><path d="m76.824219 334.65625c-.488281 0-.980469-.019531-1.472657-.070312-.488281-.050782-.980468-.128907-1.460937-.21875-.480469-.101563-.960937-.222657-1.421875-.359376-.46875-.152343-.929688-.3125-1.378906-.503906-.460938-.1875-.902344-.398437-1.332032-.628906-.429687-.230469-.859374-.480469-1.261718-.75-.410156-.269531-.8125-.5625-1.191406-.871094-.378907-.3125-.75-.652344-1.089844-.992187-.351563-.347657-.683594-.71875-1.003906-1.101563-.296876-.378906-.597657-.78125-.867188-1.179687-.273438-.410157-.523438-.832031-.753906-1.269531-.226563-.433594-.4375-.871094-.628906-1.324219-.191407-.449219-.351563-.917969-.5-1.378907-.140626-.472656-.261719-.953124-.359376-1.433593-.09375-.480469-.171874-.96875-.210937-1.449219-.050781-.492188-.082031-.992188-.082031-1.484375 0-.488281.03125-.988281.082031-1.46875.039063-.492187.117187-.980469.210937-1.460937.097657-.480469.21875-.960938.359376-1.421876.148437-.472656.308593-.941406.5-1.390624.191406-.453126.398437-.894532.628906-1.324219.230468-.4375.480468-.859375.753906-1.269531.269531-.402344.570312-.800782.867188-1.183594.320312-.378906.652343-.75 1.003906-1.097656.339844-.34375.710937-.683594 1.089844-.992188.382812-.3125.78125-.601562 1.191406-.871094.398437-.269531.832031-.519531 1.261718-.75.429688-.230468.871094-.441406 1.332032-.632812.449218-.1875.910156-.347656 1.378906-.5.460938-.140625.941406-.257813 1.421875-.359375.480469-.089844.972656-.171875 1.460937-.21875.980469-.101563 1.972657-.101563 2.953126 0 .480468.046875.972656.128906 1.453124.21875.480469.101562.960938.21875 1.429688.359375.460938.152344.933594.3125 1.382812.5.449219.191406.898438.402344 1.332032.632812.429687.230469.851562.480469 1.261718.75.410157.269532.800782.558594 1.179688.871094.382812.308594.75.648438 1.101562.992188.339844.347656.683594.71875.992188 1.097656.308594.382812.597656.78125.871094 1.183594.269531.410156.527344.832031.757812 1.269531.222656.429687.441406.871093.621094 1.324219.191406.449218.363281.917968.5 1.390624.140625.460938.261719.941407.363281 1.421876.097657.480468.167969.96875.21875 1.460937.050781.480469.070313.980469.070313 1.46875 0 .492187-.019532.992187-.070313 1.484375-.050781.480469-.121093.96875-.21875 1.449219-.101562.480469-.222656.960937-.363281 1.433593-.136719.460938-.308594.929688-.5 1.378907-.179688.453125-.398438.890625-.621094 1.324219-.226562.4375-.488281.859374-.757812 1.269531-.273438.398437-.5625.800781-.871094 1.179687-.308594.382813-.652344.753906-.992188 1.101563-.351562.339843-.71875.679687-1.101562.992187-.378906.308594-.769531.601563-1.179688.871094-.410156.269531-.832031.519531-1.261718.75-.433594.230469-.882813.441406-1.332032.628906-.449218.191406-.921874.351563-1.382812.503906-.46875.136719-.949219.257813-1.429688.359376-.480468.089843-.972656.167968-1.453124.21875-.488282.050781-.988282.070312-1.480469.070312zm0 0"/><path d="m76.824219 403.523438c-.488281 0-.980469-.03125-1.472657-.078126-.488281-.042968-.980468-.121093-1.460937-.222656-.480469-.089844-.960937-.210937-1.421875-.347656-.46875-.152344-.929688-.3125-1.378906-.503906-.460938-.1875-.902344-.398438-1.332032-.628906-.429687-.230469-.859374-.480469-1.261718-.75-.410156-.269532-.8125-.5625-1.191406-.871094-.378907-.3125-.75-.652344-1.089844-.992188-.351563-.347656-.683594-.71875-1.003906-1.101562-.296876-.378906-.597657-.78125-.867188-1.179688-.273438-.410156-.523438-.832031-.753906-1.269531-.226563-.433594-.4375-.871094-.628906-1.324219-.191407-.449218-.351563-.917968-.5-1.390625-.140626-.460937-.261719-.941406-.359376-1.421875-.09375-.480468-.171874-.96875-.210937-1.460937-.050781-.488281-.082031-.980469-.082031-1.472657 0-.488281.03125-.988281.082031-1.480468.039063-.480469.117187-.96875.210937-1.449219.097657-.480469.21875-.960937.359376-1.433594.148437-.460937.308593-.929687.5-1.378906.191406-.453125.398437-.902344.628906-1.332031.230468-.429688.480468-.851563.753906-1.261719.269531-.410156.570312-.800781.867188-1.183594.320312-.378906.652343-.75 1.003906-1.097656.339844-.34375.710937-.683594 1.089844-.992187.382812-.3125.78125-.601563 1.191406-.871094.398437-.269532.832031-.53125 1.261718-.761719.429688-.21875.871094-.441406 1.332032-.621094.449218-.1875.910156-.359375 1.378906-.5.460938-.140625.941406-.257812 1.421875-.359375.480469-.089844.972656-.171875 1.460937-.21875.980469-.101562 1.972657-.101562 2.953126 0 .480468.046875.972656.128906 1.453124.21875.480469.101563.960938.21875 1.429688.359375.460938.140625.933594.3125 1.382812.5.449219.179688.898438.402344 1.332032.621094.429687.230469.851562.492187 1.261718.761719.410157.269531.800782.558594 1.179688.871094.382812.308593.75.648437 1.101562.992187.339844.347656.683594.71875.992188 1.097656.308594.382813.597656.773438.871094 1.183594.269531.410156.527344.832031.757812 1.261719.222656.429687.441406.878906.621094 1.332031.191406.449219.363281.917969.5 1.378906.140625.472657.261719.953125.363281 1.433594.097657.480469.167969.96875.21875 1.449219.050781.492187.070313.992187.070313 1.480468 0 .492188-.019532.984376-.070313 1.472657-.050781.492187-.121093.980469-.21875 1.460937-.101562.480469-.222656.960938-.363281 1.421875-.136719.472657-.308594.941407-.5 1.390625-.179688.453125-.398438.890625-.621094 1.324219-.226562.4375-.488281.859375-.757812 1.269531-.273438.398438-.5625.800782-.871094 1.179688-.3125.382812-.652344.753906-.992188 1.101562-.351562.339844-.71875.679688-1.101562.992188-.378906.308594-.769531.601562-1.179688.871094-.410156.269531-.832031.519531-1.261718.75-.433594.230468-.882813.441406-1.332032.628906-.449218.191406-.921874.351562-1.382812.503906-.46875.136719-.949219.257812-1.429688.347656-.480468.101563-.972656.179688-1.453124.222656-.488282.046876-.988282.078126-1.480469.078126zm0 0"/></g><path d="m342.265625 388.507812c0 8.289063-6.726563 15.015626-15.015625 15.015626h-125.210938v-30.027344h125.210938c8.289062 0 15.015625 6.714844 15.015625 15.011718zm0 0" fill="#96fff6"/><path d="m342.265625 319.640625c0 8.289063-6.726563 15.015625-15.015625 15.015625h-125.210938v-30.027344h125.210938c8.289062 0 15.015625 6.726563 15.015625 15.011719zm0 0" fill="#96fff6"/><path d="m327.25 265.789062h-125.210938v-30.027343h125.210938c8.289062 0 15.015625 6.726562 15.015625 15.011719 0 8.289062-6.726563 15.015624-15.015625 15.015624zm0 0" fill="#96fff6"/></svg>