<svg viewBox="-53 0 511 512" xmlns="http://www.w3.org/2000/svg"><path d="m404.566406 136.191406v357.609375c0 10.042969-8.160156 18.199219-18.199218 18.199219h-367.667969c-10.042969 0-18.199219-8.15625-18.199219-18.199219v-475.601562c0-10.042969 8.15625-18.199219 18.199219-18.199219h249.671875c4.695312 0 9.109375 1.820312 12.433594 5.144531l118.613281 118.617188c3.316406 3.3125 5.148437 7.726562 5.148437 12.429687zm0 0" fill="#6aa9ff"/><path d="m404.566406 136.191406v357.609375c0 10.042969-8.160156 18.199219-18.199218 18.199219h-187.832032v-512h69.835938c4.695312 0 9.109375 1.820312 12.433594 5.144531l118.613281 118.617188c3.316406 3.3125 5.148437 7.726562 5.148437 12.429687zm0 0" fill="#2682ff"/><path d="m404.566406 136.191406v15.015625h-135.585937c-8.285157 0-15.011719-6.714843-15.011719-15.015625v-136.191406h14.402344c4.695312 0 9.109375 1.820312 12.433594 5.144531l118.613281 118.617188c3.316406 3.3125 5.148437 7.726562 5.148437 12.429687zm0 0" fill="#005fe1"/><path d="m330.921875 209.195312h-255.878906c-9.410157 0-17.058594 7.65625-17.058594 17.054688v199.394531c0 9.398438 7.648437 17.058594 17.058594 17.058594h255.878906c9.410156 0 17.058594-7.660156 17.058594-17.058594v-199.394531c0-9.398438-7.648438-17.054688-17.058594-17.054688zm-199.59375 203.476563h-43.3125v-36.816406h43.3125zm0-66.84375h-43.3125v-39.757813h43.3125zm0-69.789063h-43.3125v-36.816406h43.3125zm186.621094 136.632813h-156.59375v-36.816406h156.59375zm0-66.84375h-156.59375v-39.757813h156.59375zm0-69.789063h-156.59375v-36.816406h156.59375zm0 0" fill="#fff"/><path d="m347.980469 226.25v199.394531c0 9.398438-7.648438 17.058594-17.058594 17.058594h-132.386719v-30.03125h119.414063v-36.816406h-119.414063v-30.027344h119.414063v-39.757813h-119.414063v-30.03125h119.414063v-36.816406h-119.414063v-30.027344h132.386719c9.410156 0 17.058594 7.65625 17.058594 17.054688zm0 0" fill="#96fff6"/></svg>