<svg viewBox="0 0 512 512.00001" xmlns="http://www.w3.org/2000/svg"><path d="m511.992188 248.289062c0 66.320313-25.824219 128.671876-72.71875 175.566407-46.894532 46.894531-109.246094 72.71875-175.570313 72.71875-.320313 0-.640625 0-.960937-.007813-39.226563-.152344-78.164063-9.679687-112.90625-27.617187l-119.222657 41.730469c-2.523437.890624-5.117187 1.320312-7.667969 1.320312-5.976562 0-11.773437-2.351562-16.1875-6.757812-6.304687-6.304688-8.386718-15.445313-5.445312-23.851563l41.730469-119.234375c-18.078125-35.011719-27.625-74.320312-27.625-113.867188 0-66.324218 25.832031-128.675781 72.71875-175.570312 23.203125-23.191406 50.296875-41.308594 80.535156-53.832031 29.949219-12.410157 61.601563-18.765625 94.070313-18.8750002.3125-.0117188.632812-.0117188.941406-.0117188h.019531c66.335937 0 128.675781 25.824219 175.570313 72.71875 46.894531 46.894531 72.71875 109.246094 72.71875 175.570312zm0 0" fill="#00dd7b"/><path d="m511.992188 248.289062c0 66.320313-25.824219 128.671876-72.71875 175.566407-46.894532 46.894531-109.246094 72.71875-175.570313 72.71875-.320313 0-.640625 0-.960937-.007813v-496.5546872c.3125-.0117188.632812-.0117188.941406-.0117188h.019531c66.335937 0 128.675781 25.824219 175.570313 72.71875 46.894531 46.894531 72.71875 109.246094 72.71875 175.570312zm0 0" fill="#00ab5e"/><path d="m398.183594 325.042969c0 7.503906-2.863282 15.011719-8.570313 20.71875l-26.933593 26.933593c-8.097657 8.089844-19.25 12.152344-32.75 12.152344-12.222657 0-26.378907-3.324218-41.921876-9.988281-8.226562-3.535156-16.695312-7.90625-25.265624-13.03125-21-12.5625-42.578126-29.628906-62.679688-49.730469-28.296875-28.296875-50.585938-59.527344-62.757812-87.941406-14.035157-32.734375-13.265626-59.25 2.160156-74.671875l26.9375-26.9375c5.535156-5.523437 12.890625-8.578125 20.707031-8.578125 7.828125 0 15.1875 3.054688 20.722656 8.578125l33.660157 33.664063c11.421874 11.429687 11.421874 30.007812 0 41.4375l-12.492188 12.492187c9.03125 16.554687 20.390625 31.429687 33.742188 44.273437 11.652343 11.199219 24.824218 20.871094 39.277343 28.746094l12.492188-12.492187c5.535156-5.535157 12.894531-8.578125 20.722656-8.578125 7.824219 0 15.183594 3.042968 20.71875 8.578125l33.660156 33.664062c5.707031 5.714844 8.570313 13.210938 8.570313 20.710938zm0 0" fill="#fff"/><path d="m398.183594 325.042969c0 7.503906-2.863282 15.011719-8.570313 20.71875l-26.933593 26.933593c-8.097657 8.089844-19.25 12.152344-32.75 12.152344-12.222657 0-26.378907-3.324218-41.921876-9.988281-8.226562-3.535156-16.695312-7.90625-25.265624-13.03125v-107.414063c11.652343 11.199219 24.824218 20.871094 39.277343 28.746094l12.492188-12.492187c5.535156-5.535157 12.894531-8.578125 20.722656-8.578125 7.824219 0 15.183594 3.042968 20.71875 8.578125l33.660156 33.664062c5.707031 5.714844 8.570313 13.210938 8.570313 20.710938zm0 0" fill="#96fff6"/></svg>