<svg viewBox="1 0 511.99998 511" xmlns="http://www.w3.org/2000/svg"><path d="m512 376.996094c0 37.226562-13.359375 69.457031-39.695312 95.808594-26.351563 26.335937-58.582032 39.683593-95.808594 39.683593-28.136719 0-54.035156-8.105469-77-24.113281-14.78125 2.679688-29.390625 4.042969-43.492188 4.042969h-.007812c-31.804688 0-62.652344-6.257813-91.695313-18.613281-28.957031-12.308594-54.304687-29.222657-75.351562-50.265626-21.042969-21.054687-37.953125-46.402343-50.261719-75.339843-12.347656-29.050781-18.613281-59.902344-18.613281-91.703125 0-14.121094 1.359375-28.742188 4.042969-43.5-16.011719-22.945313-24.117188-48.835938-24.117188-76.992188 0-37.238281 13.347656-69.46875 39.695312-95.808594 26.351563-26.335937 58.582032-39.695312 95.808594-39.695312 28.136719 0 54.027344 8.117188 77 24.125 14.769532-2.679688 29.390625-4.042969 43.5-4.042969 31.804688 0 62.652344 6.257813 91.695313 18.613281 28.957031 12.308594 54.304687 29.222657 75.351562 50.265626 21.042969 21.054687 37.953125 46.402343 50.261719 75.339843 12.347656 29.050781 18.613281 59.890625 18.613281 91.695313 0 14.117187-1.359375 28.75-4.050781 43.5 16.007812 22.964844 24.125 48.863281 24.125 77zm0 0" fill="#6aa9ff"/><path d="m512 376.996094c0 37.226562-13.359375 69.457031-39.695312 95.808594-26.351563 26.335937-58.582032 39.683593-95.808594 39.683593-28.136719 0-54.035156-8.105469-77-24.113281-14.78125 2.679688-29.390625 4.042969-43.492188 4.042969v-471.835938c31.804688 0 62.652344 6.257813 91.695313 18.613281 28.957031 12.308594 54.304687 29.222657 75.351562 50.265626 21.042969 21.054687 37.953125 46.402343 50.261719 75.339843 12.347656 29.050781 18.613281 59.890625 18.613281 91.695313 0 14.117187-1.359375 28.75-4.050781 43.5 16.007812 22.964844 24.125 48.863281 24.125 77zm0 0" fill="#2682ff"/><path d="m357.625 318.847656c0 29.28125-9.765625 52.425782-29.03125 68.816406-18.542969 15.78125-42.859375 23.785157-72.269531 23.785157h-.320313c-25.375-.046875-47.671875-5.472657-66.246094-16.128907-21.363281-12.257812-32.199218-27.007812-32.199218-43.839843 0-8.835938 3.132812-17.523438 9.316406-25.828125 8.964844-12.039063 19.28125-14.570313 26.355469-14.570313 6.476562 0 13.109375 2.542969 19.746093 7.554688 4.433594 3.351562 8.804688 7.117187 13.007813 11.1875 1.671875 1.621093 5.023437 4.132812 11.609375 6.964843 5.164062 2.222657 10.816406 3.304688 17.28125 3.304688.378906 0 .757812 0 1.128906-.011719 8.035156-.148437 14.382813-1.890625 19.375-5.324219 2.640625-1.820312 5.09375-4.433593 5.09375-11.195312 0-4.023438-1.070312-7.347656-3.382812-10.449219-2.933594-3.933593-6.804688-7.183593-11.808594-9.90625-2.941406-1.601562-6.035156-3.191406-9.277344-4.753906-3.851562-1.871094-7.894531-3.710937-12.097656-5.503906-8.476562-3.613281-17.191406-7.746094-25.886719-12.289063-9.125-4.75-17.613281-10.214844-25.207031-16.210937-8.714844-6.875-15.769531-16.03125-20.976562-27.1875-5.140626-11.015625-7.753907-23.585938-7.753907-37.34375 0-15.402344 3.203125-29.320313 9.507813-41.371094 6.402344-12.246094 15.1875-21.972656 26.105468-28.898437 9.988282-6.335938 20.816407-11.039063 32.183594-14 7.703125-2 15.789063-3.3125 24.125-3.921876 3.683594-.28125 7.425782-.421874 11.199219-.421874 6.84375 0 14.167969.472656 21.785156 1.410156 7.59375.953125 15.710938 2.503906 24.125 4.636718 10.066407 2.539063 18.5625 6.722657 25.269531 12.417969 8.324219 7.105469 12.71875 16.199219 12.71875 26.335938 0 8.066406-2.402343 16.242187-7.144531 24.308593-6.097656 10.335938-15.582031 16.019532-26.71875 16.019532-4.324219 0-9.457031-1.332032-24.207031-8.335938-7.597656-3.613281-16.292969-5.441406-25.828125-5.441406-4.164063 0-7.914063.296875-11.199219.890625-4.402344.789063-7.953125 2.089844-10.515625 3.859375-3.09375 2.152344-4.242187 4.363281-4.242187 8.15625 0 1.890625.4375 4.214844 3.703125 7.136719 3.070312 2.75 6.773437 5.191406 11.054687 7.3125 1.84375.902343 3.785156 1.742187 5.835938 2.523437 8.964844 3.414063 18.792968 7.753906 29.230468 12.898438 10.605469 5.242187 20.59375 11.019531 29.679688 17.160156 10.605469 7.175781 19.503906 17.484375 26.4375 30.632812 6.933594 13.140626 10.4375 28.480469 10.4375 45.621094zm0 0" fill="#fff"/><g fill="#96fff6"><path d="m267.203125 182.65625c-4.164063 0-7.914063.296875-11.199219.890625v-71.820313c3.683594-.28125 7.425782-.421874 11.199219-.421874 6.84375 0 14.167969.472656 21.785156 1.410156 7.59375.953125 15.710938 2.503906 24.125 4.636718 10.066407 2.539063 18.5625 6.722657 25.269531 12.417969 8.324219 7.105469 12.71875 16.199219 12.71875 26.335938 0 8.066406-2.402343 16.242187-7.144531 24.308593-6.097656 10.335938-15.582031 16.019532-26.71875 16.019532-4.324219 0-9.457031-1.332032-24.207031-8.335938-7.597656-3.613281-16.292969-5.441406-25.828125-5.441406zm0 0"/><path d="m357.625 318.847656c0 29.28125-9.765625 52.425782-29.03125 68.816406-18.542969 15.78125-42.859375 23.785157-72.269531 23.785157h-.320313v-71.367188c8.035156-.148437 14.382813-1.890625 19.375-5.324219 2.640625-1.820312 5.09375-4.433593 5.09375-11.195312 0-4.023438-1.070312-7.347656-3.382812-10.449219-2.933594-3.933593-6.804688-7.183593-11.808594-9.90625-2.941406-1.601562-6.035156-3.191406-9.277344-4.753906v-88.441406c1.84375.902343 3.785156 1.742187 5.835938 2.523437 8.964844 3.414063 18.792968 7.753906 29.230468 12.898438 10.605469 5.242187 20.59375 11.019531 29.679688 17.160156 10.605469 7.175781 19.503906 17.484375 26.4375 30.632812 6.933594 13.140626 10.4375 28.480469 10.4375 45.621094zm0 0"/></g></svg>