<svg viewBox="0 -54 511.99959 511" xmlns="http://www.w3.org/2000/svg"><path d="m351.480469 391.328125c-5.402344 7.585937-14.335938 12.101563-23.886719 12.101563h-212.75c-35.941406 0-65.175781-29.226563-65.175781-65.164063v-129.910156h-20.363281c-9.574219 0-18.515626-4.539063-23.910157-12.140625-7.773437-10.929688-7.085937-25.640625 1.667969-35.761719l85.867188-99.316406c5.507812-6.371094 13.488281-10.019531 21.902343-10.019531 8.421875 0 16.40625 3.648437 21.910157 10.019531l85.867187 99.316406c8.753906 10.121094 9.445313 24.832031 1.671875 35.761719-5.398438 7.601562-14.339844 12.140625-23.910156 12.140625h-20.363282v64.742187h85.648438c8.441406 0 16.445312 3.667969 21.960938 10.074219l62.265624 72.417969c8.714844 10.140625 9.371094 24.828125 1.597657 35.738281zm0 0" fill="#51faff"/><path d="m504.941406 243.472656-85.875 99.328125c-5.496094 6.363281-13.492187 10.019531-21.902344 10.019531-8.414062 0-16.40625-3.65625-21.914062-10.019531l-85.867188-99.316406c-8.75-10.121094-9.441406-24.828125-1.667968-35.769531 5.40625-7.59375 14.339844-12.140625 23.910156-12.140625h20.363281v-64.734375h-85.648437c-8.441406 0-16.445313-3.675782-21.960938-10.082032l-62.265625-72.417968c-8.714843-10.132813-9.375-24.828125-1.589843-35.742188 5.40625-7.570312 14.335937-12.097656 23.890624-12.097656h212.75c35.929688 0 65.164063 29.234375 65.164063 65.164062v129.910157h20.363281c9.570313 0 18.503906 4.535156 23.910156 12.140625 7.773438 10.929687 7.09375 25.636718-1.660156 35.757812zm0 0" fill="#51faff"/><g fill="#00e7f0"><path d="m349.882812 355.589844c8.714844 10.140625 9.371094 24.828125 1.597657 35.738281-5.402344 7.585937-14.335938 12.101563-23.886719 12.101563h-71.800781v-130.332032h9.863281c8.441406 0 16.445312 3.667969 21.960938 10.074219zm0 0"/><path d="m504.941406 243.472656-85.875 99.328125c-5.496094 6.363281-13.492187 10.019531-21.902344 10.019531-8.414062 0-16.40625-3.65625-21.914062-10.019531l-85.867188-99.316406c-8.75-10.121094-9.441406-24.828125-1.667968-35.769531 5.40625-7.59375 14.339844-12.140625 23.910156-12.140625h20.363281v-64.734375h-76.195312v-130.339844h141.371093c35.929688 0 65.164063 29.234375 65.164063 65.164062v129.910157h20.363281c9.570313 0 18.503906 4.535156 23.910156 12.140625 7.773438 10.929687 7.09375 25.636718-1.660156 35.757812zm0 0"/></g></svg>