<svg viewBox="0 -48 512.00002 512" xmlns="http://www.w3.org/2000/svg"><path d="m512 135.515625v216.871094c0 34.855469-28.363281 63.21875-63.230469 63.21875h-385.550781c-34.855469 0-63.21875-28.363281-63.21875-63.21875v-216.871094c0-34.863281 28.363281-63.230469 63.21875-63.230469h57.832031c1.492188 0 4.308594-2.023437 4.777344-3.445312l14.949219-44.84375c4.546875-13.675782 18.863281-23.996094 33.292968-23.996094h163.859376c14.40625 0 28.714843 10.308594 33.285156 23.976562l14.957031 44.875c.46875 1.421876 3.277344 3.433594 4.769531 3.433594h57.828125c34.867188 0 63.230469 28.367188 63.230469 63.230469zm0 0" fill="#51faff"/><path d="m512 135.515625v216.871094c0 34.855469-28.363281 63.21875-63.230469 63.21875h-188.117187v-415.605469h77.277344c14.40625 0 28.714843 10.308594 33.285156 23.976562l14.957031 44.875c.46875 1.421876 3.277344 3.433594 4.769531 3.433594h57.828125c34.867188 0 63.230469 28.367188 63.230469 63.230469zm0 0" fill="#00e7f0"/><path d="m383.117188 234.644531c0 67.527344-54.933594 122.460938-122.464844 122.460938-67.527344 0-122.460938-54.933594-122.460938-122.460938 0-67.527343 54.933594-122.460937 122.460938-122.460937 67.53125 0 122.464844 54.933594 122.464844 122.460937zm0 0" fill="#fff"/><path d="m383.117188 234.644531c0 67.527344-54.933594 122.460938-122.464844 122.460938v-244.921875c67.53125 0 122.464844 54.933594 122.464844 122.460937zm0 0" fill="#96fff6"/><path d="m326.347656 234.644531c0 36.21875-29.464844 65.695313-65.695312 65.695313-36.226563 0-65.691406-29.476563-65.691406-65.695313 0-36.230469 29.464843-65.695312 65.691406-65.695312 36.230468 0 65.695312 29.464843 65.695312 65.695312zm0 0" fill="#6aa9ff"/><path d="m425.054688 169.070312c-.492188 0-.992188-.019531-1.480469-.070312-.484375-.050781-.972657-.121094-1.453125-.21875-.480469-.101562-.964844-.222656-1.433594-.363281-.460938-.140625-.933594-.308594-1.382812-.5-.449219-.179688-.902344-.402344-1.332032-.621094-.429687-.230469-.851562-.492187-1.261718-.761719-.414063-.269531-.8125-.5625-1.183594-.871094-.378906-.3125-.75-.652343-1.101563-.992187-2.796875-2.796875-4.398437-6.671875-4.398437-10.628906 0-.492188.019531-.980469.070312-1.472657.050782-.492187.121094-.980468.21875-1.464843.101563-.480469.222656-.960938.363282-1.421875.136718-.472656.308593-.933594.5-1.394532.179687-.449218.390624-.890624.621093-1.320312s.492188-.863281.761719-1.261719c.269531-.410156.558594-.8125.871094-1.191406.308594-.382813.640625-.753906.992187-1.09375.351563-.351563.722657-.679687 1.101563-1.003906.371094-.296875.769531-.597657 1.183594-.871094.410156-.269531.832031-.519531 1.261718-.75.429688-.230469.882813-.441406 1.332032-.632813.449218-.1875.921874-.347656 1.382812-.488281.46875-.152343.953125-.273437 1.433594-.359375.480468-.101562.96875-.171875 1.453125-.222656.980469-.101562 1.972656-.101562 2.953125 0 .492187.050781.984375.121094 1.464844.222656.480468.089844.960937.207032 1.421874.359375.46875.140625.929688.300781 1.390626.488281.453124.191407.894531.402344 1.324218.632813.429688.230469.863282.480469 1.273438.75.398437.273437.800781.574219 1.179687.871094.382813.324219.753907.652343 1.101563 1.003906.34375.339844.671875.710937.992187 1.09375.300781.378906.601563.78125.875 1.191406.269531.398438.519531.832031.75 1.261719s.441407.871094.628907 1.320312c.191406.460938.351562.921876.492187 1.394532.152344.460937.269531.941406.359375 1.421875.101562.480469.183594.972656.222656 1.464843.050782.488282.078125.980469.078125 1.472657 0 3.957031-1.601562 7.832031-4.398437 10.628906-.347656.339844-.71875.683594-1.101563.992187-.378906.308594-.78125.601563-1.179687.871094-.410156.269532-.84375.53125-1.273438.761719-.429687.21875-.871094.441406-1.324218.621094-.460938.191406-.921876.359375-1.390626.5-.460937.140625-.941406.261719-1.421874.363281-.480469.097656-.972657.167969-1.464844.21875-.488282.050781-.980469.070312-1.472656.070312zm0 0" fill="#ff3980"/><path d="m425.054688 211.148438c-.492188 0-.992188-.019532-1.480469-.070313-.484375-.046875-.972657-.117187-1.453125-.21875-.480469-.101563-.964844-.222656-1.433594-.359375-.460938-.140625-.933594-.3125-1.382812-.503906-.449219-.179688-.902344-.398438-1.332032-.621094-.429687-.226562-.851562-.488281-1.261718-.757812-.414063-.273438-.8125-.5625-1.183594-.875-.378906-.308594-.75-.640626-1.101563-.992188-.351562-.347656-.683593-.71875-.992187-1.101562-.3125-.371094-.601563-.769532-.871094-1.183594-.269531-.410156-.53125-.828125-.761719-1.261719-.230469-.429687-.441406-.878906-.621093-1.332031-.191407-.449219-.363282-.921875-.5-1.382813-.140626-.46875-.261719-.953125-.363282-1.433593-.097656-.480469-.167968-.96875-.21875-1.453126-.050781-.488281-.070312-.988281-.070312-1.480468 0-3.957032 1.601562-7.824219 4.398437-10.621094.351563-.351562.722657-.679688 1.101563-.992188.371094-.308593.769531-.609374 1.183594-.882812.410156-.269531.832031-.519531 1.261718-.75.429688-.230469.882813-.4375 1.332032-.628906.449218-.191406.921874-.351563 1.382812-.492188.46875-.148437.953125-.269531 1.433594-.371094.480468-.089843.96875-.171874 1.453125-.21875 4.445312-.441406 8.964843 1.191407 12.101562 4.335938.351563.339844.679688.710938.992188 1.09375.308593.378906.609375.78125.882812 1.191406.269531.398438.519531.832032.75 1.261719s.441407.871094.628907 1.324219c.183593.460937.351562.921875.492187 1.390625.152344.460937.269531.941406.359375 1.421875.101562.480468.171875.972656.222656 1.464844.050782.492187.078125.980468.078125 1.472656 0 .492187-.027343.992187-.078125 1.480468-.050781.484376-.121094.972657-.222656 1.453126-.089844.480468-.207031.964843-.359375 1.433593-.140625.460938-.308594.933594-.492187 1.382813-.1875.453125-.398438.902344-.628907 1.332031-.230469.433594-.480469.851563-.75 1.261719-.273437.414062-.574219.8125-.882812 1.183594-.3125.382812-.640625.753906-.992188 1.101562-.339843.351562-.710937.683594-1.09375.992188-.378906.3125-.78125.601562-1.191406.875-.398437.269531-.832031.527343-1.261719.757812-.429687.222656-.882812.441406-1.332031.621094-.453125.191406-.914063.363281-1.382813.503906-.460937.140625-.941406.257812-1.421874.359375-.480469.101563-.972657.171875-1.464844.21875-.488282.050781-.980469.070313-1.472656.070313zm0 0" fill="#ff3980"/><path d="m326.347656 234.644531c0 36.21875-29.464844 65.695313-65.695312 65.695313v-131.390625c36.230468 0 65.695312 29.464843 65.695312 65.695312zm0 0" fill="#2682ff"/></svg>