<svg viewBox="1 0 511.99997 511" xmlns="http://www.w3.org/2000/svg"><path d="m440.476562 239.476562h-106.582031c-8.292969 0-15.015625 6.722657-15.015625 15.015626 0 8.296874 6.722656 15.019531 15.015625 15.019531h106.582031c8.292969 0 15.015626-6.722657 15.015626-15.019531 0-8.292969-6.722657-15.015626-15.015626-15.015626zm0 0" fill="#00e7f0"/><g fill="#51faff"><path d="m194.003906 254.492188c0-8.292969-6.722656-15.015626-15.019531-15.015626h-107.773437c-8.292969 0-15.015626 6.722657-15.015626 15.015626 0 8.296874 6.722657 15.019531 15.015626 15.019531h107.777343c8.292969 0 15.015625-6.722657 15.015625-15.019531zm0 0"/><path d="m271.464844 71.46875v105.570312c0 8.300782-6.730469 15.015626-15.019532 15.015626-8.300781 0-15.019531-6.714844-15.019531-15.015626v-105.570312c0-8.300781 6.71875-15.019531 15.019531-15.019531 8.289063 0 15.019532 6.71875 15.019532 15.019531zm0 0"/><path d="m271.464844 331.949219v107.773437c0 8.300782-6.730469 15.019532-15.019532 15.019532-8.300781 0-15.019531-6.71875-15.019531-15.019532v-107.773437c0-8.289063 6.71875-15.019531 15.019531-15.019531 8.289063 0 15.019532 6.730468 15.019532 15.019531zm0 0"/></g><path d="m311.359375 214.390625c3.84375 0 7.6875-1.464844 10.617187-4.398437l74.566407-74.566407c5.863281-5.863281 5.863281-15.375 0-21.238281-5.863281-5.867188-15.375-5.867188-21.238281 0l-74.566407 74.566406c-5.867187 5.863282-5.867187 15.371094 0 21.238282 2.933594 2.933593 6.777344 4.398437 10.621094 4.398437zm0 0" fill="#00e7f0"/><path d="m190.902344 298.585938-76.414063 76.414062c-5.863281 5.867188-5.863281 15.375 0 21.242188 2.933594 2.929687 6.777344 4.398437 10.621094 4.398437 3.839844 0 7.683594-1.46875 10.617187-4.398437l76.414063-76.417969c5.867187-5.863281 5.867187-15.371094 0-21.238281-5.863281-5.863282-15.371094-5.863282-21.238281 0zm0 0" fill="#51faff"/><path d="m136.578125 113.1875c-5.863281-5.863281-15.375-5.863281-21.238281 0-5.867188 5.863281-5.867188 15.375 0 21.238281l75.566406 75.566407c2.929688 2.933593 6.773438 4.398437 10.617188 4.398437s7.6875-1.464844 10.621093-4.398437c5.863281-5.863282 5.863281-15.375 0-21.238282zm0 0" fill="#51faff"/><path d="m321.980469 298.589844c-5.867188-5.863282-15.375-5.863282-21.242188 0-5.863281 5.863281-5.863281 15.375 0 21.238281l76.417969 76.414063c2.929688 2.933593 6.773438 4.398437 10.617188 4.398437s7.6875-1.464844 10.621093-4.398437c5.863281-5.863282 5.863281-15.375 0-21.238282zm0 0" fill="#00e7f0"/><path d="m348.910156 254.492188c0 50.996093-41.480468 92.476562-92.464844 92.476562-50.992187 0-92.472656-41.480469-92.472656-92.476562 0-50.992188 41.480469-92.472657 92.472656-92.472657 50.984376 0 92.464844 41.480469 92.464844 92.472657zm0 0" fill="#6aa9ff"/><path d="m298.566406 43.0625c0 23.328125-18.851562 42.332031-42.121094 42.574219h-.449218c-23.46875 0-42.5625-19.09375-42.5625-42.574219 0-23.46875 19.09375-42.5625 42.5625-42.5625h.449218c23.269532.242188 42.121094 19.242188 42.121094 42.5625zm0 0" fill="#ff5e95"/><path d="m299.007812 469.929688c0 23.46875-19.09375 42.5625-42.5625 42.5625-23.480468 0-42.574218-19.09375-42.574218-42.5625 0-23.480469 19.09375-42.574219 42.574218-42.574219 23.46875 0 42.5625 19.09375 42.5625 42.574219zm0 0" fill="#ff5e95"/><path d="m85.136719 254.714844c0-23.472656-19.09375-42.570313-42.566407-42.570313-23.472656 0-42.570312 19.097657-42.570312 42.570313s19.097656 42.570312 42.570312 42.570312c23.472657 0 42.566407-19.097656 42.566407-42.570312zm0 0" fill="#ff5e95"/><path d="m469.429688 211.703125c-23.472657 0-42.570313 19.097656-42.570313 42.570313 0 23.472656 19.097656 42.570312 42.570313 42.570312 23.472656 0 42.570312-19.097656 42.570312-42.570312 0-23.472657-19.097656-42.570313-42.570312-42.570313zm0 0" fill="#ff3980"/><path d="m105.429688 63.113281c-11.371094 0-22.058594 4.425781-30.101563 12.46875-8.039063 8.039063-12.464844 18.726563-12.464844 30.097657 0 11.371093 4.425781 22.0625 12.464844 30.101562 8.300781 8.296875 19.203125 12.449219 30.101563 12.449219 10.902343 0 21.800781-4.152344 30.101562-12.449219 8.039062-8.039062 12.46875-18.730469 12.46875-30.101562 0-11.371094-4.429688-22.058594-12.46875-30.101563-8.039062-8.039063-18.730469-12.464844-30.101562-12.464844zm0 0" fill="#ff5e95"/><path d="m437.679688 377.105469c-16.597657-16.597657-43.605469-16.597657-60.203126 0-16.597656 16.597656-16.597656 43.601562 0 60.199219 8.300782 8.300781 19.199219 12.449218 30.101563 12.449218 10.898437 0 21.800781-4.148437 30.101563-12.449218 16.597656-16.597657 16.597656-43.601563 0-60.199219zm0 0" fill="#ff3980"/><path d="m75.203125 377.289062c-16.601563 16.597657-16.601563 43.605469 0 60.203126 8.296875 8.296874 19.199219 12.449218 30.097656 12.449218 10.902344 0 21.804688-4.152344 30.101563-12.449218 16.597656-16.597657 16.597656-43.605469 0-60.203126-16.597656-16.59375-43.601563-16.59375-60.199219 0zm0 0" fill="#ff5e95"/><path d="m406.828125 147.8125c11.371094 0 22.058594-4.429688 30.097656-12.46875 8.042969-8.039062 12.472657-18.730469 12.472657-30.101562 0-11.371094-4.429688-22.058594-12.46875-30.101563-16.597657-16.59375-43.605469-16.59375-60.203126 0-8.039062 8.042969-12.46875 18.730469-12.46875 30.101563 0 11.371093 4.429688 22.0625 12.46875 30.101562 8.039063 8.039062 18.730469 12.46875 30.101563 12.46875zm0 0" fill="#ff3980"/><path d="m271.464844 71.46875v105.570312c0 8.300782-6.730469 15.015626-15.019532 15.015626v-135.605469c8.289063 0 15.019532 6.71875 15.019532 15.019531zm0 0" fill="#00e7f0"/><path d="m271.464844 331.949219v107.773437c0 8.300782-6.730469 15.019532-15.019532 15.019532v-137.8125c8.289063 0 15.019532 6.730468 15.019532 15.019531zm0 0" fill="#00e7f0"/><path d="m256.445312 85.636719v-85.136719c23.269532.242188 42.121094 19.242188 42.121094 42.5625 0 23.328125-18.851562 42.332031-42.121094 42.574219zm0 0" fill="#ff3980"/><path d="m299.007812 469.929688c0 23.46875-19.09375 42.5625-42.5625 42.5625v-85.136719c23.46875 0 42.5625 19.09375 42.5625 42.574219zm0 0" fill="#ff3980"/><path d="m348.910156 254.492188c0 50.996093-41.480468 92.476562-92.464844 92.476562v-184.949219c50.984376 0 92.464844 41.480469 92.464844 92.472657zm0 0" fill="#2682ff"/></svg>