<svg viewBox="0 0 512 512" xmlns="http://www.w3.org/2000/svg"><path d="m512 138.597656v234.804688c0 76.421875-62.175781 138.597656-138.597656 138.597656h-234.804688c-76.421875 0-138.597656-62.175781-138.597656-138.597656v-234.804688c0-76.421875 62.175781-138.597656 138.597656-138.597656h234.804688c76.421875 0 138.597656 62.175781 138.597656 138.597656zm0 0" fill="#51faff"/><path d="m512 138.597656v234.804688c0 76.421875-62.175781 138.597656-138.597656 138.597656h-117.402344v-512h117.402344c76.421875 0 138.597656 62.175781 138.597656 138.597656zm0 0" fill="#00e7f0"/><path d="m512 260.851562v112.550782c0 76.421875-62.175781 138.597656-138.597656 138.597656h-234.804688c-76.421875 0-138.597656-62.175781-138.597656-138.597656v-42.109375h30.015625l65.757813-60.535157c13.816406-12.726562 35.488281-12.738281 49.324218-.03125l65.878906 60.472657c1.839844 1.691406 3.910157 1.761719 4.980469 1.664062 1.070313-.109375 3.082031-.589843 4.5625-2.613281l29.789063-40.960938 5.691406-7.824218 80.765625-111.070313c6.390625-8.777343 16.265625-14.21875 27.101563-14.929687 10.847656-.699219 21.332031 3.402344 28.808593 11.285156l89.308594 94.101562zm0 0" fill="#00dd7b"/><path d="m142.90625 192.226562c-1.148438 0-2.289062-.042968-3.449219-.113281-26.273437-1.679687-47.507812-22.902343-49.1875-49.183593-1.960937-30.636719 22.410157-56.183594 52.636719-56.191407 1.140625 0 2.292969.039063 3.453125.109375 26.273437 1.679688 47.507813 22.902344 49.1875 49.1875 1.960937 30.636719-22.414063 56.199219-52.640625 56.191406zm0 0" fill="#ffb64c"/><path d="m512 260.851562v112.550782c0 76.421875-62.175781 138.597656-138.597656 138.597656h-117.402344v-230.535156l80.765625-111.070313c6.390625-8.777343 16.265625-14.21875 27.101563-14.929687 10.847656-.699219 21.332031 3.402344 28.808593 11.285156l89.308594 94.101562zm0 0" fill="#00ab5e"/></svg>