<svg viewBox="0 -100 512 512" xmlns="http://www.w3.org/2000/svg"><g fill="#6aa9ff"><path d="m506.53125 75.769531c0 41.78125-34.082031 75.78125-75.972656 75.78125-.007813 0-.007813 0-.019532 0-41.898437-.011719-75.980468-34.011719-75.980468-75.78125s34.082031-75.7578122 75.980468-75.769531h.019532c41.890625 0 75.972656 33.988281 75.972656 75.769531zm0 0"/><path d="m512 252.03125v32.929688c0 14.488281-11.800781 26.277343-26.308594 26.277343h-110.292968c-14.507813 0-26.296876-11.789062-26.296876-26.277343v-32.929688c0-40.203125 32.726563-83.242188 81.4375-83.25h.011719c48.71875 0 81.449219 43.046875 81.449219 83.25zm0 0"/><path d="m307.769531 98.140625c0 37.679687-30.730469 68.328125-68.507812 68.328125h-.011719c-37.789062-.007812-68.519531-30.648438-68.519531-68.328125s30.730469-68.332031 68.519531-68.339844h.011719c37.777343 0 68.507812 30.660157 68.507812 68.339844zm0 0"/><path d="m312.570312 257.441406v28.898438c0 13.730468-11.179687 24.898437-24.921874 24.898437h-96.796876c-13.730468 0-24.910156-11.167969-24.910156-24.898437v-28.898438c0-36.171875 29.457032-74.882812 73.308594-74.890625h.011719c43.847656 0 73.308593 38.71875 73.308593 74.890625zm0 0"/><path d="m124.628906 122.820312c0 33.160157-27.039062 60.140626-60.277344 60.140626-33.25 0-60.292968-26.980469-60.292968-60.140626 0-33.148437 27.042968-60.128906 60.292968-60.128906 33.238282 0 60.277344 26.980469 60.277344 60.128906zm0 0"/><path d="m128.691406 263.410156v24.449219c0 12.902344-10.492187 23.378906-23.402344 23.378906h-81.898437c-12.902344 0-23.390625-10.476562-23.390625-23.378906v-24.449219c0-31.71875 25.859375-65.679687 64.351562-65.679687 38.488282 0 64.339844 33.960937 64.339844 65.679687zm0 0"/></g><path d="m64.351562 182.960938v-120.269532c33.238282 0 60.277344 26.980469 60.277344 60.128906 0 33.160157-27.039062 60.140626-60.277344 60.140626zm0 0" fill="#2682ff"/><path d="m128.691406 263.410156v24.449219c0 12.902344-10.492187 23.378906-23.402344 23.378906h-40.9375v-113.507812c38.488282 0 64.339844 33.960937 64.339844 65.679687zm0 0" fill="#2682ff"/><path d="m239.261719 166.46875h-.011719v-136.667969h.011719c37.777343 0 68.507812 30.660157 68.507812 68.339844s-30.730469 68.328125-68.507812 68.328125zm0 0" fill="#2682ff"/><path d="m312.570312 257.441406v28.898438c0 13.730468-11.179687 24.898437-24.921874 24.898437h-48.398438v-128.6875h.011719c43.847656 0 73.308593 38.71875 73.308593 74.890625zm0 0" fill="#2682ff"/><path d="m430.558594 151.550781c-.007813 0-.007813 0-.019532 0v-151.550781h.019532c41.890625 0 75.972656 33.988281 75.972656 75.769531s-34.082031 75.78125-75.972656 75.78125zm0 0" fill="#2682ff"/><path d="m512 252.03125v32.929688c0 14.488281-11.800781 26.277343-26.308594 26.277343h-55.152344v-142.457031h.011719c48.71875 0 81.449219 43.046875 81.449219 83.25zm0 0" fill="#2682ff"/></svg>