<svg viewBox="0 0 512 512.0001" xmlns="http://www.w3.org/2000/svg"><path d="m511.945312 245.636719v.683593c-1.53125 66.980469-29.019531 129.402344-77.382812 175.753907-47.144531 45.171875-108.695312 69.875-173.804688 69.886719-1.601562 0-3.183593-.019532-4.785156-.050782h-.5c-29.757812 0-59.035156-4.972656-87.082031-14.792968l-49.738281 31.070312c-4.023438 2.511719-8.597656 3.8125-13.242188 3.8125-1.710937 0-3.445312-.179688-5.144531-.539062-11.5625-2.402344-19.949219-12.863282-19.949219-24.875v-61.886719c-50.738281-45.484375-79.964844-110.375-80.316406-178.640625v-.421875c1.53125-66.980469 29.015625-129.402344 77.382812-175.753907 48.304688-46.285156 111.695313-71.089843 178.589844-69.835937 66.863282-1.242187 130.285156 23.550781 178.589844 69.835937 48.363281 46.351563 75.851562 108.773438 77.382812 175.753907zm0 0" fill="#ff9468"/><path d="m511.945312 245.636719v.683593c-1.53125 66.980469-29.019531 129.402344-77.382812 175.753907-47.144531 45.171875-108.695312 69.875-173.804688 69.886719-1.601562 0-3.183593-.019532-4.785156-.050782v-491.863281c66.863282-1.242187 130.285156 23.550781 178.589844 69.835937 48.363281 46.351563 75.851562 108.773438 77.382812 175.753907zm0 0" fill="#ff712f"/><path d="m380.300781 222.1875c0 45.722656-35.054687 75.589844-83.570312 116.9375-7.9375 6.769531-16.945313 14.433594-26.375 22.683594-3.972657 3.484375-9.089844 5.40625-14.382813 5.40625-5.296875 0-10.410156-1.921875-14.394531-5.40625-9.347656-8.1875-18.386719-15.886719-26.355469-22.683594-48.523437-41.335938-83.578125-71.214844-83.578125-116.9375 0-21.152344 7.316407-40.730469 20.601563-55.144531 13.589844-14.742188 32.230468-22.859375 52.488281-22.859375 15.265625 0 29.226563 4.8125 41.507813 14.3125 3.433593 2.652344 6.6875 5.632812 9.730468 8.9375 3.042969-3.292969 6.296875-6.285156 9.730469-8.9375 12.28125-9.5 26.242187-14.3125 41.507813-14.3125 20.257812 0 38.898437 8.117187 52.488281 22.859375 13.285156 14.414062 20.601562 33.992187 20.601562 55.144531zm0 0" fill="#ff5b5b"/><path d="m380.300781 222.1875c0 45.722656-35.054687 75.589844-83.570312 116.9375-7.9375 6.769531-16.945313 14.433594-26.375 22.683594-3.972657 3.484375-9.089844 5.40625-14.382813 5.40625v-199.78125c3.042969-3.292969 6.296875-6.285156 9.730469-8.9375 12.28125-9.5 26.242187-14.3125 41.507813-14.3125 20.257812 0 38.898437 8.117187 52.488281 22.859375 13.285156 14.414062 20.601562 33.992187 20.601562 55.144531zm0 0" fill="#ff3636"/></svg>