<svg viewBox="0 0 512 512.0001" xmlns="http://www.w3.org/2000/svg"><path d="m511.945312 245.636719v.683593c-1.53125 66.980469-29.019531 129.402344-77.382812 175.753907-47.144531 45.171875-108.695312 69.875-173.804688 69.886719-1.511718 0-3.011718-.019532-4.523437-.039063-.132813-.011719-.261719-.011719-.390625-.011719h-.371094c-29.757812 0-59.035156-4.972656-87.082031-14.792968l-49.738281 31.070312c-4.023438 2.511719-8.597656 3.8125-13.242188 3.8125-1.710937 0-3.445312-.179688-5.144531-.539062-11.5625-2.402344-19.949219-12.863282-19.949219-24.875v-61.886719c-50.738281-45.484375-79.964844-110.375-80.316406-178.640625v-.421875c1.53125-66.980469 29.015625-129.402344 77.382812-175.753907 48.296876-46.285156 111.714844-71.089843 178.589844-69.835937h.261719c66.742187-1.183594 130.082031 23.609375 178.328125 69.835937 48.363281 46.351563 75.851562 108.773438 77.382812 175.753907zm0 0" fill="#ffb64c"/><path d="m511.945312 245.636719v.683593c-1.53125 66.980469-29.019531 129.402344-77.382812 175.753907-47.144531 45.171875-108.695312 69.875-173.804688 69.886719-1.511718 0-3.011718-.019532-4.523437-.039063v-491.875c66.742187-1.183594 130.082031 23.609375 178.328125 69.835937 48.363281 46.351563 75.851562 108.773438 77.382812 175.753907zm0 0" fill="#ff9f00"/><path d="m212.65625 211.007812c-.027344 0-.054688 0-.078125 0-8.292969-.042968-14.980469-6.796874-14.9375-15.089843.039063-8.273438-3.140625-16.066407-8.960937-21.941407-5.816407-5.878906-13.578126-9.140624-21.847657-9.179687-17.066406-.101563-31.039062 13.734375-31.125 30.808594-.042969 8.265625-6.757812 14.9375-15.011719 14.9375-.027343 0-.054687 0-.078124 0-8.292969-.042969-14.980469-6.796875-14.9375-15.089844.082031-16.292969 6.503906-31.578125 18.082031-43.039063 11.5-11.386718 26.730469-17.648437 42.902343-17.648437h.316407c16.292969.082031 31.578125 6.503906 43.039062 18.082031 11.460938 11.582032 17.730469 26.929688 17.648438 43.222656-.042969 8.265626-6.757813 14.9375-15.011719 14.9375zm0 0" fill="#fff"/><path d="m391.855469 211.914062c-.023438 0-.050781 0-.074219 0-8.292969-.042968-14.980469-6.796874-14.941406-15.089843.042968-8.273438-3.140625-16.066407-8.957032-21.945313-5.820312-5.875-13.582031-9.136718-21.851562-9.179687-.050781 0-.105469 0-.160156 0-17.003906 0-30.878906 13.789062-30.964844 30.808593-.039062 8.269532-6.753906 14.941407-15.011719 14.941407-.027343 0-.050781 0-.078125 0-8.289062-.042969-14.980468-6.796875-14.9375-15.089844.167969-33.527344 27.5-60.6875 60.992188-60.6875h.3125c16.292968.082031 31.578125 6.503906 43.039062 18.082031 11.460938 11.578125 17.730469 26.925782 17.648438 43.21875-.042969 8.269532-6.757813 14.941406-15.015625 14.941406zm0 0" fill="#96fff6"/><path d="m359.78125 273.746094c-.140625 27.664062-11.050781 53.609375-30.699219 73.066406-19.527343 19.328125-45.382812 29.960938-72.839843 29.960938h-.53125c-27.664063-.140626-53.609376-11.042969-73.066407-30.699219-19.460937-19.660157-30.101562-45.714844-29.960937-73.371094.042968-8.265625 6.757812-14.933594 15.015625-14.933594h.078125c8.289062.039063 14.976562 6.796875 14.9375 15.085938-.101563 19.636719 7.457031 38.132812 21.269531 52.085937 13.8125 13.964844 32.238281 21.703125 51.878906 21.800782h.378907c19.5 0 37.847656-7.546876 51.710937-21.269532 13.953125-13.8125 21.699219-32.238281 21.800781-51.878906.039063-8.265625 6.753906-14.933594 15.003906-14.933594h.078126c8.289062.039063 14.984374 6.796875 14.945312 15.085938zm0 0" fill="#fff"/><path d="m359.78125 273.746094c-.140625 27.664062-11.050781 53.609375-30.699219 73.066406-19.527343 19.328125-45.382812 29.960938-72.839843 29.960938h-.269532v-30.03125h.269532c19.5 0 37.847656-7.546876 51.710937-21.269532 13.953125-13.8125 21.699219-32.238281 21.800781-51.878906.039063-8.265625 6.753906-14.933594 15.003906-14.933594h.078126c8.289062.039063 14.984374 6.796875 14.945312 15.085938zm0 0" fill="#96fff6"/></svg>