<svg viewBox="-89 0 512 512.00001" xmlns="http://www.w3.org/2000/svg"><path d="m329.136719 109.445312-80.96875 156.710938h41.367187c24.574219 0 44.566406 19.988281 44.566406 44.570312v63.972657c0 24.574219-19.992187 44.5625-44.566406 44.5625h-112.457031c-2.910156 0-5.664063.949219-7.886719 2.621093-1.5625 1.171876-2.871094 2.695313-3.804687 4.496094l-31.777344 61.507813c-7.679687 14.875-22.851563 24.113281-39.597656 24.113281h-49.449219c-24.574219 0-44.5625-19.988281-44.5625-44.574219v-44.722656c0-7.085937 1.710938-14.164063 4.964844-20.457031l80.808594-156.402344h-41.210938c-24.574219 0-44.5625-19.988281-44.5625-44.5625v-63.96875c0-24.585938 19.988281-44.574219 44.5625-44.574219h112.296875c4.945313 0 9.417969-2.722656 11.691406-7.117187l.640625-1.242188 31.128906-60.265625c7.6875-14.875 22.863282-24.113281 39.597657-24.113281h58.746093c19.539063 0 35.4375 15.894531 35.4375 35.445312v53.539063c0 7.085937-1.714843 14.164063-4.964843 20.460937zm0 0" fill="#00dd7b"/><path d="m329.136719 109.445312-80.96875 156.710938h41.367187c24.574219 0 44.566406 19.988281 44.566406 44.570312v63.972657c0 24.574219-19.992187 44.5625-44.566406 44.5625h-112.457031c-2.910156 0-5.664063.949219-7.886719 2.621093v-337.503906l31.128906-60.265625c7.6875-14.875 22.863282-24.113281 39.597657-24.113281h58.746093c19.539063 0 35.4375 15.894531 35.4375 35.445312v53.539063c0 7.085937-1.714843 14.164063-4.964843 20.460937zm0 0" fill="#00ab5e"/></svg>