<svg viewBox="0 -100 512.00002 512" xmlns="http://www.w3.org/2000/svg"><path d="m512 17.46875v276.453125c0 9.628906-7.839844 17.464844-17.46875 17.464844h-477.0625c-9.628906 0-17.46875-7.835938-17.46875-17.464844v-276.453125c0-9.628906 7.839844-17.46875 17.46875-17.46875h477.0625c9.628906 0 17.46875 7.839844 17.46875 17.46875zm0 0" fill="#ff9468"/><path d="m512 17.46875v276.453125c0 9.628906-7.839844 17.464844-17.46875 17.464844h-238.53125v-311.386719h238.53125c9.628906 0 17.46875 7.839844 17.46875 17.46875zm0 0" fill="#ff712f"/><path d="m512 289.484375v4.4375c0 9.628906-7.839844 17.464844-17.46875 17.464844h-477.0625c-9.628906 0-17.46875-7.835938-17.46875-17.464844v-4.4375l185.09375-161.128906h141.8125zm0 0" fill="#ff5b5b"/><path d="m512 289.484375v4.4375c0 9.628906-7.839844 17.464844-17.46875 17.464844h-238.53125v-183.03125h70.90625zm0 0" fill="#ff3636"/><path d="m494.53125 0h-477.0625c-9.628906 0-17.46875 7.839844-17.46875 17.46875v6.304688l246.328125 163.023437c2.933594 1.941406 6.296875 2.921875 9.660156 2.921875h.011719c3.375 0 6.746094-.980469 9.699219-2.941406l246.300781-164.59375v-4.714844c0-9.628906-7.839844-17.46875-17.46875-17.46875zm0 0" fill="#ffb64c"/><path d="m512 17.46875v4.714844l-246.300781 164.59375c-2.953125 1.960937-6.324219 2.941406-9.699219 2.941406v-189.71875h238.53125c9.628906 0 17.46875 7.839844 17.46875 17.46875zm0 0" fill="#ff9f00"/></svg>