<svg viewBox="0 0 512.00001 512.00001" xmlns="http://www.w3.org/2000/svg"><path d="m512 255.898438c0 68.40625-26.636719 132.710937-75.019531 181.09375-48.347657 48.351562-112.617188 74.988281-180.980469 75.007812h-.089844c-141.113281 0-255.910156-114.886719-255.910156-256.101562 0-141.101563 114.796875-255.898438 255.910156-255.898438h.089844c68.375.0195312 132.640625 26.628906 180.980469 74.929688 48.371093 48.328124 75.019531 112.597656 75.019531 180.96875zm0 0" fill="#51faff"/><path d="m512 255.898438c0 68.40625-26.636719 132.710937-75.019531 181.09375-48.347657 48.351562-112.617188 74.988281-180.980469 75.007812v-512c68.375.0195312 132.640625 26.628906 180.980469 74.929688 48.371093 48.328124 75.019531 112.597656 75.019531 180.96875zm0 0" fill="#00e7f0"/><path d="m166.925781 179.617188c-41.917969 0-76.023437 34.105468-76.023437 76.027343 0 42.003907 34.105468 76.175781 76.023437 76.175781 42.003907 0 76.179688-34.171874 76.179688-76.175781 0-41.921875-34.175781-76.027343-76.179688-76.027343zm0 0" fill="#6aa9ff"/><path d="m345.035156 179.617188c-42.003906 0-76.175781 34.105468-76.175781 76.027343 0 42.003907 34.171875 76.175781 76.175781 76.175781 41.941406 0 76.0625-34.171874 76.0625-76.175781 0-41.921875-34.121094-76.027343-76.0625-76.027343zm0 0" fill="#ff3980"/></svg>