<svg viewBox="0 0 511 511.99909" xmlns="http://www.w3.org/2000/svg"><path d="m512.167969 245.503906v.679688c-.941407 40.847656-11.894531 81.183594-31.695313 116.628906l-126.460937 111.085938c-31.09375 12.402343-63.957031 18.375-97.679688 17.746093h-.5c-29.742187 0-59.003906-4.972656-87.035156-14.785156l-49.710937 31.050781c-4.019532 2.511719-8.59375 3.8125-13.234376 3.8125-1.710937 0-3.441406-.179687-5.140624-.539062-11.554688-2.402344-19.9375-12.855469-19.9375-24.863282v-61.855468c-50.710938-45.457032-79.921876-110.3125-80.273438-178.539063v-.421875c1.53125-66.945312 29-129.332031 77.339844-175.660156 48.28125-46.257812 111.644531-71.007812 178.492187-69.796875 66.847657-1.253906 130.214844 23.539063 178.492188 69.796875 48.339843 46.328125 75.8125 108.714844 77.34375 175.660156zm0 0" fill="#ffb64c"/><path d="m512.167969 245.503906v.679688c-.941407 40.847656-11.894531 81.183594-31.695313 116.628906l-126.460937 111.085938c-31.09375 12.402343-63.957031 18.375-97.679688 17.746093v-491.597656c66.847657-1.253906 130.214844 23.539063 178.492188 69.796875 48.339843 46.328125 75.8125 108.714844 77.34375 175.660156zm0 0" fill="#ff9f00"/><g fill="#fff"><path d="m381.285156 189.179688c0 8.285156-6.722656 15.007812-15.007812 15.007812h-219.890625c-8.28125 0-15.003907-6.722656-15.003907-15.007812 0-8.292969 6.722657-15.003907 15.003907-15.003907h219.890625c8.285156 0 15.007812 6.710938 15.007812 15.003907zm0 0"/><path d="m381.285156 255.558594c0 8.28125-6.722656 15.007812-15.007812 15.007812h-219.890625c-8.28125 0-15.003907-6.726562-15.003907-15.007812 0-8.285156 6.722657-15.007813 15.003907-15.007813h219.890625c8.285156 0 15.007812 6.722657 15.007812 15.007813zm0 0"/><path d="m224.488281 336.945312h-78.097656c-8.289063 0-15.007813-6.71875-15.007813-15.007812 0-8.285156 6.71875-15.003906 15.007813-15.003906h78.097656c8.289063 0 15.007813 6.71875 15.007813 15.003906 0 8.289062-6.71875 15.007812-15.007813 15.007812zm0 0"/></g><path d="m417.6875 323.042969c-52.09375 0-94.476562 42.382812-94.476562 94.480469 0 52.09375 42.382812 94.476562 94.476562 94.476562 52.097656 0 94.476562-42.382812 94.476562-94.476562 0-52.097657-42.378906-94.480469-94.476562-94.480469zm0 0" fill="#ff3636"/><path d="m417.6875 457.976562c-8.285156 0-15.003906-6.71875-15.003906-15.003906v-52.089844c0-8.285156 6.71875-15.003906 15.003906-15.003906 8.289062 0 15.007812 6.71875 15.007812 15.003906v52.089844c0 8.285156-6.71875 15.003906-15.007812 15.003906zm0 0" fill="#fff"/><path d="m381.285156 255.558594c0 8.28125-6.722656 15.007812-15.007812 15.007812h-109.945313v-30.015625h109.945313c8.285156 0 15.007812 6.722657 15.007812 15.007813zm0 0" fill="#96fff6"/><path d="m366.277344 204.1875h-109.945313v-30.011719h109.945313c8.285156 0 15.007812 6.710938 15.007812 15.003907 0 8.285156-6.722656 15.007812-15.007812 15.007812zm0 0" fill="#96fff6"/></svg>