<svg viewBox="-40 1 511 511.99999" xmlns="http://www.w3.org/2000/svg"><path d="m268.410156 52.25v30.988281h-104.5v-30.988281c0-28.804688 23.445313-52.25 52.25-52.25 28.804688 0 52.25 23.445312 52.25 52.25zm0 0" fill="#ff9468"/><path d="m288.867188 439.292969c0 40.09375-32.617188 72.707031-72.707032 72.707031-40.09375 0-72.707031-32.613281-72.707031-72.707031 0-3.917969.3125-7.847657.941406-11.695313h143.328125c.972656 4.789063 1.144532 6.773438 1.144532 11.695313zm0 0" fill="#ff9468"/><path d="m268.410156 83.238281h-52.25v-83.238281c28.804688 0 52.25 23.445312 52.25 52.25zm0 0" fill="#ff712f"/><path d="m288.867188 439.292969c0 40.09375-32.617188 72.707031-72.707032 72.707031v-84.402344h71.5625c.972656 4.789063 1.144532 6.773438 1.144532 11.695313zm0 0" fill="#ff712f"/><path d="m430.859375 434.972656c-2.214844 5.953125-7.96875 9.945313-14.3125 9.945313h-200.386719l-200.386718-.011719c-6.347657 0-12.097657-4-14.316407-9.941406-2.222656-5.945313-.488281-12.738282 4.300781-16.898438 31.203126-27.054687 53.191407-58.082031 67.234376-94.867187 14.273437-37.40625 21.21875-82.890625 21.21875-139.058594 0-66.652344 54.234374-121.347656 120.894531-121.910156h1.054687c31.570313.042969 61.609375 12.480469 84.574219 35.183593 23.632813 23.363282 37.242187 55.714844 37.332031 88.761719.332032 108.949219 26.792969 178.316407 88.492188 231.910157 4.792968 4.167968 6.527344 10.953124 4.300781 16.886718zm0 0" fill="#ffb64c"/><path d="m430.859375 434.972656c-2.214844 5.953125-7.96875 9.945313-14.3125 9.945313h-200.386719v-382.6875c31.570313.042969 61.609375 12.480469 84.574219 35.183593 23.632813 23.363282 37.242187 55.714844 37.332031 88.761719.332032 108.949219 26.792969 178.316407 88.492188 231.910157 4.792968 4.167968 6.527344 10.953124 4.300781 16.886718zm0 0" fill="#ff9f00"/></svg>