<svg viewBox="0 0 512 512.00002" xmlns="http://www.w3.org/2000/svg"><path d="m466.429688 47.949219h-34.046876v137.214843h34.046876c25.027343 0 45.386718-20.359374 45.386718-45.386718v-46.4375c0-25.027344-20.359375-45.390625-45.386718-45.390625zm0 0" fill="#2682ff"/><path d="m466.429688 155.171875h-34.046876v137.214844h34.046876c25.027343 0 45.386718-20.363281 45.386718-45.390625v-46.433594c0-25.027344-20.359375-45.390625-45.386718-45.390625zm0 0" fill="#ff712f"/><path d="m466.429688 262.394531h-34.046876v137.210938h34.046876c25.027343 0 45.386718-20.359375 45.386718-45.386719v-46.4375c0-25.027344-20.359375-45.386719-45.386718-45.386719zm0 0" fill="#ff3636"/><path d="m462.609375 18.125v475.738281c0 10-8.136719 18.136719-18.136719 18.136719h-369.4375c-10 0-18.136718-8.136719-18.136718-18.136719v-475.738281c0-9.996094 8.136718-18.125 18.136718-18.125h369.4375c10 0 18.136719 8.128906 18.136719 18.125zm0 0" fill="#ffb64c"/><path d="m462.609375 18.125v475.738281c0 10-8.136719 18.136719-18.136719 18.136719h-188.808594v-512h188.808594c10 0 18.136719 8.128906 18.136719 18.125zm0 0" fill="#ff9f00"/><g fill="#ff712f"><path d="m108.796875 109.539062h-93.800781c-8.28125 0-14.996094-6.714843-14.996094-14.996093 0-8.285157 6.714844-15 14.996094-15h93.800781c8.28125 0 14.996094 6.714843 14.996094 15 0 8.28125-6.714844 14.996093-14.996094 14.996093zm0 0"/><path d="m108.796875 174.523438h-93.800781c-8.28125 0-14.996094-6.714844-14.996094-14.996094s6.714844-14.996094 14.996094-14.996094h93.800781c8.28125 0 14.996094 6.714844 14.996094 14.996094s-6.714844 14.996094-14.996094 14.996094zm0 0"/><path d="m108.796875 240.3125h-93.800781c-8.28125 0-14.996094-6.710938-14.996094-14.996094 0-8.28125 6.714844-14.996094 14.996094-14.996094h93.800781c8.28125 0 14.996094 6.714844 14.996094 14.996094 0 8.285156-6.714844 14.996094-14.996094 14.996094zm0 0"/><path d="m108.796875 305.300781h-93.800781c-8.28125 0-14.996094-6.714843-14.996094-14.996093 0-8.285157 6.714844-14.996094 14.996094-14.996094h93.800781c8.28125 0 14.996094 6.710937 14.996094 14.996094 0 8.28125-6.714844 14.996093-14.996094 14.996093zm0 0"/><path d="m108.796875 369.246094h-93.800781c-8.28125 0-14.996094-6.714844-14.996094-15 0-8.28125 6.714844-14.996094 14.996094-14.996094h93.800781c8.28125 0 14.996094 6.714844 14.996094 14.996094 0 8.285156-6.714844 15-14.996094 15zm0 0"/><path d="m108.796875 434.230469h-93.800781c-8.28125 0-14.996094-6.714844-14.996094-14.996094s6.714844-14.996094 14.996094-14.996094h93.800781c8.28125 0 14.996094 6.714844 14.996094 14.996094s-6.714844 14.996094-14.996094 14.996094zm0 0"/></g><path d="m317.832031 188.800781c0 17.476563-6.277343 32.613281-18.636719 44.980469-12.027343 12.015625-26.664062 18.273438-43.53125 18.605469-.480468.019531-.957031.019531-1.449218.019531-17.476563 0-32.601563-6.269531-44.96875-18.625-12.367188-12.367188-18.636719-27.503906-18.636719-44.980469 0-17.476562 6.269531-32.613281 18.625-44.980469 12.367187-12.359374 27.503906-18.628906 44.980469-18.628906.492187 0 .96875 0 1.449218.023438 16.867188.328125 31.503907 6.585937 43.53125 18.605468 12.367188 12.367188 18.636719 27.503907 18.636719 44.980469zm0 0" fill="#6aa9ff"/><path d="m359.78125 336.15625c0 14.359375-4.667969 26.085938-13.894531 34.863281-9.019531 8.578125-20.757813 12.929688-34.902344 12.929688h-110.636719c-14.148437 0-25.894531-4.351563-34.902344-12.929688-9.230468-8.789062-13.898437-20.503906-13.898437-34.851562 0-4.808594.160156-9.558594.46875-14.148438.339844-4.777343 1-9.964843 1.980469-15.414062.992187-5.539063 2.28125-10.808594 3.828125-15.648438 1.660156-5.1875 3.910156-10.296875 6.691406-15.1875 2.976563-5.246093 6.519531-9.847656 10.515625-13.675781 4.351562-4.160156 9.628906-7.488281 15.679688-9.878906 5.996093-2.378906 12.605468-3.589844 19.632812-3.589844 4.671875 0 8.488281 1.890625 13.5 5.160156 2.757812 1.789063 5.855469 3.789063 9.316406 6 1.648438 1.046875 4.777344 2.6875 10.207032 4.4375 4.101562 1.332032 8.199218 1.988282 12.296874 1.988282 4.101563 0 8.199219-.65625 12.289063-1.988282 5.4375-1.75 8.558594-3.378906 10.21875-4.4375 3.449219-2.210937 6.546875-4.210937 9.296875-6 5.019531-3.269531 8.835938-5.160156 13.515625-5.160156 7.019531 0 13.628906 1.210938 19.636719 3.589844 6.046875 2.402344 11.316406 5.71875 15.667968 9.878906 3.996094 3.820312 7.535157 8.429688 10.515626 13.675781 2.78125 4.890625 5.03125 10 6.6875 15.1875 1.550781 4.839844 2.839843 10.109375 3.839843 15.65625.980469 5.449219 1.640625 10.628907 1.972657 15.398438.316406 4.566406.476562 9.328125.476562 14.144531zm0 0" fill="#6aa9ff"/><path d="m299.195312 233.78125c-12.027343 12.015625-26.664062 18.273438-43.53125 18.605469v-127.171875c16.867188.328125 31.503907 6.585937 43.53125 18.605468 12.367188 12.367188 18.636719 27.503907 18.636719 44.980469 0 17.476563-6.277343 32.613281-18.636719 44.980469zm0 0" fill="#2682ff"/><path d="m359.78125 336.15625c0 14.359375-4.667969 26.085938-13.894531 34.863281-9.019531 8.578125-20.757813 12.929688-34.902344 12.929688h-55.320313v-117.738281c4.101563 0 8.199219-.65625 12.289063-1.988282 5.4375-1.75 8.558594-3.378906 10.21875-4.4375 3.449219-2.210937 6.546875-4.210937 9.296875-6 5.019531-3.269531 8.835938-5.160156 13.515625-5.160156 7.019531 0 13.628906 1.210938 19.636719 3.589844 6.046875 2.402344 11.316406 5.71875 15.667968 9.878906 3.996094 3.820312 7.535157 8.429688 10.515626 13.675781 2.78125 4.890625 5.03125 10 6.6875 15.1875 1.550781 4.839844 2.839843 10.109375 3.839843 15.65625.980469 5.449219 1.640625 10.628907 1.972657 15.398438.316406 4.566406.476562 9.328125.476562 14.144531zm0 0" fill="#2682ff"/></svg>