<?xml version="1.0" encoding="iso-8859-1"?>
<!-- Generator: Adobe Illustrator 18.0.0, SVG Export Plug-In . SVG Version: 6.00 Build 0)  -->
<!DOCTYPE svg PUBLIC "-//W3C//DTD SVG 1.1//EN" "http://www.w3.org/Graphics/SVG/1.1/DTD/svg11.dtd">
<svg version="1.1" id="Capa_1" xmlns="http://www.w3.org/2000/svg" xmlns:xlink="http://www.w3.org/1999/xlink" x="0px" y="0px"
	 viewBox="0 0 58 58" style="enable-background:new 0 0 58 58;" xml:space="preserve">
<g>
	<rect y="20" style="fill:#C03A2B;" width="58" height="6"/>
	<path style="fill:#E64C3C;" d="M52.433,58H5.567C3.597,58,2,56.403,2,54.433V26h54v28.433C56,56.403,54.403,58,52.433,58z"/>
	<path style="fill:#556080;" d="M29,24c-0.256,0-0.512-0.098-0.707-0.293c-0.391-0.391-0.391-1.023,0-1.414L47.385,3.201
		c0.391-0.391,1.023-0.391,1.414,0s0.391,1.023,0,1.414L29.707,23.707C29.512,23.902,29.256,24,29,24z"/>
	<path style="fill:#ED7161;" d="M13,33H9c-0.552,0-1-0.447-1-1s0.448-1,1-1h4c0.552,0,1,0.447,1,1S13.552,33,13,33z"/>
	<path style="fill:#ED7161;" d="M13,37H9c-0.552,0-1-0.447-1-1s0.448-1,1-1h4c0.552,0,1,0.447,1,1S13.552,37,13,37z"/>
	<path style="fill:#ED7161;" d="M13,41H9c-0.552,0-1-0.447-1-1s0.448-1,1-1h4c0.552,0,1,0.447,1,1S13.552,41,13,41z"/>
	<path style="fill:#ED7161;" d="M13,45H9c-0.552,0-1-0.447-1-1s0.448-1,1-1h4c0.552,0,1,0.447,1,1S13.552,45,13,45z"/>
	<path style="fill:#ED7161;" d="M13,49H9c-0.552,0-1-0.447-1-1s0.448-1,1-1h4c0.552,0,1,0.447,1,1S13.552,49,13,49z"/>
	<path style="fill:#ED7161;" d="M13,53H9c-0.552,0-1-0.447-1-1s0.448-1,1-1h4c0.552,0,1,0.447,1,1S13.552,53,13,53z"/>
	<path style="fill:#ED7161;" d="M25,33h-4c-0.552,0-1-0.447-1-1s0.448-1,1-1h4c0.552,0,1,0.447,1,1S25.552,33,25,33z"/>
	<path style="fill:#ED7161;" d="M25,37h-4c-0.552,0-1-0.447-1-1s0.448-1,1-1h4c0.552,0,1,0.447,1,1S25.552,37,25,37z"/>
	<path style="fill:#ED7161;" d="M25,41h-4c-0.552,0-1-0.447-1-1s0.448-1,1-1h4c0.552,0,1,0.447,1,1S25.552,41,25,41z"/>
	<path style="fill:#ED7161;" d="M25,45h-4c-0.552,0-1-0.447-1-1s0.448-1,1-1h4c0.552,0,1,0.447,1,1S25.552,45,25,45z"/>
	<path style="fill:#ED7161;" d="M25,49h-4c-0.552,0-1-0.447-1-1s0.448-1,1-1h4c0.552,0,1,0.447,1,1S25.552,49,25,49z"/>
	<path style="fill:#ED7161;" d="M25,53h-4c-0.552,0-1-0.447-1-1s0.448-1,1-1h4c0.552,0,1,0.447,1,1S25.552,53,25,53z"/>
	<path style="fill:#ED7161;" d="M37,33h-4c-0.552,0-1-0.447-1-1s0.448-1,1-1h4c0.552,0,1,0.447,1,1S37.552,33,37,33z"/>
	<path style="fill:#ED7161;" d="M37,37h-4c-0.552,0-1-0.447-1-1s0.448-1,1-1h4c0.552,0,1,0.447,1,1S37.552,37,37,37z"/>
	<path style="fill:#ED7161;" d="M37,41h-4c-0.552,0-1-0.447-1-1s0.448-1,1-1h4c0.552,0,1,0.447,1,1S37.552,41,37,41z"/>
	<path style="fill:#ED7161;" d="M37,45h-4c-0.552,0-1-0.447-1-1s0.448-1,1-1h4c0.552,0,1,0.447,1,1S37.552,45,37,45z"/>
	<path style="fill:#ED7161;" d="M37,49h-4c-0.552,0-1-0.447-1-1s0.448-1,1-1h4c0.552,0,1,0.447,1,1S37.552,49,37,49z"/>
	<path style="fill:#ED7161;" d="M37,53h-4c-0.552,0-1-0.447-1-1s0.448-1,1-1h4c0.552,0,1,0.447,1,1S37.552,53,37,53z"/>
	<path style="fill:#ED7161;" d="M49,33h-4c-0.552,0-1-0.447-1-1s0.448-1,1-1h4c0.552,0,1,0.447,1,1S49.552,33,49,33z"/>
	<path style="fill:#ED7161;" d="M49,37h-4c-0.552,0-1-0.447-1-1s0.448-1,1-1h4c0.552,0,1,0.447,1,1S49.552,37,49,37z"/>
	<path style="fill:#ED7161;" d="M49,41h-4c-0.552,0-1-0.447-1-1s0.448-1,1-1h4c0.552,0,1,0.447,1,1S49.552,41,49,41z"/>
	<path style="fill:#ED7161;" d="M49,45h-4c-0.552,0-1-0.447-1-1s0.448-1,1-1h4c0.552,0,1,0.447,1,1S49.552,45,49,45z"/>
	<path style="fill:#ED7161;" d="M49,49h-4c-0.552,0-1-0.447-1-1s0.448-1,1-1h4c0.552,0,1,0.447,1,1S49.552,49,49,49z"/>
	<path style="fill:#ED7161;" d="M49,53h-4c-0.552,0-1-0.447-1-1s0.448-1,1-1h4c0.552,0,1,0.447,1,1S49.552,53,49,53z"/>
	<path style="fill:#556080;" d="M29,24c-0.256,0-0.512-0.098-0.707-0.293L9.201,4.615c-0.391-0.391-0.391-1.023,0-1.414
		s1.023-0.391,1.414,0l19.092,19.092c0.391,0.391,0.391,1.023,0,1.414C29.512,23.902,29.256,24,29,24z"/>
	<circle style="fill:#F3D55B;" cx="10" cy="4" r="4"/>
	<circle style="fill:#F3D55B;" cx="48" cy="4" r="4"/>
</g>
<g>
</g>
<g>
</g>
<g>
</g>
<g>
</g>
<g>
</g>
<g>
</g>
<g>
</g>
<g>
</g>
<g>
</g>
<g>
</g>
<g>
</g>
<g>
</g>
<g>
</g>
<g>
</g>
<g>
</g>
</svg>
