<?xml version="1.0" encoding="iso-8859-1"?>
<!-- Generator: Adobe Illustrator 18.0.0, SVG Export Plug-In . SVG Version: 6.00 Build 0)  -->
<!DOCTYPE svg PUBLIC "-//W3C//DTD SVG 1.1//EN" "http://www.w3.org/Graphics/SVG/1.1/DTD/svg11.dtd">
<svg version="1.1" id="Capa_1" xmlns="http://www.w3.org/2000/svg" xmlns:xlink="http://www.w3.org/1999/xlink" x="0px" y="0px"
	 viewBox="0 0 60 60" style="enable-background:new 0 0 60 60;" xml:space="preserve">
<g>
	<g>
		<rect x="6" y="13.5" style="fill:#F0C419;" width="53" height="24"/>
		<path style="fill:#556080;" d="M60,38.5H5v-26h55V38.5z M7,36.5h51v-22H7V36.5z"/>
	</g>
	<path style="fill:#556080;" d="M6,5.5H1c-0.552,0-1-0.447-1-1s0.448-1,1-1h5c0.552,0,1,0.447,1,1S6.552,5.5,6,5.5z"/>
	<path style="fill:#556080;" d="M6,14.5c-0.552,0-1-0.447-1-1v-9c0-0.553,0.448-1,1-1s1,0.447,1,1v9C7,14.053,6.552,14.5,6,14.5z"/>
	<path style="fill:#556080;" d="M6,48.5c-0.552,0-1-0.447-1-1v-10c0-0.553,0.448-1,1-1s1,0.447,1,1v10C7,48.053,6.552,48.5,6,48.5z"
		/>
	<circle style="fill:#4C8056;" cx="16" cy="52.5" r="4"/>
	<circle style="fill:#4C8056;" cx="43" cy="52.5" r="4"/>
	<path style="fill:#556080;" d="M52,48.5H6c-0.552,0-1-0.447-1-1s0.448-1,1-1h46c0.552,0,1,0.447,1,1S52.552,48.5,52,48.5z"/>
	<path style="fill:#556080;" d="M59,22.5H6c-0.552,0-1-0.447-1-1s0.448-1,1-1h53c0.552,0,1,0.447,1,1S59.552,22.5,59,22.5z"/>
	<path style="fill:#556080;" d="M59,30.5H6c-0.552,0-1-0.447-1-1s0.448-1,1-1h53c0.552,0,1,0.447,1,1S59.552,30.5,59,30.5z"/>
</g>
<g>
</g>
<g>
</g>
<g>
</g>
<g>
</g>
<g>
</g>
<g>
</g>
<g>
</g>
<g>
</g>
<g>
</g>
<g>
</g>
<g>
</g>
<g>
</g>
<g>
</g>
<g>
</g>
<g>
</g>
</svg>
