<?xml version="1.0" encoding="iso-8859-1"?>
<!-- Generator: Adobe Illustrator 18.0.0, SVG Export Plug-In . SVG Version: 6.00 Build 0)  -->
<!DOCTYPE svg PUBLIC "-//W3C//DTD SVG 1.1//EN" "http://www.w3.org/Graphics/SVG/1.1/DTD/svg11.dtd">
<svg version="1.1" id="Capa_1" xmlns="http://www.w3.org/2000/svg" xmlns:xlink="http://www.w3.org/1999/xlink" x="0px" y="0px"
	 viewBox="0 0 58 58" style="enable-background:new 0 0 58 58;" xml:space="preserve">
<g>
	<g>
		<rect x="9" y="15.5" style="fill:#D75A4A;" width="48" height="24"/>
		<path style="fill:#556080;" d="M58,40.5H8v-26h50V40.5z M10,38.5h46v-22H10V38.5z"/>
	</g>
	<path style="fill:#556080;" d="M9,46.5c-0.552,0-1-0.447-1-1v-6c0-0.553,0.448-1,1-1s1,0.447,1,1v6C10,46.053,9.552,46.5,9,46.5z"
		/>
	<circle style="fill:#556080;" cx="19" cy="50.5" r="4"/>
	<circle style="fill:#556080;" cx="43" cy="50.5" r="4"/>
	<path style="fill:#556080;" d="M52,46.5H9c-0.552,0-1-0.447-1-1s0.448-1,1-1h43c0.552,0,1,0.447,1,1S52.552,46.5,52,46.5z"/>
	<path style="fill:#ECF0F1;" d="M17,37.5c-0.552,0-1-0.447-1-1v-2c0-0.553,0.448-1,1-1s1,0.447,1,1v2C18,37.053,17.552,37.5,17,37.5
		z"/>
	<circle style="fill:#D8625E;" cx="3" cy="6.5" r="3"/>
	<path style="fill:#ECF0F1;" d="M17,21.5c-0.552,0-1-0.447-1-1v-2c0-0.553,0.448-1,1-1s1,0.447,1,1v2C18,21.053,17.552,21.5,17,21.5
		z"/>
	<path style="fill:#ECF0F1;" d="M17,29.5c-0.552,0-1-0.447-1-1v-2c0-0.553,0.448-1,1-1s1,0.447,1,1v2C18,29.053,17.552,29.5,17,29.5
		z"/>
	<path style="fill:#ECF0F1;" d="M25,37.5c-0.552,0-1-0.447-1-1v-2c0-0.553,0.448-1,1-1s1,0.447,1,1v2C26,37.053,25.552,37.5,25,37.5
		z"/>
	<path style="fill:#ECF0F1;" d="M25,21.5c-0.552,0-1-0.447-1-1v-2c0-0.553,0.448-1,1-1s1,0.447,1,1v2C26,21.053,25.552,21.5,25,21.5
		z"/>
	<path style="fill:#ECF0F1;" d="M25,29.5c-0.552,0-1-0.447-1-1v-2c0-0.553,0.448-1,1-1s1,0.447,1,1v2C26,29.053,25.552,29.5,25,29.5
		z"/>
	<path style="fill:#ECF0F1;" d="M33,37.5c-0.552,0-1-0.447-1-1v-2c0-0.553,0.448-1,1-1s1,0.447,1,1v2C34,37.053,33.552,37.5,33,37.5
		z"/>
	<path style="fill:#ECF0F1;" d="M33,21.5c-0.552,0-1-0.447-1-1v-2c0-0.553,0.448-1,1-1s1,0.447,1,1v2C34,21.053,33.552,21.5,33,21.5
		z"/>
	<path style="fill:#ECF0F1;" d="M33,29.5c-0.552,0-1-0.447-1-1v-2c0-0.553,0.448-1,1-1s1,0.447,1,1v2C34,29.053,33.552,29.5,33,29.5
		z"/>
	<path style="fill:#ECF0F1;" d="M41,37.5c-0.552,0-1-0.447-1-1v-2c0-0.553,0.448-1,1-1s1,0.447,1,1v2C42,37.053,41.552,37.5,41,37.5
		z"/>
	<path style="fill:#ECF0F1;" d="M41,21.5c-0.552,0-1-0.447-1-1v-2c0-0.553,0.448-1,1-1s1,0.447,1,1v2C42,21.053,41.552,21.5,41,21.5
		z"/>
	<path style="fill:#ECF0F1;" d="M41,29.5c-0.552,0-1-0.447-1-1v-2c0-0.553,0.448-1,1-1s1,0.447,1,1v2C42,29.053,41.552,29.5,41,29.5
		z"/>
	<path style="fill:#ECF0F1;" d="M49,37.5c-0.552,0-1-0.447-1-1v-2c0-0.553,0.448-1,1-1s1,0.447,1,1v2C50,37.053,49.552,37.5,49,37.5
		z"/>
	<path style="fill:#ECF0F1;" d="M49,21.5c-0.552,0-1-0.447-1-1v-2c0-0.553,0.448-1,1-1s1,0.447,1,1v2C50,21.053,49.552,21.5,49,21.5
		z"/>
	<path style="fill:#ECF0F1;" d="M49,29.5c-0.552,0-1-0.447-1-1v-2c0-0.553,0.448-1,1-1s1,0.447,1,1v2C50,29.053,49.552,29.5,49,29.5
		z"/>
	<path style="fill:#ECF0F1;" d="M15,32.5h-3c-0.552,0-1-0.447-1-1s0.448-1,1-1h3c0.552,0,1,0.447,1,1S15.552,32.5,15,32.5z"/>
	<path style="fill:#ECF0F1;" d="M15,24.5h-3c-0.552,0-1-0.447-1-1s0.448-1,1-1h3c0.552,0,1,0.447,1,1S15.552,24.5,15,24.5z"/>
	<path style="fill:#ECF0F1;" d="M23,32.5h-4c-0.552,0-1-0.447-1-1s0.448-1,1-1h4c0.552,0,1,0.447,1,1S23.552,32.5,23,32.5z"/>
	<path style="fill:#ECF0F1;" d="M23,24.5h-4c-0.552,0-1-0.447-1-1s0.448-1,1-1h4c0.552,0,1,0.447,1,1S23.552,24.5,23,24.5z"/>
	<path style="fill:#ECF0F1;" d="M31,32.5h-4c-0.552,0-1-0.447-1-1s0.448-1,1-1h4c0.552,0,1,0.447,1,1S31.552,32.5,31,32.5z"/>
	<path style="fill:#ECF0F1;" d="M31,24.5h-4c-0.552,0-1-0.447-1-1s0.448-1,1-1h4c0.552,0,1,0.447,1,1S31.552,24.5,31,24.5z"/>
	<path style="fill:#ECF0F1;" d="M39,32.5h-4c-0.552,0-1-0.447-1-1s0.448-1,1-1h4c0.552,0,1,0.447,1,1S39.552,32.5,39,32.5z"/>
	<path style="fill:#ECF0F1;" d="M39,24.5h-4c-0.552,0-1-0.447-1-1s0.448-1,1-1h4c0.552,0,1,0.447,1,1S39.552,24.5,39,24.5z"/>
	<path style="fill:#ECF0F1;" d="M47,32.5h-4c-0.552,0-1-0.447-1-1s0.448-1,1-1h4c0.552,0,1,0.447,1,1S47.552,32.5,47,32.5z"/>
	<path style="fill:#ECF0F1;" d="M47,24.5h-4c-0.552,0-1-0.447-1-1s0.448-1,1-1h4c0.552,0,1,0.447,1,1S47.552,24.5,47,24.5z"/>
	<path style="fill:#ECF0F1;" d="M54,32.5h-3c-0.552,0-1-0.447-1-1s0.448-1,1-1h3c0.552,0,1,0.447,1,1S54.552,32.5,54,32.5z"/>
	<path style="fill:#ECF0F1;" d="M54,24.5h-3c-0.552,0-1-0.447-1-1s0.448-1,1-1h3c0.552,0,1,0.447,1,1S54.552,24.5,54,24.5z"/>
	<path style="fill:#556080;" d="M9,7.5H4c-0.552,0-1-0.447-1-1s0.448-1,1-1h5c0.552,0,1,0.447,1,1S9.552,7.5,9,7.5z"/>
	<path style="fill:#556080;" d="M9,16.5c-0.552,0-1-0.447-1-1v-9c0-0.553,0.448-1,1-1s1,0.447,1,1v9C10,16.053,9.552,16.5,9,16.5z"
		/>
</g>
<g>
</g>
<g>
</g>
<g>
</g>
<g>
</g>
<g>
</g>
<g>
</g>
<g>
</g>
<g>
</g>
<g>
</g>
<g>
</g>
<g>
</g>
<g>
</g>
<g>
</g>
<g>
</g>
<g>
</g>
</svg>
