<?xml version="1.0" encoding="iso-8859-1"?>
<!-- Generator: Adobe Illustrator 18.0.0, SVG Export Plug-In . SVG Version: 6.00 Build 0)  -->
<!DOCTYPE svg PUBLIC "-//W3C//DTD SVG 1.1//EN" "http://www.w3.org/Graphics/SVG/1.1/DTD/svg11.dtd">
<svg version="1.1" id="Capa_1" xmlns="http://www.w3.org/2000/svg" xmlns:xlink="http://www.w3.org/1999/xlink" x="0px" y="0px"
	 viewBox="0 0 58 58" style="enable-background:new 0 0 58 58;" xml:space="preserve">
<g>
	<path style="fill:#BDC3C7;" d="M58,40.5H8v-26h50V40.5z M10,38.5h46v-22H10V38.5z"/>
	<path style="fill:#BDC3C7;" d="M9,47.5c-0.553,0-1-0.447-1-1v-7c0-0.553,0.447-1,1-1s1,0.447,1,1v7C10,47.053,9.553,47.5,9,47.5z"
		/>
	<circle style="fill:#556080;" cx="19" cy="51.5" r="4"/>
	<circle style="fill:#556080;" cx="43" cy="51.5" r="4"/>
	<path style="fill:#BDC3C7;" d="M52,47.5H9c-0.553,0-1-0.447-1-1s0.447-1,1-1h43c0.553,0,1,0.447,1,1S52.553,47.5,52,47.5z"/>
	<circle style="fill:#26B99A;" cx="33" cy="15.5" r="13"/>
	<path style="fill:#FFFFFF;" d="M33,24.5c-0.553,0-1-0.447-1-1v-16c0-0.553,0.447-1,1-1s1,0.447,1,1v16
		C34,24.053,33.553,24.5,33,24.5z"/>
	<path style="fill:#FFFFFF;" d="M41,16.5H25c-0.553,0-1-0.447-1-1s0.447-1,1-1h16c0.553,0,1,0.447,1,1S41.553,16.5,41,16.5z"/>
	<path style="fill:#BDC3C7;" d="M9,7.5H4c-0.553,0-1-0.447-1-1s0.447-1,1-1h5c0.553,0,1,0.447,1,1S9.553,7.5,9,7.5z"/>
	<path style="fill:#BDC3C7;" d="M9,16.5c-0.553,0-1-0.447-1-1v-9c0-0.553,0.447-1,1-1s1,0.447,1,1v9C10,16.053,9.553,16.5,9,16.5z"
		/>
	<circle style="fill:#D8625E;" cx="3" cy="6.5" r="3"/>
</g>
<g>
</g>
<g>
</g>
<g>
</g>
<g>
</g>
<g>
</g>
<g>
</g>
<g>
</g>
<g>
</g>
<g>
</g>
<g>
</g>
<g>
</g>
<g>
</g>
<g>
</g>
<g>
</g>
<g>
</g>
</svg>
