<?xml version="1.0" encoding="iso-8859-1"?>
<!-- Generator: Adobe Illustrator 18.0.0, SVG Export Plug-In . SVG Version: 6.00 Build 0)  -->
<!DOCTYPE svg PUBLIC "-//W3C//DTD SVG 1.1//EN" "http://www.w3.org/Graphics/SVG/1.1/DTD/svg11.dtd">
<svg version="1.1" id="Capa_1" xmlns="http://www.w3.org/2000/svg" xmlns:xlink="http://www.w3.org/1999/xlink" x="0px" y="0px"
	 viewBox="0 0 58 58" style="enable-background:new 0 0 58 58;" xml:space="preserve">
<g>
	<g>
		<rect x="9" y="13.5" style="fill:#71C285;" width="48" height="24"/>
		<path style="fill:#556080;" d="M58,38.5H8v-26h50V38.5z M10,36.5h46v-22H10V36.5z"/>
	</g>
	<path style="fill:#556080;" d="M9,5.5H4c-0.552,0-1-0.447-1-1s0.448-1,1-1h5c0.552,0,1,0.447,1,1S9.552,5.5,9,5.5z"/>
	<path style="fill:#556080;" d="M9,14.5c-0.552,0-1-0.447-1-1v-9c0-0.553,0.448-1,1-1s1,0.447,1,1v9C10,14.053,9.552,14.5,9,14.5z"
		/>
	<path style="fill:#556080;" d="M9,48.5c-0.552,0-1-0.447-1-1v-10c0-0.553,0.448-1,1-1s1,0.447,1,1v10C10,48.053,9.552,48.5,9,48.5z
		"/>
	<circle style="fill:#556080;" cx="19" cy="52.5" r="4"/>
	<circle style="fill:#556080;" cx="43" cy="52.5" r="4"/>
	<path style="fill:#556080;" d="M52,48.5H9c-0.552,0-1-0.447-1-1s0.448-1,1-1h43c0.553,0,1,0.447,1,1S52.553,48.5,52,48.5z"/>
	<circle style="fill:#E64C3C;" cx="3" cy="4.5" r="3"/>
	<circle style="fill:#A4E869;" cx="30" cy="19.5" r="1"/>
	<circle style="fill:#A4E869;" cx="33" cy="16.5" r="1"/>
	<circle style="fill:#A4E869;" cx="33" cy="22.5" r="1"/>
	<circle style="fill:#A4E869;" cx="36" cy="19.5" r="1"/>
	<circle style="fill:#A4E869;" cx="24" cy="19.5" r="1"/>
	<circle style="fill:#A4E869;" cx="27" cy="16.5" r="1"/>
	<circle style="fill:#A4E869;" cx="27" cy="22.5" r="1"/>
	<circle style="fill:#A4E869;" cx="12" cy="19.5" r="1"/>
	<circle style="fill:#A4E869;" cx="18" cy="19.5" r="1"/>
	<circle style="fill:#A4E869;" cx="15" cy="16.5" r="1"/>
	<circle style="fill:#A4E869;" cx="21" cy="16.5" r="1"/>
	<circle style="fill:#A4E869;" cx="15" cy="22.5" r="1"/>
	<circle style="fill:#A4E869;" cx="21" cy="22.5" r="1"/>
	<circle style="fill:#A4E869;" cx="54" cy="19.5" r="1"/>
	<circle style="fill:#A4E869;" cx="39" cy="16.5" r="1"/>
	<circle style="fill:#A4E869;" cx="39" cy="22.5" r="1"/>
	<circle style="fill:#A4E869;" cx="42" cy="19.5" r="1"/>
	<circle style="fill:#A4E869;" cx="48" cy="19.5" r="1"/>
	<circle style="fill:#A4E869;" cx="30" cy="25.5" r="1"/>
	<circle style="fill:#A4E869;" cx="36" cy="25.5" r="1"/>
	<circle style="fill:#A4E869;" cx="24" cy="25.5" r="1"/>
	<circle style="fill:#A4E869;" cx="12" cy="25.5" r="1"/>
	<circle style="fill:#A4E869;" cx="18" cy="25.5" r="1"/>
	<circle style="fill:#A4E869;" cx="54" cy="25.5" r="1"/>
	<circle style="fill:#A4E869;" cx="42" cy="25.5" r="1"/>
	<circle style="fill:#A4E869;" cx="48" cy="25.5" r="1"/>
	<circle style="fill:#A4E869;" cx="45" cy="16.5" r="1"/>
	<circle style="fill:#A4E869;" cx="51" cy="16.5" r="1"/>
	<circle style="fill:#A4E869;" cx="45" cy="22.5" r="1"/>
	<circle style="fill:#A4E869;" cx="51" cy="22.5" r="1"/>
	<circle style="fill:#A4E869;" cx="30" cy="31.5" r="1"/>
	<circle style="fill:#A4E869;" cx="33" cy="28.5" r="1"/>
	<circle style="fill:#A4E869;" cx="33" cy="34.5" r="1"/>
	<circle style="fill:#A4E869;" cx="36" cy="31.5" r="1"/>
	<circle style="fill:#A4E869;" cx="24" cy="31.5" r="1"/>
	<circle style="fill:#A4E869;" cx="27" cy="28.5" r="1"/>
	<circle style="fill:#A4E869;" cx="27" cy="34.5" r="1"/>
	<circle style="fill:#A4E869;" cx="12" cy="31.5" r="1"/>
	<circle style="fill:#A4E869;" cx="18" cy="31.5" r="1"/>
	<circle style="fill:#A4E869;" cx="15" cy="28.5" r="1"/>
	<circle style="fill:#A4E869;" cx="21" cy="28.5" r="1"/>
	<circle style="fill:#A4E869;" cx="15" cy="34.5" r="1"/>
	<circle style="fill:#A4E869;" cx="21" cy="34.5" r="1"/>
	<circle style="fill:#A4E869;" cx="54" cy="31.5" r="1"/>
	<circle style="fill:#A4E869;" cx="39" cy="28.5" r="1"/>
	<circle style="fill:#A4E869;" cx="39" cy="34.5" r="1"/>
	<circle style="fill:#A4E869;" cx="42" cy="31.5" r="1"/>
	<circle style="fill:#A4E869;" cx="48" cy="31.5" r="1"/>
	<circle style="fill:#A4E869;" cx="45" cy="28.5" r="1"/>
	<circle style="fill:#A4E869;" cx="51" cy="28.5" r="1"/>
	<circle style="fill:#A4E869;" cx="45" cy="34.5" r="1"/>
	<circle style="fill:#A4E869;" cx="51" cy="34.5" r="1"/>
</g>
<g>
</g>
<g>
</g>
<g>
</g>
<g>
</g>
<g>
</g>
<g>
</g>
<g>
</g>
<g>
</g>
<g>
</g>
<g>
</g>
<g>
</g>
<g>
</g>
<g>
</g>
<g>
</g>
<g>
</g>
</svg>
