<?xml version="1.0" encoding="iso-8859-1"?>
<!-- Generator: Adobe Illustrator 18.0.0, SVG Export Plug-In . SVG Version: 6.00 Build 0)  -->
<!DOCTYPE svg PUBLIC "-//W3C//DTD SVG 1.1//EN" "http://www.w3.org/Graphics/SVG/1.1/DTD/svg11.dtd">
<svg version="1.1" id="Capa_1" xmlns="http://www.w3.org/2000/svg" xmlns:xlink="http://www.w3.org/1999/xlink" x="0px" y="0px"
	 viewBox="0 0 57 57" style="enable-background:new 0 0 57 57;" xml:space="preserve">
<g>
	<path style="fill:#A5A5A4;" d="M56,41H6V11h50V41z M8,39h46V13H8V39z"/>
	<path style="fill:#A5A5A4;" d="M7,2H2C1.448,2,1,1.553,1,1s0.448-1,1-1h5c0.552,0,1,0.447,1,1S7.552,2,7,2z"/>
	<path style="fill:#A5A5A4;" d="M7,13c-0.552,0-1-0.447-1-1V1c0-0.553,0.448-1,1-1s1,0.447,1,1v11C8,12.553,7.552,13,7,13z"/>
	<path style="fill:#A5A5A4;" d="M7,49c-0.552,0-1-0.447-1-1v-8c0-0.553,0.448-1,1-1s1,0.447,1,1v8C8,48.553,7.552,49,7,49z"/>
	<circle style="fill:#556080;" cx="17" cy="53" r="4"/>
	<circle style="fill:#556080;" cx="41" cy="53" r="4"/>
	<path style="fill:#A5A5A4;" d="M50,49H7c-0.552,0-1-0.447-1-1s0.448-1,1-1h43c0.552,0,1,0.447,1,1S50.552,49,50,49z"/>
	<path style="fill:#A5A5A4;" d="M15,41c-0.552,0-1-0.447-1-1V12c0-0.553,0.448-1,1-1s1,0.447,1,1v28C16,40.553,15.552,41,15,41z"/>
	<path style="fill:#A5A5A4;" d="M31,41c-0.552,0-1-0.447-1-1V12c0-0.553,0.448-1,1-1s1,0.447,1,1v28C32,40.553,31.552,41,31,41z"/>
	<path style="fill:#A5A5A4;" d="M23,41c-0.552,0-1-0.447-1-1V12c0-0.553,0.448-1,1-1s1,0.447,1,1v28C24,40.553,23.552,41,23,41z"/>
	<path style="fill:#A5A5A4;" d="M39,41c-0.552,0-1-0.447-1-1V12c0-0.553,0.448-1,1-1s1,0.447,1,1v28C40,40.553,39.552,41,39,41z"/>
	<path style="fill:#A5A5A4;" d="M47,41c-0.552,0-1-0.447-1-1V12c0-0.553,0.448-1,1-1s1,0.447,1,1v28C48,40.553,47.552,41,47,41z"/>
</g>
<g>
</g>
<g>
</g>
<g>
</g>
<g>
</g>
<g>
</g>
<g>
</g>
<g>
</g>
<g>
</g>
<g>
</g>
<g>
</g>
<g>
</g>
<g>
</g>
<g>
</g>
<g>
</g>
<g>
</g>
</svg>
