<?xml version="1.0" encoding="iso-8859-1"?>
<!-- Generator: Adobe Illustrator 18.0.0, SVG Export Plug-In . SVG Version: 6.00 Build 0)  -->
<!DOCTYPE svg PUBLIC "-//W3C//DTD SVG 1.1//EN" "http://www.w3.org/Graphics/SVG/1.1/DTD/svg11.dtd">
<svg version="1.1" id="Capa_1" xmlns="http://www.w3.org/2000/svg" xmlns:xlink="http://www.w3.org/1999/xlink" x="0px" y="0px"
	 viewBox="0 0 58 58" style="enable-background:new 0 0 58 58;" xml:space="preserve">
<g>
	<path style="fill:#ECF0F1;" d="M54.804,15h-1.635C52.523,15,52,14.477,52,13.832V7.168C52,6.523,51.477,6,50.832,6H29.168
		C28.523,6,28,6.523,28,7.168v6.664C28,14.477,27.477,15,26.832,15H16v-3h-4v3H3.196C2.536,15,2,15.536,2,16.196v28.607
		C2,45.464,2.536,46,3.196,46h51.607C55.464,46,56,45.464,56,44.804V16.196C56,15.536,55.464,15,54.804,15z"/>
	<path style="fill:#BDC3C7;" d="M28,13.832C28,14.477,27.477,15,26.832,15H16v-3h-4v3H3.196C2.536,15,2,15.536,2,16.196v28.607
		C2,45.464,2.536,46,3.196,46H28V13.832z"/>
	<rect y="50" style="fill:#6D6D6E;" width="58" height="8"/>
	<path style="fill:#ECF0F1;" d="M19,55H5c-0.552,0-1-0.447-1-1s0.448-1,1-1h14c0.552,0,1,0.447,1,1S19.552,55,19,55z"/>
	<path style="fill:#ECF0F1;" d="M54,55h-1c-0.552,0-1-0.447-1-1s0.448-1,1-1h1c0.552,0,1,0.447,1,1S54.552,55,54,55z"/>
	<rect x="31" y="9" style="fill:#94B571;" width="18" height="11"/>
	<rect x="4" y="46" style="fill:#8B8A8B;" width="50" height="4"/>
	<rect x="31" y="24" style="fill:#F29C1F;" width="4" height="4"/>
	<rect x="38" y="24" style="fill:#F29C1F;" width="4" height="4"/>
	<rect x="45" y="24" style="fill:#F29C1F;" width="4" height="4"/>
	<rect x="31" y="31" style="fill:#F29C1F;" width="4" height="4"/>
	<rect x="38" y="31" style="fill:#F29C1F;" width="4" height="4"/>
	<rect x="45" y="31" style="fill:#F29C1F;" width="4" height="4"/>
	<rect x="31" y="38" style="fill:#F29C1F;" width="4" height="4"/>
	<rect x="38" y="38" style="fill:#F29C1F;" width="4" height="4"/>
	<rect x="45" y="38" style="fill:#71C285;" width="4" height="4"/>
	<path style="fill:#6D6D6E;" d="M24,40H6c-0.552,0-1-0.447-1-1s0.448-1,1-1h18c0.552,0,1,0.447,1,1S24.552,40,24,40z"/>
	<rect x="8" y="21" style="fill:#F0EDE0;" width="14" height="18"/>
	<path style="fill:#D4C3A5;" d="M16,36h-5c-0.552,0-1-0.447-1-1s0.448-1,1-1h5c0.552,0,1,0.447,1,1S16.552,36,16,36z"/>
	<path style="fill:#D4C3A5;" d="M19,36c-0.26,0-0.52-0.11-0.71-0.29C18.11,35.52,18,35.26,18,35s0.11-0.521,0.29-0.71
		c0.38-0.37,1.05-0.37,1.42,0C19.89,34.479,20,34.74,20,35s-0.11,0.52-0.29,0.71C19.52,35.89,19.26,36,19,36z"/>
	<path style="fill:#D4C3A5;" d="M19,26h-5c-0.552,0-1-0.447-1-1s0.448-1,1-1h5c0.552,0,1,0.447,1,1S19.552,26,19,26z"/>
	<path style="fill:#70845A;" d="M39,13h-5c-0.552,0-1-0.447-1-1s0.448-1,1-1h5c0.552,0,1,0.447,1,1S39.552,13,39,13z"/>
	<path style="fill:#70845A;" d="M39,17h-5c-0.552,0-1-0.447-1-1s0.448-1,1-1h5c0.552,0,1,0.447,1,1S39.552,17,39,17z"/>
	<path style="fill:#D4C3A5;" d="M19,31h-1c-0.552,0-1-0.447-1-1s0.448-1,1-1h1c0.552,0,1,0.447,1,1S19.552,31,19,31z"/>
	<path style="fill:#D4C3A5;" d="M12,31h-1c-0.552,0-1-0.447-1-1s0.448-1,1-1h1c0.552,0,1,0.447,1,1S12.552,31,12,31z"/>
	<path style="fill:#D4C3A5;" d="M11,26c-0.26,0-0.52-0.11-0.71-0.29C10.11,25.52,10,25.27,10,25c0-0.26,0.11-0.521,0.29-0.71
		c0.37-0.37,1.04-0.37,1.42,0C11.89,24.479,12,24.74,12,25c0,0.27-0.11,0.52-0.29,0.71C11.52,25.89,11.26,26,11,26z"/>
	<path style="fill:#D4C3A5;" d="M15,31c-0.26,0-0.52-0.11-0.71-0.29C14.11,30.52,14,30.26,14,30c0-0.271,0.11-0.521,0.29-0.71
		c0.38-0.37,1.04-0.37,1.42,0C15.89,29.479,16,29.74,16,30s-0.11,0.52-0.29,0.71C15.52,30.89,15.26,31,15,31z"/>
	<rect x="3" style="fill:#ECF0F1;" width="22" height="13"/>
	<rect x="5" y="2" style="fill:#94B571;" width="18" height="9"/>
	<g>
		<path style="fill:#70845A;" d="M8.382,3.077c-0.244-0.101-0.52-0.101-0.764,0C7.495,3.128,7.385,3.201,7.292,3.294L6.293,4.293
			c-0.391,0.391-0.391,1.023,0,1.414C6.488,5.902,6.744,6,7,6v3c0,0.553,0.448,1,1,1s1-0.447,1-1V4c0-0.13-0.027-0.26-0.077-0.382
			C8.822,3.373,8.627,3.178,8.382,3.077z"/>
		<path style="fill:#70845A;" d="M17.382,3.077c-0.244-0.101-0.52-0.101-0.764,0c-0.123,0.051-0.233,0.124-0.326,0.217l-0.999,0.999
			c-0.391,0.391-0.391,1.023,0,1.414C15.488,5.902,15.744,6,16,6v3c0,0.553,0.448,1,1,1s1-0.447,1-1V4
			c0-0.13-0.027-0.26-0.077-0.382C17.822,3.373,17.627,3.178,17.382,3.077z"/>
		<path style="fill:#70845A;" d="M12.293,7.293l-1,1c-0.391,0.391-0.391,1.023,0,1.414C11.488,9.902,11.744,10,12,10
			s0.512-0.098,0.707-0.293l1-1c0.391-0.391,0.391-1.023,0-1.414S12.684,6.902,12.293,7.293z"/>
		<path style="fill:#70845A;" d="M21.923,3.618c-0.101-0.245-0.296-0.44-0.541-0.541c-0.244-0.101-0.52-0.101-0.764,0
			c-0.123,0.051-0.233,0.124-0.326,0.217l-0.999,0.999c-0.391,0.391-0.391,1.023,0,1.414C19.488,5.902,19.744,6,20,6v3
			c0,0.553,0.448,1,1,1s1-0.447,1-1V4C22,3.87,21.973,3.74,21.923,3.618z"/>
	</g>
</g>
<g>
</g>
<g>
</g>
<g>
</g>
<g>
</g>
<g>
</g>
<g>
</g>
<g>
</g>
<g>
</g>
<g>
</g>
<g>
</g>
<g>
</g>
<g>
</g>
<g>
</g>
<g>
</g>
<g>
</g>
</svg>
