<?xml version="1.0" encoding="iso-8859-1"?>
<!-- Generator: Adobe Illustrator 19.0.0, SVG Export Plug-In . SVG Version: 6.00 Build 0)  -->
<svg version="1.1" id="Capa_1" xmlns="http://www.w3.org/2000/svg" xmlns:xlink="http://www.w3.org/1999/xlink" x="0px" y="0px"
	 viewBox="0 0 60 60" style="enable-background:new 0 0 60 60;" xml:space="preserve">
<g id="XMLID_19_">
	<path id="XMLID_122_" style="fill:#D1D4D2;" d="M56.705,54.4l-3-4c-0.016-0.021-0.038-0.033-0.055-0.052
		c-0.035-0.04-0.073-0.073-0.114-0.107c-0.034-0.025-0.067-0.049-0.103-0.069c-0.069-0.044-0.137-0.083-0.215-0.109
		c-0.002-0.001-0.004-0.003-0.006-0.003c-0.013-0.005-0.025-0.002-0.038-0.006c-0.002,0-0.004,0-0.006-0.001
		C53.082,50.029,52.998,50,52.905,50h-5c-0.553,0-1,0.448-1,1s0.447,1,1,1h3.498c-1.284,2.987-3.356,6-6.498,6
		c-2.158,0-4.291-1.932-6.007-5.439c-0.243-0.496-0.841-0.7-1.338-0.459c-0.496,0.242-0.701,0.841-0.459,1.338
		c2.653,5.422,5.708,6.56,7.804,6.56c2.419,0,5.717-1.277,8.242-7.011l1.958,2.611c0.197,0.262,0.496,0.4,0.801,0.4
		c0.209,0,0.419-0.065,0.599-0.2C56.947,55.469,57.037,54.842,56.705,54.4"/>
	<path id="XMLID_121_" style="fill:#D1D4D2;" d="M14.095,0c-2.419,0-5.717,1.278-8.242,7.011L3.894,4.4
		c-0.331-0.441-0.956-0.532-1.4-0.2c-0.442,0.331-0.531,0.958-0.2,1.4l3,4c0.013,0.017,0.033,0.023,0.047,0.039
		c0.069,0.081,0.151,0.144,0.242,0.2C5.617,9.86,5.644,9.888,5.68,9.904c0.033,0.015,0.068,0.021,0.103,0.033
		C5.785,9.939,5.787,9.94,5.789,9.94c0.03,0.011,0.06,0.008,0.09,0.016C5.95,9.973,6.018,10,6.095,10h0.031c0.002,0,0.002,0,0.002,0
		c0.002,0,0.003,0,0.004,0h4.963c0.552,0,1-0.448,1-1s-0.448-1-1-1H7.598c1.283-2.987,3.355-6,6.497-6
		c2.158,0,4.291,1.932,6.007,5.439c0.243,0.496,0.841,0.702,1.338,0.459c0.496-0.242,0.701-0.841,0.459-1.337
		C19.246,1.138,16.19,0,14.095,0"/>
	<path id="XMLID_120_" style="fill:#FCC62D;" d="M59,26c0,7.732-12.984,14-29,14C13.984,40,1,33.732,1,26c0-7.732,12.984-14,29-14
		C46.016,12,59,18.268,59,26"/>
	<path id="XMLID_119_" style="fill:#FFD949;" d="M30,36C14.739,36,5,30.077,5,26s9.739-11,25-11c15.261,0,25,6.923,25,11
		S45.261,36,30,36"/>
	<path id="XMLID_118_" style="fill:#F0C41B;" d="M38.541,26.713c0.997-0.211,1.582-0.826,1.366-1.527l-0.23-0.749
		c-0.17-0.55-0.828-1.01-1.634-1.238c-1.095-2.343-3.891-3.191-8.043-3.191c-0.197,0-0.39,0.004-0.579,0.012
		c-1.417,0.059-2.831-0.079-3.934-0.482c-0.449-0.164-0.815-0.336-1.057-0.515c-0.11-0.08-0.374-0.029-0.374,0.073
		c0,0.178,0.013,0.389,0.052,0.622c0.151,0.907-0.029,0.771-0.926,1.676c-0.521,0.526-0.935,1.135-1.235,1.807
		c-0.802,0.229-1.456,0.688-1.624,1.236l-0.231,0.749c-0.215,0.702,0.369,1.317,1.366,1.527c0.285,1.792,1.503,3.37,4.162,4.237
		l-0.146,1.261c-0.038,0.337-0.33,0.649-0.753,0.801l-5.361,1.935C22.491,35.604,26.06,36,30,36c3.884,0,7.408-0.385,10.507-1.024
		l-5.244-1.961c-0.415-0.155-0.699-0.464-0.737-0.795l-0.146-1.27C37.038,30.083,38.256,28.505,38.541,26.713"/>
	<path id="XMLID_117_" style="fill:#E4AF18;" d="M30,40C13.984,40,1,33.732,1,26v9c0,7.732,12.984,14,29,14c16.016,0,29-6.268,29-14
		v-9C59,33.732,46.016,40,30,40"/>
	<path id="XMLID_116_" style="fill:#CE9912;" d="M4,32.202v9c0.591,0.576,1.257,1.13,2,1.658v-9C5.257,33.332,4.591,32.778,4,32.202
		"/>
	<path id="XMLID_115_" style="fill:#CE9912;" d="M54,33.859v9c0.743-0.527,1.409-1.082,2-1.658v-9
		C55.409,32.778,54.743,33.332,54,33.859"/>
	<path id="XMLID_114_" style="fill:#CE9912;" d="M8,35.116v9c0.632,0.355,1.299,0.694,2,1.017v-9C9.299,35.81,8.632,35.471,8,35.116
		"/>
	<path id="XMLID_113_" style="fill:#CE9912;" d="M50,36.133v9c0.701-0.323,1.368-0.662,2-1.017v-9
		C51.368,35.471,50.701,35.81,50,36.133"/>
	<path id="XMLID_112_" style="fill:#CE9912;" d="M12,36.973v9c0.646,0.247,1.311,0.482,2,0.703v-9
		C13.311,37.455,12.646,37.22,12,36.973"/>
	<path id="XMLID_111_" style="fill:#CE9912;" d="M46,37.675v9c0.689-0.22,1.354-0.456,2-0.703v-9
		C47.354,37.22,46.689,37.455,46,37.675"/>
	<path id="XMLID_110_" style="fill:#CE9912;" d="M16,38.261v9c0.651,0.174,1.319,0.334,2,0.483v-9
		C17.319,38.596,16.651,38.436,16,38.261"/>
	<path id="XMLID_109_" style="fill:#CE9912;" d="M42,38.744v9c0.681-0.148,1.349-0.309,2-0.482v-9
		C43.349,38.435,42.681,38.596,42,38.744"/>
	<path id="XMLID_108_" style="fill:#CE9912;" d="M21,39.309v9c0.657,0.104,1.323,0.197,2,0.278v-9
		C22.323,39.506,21.657,39.413,21,39.309"/>
	<path id="XMLID_107_" style="fill:#CE9912;" d="M37,39.587v9c0.677-0.081,1.343-0.174,2-0.278v-9
		C38.343,39.413,37.677,39.506,37,39.587"/>
	<path id="XMLID_106_" style="fill:#CE9912;" d="M26,39.864v9c0.66,0.044,1.327,0.077,2,0.099v-9
		C27.327,39.941,26.66,39.908,26,39.864"/>
	<path id="XMLID_105_" style="fill:#CE9912;" d="M32,39.963v9c0.673-0.021,1.34-0.055,2-0.099v-9
		C33.34,39.908,32.673,39.941,32,39.963"/>
</g>
<g>
</g>
<g>
</g>
<g>
</g>
<g>
</g>
<g>
</g>
<g>
</g>
<g>
</g>
<g>
</g>
<g>
</g>
<g>
</g>
<g>
</g>
<g>
</g>
<g>
</g>
<g>
</g>
<g>
</g>
</svg>
