<?xml version="1.0" encoding="iso-8859-1"?>
<!-- Generator: Adobe Illustrator 19.0.0, SVG Export Plug-In . SVG Version: 6.00 Build 0)  -->
<svg version="1.1" id="Capa_1" xmlns="http://www.w3.org/2000/svg" xmlns:xlink="http://www.w3.org/1999/xlink" x="0px" y="0px"
	 viewBox="0 0 56 56" style="enable-background:new 0 0 56 56;" xml:space="preserve">
<g id="XMLID_283_">
	<path id="XMLID_18_" style="fill:#FAC9A6;" d="M31,56C17.469,56,6.5,43.464,6.5,28S17.469,0,31,0c13.531,0,24.5,12.536,24.5,28
		S44.531,56,31,56"/>
	<path id="XMLID_17_" style="fill:#F4B389;" d="M6.5,28C6.5,13.698,15.885,1.908,28,0.216C27.016,0.079,26.016,0,25,0
		C11.469,0,0.5,12.536,0.5,28S11.469,56,25,56c1.016,0,2.016-0.079,3-0.216C15.885,54.092,6.5,42.302,6.5,28"/>
	<path id="XMLID_16_" style="fill:#FCD6BD;" d="M31,52c-11.304,0-20.5-10.766-20.5-24S19.696,4,31,4c11.304,0,20.5,10.766,20.5,24
		S42.304,52,31,52"/>
	<path id="XMLID_300_" style="fill:#DF9061;" d="M42.982,44.068l-4.715-2.431c-0.336-0.173-0.548-0.559-0.548-0.997V38.89
		c2.49-1.369,3.874-3.805,4.536-6.774c0.983-0.361,1.696-1.44,1.696-2.728V27.95c0-1.102-0.523-2.084-1.287-2.618
		c-0.535-5.532-3.65-8.167-9.029-8.876c-0.267-0.035-0.53-0.058-0.789-0.069c-1.968-0.086-4.023-0.771-5.765-2.263
		c-0.739-0.632-1.366-1.287-1.812-1.947c-0.204-0.302-0.614-0.194-0.576,0.155c0.065,0.599,0.161,1.3,0.305,2.071
		c0.53,2.854,0.214,2.41-0.827,4.935c-0.582,1.413-0.961,3.017-1.138,4.741c-1.059,0.511-1.803,1.606-1.803,2.927v1.729
		c0,1.549,1.017,2.86,2.374,3.3c0.885,3.419,2.667,6.076,5.656,7.304v1.862c0,0.477-0.252,0.931-0.652,1.172l-6.177,3.733
		c-0.902,0.594-1.638,1.411-2.147,2.344C23.404,50.7,27.074,52,31,52c5.242,0,10.029-2.318,13.657-6.121
		C44.288,45.081,43.717,44.438,42.982,44.068"/>
	<path id="XMLID_301_" style="fill:#DF9061;" d="M6.498,29H0.501c0.02,0.673,0.058,1.34,0.119,2h6.003
		C6.56,30.34,6.519,29.673,6.498,29"/>
	<path id="XMLID_302_" style="fill:#DF9061;" d="M6.727,24H0.731c-0.083,0.659-0.143,1.327-0.184,2h5.999
		C6.588,25.327,6.644,24.659,6.727,24"/>
	<path id="XMLID_303_" style="fill:#DF9061;" d="M7.048,34H1.047c0.13,0.676,0.28,1.343,0.451,2h5.999
		C7.327,35.343,7.178,34.676,7.048,34"/>
	<path id="XMLID_304_" style="fill:#DF9061;" d="M8.447,39H2.443c0.255,0.682,0.537,1.347,0.837,2h6.001
		C8.981,40.348,8.702,39.681,8.447,39"/>
	<path id="XMLID_305_" style="fill:#DF9061;" d="M7.772,19H1.779c-0.195,0.657-0.377,1.322-0.529,2h6.007
		C7.409,20.324,7.578,19.655,7.772,19"/>
	<path id="XMLID_9_" style="fill:#DF9061;" d="M9.764,14h-6c-0.33,0.651-0.641,1.317-0.925,2h6.004
		C9.127,15.318,9.434,14.651,9.764,14"/>
	<path id="XMLID_8_" style="fill:#DF9061;" d="M13.845,8H7.838c-0.569,0.636-1.11,1.303-1.622,2h6.005
		C12.734,9.303,13.276,8.636,13.845,8"/>
	<path id="XMLID_7_" style="fill:#DF9061;" d="M19.96,3h-6.013c-1.022,0.59-2.002,1.258-2.936,2h6.009
		C17.955,4.258,18.937,3.59,19.96,3"/>
	<path id="XMLID_6_" style="fill:#DF9061;" d="M11.519,45H5.516c0.464,0.693,0.954,1.36,1.472,2h6.007
		C12.477,46.36,11.984,45.693,11.519,45"/>
	<path id="XMLID_5_" style="fill:#DF9061;" d="M9.832,50c0.803,0.723,1.644,1.394,2.524,2h6.014c-0.884-0.607-1.734-1.274-2.54-2
		H9.832z"/>
	<path id="XMLID_2_" style="fill:#F0AE84;" d="M31,53C19.145,53,9.5,41.785,9.5,28S19.145,3,31,3s21.5,11.215,21.5,25
		S42.855,53,31,53 M31,5C20.248,5,11.5,15.318,11.5,28c0,12.682,8.748,23,19.5,23s19.5-10.318,19.5-23C50.5,15.318,41.752,5,31,5"/>
</g>
<g>
</g>
<g>
</g>
<g>
</g>
<g>
</g>
<g>
</g>
<g>
</g>
<g>
</g>
<g>
</g>
<g>
</g>
<g>
</g>
<g>
</g>
<g>
</g>
<g>
</g>
<g>
</g>
<g>
</g>
</svg>
