<?xml version="1.0" encoding="iso-8859-1"?>
<!-- Generator: Adobe Illustrator 18.0.0, SVG Export Plug-In . SVG Version: 6.00 Build 0)  -->
<!DOCTYPE svg PUBLIC "-//W3C//DTD SVG 1.1//EN" "http://www.w3.org/Graphics/SVG/1.1/DTD/svg11.dtd">
<svg version="1.1" id="Capa_1" xmlns="http://www.w3.org/2000/svg" xmlns:xlink="http://www.w3.org/1999/xlink" x="0px" y="0px"
	 viewBox="0 0 58 58" style="enable-background:new 0 0 58 58;" xml:space="preserve">
<g>
	<rect x="10" y="10" style="fill:#8F6127;" width="38" height="38"/>
	<g>
		<path style="fill:#70491E;" d="M38.873,49L49,38.873V24.731L24.731,49H38.873z M47,38.045L38.045,47H29.56L47,29.56V38.045z"/>
		<path style="fill:#70491E;" d="M42.104,9L9,42.104V49h7.246L49,16.246V9H42.104z M47,15.418L15.418,47H11v-4.067L42.933,11H47
			V15.418z"/>
		<path style="fill:#70491E;" d="M19.477,9L9,19.477v14.143L33.618,9H19.477z M11,20.305L20.305,11h8.485L11,28.791V20.305z"/>
	</g>
	<polygon style="fill:#CA965A;" points="0,0 0,10 0,48 0,58 10,48 10,10 	"/>
	<polygon style="fill:#AD7E4E;" points="0,58 10,58 48,58 58,58 48,48 10,48 	"/>
	<polygon style="fill:#AD7E4E;" points="0,0 10,0 48,0 58,0 48,10 10,10 	"/>
	<polygon style="fill:#CA965A;" points="58,0 58,10 58,48 58,58 48,48 48,10 	"/>
	<g>
		<circle style="fill:#E6E6E6;" cx="3" cy="50" r="1"/>
		<circle style="fill:#E6E6E6;" cx="7" cy="46" r="1"/>
		<circle style="fill:#E6E6E6;" cx="3" cy="8" r="1"/>
		<circle style="fill:#E6E6E6;" cx="7" cy="12" r="1"/>
		<circle style="fill:#E6E6E6;" cx="50" cy="55" r="1"/>
		<circle style="fill:#E6E6E6;" cx="46" cy="51" r="1"/>
		<circle style="fill:#E6E6E6;" cx="8" cy="55" r="1"/>
		<circle style="fill:#E6E6E6;" cx="12" cy="51" r="1"/>
		<circle style="fill:#E6E6E6;" cx="50" cy="3" r="1"/>
		<circle style="fill:#E6E6E6;" cx="46" cy="7" r="1"/>
		<circle style="fill:#E6E6E6;" cx="8" cy="3" r="1"/>
		<circle style="fill:#E6E6E6;" cx="12" cy="7" r="1"/>
		<circle style="fill:#E6E6E6;" cx="55" cy="50" r="1"/>
		<circle style="fill:#E6E6E6;" cx="51" cy="46" r="1"/>
		<circle style="fill:#E6E6E6;" cx="55" cy="8" r="1"/>
		<circle style="fill:#E6E6E6;" cx="51" cy="12" r="1"/>
	</g>
</g>
<g>
</g>
<g>
</g>
<g>
</g>
<g>
</g>
<g>
</g>
<g>
</g>
<g>
</g>
<g>
</g>
<g>
</g>
<g>
</g>
<g>
</g>
<g>
</g>
<g>
</g>
<g>
</g>
<g>
</g>
</svg>
