<?xml version="1.0" encoding="iso-8859-1"?>
<!-- Generator: Adobe Illustrator 18.0.0, SVG Export Plug-In . SVG Version: 6.00 Build 0)  -->
<!DOCTYPE svg PUBLIC "-//W3C//DTD SVG 1.1//EN" "http://www.w3.org/Graphics/SVG/1.1/DTD/svg11.dtd">
<svg version="1.1" id="Capa_1" xmlns="http://www.w3.org/2000/svg" xmlns:xlink="http://www.w3.org/1999/xlink" x="0px" y="0px"
	 viewBox="0 0 58 58" style="enable-background:new 0 0 58 58;" xml:space="preserve">
<g>
	<rect x="28" y="17" style="fill:#556080;" width="2" height="24"/>
	<polygon style="fill:#556080;" points="52,41 50,41 50,30 8,30 8,41 6,41 6,28 52,28 	"/>
	<path style="fill:#FB7B76;" d="M7,55L7,55c-3.866,0-7-3.134-7-7v0c0-3.866,3.134-7,7-7h0c3.866,0,7,3.134,7,7v0
		C14,51.866,10.866,55,7,55z"/>
	<path style="fill:#FB7B76;" d="M51,55L51,55c-3.866,0-7-3.134-7-7v0c0-3.866,3.134-7,7-7h0c3.866,0,7,3.134,7,7v0
		C58,51.866,54.866,55,51,55z"/>
	<path style="fill:#FB7B76;" d="M29,55L29,55c-3.866,0-7-3.134-7-7v0c0-3.866,3.134-7,7-7h0c3.866,0,7,3.134,7,7v0
		C36,51.866,32.866,55,29,55z"/>
	<rect x="22" y="3" style="fill:#B49ACA;" width="14" height="14"/>
</g>
<g>
</g>
<g>
</g>
<g>
</g>
<g>
</g>
<g>
</g>
<g>
</g>
<g>
</g>
<g>
</g>
<g>
</g>
<g>
</g>
<g>
</g>
<g>
</g>
<g>
</g>
<g>
</g>
<g>
</g>
</svg>
