<?xml version="1.0" encoding="iso-8859-1"?>
<!-- Generator: Adobe Illustrator 19.0.0, SVG Export Plug-In . SVG Version: 6.00 Build 0)  -->
<svg version="1.1" id="Capa_1" xmlns="http://www.w3.org/2000/svg" xmlns:xlink="http://www.w3.org/1999/xlink" x="0px" y="0px"
	 viewBox="0 0 56 56" style="enable-background:new 0 0 56 56;" xml:space="preserve">
<g id="XMLID_15_">
	<g id="XMLID_113_">
		<rect id="XMLID_119_" y="4.5" style="fill:#EAEAD7;" width="56" height="32"/>
		<rect id="XMLID_118_" y="36.5" style="fill:#D0CFB8;" width="56" height="3"/>
		<rect id="XMLID_117_" y="39.5" style="fill:#BFBDA4;" width="56" height="3"/>
		<rect id="XMLID_116_" y="42.5" style="fill:#D0CFB8;" width="56" height="3"/>
		<rect id="XMLID_115_" y="45.5" style="fill:#BFBDA4;" width="56" height="3"/>
		<rect id="XMLID_114_" y="48.5" style="fill:#D0CFB8;" width="56" height="3"/>
	</g>
	<path id="XMLID_112_" style="fill:#EAEAD7;" d="M41,20.5c0,7.18-5.82,13-13,13c-7.18,0-13-5.82-13-13c0-7.18,5.82-13,13-13
		C35.18,7.5,41,13.32,41,20.5"/>
	<path id="XMLID_111_" style="fill:#6E8C61;" d="M21.094,31.5C17.438,29.199,15,25.139,15,20.5c0-4.639,2.438-8.699,6.094-11H10.975
		C10.99,9.665,11,9.831,11,10c0,3.038-2.463,5.5-5.5,5.5c-0.169,0-0.335-0.01-0.5-0.025v10.05C5.165,25.51,5.331,25.5,5.5,25.5
		c3.037,0,5.5,2.462,5.5,5.5c0,0.169-0.01,0.335-0.025,0.5H21.094z"/>
	<path id="XMLID_110_" style="fill:#6E8C61;" d="M50.5,15.5c-3.038,0-5.5-2.462-5.5-5.5c0-0.169,0.01-0.335,0.025-0.5H34.906
		C38.561,11.801,41,15.861,41,20.5c0,4.639-2.439,8.699-6.094,11h10.119C45.01,31.335,45,31.169,45,31c0-3.038,2.462-5.5,5.5-5.5
		c0.169,0,0.335,0.01,0.5,0.025v-10.05C50.835,15.49,50.669,15.5,50.5,15.5"/>
	<path id="XMLID_109_" style="fill:#6E8C61;" d="M5.5,12.5C4.121,12.5,3,11.379,3,10s1.121-2.5,2.5-2.5C6.879,7.5,8,8.621,8,10
		S6.879,12.5,5.5,12.5"/>
	<path id="XMLID_108_" style="fill:#6E8C61;" d="M50.5,12.5c-1.379,0-2.5-1.121-2.5-2.5s1.121-2.5,2.5-2.5
		c1.379,0,2.5,1.121,2.5,2.5S51.879,12.5,50.5,12.5"/>
	<path id="XMLID_107_" style="fill:#6E8C61;" d="M5.5,33.5C4.121,33.5,3,32.379,3,31c0-1.379,1.121-2.5,2.5-2.5
		C6.879,28.5,8,29.621,8,31C8,32.379,6.879,33.5,5.5,33.5"/>
	<path id="XMLID_106_" style="fill:#6E8C61;" d="M50.5,33.5c-1.379,0-2.5-1.121-2.5-2.5c0-1.379,1.121-2.5,2.5-2.5
		c1.379,0,2.5,1.121,2.5,2.5C53,32.379,51.879,33.5,50.5,33.5"/>
	<path id="XMLID_105_" style="fill:#6E8C61;" d="M32.957,22.029C36.913,20.352,32,15.5,32,15.5c-4.083-3.542-9-1-9-1
		c-0.249,0.852,0.496,3.351,1.306,3.638C23.497,19.027,23,20.204,23,21.5c0,1.625,1.7,2.313,1.871,2.807
		c0.083,0.242,0.125,0.493,0.129,0.745c0.012,0.745-0.373,1.443-0.924,1.946l-4.089,3.725C22.196,32.457,24.974,33.5,28,33.5
		c3.026,0,5.804-1.043,8.013-2.777l-4.058-3.693c-0.667-0.606-1.071-1.501-0.915-2.388c0.021-0.126,0.053-0.251,0.095-0.374
		C31.243,23.947,32.918,22.376,32.957,22.029"/>
</g>
<g>
</g>
<g>
</g>
<g>
</g>
<g>
</g>
<g>
</g>
<g>
</g>
<g>
</g>
<g>
</g>
<g>
</g>
<g>
</g>
<g>
</g>
<g>
</g>
<g>
</g>
<g>
</g>
<g>
</g>
</svg>
