<?xml version="1.0" encoding="iso-8859-1"?>
<!-- Generator: Adobe Illustrator 18.0.0, SVG Export Plug-In . SVG Version: 6.00 Build 0)  -->
<!DOCTYPE svg PUBLIC "-//W3C//DTD SVG 1.1//EN" "http://www.w3.org/Graphics/SVG/1.1/DTD/svg11.dtd">
<svg version="1.1" id="Capa_1" xmlns="http://www.w3.org/2000/svg" xmlns:xlink="http://www.w3.org/1999/xlink" x="0px" y="0px"
	 viewBox="0 0 60 60" style="enable-background:new 0 0 60 60;" xml:space="preserve">
<g>
	<path style="fill:#556080;" d="M30,6c-0.553,0-1-0.447-1-1V1c0-0.553,0.447-1,1-1s1,0.447,1,1v4C31,5.553,30.553,6,30,6z"/>
	<rect x="1" y="5" style="fill:#F0EDE0;" width="58" height="40"/>
	<path style="fill:#556080;" d="M30,58c-0.553,0-1-0.447-1-1V45c0-0.553,0.447-1,1-1s1,0.447,1,1v12C31,57.553,30.553,58,30,58z"/>
	<path style="fill:#556080;" d="M44,60c-0.256,0-0.512-0.098-0.707-0.293l-14-14c-0.391-0.391-0.391-1.023,0-1.414
		s1.023-0.391,1.414,0l14,14c0.391,0.391,0.391,1.023,0,1.414C44.512,59.902,44.256,60,44,60z"/>
	<path style="fill:#556080;" d="M16,60c-0.256,0-0.512-0.098-0.707-0.293c-0.391-0.391-0.391-1.023,0-1.414l14-14
		c0.391-0.391,1.023-0.391,1.414,0s0.391,1.023,0,1.414l-14,14C16.512,59.902,16.256,60,16,60z"/>
	<path style="fill:#D4C3A5;" d="M34,19h-8v-8h8V19z M28,17h4v-4h-4V17z"/>
	<rect x="29" y="18" style="fill:#D4C3A5;" width="2" height="11.725"/>
	<polygon style="fill:#D4C3A5;" points="46,29.725 44,29.725 44,26 16,26 16,29.725 14,29.725 14,24 46,24 	"/>
	<path style="fill:#D4C3A5;" d="M15,38c-2.757,0-5-2.243-5-5s2.243-5,5-5s5,2.243,5,5S17.757,38,15,38z M15,30c-1.654,0-3,1.346-3,3
		s1.346,3,3,3s3-1.346,3-3S16.654,30,15,30z"/>
	<path style="fill:#D4C3A5;" d="M30,38c-2.757,0-5-2.243-5-5s2.243-5,5-5s5,2.243,5,5S32.757,38,30,38z M30,30c-1.654,0-3,1.346-3,3
		s1.346,3,3,3s3-1.346,3-3S31.654,30,30,30z"/>
	<path style="fill:#D4C3A5;" d="M45,38c-2.757,0-5-2.243-5-5s2.243-5,5-5s5,2.243,5,5S47.757,38,45,38z M45,30c-1.654,0-3,1.346-3,3
		s1.346,3,3,3s3-1.346,3-3S46.654,30,45,30z"/>
</g>
<g>
</g>
<g>
</g>
<g>
</g>
<g>
</g>
<g>
</g>
<g>
</g>
<g>
</g>
<g>
</g>
<g>
</g>
<g>
</g>
<g>
</g>
<g>
</g>
<g>
</g>
<g>
</g>
<g>
</g>
</svg>
