<?xml version="1.0" encoding="iso-8859-1"?>
<!-- Generator: Adobe Illustrator 18.0.0, SVG Export Plug-In . SVG Version: 6.00 Build 0)  -->
<!DOCTYPE svg PUBLIC "-//W3C//DTD SVG 1.1//EN" "http://www.w3.org/Graphics/SVG/1.1/DTD/svg11.dtd">
<svg version="1.1" id="Capa_1" xmlns="http://www.w3.org/2000/svg" xmlns:xlink="http://www.w3.org/1999/xlink" x="0px" y="0px"
	 viewBox="0 0 60 60" style="enable-background:new 0 0 60 60;" xml:space="preserve">
<g>
	<path style="fill:#556080;" d="M30,6c-0.553,0-1-0.447-1-1V1c0-0.553,0.447-1,1-1s1,0.447,1,1v4C31,5.553,30.553,6,30,6z"/>
	<rect x="1" y="5" style="fill:#F0EDE0;" width="58" height="40"/>
	<path style="fill:#556080;" d="M30,58c-0.553,0-1-0.447-1-1V45c0-0.553,0.447-1,1-1s1,0.447,1,1v12C31,57.553,30.553,58,30,58z"/>
	<path style="fill:#556080;" d="M44,60c-0.256,0-0.512-0.098-0.707-0.293l-14-14c-0.391-0.391-0.391-1.023,0-1.414
		s1.023-0.391,1.414,0l14,14c0.391,0.391,0.391,1.023,0,1.414C44.512,59.902,44.256,60,44,60z"/>
	<path style="fill:#556080;" d="M16,60c-0.256,0-0.512-0.098-0.707-0.293c-0.391-0.391-0.391-1.023,0-1.414l14-14
		c0.391-0.391,1.023-0.391,1.414,0s0.391,1.023,0,1.414l-14,14C16.512,59.902,16.256,60,16,60z"/>
	<path style="fill:#D4C3A5;" d="M30,41c-8.822,0-16-7.178-16-16S21.178,9,30,9s16,7.178,16,16S38.822,41,30,41z M30,11
		c-7.72,0-14,6.28-14,14s6.28,14,14,14s14-6.28,14-14S37.72,11,30,11z"/>
	<path style="fill:#D4C3A5;" d="M25,33.821V16.179L38.862,25L25,33.821z M27,19.821v10.357L35.138,25L27,19.821z"/>
</g>
<g>
</g>
<g>
</g>
<g>
</g>
<g>
</g>
<g>
</g>
<g>
</g>
<g>
</g>
<g>
</g>
<g>
</g>
<g>
</g>
<g>
</g>
<g>
</g>
<g>
</g>
<g>
</g>
<g>
</g>
</svg>
