<?xml version="1.0" encoding="iso-8859-1"?>
<!-- Generator: Adobe Illustrator 18.0.0, SVG Export Plug-In . SVG Version: 6.00 Build 0)  -->
<!DOCTYPE svg PUBLIC "-//W3C//DTD SVG 1.1//EN" "http://www.w3.org/Graphics/SVG/1.1/DTD/svg11.dtd">
<svg version="1.1" id="Capa_1" xmlns="http://www.w3.org/2000/svg" xmlns:xlink="http://www.w3.org/1999/xlink" x="0px" y="0px"
	 viewBox="0 0 60 60" style="enable-background:new 0 0 60 60;" xml:space="preserve">
<g>
	<path style="fill:#556080;" d="M30,6c-0.553,0-1-0.447-1-1V1c0-0.553,0.447-1,1-1s1,0.447,1,1v4C31,5.553,30.553,6,30,6z"/>
	<rect x="1" y="5" style="fill:#F0EDE0;" width="58" height="40"/>
	<path style="fill:#556080;" d="M30,58c-0.553,0-1-0.447-1-1V45c0-0.553,0.447-1,1-1s1,0.447,1,1v12C31,57.553,30.553,58,30,58z"/>
	<path style="fill:#556080;" d="M44,60c-0.256,0-0.512-0.098-0.707-0.293l-14-14c-0.391-0.391-0.391-1.023,0-1.414
		s1.023-0.391,1.414,0l14,14c0.391,0.391,0.391,1.023,0,1.414C44.512,59.902,44.256,60,44,60z"/>
	<path style="fill:#556080;" d="M16,60c-0.256,0-0.512-0.098-0.707-0.293c-0.391-0.391-0.391-1.023,0-1.414l14-14
		c0.391-0.391,1.023-0.391,1.414,0s0.391,1.023,0,1.414l-14,14C16.512,59.902,16.256,60,16,60z"/>
	<path style="fill:#D4C3A5;" d="M36,42c-0.553,0-1-0.447-1-1v-3c0-0.553,0.447-1,1-1s1,0.447,1,1v3C37,41.553,36.553,42,36,42z"/>
	<path style="fill:#D4C3A5;" d="M40,42c-0.553,0-1-0.447-1-1v-7c0-0.553,0.447-1,1-1s1,0.447,1,1v7C41,41.553,40.553,42,40,42z"/>
	<path style="fill:#D4C3A5;" d="M44,42c-0.553,0-1-0.447-1-1v-5c0-0.553,0.447-1,1-1s1,0.447,1,1v5C45,41.553,44.553,42,44,42z"/>
	<path style="fill:#D4C3A5;" d="M48,42c-0.553,0-1-0.447-1-1V29c0-0.553,0.447-1,1-1s1,0.447,1,1v12C49,41.553,48.553,42,48,42z"/>
	<path style="fill:#D4C3A5;" d="M52,42c-0.553,0-1-0.447-1-1v-8c0-0.553,0.447-1,1-1s1,0.447,1,1v8C53,41.553,52.553,42,52,42z"/>
	<path style="fill:#D4C3A5;" d="M18,38H8c-0.553,0-1-0.447-1-1s0.447-1,1-1h10c0.553,0,1,0.447,1,1S18.553,38,18,38z"/>
	<path style="fill:#D4C3A5;" d="M23,42H8c-0.553,0-1-0.447-1-1s0.447-1,1-1h15c0.553,0,1,0.447,1,1S23.553,42,23,42z"/>
	<path style="fill:#D4C3A5;" d="M18.5,31C12.159,31,7,25.841,7,19.5S12.159,8,18.5,8S30,13.159,30,19.5S24.841,31,18.5,31z M18.5,10
		C13.262,10,9,14.262,9,19.5s4.262,9.5,9.5,9.5s9.5-4.262,9.5-9.5S23.738,10,18.5,10z"/>
	<path style="fill:#D4C3A5;" d="M28.975,21H17.037L17,19.963v-11.3l0.574-0.627l0.395-0.024c3.216-0.147,6.385,1.078,8.663,3.356
		s3.502,5.436,3.356,8.663l-0.02,0.44l-0.617,0.515L28.975,21z M19,19h8.988c-0.119-2.351-1.084-4.531-2.771-6.218
		S21.351,10.131,19,10.012V19z"/>
	<path style="fill:#D4C3A5;" d="M25.408,28.408c-0.256,0-0.512-0.098-0.707-0.293l-7.408-7.408c-0.391-0.391-0.391-1.023,0-1.414
		s1.023-0.391,1.414,0l7.408,7.408c0.391,0.391,0.391,1.023,0,1.414C25.92,28.311,25.664,28.408,25.408,28.408z"/>
	<path style="fill:#D4C3A5;" d="M47,15h-8c-0.553,0-1-0.447-1-1s0.447-1,1-1h8c0.553,0,1,0.447,1,1S47.553,15,47,15z"/>
	<path style="fill:#D4C3A5;" d="M52,15c-0.271,0-0.521-0.11-0.71-0.3C51.109,14.53,51,14.27,51,14c0-0.271,0.109-0.53,0.3-0.71
		c0.35-0.36,1.03-0.37,1.41,0C52.89,13.479,53,13.74,53,14s-0.11,0.52-0.29,0.71C52.52,14.89,52.26,15,52,15z"/>
	<path style="fill:#D4C3A5;" d="M52,10h-3c-0.553,0-1-0.447-1-1s0.447-1,1-1h3c0.553,0,1,0.447,1,1S52.553,10,52,10z"/>
	<path style="fill:#D4C3A5;" d="M41,10h-2c-0.553,0-1-0.447-1-1s0.447-1,1-1h2c0.553,0,1,0.447,1,1S41.553,10,41,10z"/>
	<path style="fill:#D4C3A5;" d="M45,10c-0.271,0-0.521-0.11-0.71-0.29C44.109,9.52,44,9.27,44,9c0-0.271,0.109-0.521,0.29-0.71
		c0.359-0.37,1.05-0.37,1.42,0C45.89,8.479,46,8.729,46,9c0,0.27-0.11,0.52-0.29,0.71C45.52,9.89,45.27,10,45,10z"/>
</g>
<g>
</g>
<g>
</g>
<g>
</g>
<g>
</g>
<g>
</g>
<g>
</g>
<g>
</g>
<g>
</g>
<g>
</g>
<g>
</g>
<g>
</g>
<g>
</g>
<g>
</g>
<g>
</g>
<g>
</g>
</svg>
