<?xml version="1.0" encoding="iso-8859-1"?>
<!-- Generator: Adobe Illustrator 18.0.0, SVG Export Plug-In . SVG Version: 6.00 Build 0)  -->
<!DOCTYPE svg PUBLIC "-//W3C//DTD SVG 1.1//EN" "http://www.w3.org/Graphics/SVG/1.1/DTD/svg11.dtd">
<svg version="1.1" id="Capa_1" xmlns="http://www.w3.org/2000/svg" xmlns:xlink="http://www.w3.org/1999/xlink" x="0px" y="0px"
	 viewBox="0 0 60 60" style="enable-background:new 0 0 60 60;" xml:space="preserve">
<g>
	<path style="fill:#556080;" d="M30,6c-0.552,0-1-0.447-1-1V1c0-0.553,0.448-1,1-1s1,0.447,1,1v4C31,5.553,30.552,6,30,6z"/>
	<rect x="1" y="5" style="fill:#F0EDE0;" width="58" height="40"/>
	<path style="fill:#D4C3A5;" d="M19,39h-8V21h8V39z M13,37h4V23h-4V37z"/>
	<path style="fill:#D4C3A5;" d="M25,39h-8V15h8V39z M19,37h4V17h-4V37z"/>
	<path style="fill:#D4C3A5;" d="M31,39h-8V25h8V39z M25,37h4V27h-4V37z"/>
	<path style="fill:#D4C3A5;" d="M37,39h-8V19h8V39z M31,37h4V21h-4V37z"/>
	<path style="fill:#D4C3A5;" d="M43,39h-8V12h8V39z M37,37h4V14h-4V37z"/>
	<path style="fill:#D4C3A5;" d="M49,39h-8V15h8V39z M43,37h4V17h-4V37z"/>
	<path style="fill:#D4C3A5;" d="M52,39H8c-0.552,0-1-0.447-1-1s0.448-1,1-1h44c0.552,0,1,0.447,1,1S52.552,39,52,39z"/>
	<path style="fill:#556080;" d="M30,58c-0.552,0-1-0.447-1-1V45c0-0.553,0.448-1,1-1s1,0.447,1,1v12C31,57.553,30.552,58,30,58z"/>
	<path style="fill:#556080;" d="M44,60c-0.256,0-0.512-0.098-0.707-0.293l-14-14c-0.391-0.391-0.391-1.023,0-1.414
		s1.023-0.391,1.414,0l14,14c0.391,0.391,0.391,1.023,0,1.414C44.512,59.902,44.256,60,44,60z"/>
	<path style="fill:#556080;" d="M16,60c-0.256,0-0.512-0.098-0.707-0.293c-0.391-0.391-0.391-1.023,0-1.414l14-14
		c0.391-0.391,1.023-0.391,1.414,0s0.391,1.023,0,1.414l-14,14C16.512,59.902,16.256,60,16,60z"/>
</g>
<g>
</g>
<g>
</g>
<g>
</g>
<g>
</g>
<g>
</g>
<g>
</g>
<g>
</g>
<g>
</g>
<g>
</g>
<g>
</g>
<g>
</g>
<g>
</g>
<g>
</g>
<g>
</g>
<g>
</g>
</svg>
