<?xml version="1.0" encoding="iso-8859-1"?>
<!-- Generator: Adobe Illustrator 18.0.0, SVG Export Plug-In . SVG Version: 6.00 Build 0)  -->
<!DOCTYPE svg PUBLIC "-//W3C//DTD SVG 1.1//EN" "http://www.w3.org/Graphics/SVG/1.1/DTD/svg11.dtd">
<svg version="1.1" id="Capa_1" xmlns="http://www.w3.org/2000/svg" xmlns:xlink="http://www.w3.org/1999/xlink" x="0px" y="0px"
	 viewBox="0 0 60 60" style="enable-background:new 0 0 60 60;" xml:space="preserve">
<g>
	<path style="fill:#556080;" d="M30,6c-0.552,0-1-0.447-1-1V1c0-0.553,0.448-1,1-1s1,0.447,1,1v4C31,5.553,30.552,6,30,6z"/>
	<rect x="1" y="5" style="fill:#F0EDE0;" width="58" height="40"/>
	<path style="fill:#D4C3A5;" d="M55,23.974H40.026V9h1C48.731,9,55,15.269,55,22.974V23.974z M42.026,21.974h10.932
		c-0.482-5.806-5.126-10.45-10.932-10.933V21.974z"/>
	<path style="fill:#D4C3A5;" d="M37.974,40C30.269,40,24,33.731,24,26.026s6.269-13.974,13.974-13.974h1v12.974h12.974v1
		C51.947,33.731,45.679,40,37.974,40z M36.974,14.094C30.838,14.604,26,19.761,26,26.026C26,32.629,31.372,38,37.974,38
		c6.266,0,11.422-4.838,11.932-10.974H36.974V14.094z"/>
	<path style="fill:#556080;" d="M30,58c-0.552,0-1-0.447-1-1V45c0-0.553,0.448-1,1-1s1,0.447,1,1v12C31,57.553,30.552,58,30,58z"/>
	<path style="fill:#556080;" d="M44,60c-0.256,0-0.512-0.098-0.707-0.293l-14-14c-0.391-0.391-0.391-1.023,0-1.414
		s1.023-0.391,1.414,0l14,14c0.391,0.391,0.391,1.023,0,1.414C44.512,59.902,44.256,60,44,60z"/>
	<path style="fill:#556080;" d="M16,60c-0.256,0-0.512-0.098-0.707-0.293c-0.391-0.391-0.391-1.023,0-1.414l14-14
		c0.391-0.391,1.023-0.391,1.414,0s0.391,1.023,0,1.414l-14,14C16.512,59.902,16.256,60,16,60z"/>
	<path style="fill:#D4C3A5;" d="M14,23H6c-0.552,0-1-0.447-1-1s0.448-1,1-1h8c0.552,0,1,0.447,1,1S14.552,23,14,23z"/>
	<path style="fill:#D4C3A5;" d="M8,19c-0.552,0-1-0.447-1-1v-4c0-0.553,0.448-1,1-1s1,0.447,1,1v4C9,18.553,8.552,19,8,19z"/>
	<path style="fill:#D4C3A5;" d="M11,19c-0.552,0-1-0.447-1-1v-4c0-0.553,0.448-1,1-1s1,0.447,1,1v4C12,18.553,11.552,19,11,19z"/>
	<path style="fill:#D4C3A5;" d="M19.001,32c-0.352,0-0.692-0.186-0.875-0.515l-5-9c-0.269-0.482-0.094-1.091,0.388-1.359
		c0.483-0.27,1.092-0.094,1.36,0.389l5,9c0.269,0.482,0.094,1.091-0.388,1.359C19.332,31.96,19.165,32,19.001,32z"/>
	<path style="fill:#D4C3A5;" d="M31,32H19c-0.552,0-1-0.447-1-1s0.448-1,1-1h12c0.552,0,1,0.447,1,1S31.552,32,31,32z"/>
</g>
<g>
</g>
<g>
</g>
<g>
</g>
<g>
</g>
<g>
</g>
<g>
</g>
<g>
</g>
<g>
</g>
<g>
</g>
<g>
</g>
<g>
</g>
<g>
</g>
<g>
</g>
<g>
</g>
<g>
</g>
</svg>
