<?xml version="1.0" encoding="iso-8859-1"?>
<!-- Generator: Adobe Illustrator 18.0.0, SVG Export Plug-In . SVG Version: 6.00 Build 0)  -->
<!DOCTYPE svg PUBLIC "-//W3C//DTD SVG 1.1//EN" "http://www.w3.org/Graphics/SVG/1.1/DTD/svg11.dtd">
<svg version="1.1" id="Capa_1" xmlns="http://www.w3.org/2000/svg" xmlns:xlink="http://www.w3.org/1999/xlink" x="0px" y="0px"
	 viewBox="0 0 60 60" style="enable-background:new 0 0 60 60;" xml:space="preserve">
<g>
	<path style="fill:#556080;" d="M30,6c-0.552,0-1-0.447-1-1V1c0-0.553,0.448-1,1-1s1,0.447,1,1v4C31,5.553,30.552,6,30,6z"/>
	<rect x="1" y="5" style="fill:#F0EDE0;" width="58" height="40"/>
	<path style="fill:#D4C3A5;" d="M23,16H8c-0.552,0-1-0.447-1-1s0.448-1,1-1h15c0.552,0,1,0.447,1,1S23.552,16,23,16z"/>
	<path style="fill:#D4C3A5;" d="M17,13H8c-0.552,0-1-0.447-1-1s0.448-1,1-1h9c0.552,0,1,0.447,1,1S17.552,13,17,13z"/>
	<path style="fill:#D4C3A5;" d="M23,19H8c-0.552,0-1-0.447-1-1s0.448-1,1-1h15c0.552,0,1,0.447,1,1S23.552,19,23,19z"/>
	<path style="fill:#556080;" d="M30,58c-0.552,0-1-0.447-1-1V45c0-0.553,0.448-1,1-1s1,0.447,1,1v12C31,57.553,30.552,58,30,58z"/>
	<path style="fill:#556080;" d="M44,60c-0.256,0-0.512-0.098-0.707-0.293l-14-14c-0.391-0.391-0.391-1.023,0-1.414
		s1.023-0.391,1.414,0l14,14c0.391,0.391,0.391,1.023,0,1.414C44.512,59.902,44.256,60,44,60z"/>
	<path style="fill:#556080;" d="M16,60c-0.256,0-0.512-0.098-0.707-0.293c-0.391-0.391-0.391-1.023,0-1.414l14-14
		c0.391-0.391,1.023-0.391,1.414,0s0.391,1.023,0,1.414l-14,14C16.512,59.902,16.256,60,16,60z"/>
	<path style="fill:#D4C3A5;" d="M12,38c-0.256,0-0.512-0.098-0.707-0.293c-0.391-0.391-0.391-1.023,0-1.414l12.6-12.6
		c0.391-0.391,1.023-0.391,1.414,0s0.391,1.023,0,1.414l-12.6,12.6C12.512,37.902,12.256,38,12,38z"/>
	<path style="fill:#D4C3A5;" d="M33.6,34.4c-0.256,0-0.512-0.098-0.707-0.293l-9-9c-0.391-0.391-0.391-1.023,0-1.414
		s1.023-0.391,1.414,0l9,9c0.391,0.391,0.391,1.023,0,1.414C34.112,34.303,33.856,34.4,33.6,34.4z"/>
	<path style="fill:#D4C3A5;" d="M33.6,34.4c-0.256,0-0.512-0.098-0.707-0.293c-0.391-0.391-0.391-1.023,0-1.414l14.4-14.4
		c0.391-0.391,1.023-0.391,1.414,0s0.391,1.023,0,1.414l-14.4,14.4C34.112,34.303,33.856,34.4,33.6,34.4z"/>
	<path style="fill:#D4C3A5;" d="M48,27c-0.553,0-1-0.447-1-1v-7c0-0.553,0.447-1,1-1s1,0.447,1,1v7C49,26.553,48.553,27,48,27z"/>
	<path style="fill:#D4C3A5;" d="M48,20h-7c-0.552,0-1-0.447-1-1s0.448-1,1-1h7c0.553,0,1,0.447,1,1S48.553,20,48,20z"/>
</g>
<g>
</g>
<g>
</g>
<g>
</g>
<g>
</g>
<g>
</g>
<g>
</g>
<g>
</g>
<g>
</g>
<g>
</g>
<g>
</g>
<g>
</g>
<g>
</g>
<g>
</g>
<g>
</g>
<g>
</g>
</svg>
