<?xml version="1.0" encoding="iso-8859-1"?>
<!-- Generator: Adobe Illustrator 18.0.0, SVG Export Plug-In . SVG Version: 6.00 Build 0)  -->
<!DOCTYPE svg PUBLIC "-//W3C//DTD SVG 1.1//EN" "http://www.w3.org/Graphics/SVG/1.1/DTD/svg11.dtd">
<svg version="1.1" id="Capa_1" xmlns="http://www.w3.org/2000/svg" xmlns:xlink="http://www.w3.org/1999/xlink" x="0px" y="0px"
	 viewBox="0 0 59 59" style="enable-background:new 0 0 59 59;" xml:space="preserve">
<g>
	<path style="fill:#E8D5B2;" d="M30.22,5L1.241,34.218c-0.987,0.987-0.987,2.588,0,3.576l20.466,20.466
		c0.987,0.987,2.588,0.987,3.576,0L53.5,29.28L53.5,5H30.22z M43.5,19c-2.209,0-4-1.791-4-4c0-2.209,1.791-4,4-4s4,1.791,4,4
		C47.5,17.209,45.709,19,43.5,19z"/>
	<g>
		<path style="fill:#D4C3A5;" d="M49.5,20c-0.26,0-0.52-0.11-0.71-0.29c-0.18-0.19-0.29-0.45-0.29-0.71c0-0.271,0.11-0.53,0.3-0.71
			c0.36-0.37,1.04-0.37,1.41,0c0.18,0.189,0.29,0.439,0.29,0.71c0,0.26-0.11,0.52-0.29,0.71C50.02,19.89,49.76,20,49.5,20z"/>
		<path style="fill:#D4C3A5;" d="M25.7,52.1c-0.4-0.38-0.41-1.02-0.02-1.41l0,0c0.38-0.399,1.02-0.409,1.41-0.02l0,0
			c0.4,0.38,0.41,1.02,0.02,1.41l0,0c-0.19,0.2-0.45,0.3-0.72,0.3l0,0C26.14,52.38,25.89,52.29,25.7,52.1z M28.61,49.109
			c-0.39-0.39-0.4-1.02-0.02-1.42l0,0c0.39-0.39,1.02-0.399,1.42-0.02l0,0c0.39,0.39,0.4,1.02,0.02,1.42l0,0
			c-0.2,0.2-0.46,0.3-0.72,0.3l0,0C29.06,49.39,28.81,49.3,28.61,49.109z M31.53,46.109c-0.4-0.38-0.41-1.02-0.02-1.409l0,0
			c0.38-0.391,1.02-0.4,1.41-0.021l0,0c0.4,0.39,0.41,1.021,0.02,1.41l0,0c-0.2,0.21-0.46,0.31-0.72,0.31l0,0
			C31.97,46.399,31.72,46.3,31.53,46.109z M34.44,43.12c-0.4-0.391-0.4-1.021-0.02-1.41l0,0c0.39-0.4,1.02-0.41,1.41-0.021l0,0
			c0.4,0.38,0.41,1.021,0.02,1.41l0,0c-0.19,0.2-0.45,0.3-0.71,0.3l0,0C34.89,43.399,34.63,43.31,34.44,43.12z M37.35,40.13
			c-0.39-0.39-0.4-1.021-0.02-1.42l0,0c0.39-0.391,1.02-0.4,1.42-0.021l0,0c0.4,0.391,0.4,1.021,0.02,1.42l0,0
			c-0.2,0.2-0.46,0.301-0.72,0.301l0,0C37.8,40.41,37.55,40.319,37.35,40.13z M40.27,37.13c-0.4-0.38-0.41-1.01-0.02-1.41l0,0
			c0.38-0.4,1.02-0.41,1.41-0.02l0,0c0.4,0.39,0.41,1.02,0.02,1.42l0,0c-0.19,0.199-0.45,0.3-0.71,0.3l0,0
			C40.72,37.42,40.46,37.319,40.27,37.13z M43.18,34.14c-0.39-0.38-0.4-1.02-0.02-1.41l0,0c0.39-0.399,1.02-0.41,1.42-0.02l0,0
			c0.39,0.38,0.4,1.02,0.02,1.41l0,0c-0.2,0.199-0.46,0.31-0.72,0.31l0,0C43.63,34.43,43.38,34.33,43.18,34.14z M46.1,31.149
			c-0.4-0.39-0.41-1.02-0.02-1.42l0,0c0.38-0.39,1.02-0.399,1.41-0.02l0,0c0.4,0.39,0.41,1.02,0.02,1.42l0,0
			c-0.19,0.2-0.46,0.3-0.72,0.3l0,0C46.54,31.43,46.29,31.34,46.1,31.149z M48.5,27.35c0-0.55,0.45-1,1-1l0,0c0.55,0,1,0.45,1,1l0,0
			c0,0.561-0.45,1-1,1l0,0C48.95,28.35,48.5,27.91,48.5,27.35z M48.5,23.18c0-0.56,0.45-1,1-1l0,0c0.55,0,1,0.44,1,1l0,0
			c0,0.55-0.45,1-1,1l0,0C48.95,24.18,48.5,23.729,48.5,23.18z"/>
		<path style="fill:#D4C3A5;" d="M23.48,55.38c-0.27,0-0.52-0.11-0.71-0.3c-0.18-0.181-0.29-0.44-0.29-0.7
			c0-0.271,0.11-0.53,0.3-0.71c0.36-0.37,1.04-0.37,1.41,0c0.18,0.18,0.29,0.439,0.29,0.71c0,0.26-0.11,0.52-0.3,0.7
			C24,55.27,23.75,55.38,23.48,55.38z"/>
		<path style="fill:#D4C3A5;" d="M20.15,52.46c-0.39-0.391-0.39-1.021,0-1.42l0,0c0.39-0.391,1.02-0.391,1.41,0l0,0
			c0.39,0.399,0.39,1.029,0,1.42l0,0c-0.19,0.189-0.45,0.29-0.7,0.29l0,0C20.6,52.75,20.34,52.649,20.15,52.46z M17.52,49.83
			c-0.39-0.391-0.39-1.021,0-1.41l0,0c0.39-0.39,1.03-0.39,1.42,0l0,0c0.39,0.39,0.39,1.02,0,1.41l0,0c-0.2,0.2-0.45,0.3-0.71,0.3
			l0,0C17.97,50.13,17.72,50.03,17.52,49.83z M14.9,47.21c-0.39-0.391-0.39-1.021,0-1.42l0,0c0.39-0.391,1.02-0.391,1.41,0l0,0
			c0.39,0.399,0.39,1.029,0,1.42l0,0c-0.19,0.189-0.45,0.29-0.71,0.29l0,0C15.35,47.5,15.09,47.399,14.9,47.21z M12.27,44.58
			c-0.39-0.391-0.39-1.021,0-1.41l0,0c0.39-0.39,1.03-0.39,1.42,0l0,0c0.39,0.39,0.39,1.02,0,1.41l0,0c-0.2,0.2-0.45,0.3-0.71,0.3
			l0,0C12.72,44.88,12.47,44.78,12.27,44.58z M9.65,41.96c-0.39-0.391-0.39-1.021,0-1.42l0,0c0.39-0.391,1.02-0.391,1.41,0l0,0
			c0.39,0.399,0.39,1.029,0,1.42l0,0c-0.19,0.189-0.45,0.29-0.7,0.29l0,0C10.1,42.25,9.84,42.149,9.65,41.96z M7.02,39.33
			c-0.39-0.391-0.39-1.021,0-1.41l0,0c0.39-0.39,1.03-0.39,1.42,0l0,0c0.39,0.39,0.39,1.02,0,1.41l0,0c-0.2,0.2-0.45,0.3-0.71,0.3
			l0,0C7.47,39.63,7.22,39.53,7.02,39.33z"/>
		<path style="fill:#D4C3A5;" d="M5.11,37c-0.27,0-0.53-0.101-0.71-0.29C4.21,36.53,4.11,36.27,4.11,36c0-0.26,0.1-0.521,0.29-0.71
			c0.37-0.36,1.04-0.37,1.41,0C6,35.479,6.1,35.74,6.1,36c0,0.27-0.1,0.53-0.29,0.71C5.63,36.899,5.37,37,5.11,37z"/>
		<path style="fill:#D4C3A5;" d="M7.08,34.01c-0.39-0.39-0.39-1.02-0.01-1.41l0,0C7.46,32.2,8.09,32.2,8.49,32.59l0,0
			c0.39,0.39,0.39,1.02,0,1.42l0,0C8.3,34.2,8.04,34.3,7.78,34.3l0,0C7.53,34.3,7.27,34.21,7.08,34.01z M9.76,31.31
			c-0.39-0.39-0.4-1.02-0.01-1.41l0,0c0.39-0.399,1.02-0.399,1.42-0.01l0,0c0.39,0.391,0.39,1.021,0,1.41l0,0
			c-0.19,0.2-0.45,0.3-0.71,0.3l0,0C10.21,31.6,9.95,31.5,9.76,31.31z M12.43,28.609c-0.39-0.39-0.39-1.02,0-1.42l0,0
			c0.39-0.39,1.02-0.39,1.41,0l0,0c0.4,0.391,0.4,1.021,0.01,1.41l0,0c-0.2,0.2-0.45,0.3-0.71,0.3l0,0
			C12.88,28.899,12.63,28.8,12.43,28.609z M15.11,25.91c-0.39-0.391-0.39-1.021,0-1.41l0,0c0.39-0.4,1.02-0.4,1.41-0.01l0,0
			c0.39,0.39,0.4,1.02,0.01,1.409l0,0c-0.2,0.2-0.46,0.301-0.71,0.301l0,0C15.56,26.2,15.31,26.1,15.11,25.91z M17.79,23.21
			c-0.39-0.391-0.39-1.021,0-1.41l0,0c0.38-0.4,1.02-0.4,1.41-0.01l0,0c0.39,0.39,0.39,1.02,0.01,1.41l0,0
			c-0.2,0.199-0.46,0.3-0.71,0.3l0,0C18.24,23.5,17.99,23.399,17.79,23.21z M20.47,20.51c-0.39-0.39-0.4-1.02-0.01-1.41l0,0
			c0.39-0.399,1.03-0.399,1.42-0.01l0,0c0.39,0.39,0.39,1.02,0,1.42l0,0c-0.19,0.19-0.45,0.29-0.71,0.29l0,0
			C20.92,20.8,20.66,20.7,20.47,20.51z M23.15,17.81c-0.4-0.39-0.4-1.02-0.01-1.42l0,0c0.39-0.39,1.02-0.39,1.42,0l0,0
			c0.39,0.391,0.39,1.021,0,1.41l0,0c-0.19,0.2-0.45,0.3-0.71,0.3l0,0C23.6,18.1,23.34,18,23.15,17.81z M25.83,15.109
			c-0.4-0.39-0.4-1.02-0.01-1.42l0,0c0.39-0.39,1.02-0.39,1.41,0l0,0c0.4,0.391,0.4,1.021,0.01,1.41l0,0c-0.2,0.2-0.45,0.3-0.71,0.3
			l0,0C26.27,15.399,26.02,15.3,25.83,15.109z M28.5,12.41c-0.39-0.391-0.39-1.021,0-1.42l0,0c0.39-0.391,1.02-0.391,1.41,0l0,0
			c0.39,0.39,0.4,1.02,0.01,1.409l0,0c-0.2,0.2-0.46,0.301-0.71,0.301l0,0C28.95,12.7,28.7,12.6,28.5,12.41z"/>
		<path style="fill:#D4C3A5;" d="M31.89,10c-0.27,0-0.52-0.11-0.71-0.29C30.99,9.52,30.89,9.26,30.89,9s0.1-0.521,0.29-0.71
			c0.37-0.37,1.04-0.37,1.41,0c0.19,0.189,0.3,0.45,0.3,0.71s-0.11,0.52-0.3,0.71C32.41,9.89,32.15,10,31.89,10z"/>
		<path style="fill:#D4C3A5;" d="M35.19,9c0-0.55,0.45-1,1-1l0,0c0.55,0,1,0.45,1,1l0,0c0,0.55-0.45,1-1,1l0,0
			C35.64,10,35.19,9.55,35.19,9z"/>
		<path style="fill:#D4C3A5;" d="M40.5,10c-0.26,0-0.52-0.11-0.71-0.29C39.61,9.52,39.5,9.26,39.5,9s0.11-0.521,0.29-0.71
			c0.37-0.37,1.05-0.37,1.42,0C41.39,8.479,41.5,8.74,41.5,9s-0.11,0.52-0.29,0.71C41.02,9.89,40.76,10,40.5,10z"/>
	</g>
	<path style="fill:#CBB292;" d="M43.5,7c-4.418,0-8,3.582-8,8s3.582,8,8,8s8-3.582,8-8S47.918,7,43.5,7z M43.5,19
		c-2.209,0-4-1.791-4-4c0-2.209,1.791-4,4-4s4,1.791,4,4C47.5,17.209,45.709,19,43.5,19z"/>
	<path style="fill:#D75A4A;" d="M43.5,16c-0.256,0-0.512-0.098-0.707-0.293c-0.391-0.391-0.391-1.023,0-1.414l14-14
		c0.391-0.391,1.023-0.391,1.414,0s0.391,1.023,0,1.414l-14,14C44.012,15.902,43.756,16,43.5,16z"/>
</g>
<g>
</g>
<g>
</g>
<g>
</g>
<g>
</g>
<g>
</g>
<g>
</g>
<g>
</g>
<g>
</g>
<g>
</g>
<g>
</g>
<g>
</g>
<g>
</g>
<g>
</g>
<g>
</g>
<g>
</g>
</svg>
