<?xml version="1.0" encoding="iso-8859-1"?>
<!-- Generator: Adobe Illustrator 18.0.0, SVG Export Plug-In . SVG Version: 6.00 Build 0)  -->
<!DOCTYPE svg PUBLIC "-//W3C//DTD SVG 1.1//EN" "http://www.w3.org/Graphics/SVG/1.1/DTD/svg11.dtd">
<svg version="1.1" id="Capa_1" xmlns="http://www.w3.org/2000/svg" xmlns:xlink="http://www.w3.org/1999/xlink" x="0px" y="0px"
	 viewBox="0 0 60 60" style="enable-background:new 0 0 60 60;" xml:space="preserve">
<g>
	<rect x="2" y="6.5" style="fill:#B0D3F0;" width="56" height="42"/>
	<rect y="3.5" style="fill:#556080;" width="60" height="4"/>
	<rect y="7.5" style="fill:#556080;" width="2" height="41"/>
	<rect x="58" y="7.5" style="fill:#556080;" width="2" height="41"/>
	<rect x="4" y="0.5" style="fill:#444E66;" width="52" height="3"/>
	<g>
		<rect x="1" y="49.5" style="fill:#D25627;" width="18" height="9"/>
		<path style="fill:#D25627;" d="M20,59.5H0v-11h20V59.5z M2,57.5h16v-7H2V57.5z"/>
	</g>
	<g>
		<rect x="41" y="49.5" style="fill:#D25627;" width="18" height="9"/>
		<path style="fill:#D25627;" d="M60,59.5H40v-11h20V59.5z M42,57.5h16v-7H42V57.5z"/>
	</g>
	<path style="fill:#802D40;" d="M7,54.5H6c-0.553,0-1-0.447-1-1s0.447-1,1-1h1c0.553,0,1,0.447,1,1S7.553,54.5,7,54.5z"/>
	<path style="fill:#802D40;" d="M3,54.5H2c-0.553,0-1-0.447-1-1s0.447-1,1-1h1c0.553,0,1,0.447,1,1S3.553,54.5,3,54.5z"/>
	<path style="fill:#802D40;" d="M10,57.5H9c-0.553,0-1-0.447-1-1s0.447-1,1-1h1c0.553,0,1,0.447,1,1S10.553,57.5,10,57.5z"/>
	<path style="fill:#802D40;" d="M2,57.5H1c-0.553,0-1-0.447-1-1s0.447-1,1-1h1c0.553,0,1,0.447,1,1S2.553,57.5,2,57.5z"/>
	<path style="fill:#802D40;" d="M6,57.5H5c-0.553,0-1-0.447-1-1s0.447-1,1-1h1c0.553,0,1,0.447,1,1S6.553,57.5,6,57.5z"/>
	<path style="fill:#802D40;" d="M15,54.5h-1c-0.553,0-1-0.447-1-1s0.447-1,1-1h1c0.553,0,1,0.447,1,1S15.553,54.5,15,54.5z"/>
	<path style="fill:#802D40;" d="M19,54.5h-1c-0.553,0-1-0.447-1-1s0.447-1,1-1h1c0.553,0,1,0.447,1,1S19.553,54.5,19,54.5z"/>
	<path style="fill:#802D40;" d="M11,54.5h-1c-0.553,0-1-0.447-1-1s0.447-1,1-1h1c0.553,0,1,0.447,1,1S11.553,54.5,11,54.5z"/>
	<path style="fill:#802D40;" d="M18,57.5h-1c-0.553,0-1-0.447-1-1s0.447-1,1-1h1c0.553,0,1,0.447,1,1S18.553,57.5,18,57.5z"/>
	<path style="fill:#802D40;" d="M14,57.5h-1c-0.553,0-1-0.447-1-1s0.447-1,1-1h1c0.553,0,1,0.447,1,1S14.553,57.5,14,57.5z"/>
	<path style="fill:#802D40;" d="M9,51.5H8c-0.553,0-1-0.447-1-1s0.447-1,1-1h1c0.553,0,1,0.447,1,1S9.553,51.5,9,51.5z"/>
	<path style="fill:#802D40;" d="M5,51.5H4c-0.553,0-1-0.447-1-1s0.447-1,1-1h1c0.553,0,1,0.447,1,1S5.553,51.5,5,51.5z"/>
	<path style="fill:#802D40;" d="M17,51.5h-1c-0.553,0-1-0.447-1-1s0.447-1,1-1h1c0.553,0,1,0.447,1,1S17.553,51.5,17,51.5z"/>
	<path style="fill:#802D40;" d="M13,51.5h-1c-0.553,0-1-0.447-1-1s0.447-1,1-1h1c0.553,0,1,0.447,1,1S13.553,51.5,13,51.5z"/>
	<path style="fill:#802D40;" d="M47,54.5h-1c-0.553,0-1-0.447-1-1s0.447-1,1-1h1c0.553,0,1,0.447,1,1S47.553,54.5,47,54.5z"/>
	<path style="fill:#802D40;" d="M43,54.5h-1c-0.553,0-1-0.447-1-1s0.447-1,1-1h1c0.553,0,1,0.447,1,1S43.553,54.5,43,54.5z"/>
	<path style="fill:#802D40;" d="M50,57.5h-1c-0.553,0-1-0.447-1-1s0.447-1,1-1h1c0.553,0,1,0.447,1,1S50.553,57.5,50,57.5z"/>
	<path style="fill:#802D40;" d="M42,57.5h-1c-0.553,0-1-0.447-1-1s0.447-1,1-1h1c0.553,0,1,0.447,1,1S42.553,57.5,42,57.5z"/>
	<path style="fill:#802D40;" d="M46,57.5h-1c-0.553,0-1-0.447-1-1s0.447-1,1-1h1c0.553,0,1,0.447,1,1S46.553,57.5,46,57.5z"/>
	<path style="fill:#802D40;" d="M55,54.5h-1c-0.553,0-1-0.447-1-1s0.447-1,1-1h1c0.553,0,1,0.447,1,1S55.553,54.5,55,54.5z"/>
	<path style="fill:#802D40;" d="M59,54.5h-1c-0.553,0-1-0.447-1-1s0.447-1,1-1h1c0.553,0,1,0.447,1,1S59.553,54.5,59,54.5z"/>
	<path style="fill:#802D40;" d="M51,54.5h-1c-0.553,0-1-0.447-1-1s0.447-1,1-1h1c0.553,0,1,0.447,1,1S51.553,54.5,51,54.5z"/>
	<path style="fill:#802D40;" d="M58,57.5h-1c-0.553,0-1-0.447-1-1s0.447-1,1-1h1c0.553,0,1,0.447,1,1S58.553,57.5,58,57.5z"/>
	<path style="fill:#802D40;" d="M54,57.5h-1c-0.553,0-1-0.447-1-1s0.447-1,1-1h1c0.553,0,1,0.447,1,1S54.553,57.5,54,57.5z"/>
	<path style="fill:#802D40;" d="M49,51.5h-1c-0.553,0-1-0.447-1-1s0.447-1,1-1h1c0.553,0,1,0.447,1,1S49.553,51.5,49,51.5z"/>
	<path style="fill:#802D40;" d="M45,51.5h-1c-0.553,0-1-0.447-1-1s0.447-1,1-1h1c0.553,0,1,0.447,1,1S45.553,51.5,45,51.5z"/>
	<path style="fill:#802D40;" d="M57,51.5h-1c-0.553,0-1-0.447-1-1s0.447-1,1-1h1c0.553,0,1,0.447,1,1S57.553,51.5,57,51.5z"/>
	<path style="fill:#802D40;" d="M53,51.5h-1c-0.553,0-1-0.447-1-1s0.447-1,1-1h1c0.553,0,1,0.447,1,1S53.553,51.5,53,51.5z"/>
	<g>
		<path style="fill:#FFFFFF;" d="M5,26.5c0.256,0,0.512-0.098,0.707-0.293l4-4c0.391-0.391,0.391-1.023,0-1.414
			s-1.023-0.391-1.414,0l-4,4c-0.391,0.391-0.391,1.023,0,1.414C4.488,26.402,4.744,26.5,5,26.5z"/>
		<path style="fill:#FFFFFF;" d="M5,31.5c0.256,0,0.512-0.098,0.707-0.293l2-2c0.391-0.391,0.391-1.023,0-1.414
			s-1.023-0.391-1.414,0l-2,2c-0.391,0.391-0.391,1.023,0,1.414C4.488,31.402,4.744,31.5,5,31.5z"/>
		<path style="fill:#FFFFFF;" d="M8.29,25.79C8.109,25.979,8,26.24,8,26.5c0,0.27,0.109,0.52,0.29,0.71
			C8.479,27.39,8.74,27.5,9,27.5c0.27,0,0.52-0.11,0.71-0.29C9.89,27.02,10,26.77,10,26.5c0-0.26-0.11-0.521-0.29-0.71
			C9.34,25.42,8.67,25.42,8.29,25.79z"/>
		<path style="fill:#FFFFFF;" d="M10.293,25.207C10.488,25.402,10.744,25.5,11,25.5s0.512-0.098,0.707-0.293l3-3
			c0.391-0.391,0.391-1.023,0-1.414s-1.023-0.391-1.414,0l-3,3C9.902,24.184,9.902,24.816,10.293,25.207z"/>
		<path style="fill:#FFFFFF;" d="M13.293,25.793l-9,9c-0.391,0.391-0.391,1.023,0,1.414C4.488,36.402,4.744,36.5,5,36.5
			s0.512-0.098,0.707-0.293l9-9c0.391-0.391,0.391-1.023,0-1.414S13.684,25.402,13.293,25.793z"/>
		<path style="fill:#FFFFFF;" d="M15.29,23.79C15.109,23.979,15,24.229,15,24.5c0,0.27,0.109,0.52,0.29,0.71
			c0.189,0.18,0.439,0.29,0.71,0.29c0.27,0,0.52-0.11,0.71-0.29C16.89,25.02,17,24.77,17,24.5c0-0.271-0.11-0.521-0.29-0.71
			C16.34,23.42,15.649,23.42,15.29,23.79z"/>
		<path style="fill:#FFFFFF;" d="M44,26.5c0.256,0,0.512-0.098,0.707-0.293l4-4c0.391-0.391,0.391-1.023,0-1.414
			s-1.023-0.391-1.414,0l-4,4c-0.391,0.391-0.391,1.023,0,1.414C43.488,26.402,43.744,26.5,44,26.5z"/>
		<path style="fill:#FFFFFF;" d="M44,31.5c0.256,0,0.512-0.098,0.707-0.293l2-2c0.391-0.391,0.391-1.023,0-1.414
			s-1.023-0.391-1.414,0l-2,2c-0.391,0.391-0.391,1.023,0,1.414C43.488,31.402,43.744,31.5,44,31.5z"/>
		<path style="fill:#FFFFFF;" d="M47.29,25.79C47.109,25.979,47,26.24,47,26.5s0.109,0.52,0.29,0.71
			c0.189,0.18,0.439,0.29,0.71,0.29c0.26,0,0.52-0.11,0.71-0.29C48.89,27.02,49,26.76,49,26.5s-0.11-0.521-0.29-0.71
			C48.33,25.42,47.66,25.42,47.29,25.79z"/>
		<path style="fill:#FFFFFF;" d="M49.293,25.207C49.488,25.402,49.744,25.5,50,25.5s0.512-0.098,0.707-0.293l3-3
			c0.391-0.391,0.391-1.023,0-1.414s-1.023-0.391-1.414,0l-3,3C48.902,24.184,48.902,24.816,49.293,25.207z"/>
		<path style="fill:#FFFFFF;" d="M52.293,25.793l-9,9c-0.391,0.391-0.391,1.023,0,1.414C43.488,36.402,43.744,36.5,44,36.5
			s0.512-0.098,0.707-0.293l9-9c0.391-0.391,0.391-1.023,0-1.414S52.684,25.402,52.293,25.793z"/>
		<path style="fill:#FFFFFF;" d="M55.71,23.79c-0.37-0.37-1.05-0.37-1.42,0C54.109,23.979,54,24.229,54,24.5
			c0,0.27,0.109,0.52,0.29,0.71c0.189,0.18,0.45,0.29,0.71,0.29s0.52-0.11,0.71-0.29C55.89,25.02,56,24.76,56,24.5
			S55.89,23.979,55.71,23.79z"/>
	</g>
	<polygon style="fill:#444E66;" points="19,9.5 19,18.45 19,27.5 19,59.5 41,59.5 41,27.5 41,18.45 41,9.5 	"/>
	<rect x="23" y="39.5" style="fill:#B0D3F0;" width="14" height="16"/>
	<polyline style="fill:#B0D3F0;" points="23,17.5 23,34.5 37,34.5 37,17.5 	"/>
	<path style="fill:#50508A;" d="M5.5,17.5L5.5,17.5C3.567,17.5,2,15.933,2,14V7.5h7V14C9,15.933,7.433,17.5,5.5,17.5z"/>
	<path style="fill:#8697CB;" d="M12.5,17.5L12.5,17.5C10.567,17.5,9,15.933,9,14V7.5h7V14C16,15.933,14.433,17.5,12.5,17.5z"/>
	<path style="fill:#50508A;" d="M19.5,17.5L19.5,17.5c-1.933,0-3.5-1.567-3.5-3.5V7.5h7V14C23,15.933,21.433,17.5,19.5,17.5z"/>
	<path style="fill:#8697CB;" d="M26.5,17.5L26.5,17.5c-1.933,0-3.5-1.567-3.5-3.5V7.5h7V14C30,15.933,28.433,17.5,26.5,17.5z"/>
	<path style="fill:#50508A;" d="M33.5,17.5L33.5,17.5c-1.933,0-3.5-1.567-3.5-3.5V7.5h7V14C37,15.933,35.433,17.5,33.5,17.5z"/>
	<path style="fill:#8697CB;" d="M40.5,17.5L40.5,17.5c-1.933,0-3.5-1.567-3.5-3.5V7.5h7V14C44,15.933,42.433,17.5,40.5,17.5z"/>
	<path style="fill:#50508A;" d="M47.5,17.5L47.5,17.5c-1.933,0-3.5-1.567-3.5-3.5V7.5h7V14C51,15.933,49.433,17.5,47.5,17.5z"/>
	<path style="fill:#8697CB;" d="M54.5,17.5L54.5,17.5c-1.933,0-3.5-1.567-3.5-3.5V7.5h7V14C58,15.933,56.433,17.5,54.5,17.5z"/>
</g>
<g>
</g>
<g>
</g>
<g>
</g>
<g>
</g>
<g>
</g>
<g>
</g>
<g>
</g>
<g>
</g>
<g>
</g>
<g>
</g>
<g>
</g>
<g>
</g>
<g>
</g>
<g>
</g>
<g>
</g>
</svg>
