<?xml version="1.0" encoding="iso-8859-1"?>
<!-- Generator: Adobe Illustrator 18.0.0, SVG Export Plug-In . SVG Version: 6.00 Build 0)  -->
<!DOCTYPE svg PUBLIC "-//W3C//DTD SVG 1.1//EN" "http://www.w3.org/Graphics/SVG/1.1/DTD/svg11.dtd">
<svg version="1.1" id="Capa_1" xmlns="http://www.w3.org/2000/svg" xmlns:xlink="http://www.w3.org/1999/xlink" x="0px" y="0px"
	 viewBox="0 0 58 58" style="enable-background:new 0 0 58 58;" xml:space="preserve">
<g>
	<g>
		<path style="fill:#F5EFCA;" d="M51,20h-1c-3.866,0-7-3.134-7-7c0,3.866-3.134,7-7,7c-3.866,0-7-3.134-7-7c0,3.866-3.134,7-7,7
			c-3.866,0-7-3.134-7-7c0,3.866-3.134,7-7,7H7c-3.866,0-7-3.134-7-7v45h58V13C58,16.866,54.866,20,51,20z"/>
	</g>
	<g>
		<rect x="4" y="25" style="fill:#7F6E5D;" width="31" height="26"/>
		<path style="fill:#CBB292;" d="M36,52H3V24h33V52z M5,50h29V26H5V50z"/>
	</g>
	<path style="fill:#CBB292;" d="M9,34c-0.256,0-0.512-0.098-0.707-0.293c-0.391-0.391-0.391-1.023,0-1.414l4-4
		c0.391-0.391,1.023-0.391,1.414,0s0.391,1.023,0,1.414l-4,4C9.512,33.902,9.256,34,9,34z"/>
	<path style="fill:#CBB292;" d="M9,39c-0.256,0-0.512-0.098-0.707-0.293c-0.391-0.391-0.391-1.023,0-1.414l2-2
		c0.391-0.391,1.023-0.391,1.414,0s0.391,1.023,0,1.414l-2,2C9.512,38.902,9.256,39,9,39z"/>
	<path style="fill:#CBB292;" d="M13,35c-0.26,0-0.521-0.11-0.71-0.29C12.1,34.52,12,34.26,12,34s0.109-0.521,0.29-0.71
		c0.37-0.37,1.05-0.37,1.42,0C13.89,33.479,14,33.74,14,34s-0.11,0.52-0.29,0.71C13.52,34.89,13.26,35,13,35z"/>
	<path style="fill:#CBB292;" d="M15,33c-0.256,0-0.512-0.098-0.707-0.293c-0.391-0.391-0.391-1.023,0-1.414l3-3
		c0.391-0.391,1.023-0.391,1.414,0s0.391,1.023,0,1.414l-3,3C15.512,32.902,15.256,33,15,33z"/>
	<path style="fill:#CBB292;" d="M9,44c-0.256,0-0.512-0.098-0.707-0.293c-0.391-0.391-0.391-1.023,0-1.414l9-9
		c0.391-0.391,1.023-0.391,1.414,0s0.391,1.023,0,1.414l-9,9C9.512,43.902,9.256,44,9,44z"/>
	<path style="fill:#CBB292;" d="M20,33c-0.271,0-0.53-0.11-0.71-0.3C19.109,32.52,19,32.26,19,32s0.109-0.521,0.29-0.71
		c0.37-0.37,1.05-0.37,1.42,0C20.89,31.479,21,31.74,21,32s-0.11,0.52-0.29,0.71C20.52,32.89,20.26,33,20,33z"/>
	<path style="fill:#CBB292;" d="M8,55H7c-0.553,0-1-0.447-1-1s0.447-1,1-1h1c0.553,0,1,0.447,1,1S8.553,55,8,55z"/>
	<path style="fill:#CBB292;" d="M4,55H3c-0.553,0-1-0.447-1-1s0.447-1,1-1h1c0.553,0,1,0.447,1,1S4.553,55,4,55z"/>
	<path style="fill:#CBB292;" d="M11,58h-1c-0.553,0-1-0.447-1-1s0.447-1,1-1h1c0.553,0,1,0.447,1,1S11.553,58,11,58z"/>
	<path style="fill:#CBB292;" d="M3,58H2c-0.553,0-1-0.447-1-1s0.447-1,1-1h1c0.553,0,1,0.447,1,1S3.553,58,3,58z"/>
	<path style="fill:#CBB292;" d="M7,58H6c-0.553,0-1-0.447-1-1s0.447-1,1-1h1c0.553,0,1,0.447,1,1S7.553,58,7,58z"/>
	<path style="fill:#CBB292;" d="M16,55h-1c-0.553,0-1-0.447-1-1s0.447-1,1-1h1c0.553,0,1,0.447,1,1S16.553,55,16,55z"/>
	<path style="fill:#CBB292;" d="M12,55h-1c-0.553,0-1-0.447-1-1s0.447-1,1-1h1c0.553,0,1,0.447,1,1S12.553,55,12,55z"/>
	<path style="fill:#CBB292;" d="M15,58h-1c-0.553,0-1-0.447-1-1s0.447-1,1-1h1c0.553,0,1,0.447,1,1S15.553,58,15,58z"/>
	<path style="fill:#CBB292;" d="M24,55h-1c-0.553,0-1-0.447-1-1s0.447-1,1-1h1c0.553,0,1,0.447,1,1S24.553,55,24,55z"/>
	<path style="fill:#CBB292;" d="M20,55h-1c-0.553,0-1-0.447-1-1s0.447-1,1-1h1c0.553,0,1,0.447,1,1S20.553,55,20,55z"/>
	<path style="fill:#CBB292;" d="M27,58h-1c-0.553,0-1-0.447-1-1s0.447-1,1-1h1c0.553,0,1,0.447,1,1S27.553,58,27,58z"/>
	<path style="fill:#CBB292;" d="M19,58h-1c-0.553,0-1-0.447-1-1s0.447-1,1-1h1c0.553,0,1,0.447,1,1S19.553,58,19,58z"/>
	<path style="fill:#CBB292;" d="M23,58h-1c-0.553,0-1-0.447-1-1s0.447-1,1-1h1c0.553,0,1,0.447,1,1S23.553,58,23,58z"/>
	<path style="fill:#CBB292;" d="M32,55h-1c-0.553,0-1-0.447-1-1s0.447-1,1-1h1c0.553,0,1,0.447,1,1S32.553,55,32,55z"/>
	<path style="fill:#CBB292;" d="M28,55h-1c-0.553,0-1-0.447-1-1s0.447-1,1-1h1c0.553,0,1,0.447,1,1S28.553,55,28,55z"/>
	<path style="fill:#CBB292;" d="M31,58h-1c-0.553,0-1-0.447-1-1s0.447-1,1-1h1c0.553,0,1,0.447,1,1S31.553,58,31,58z"/>
	<path style="fill:#CBB292;" d="M36,55h-1c-0.553,0-1-0.447-1-1s0.447-1,1-1h1c0.553,0,1,0.447,1,1S36.553,55,36,55z"/>
	<path style="fill:#CBB292;" d="M35,58h-1c-0.553,0-1-0.447-1-1s0.447-1,1-1h1c0.553,0,1,0.447,1,1S35.553,58,35,58z"/>
	<path style="fill:#71C285;" d="M17,0h-2.976H14v0.001C7.502,0.012,1.839,4.372,0.104,10.637C-0.109,11.406,0.188,11,0.378,11H14h1
		h14V0H17z"/>
	<path style="fill:#F3D55B;" d="M45,11h12.645c0.178,0,0.401,0.172,0.257-0.341l-0.006-0.023C56.277,4.689,51.075,0.473,45,0.043V0
		h-1.024H41H29v11h14H45z"/>
	<path style="fill:#F3D55B;" d="M29,11H15l0,0c1.158-6.37,6.706-11,13.18-11H29V11z"/>
	<path style="fill:#71C285;" d="M43,11H29V0h0.82C36.294,0,41.842,4.63,43,11L43,11z"/>
	<path style="fill:#68AD77;" d="M8,20H7c-3.866,0-7-3.134-7-7l0-1.84C0,11.072,0.072,11,0.16,11H15v2C15,16.866,11.866,20,8,20z"/>
	<path style="fill:#DDC357;" d="M22,20L22,20c-3.866,0-7-3.134-7-7v-2h14v2C29,16.866,25.866,20,22,20z"/>
	<path style="fill:#68AD77;" d="M36,20L36,20c-3.866,0-7-3.134-7-7v-2h14v2C43,16.866,39.866,20,36,20z"/>
	<path style="fill:#DDC357;" d="M51,20h-1c-3.866,0-7-3.134-7-7v-2h14.84c0.088,0,0.16,0.072,0.16,0.16V13
		C58,16.866,54.866,20,51,20z"/>
	<g>
		<path style="fill:#7F6E5D;" d="M54,57H39V31.5c0-4.142,3.358-7.5,7.5-7.5h0c4.142,0,7.5,3.358,7.5,7.5V57z"/>
		<path style="fill:#CBB292;" d="M55,58H38V31.5c0-4.687,3.813-8.5,8.5-8.5s8.5,3.813,8.5,8.5V58z M40,56h13V31.5
			c0-3.584-2.916-6.5-6.5-6.5S40,27.916,40,31.5V56z"/>
	</g>
	<g>
		<line style="fill:#D0E8F9;" x1="39" y1="43" x2="54" y2="43"/>
		<rect x="39" y="42" style="fill:#CBB292;" width="15" height="2"/>
	</g>
</g>
<g>
</g>
<g>
</g>
<g>
</g>
<g>
</g>
<g>
</g>
<g>
</g>
<g>
</g>
<g>
</g>
<g>
</g>
<g>
</g>
<g>
</g>
<g>
</g>
<g>
</g>
<g>
</g>
<g>
</g>
</svg>
