<?xml version="1.0" encoding="iso-8859-1"?>
<!-- Generator: Adobe Illustrator 18.0.0, SVG Export Plug-In . SVG Version: 6.00 Build 0)  -->
<!DOCTYPE svg PUBLIC "-//W3C//DTD SVG 1.1//EN" "http://www.w3.org/Graphics/SVG/1.1/DTD/svg11.dtd">
<svg version="1.1" id="Capa_1" xmlns="http://www.w3.org/2000/svg" xmlns:xlink="http://www.w3.org/1999/xlink" x="0px" y="0px"
	 viewBox="0 0 59 59" style="enable-background:new 0 0 59 59;" xml:space="preserve">
<g>
	<path style="fill:#88C057;" d="M46,35c-0.256,0-0.512-0.098-0.707-0.293c-0.391-0.391-0.391-1.023,0-1.414l6-6
		c0.391-0.391,1.023-0.391,1.414,0s0.391,1.023,0,1.414l-6,6C46.512,34.902,46.256,35,46,35z"/>
	<path style="fill:#88C057;" d="M58,35c-0.256,0-0.512-0.098-0.707-0.293l-6-6c-0.391-0.391-0.391-1.023,0-1.414
		s1.023-0.391,1.414,0l6,6c0.391,0.391,0.391,1.023,0,1.414C58.512,34.902,58.256,35,58,35z"/>
	<path style="fill:#88C057;" d="M52,57c-0.553,0-1-0.447-1-1V28c0-0.553,0.447-1,1-1s1,0.447,1,1v28C53,56.553,52.553,57,52,57z"/>
	<polygon style="fill:#2C2F38;" points="0,2 0,7 2,7 44,7 46,7 46,2 	"/>
	<path style="fill:#D6A35F;" d="M3,5v47.783C3,54.56,4.44,56,6.217,56h33.566C41.56,56,43,54.56,43,52.783V5H3z"/>
	<rect x="9" y="16" style="fill:#ECF0F1;" width="6" height="8"/>
	<rect x="9" y="28" style="fill:#ECF0F1;" width="6" height="8"/>
	<rect x="9" y="40" style="fill:#ECF0F1;" width="6" height="8"/>
	<path style="fill:#AD8049;" d="M35,35c-0.553,0-1-0.447-1-1v-9c0-0.553,0.447-1,1-1s1,0.447,1,1v9C36,34.553,35.553,35,35,35z"/>
	<path style="fill:#AD8049;" d="M35,48c-0.553,0-1-0.447-1-1v-9c0-0.553,0.447-1,1-1s1,0.447,1,1v9C36,47.553,35.553,48,35,48z"/>
	<path style="fill:#AD8049;" d="M30,27c-0.553,0-1-0.447-1-1v-1c0-0.553,0.447-1,1-1s1,0.447,1,1v1C31,26.553,30.553,27,30,27z"/>
	<path style="fill:#AD8049;" d="M30,33c-0.553,0-1-0.447-1-1v-2c0-0.553,0.447-1,1-1s1,0.447,1,1v2C31,32.553,30.553,33,30,33z"/>
	<path style="fill:#AD8049;" d="M30,38c-0.553,0-1-0.447-1-1v-1c0-0.553,0.447-1,1-1s1,0.447,1,1v1C31,37.553,30.553,38,30,38z"/>
	<path style="fill:#AD8049;" d="M30,44c-0.553,0-1-0.447-1-1v-2c0-0.553,0.447-1,1-1s1,0.447,1,1v2C31,43.553,30.553,44,30,44z"/>
	<path style="fill:#AD8049;" d="M30,48c-0.26,0-0.521-0.11-0.71-0.29C29.109,47.52,29,47.26,29,47s0.109-0.521,0.29-0.71
		c0.38-0.37,1.05-0.37,1.42,0C30.89,46.479,31,46.74,31,47c0,0.27-0.11,0.52-0.29,0.71C30.52,47.89,30.27,48,30,48z"/>
	<rect x="9" y="5" style="fill:#ECF0F1;" width="6" height="7"/>
	<g>
		<path style="fill:#F0C419;" d="M26,6v12.745C26,19.438,26.562,20,27.255,20h9.49C37.438,20,38,19.438,38,18.745V6H26z"/>
		<path style="fill:#F3D55B;" d="M36.745,21h-9.49C26.012,21,25,19.988,25,18.745V5h14v13.745C39,19.988,37.988,21,36.745,21z M27,7
			v11.745C27,18.886,27.114,19,27.255,19h9.49C36.886,19,37,18.886,37,18.745V7H27z"/>
	</g>
	<g>
		<path style="fill:#F0C419;" d="M36.745,20C37.438,20,38,19.438,38,18.745V14v-2.745C38,10.562,37.438,10,36.745,10H34h-6.745
			C26.562,10,26,10.562,26,11.255v1.49C26,13.438,26.562,14,27.255,14h5.49C33.438,14,34,14.562,34,15.255v3.49
			C34,19.438,34.562,20,35.255,20H36.745z"/>
		<path style="fill:#F3D55B;" d="M36.745,21h-1.49C34.012,21,33,19.988,33,18.745v-3.49C33,15.114,32.886,15,32.745,15h-5.49
			C26.012,15,25,13.988,25,12.745v-1.49C25,10.012,26.012,9,27.255,9h9.49C37.988,9,39,10.012,39,11.255v7.49
			C39,19.988,37.988,21,36.745,21z M27.255,11C27.114,11,27,11.114,27,11.255v1.49C27,12.886,27.114,13,27.255,13h5.49
			C33.988,13,35,14.012,35,15.255v3.49C35,18.886,35.114,19,35.255,19h1.49C36.886,19,37,18.886,37,18.745v-7.49
			C37,11.114,36.886,11,36.745,11H27.255z"/>
	</g>
	<g>
		<line style="fill:#F0C419;" x1="30" y1="14" x2="30" y2="20"/>
		<path style="fill:#F3D55B;" d="M30,21c-0.553,0-1-0.447-1-1v-6c0-0.553,0.447-1,1-1s1,0.447,1,1v6C31,20.553,30.553,21,30,21z"/>
	</g>
	<g>
		<line style="fill:#F0C419;" x1="34" y1="10" x2="34" y2="6"/>
		<path style="fill:#F3D55B;" d="M34,11c-0.553,0-1-0.447-1-1V6c0-0.553,0.447-1,1-1s1,0.447,1,1v4C35,10.553,34.553,11,34,11z"/>
	</g>
	<g>
		<line style="fill:#F0C419;" x1="30" y1="10" x2="30" y2="6"/>
		<path style="fill:#F3D55B;" d="M30,11c-0.553,0-1-0.447-1-1V6c0-0.553,0.447-1,1-1s1,0.447,1,1v4C31,10.553,30.553,11,30,11z"/>
	</g>
</g>
<g>
</g>
<g>
</g>
<g>
</g>
<g>
</g>
<g>
</g>
<g>
</g>
<g>
</g>
<g>
</g>
<g>
</g>
<g>
</g>
<g>
</g>
<g>
</g>
<g>
</g>
<g>
</g>
<g>
</g>
</svg>
