<?xml version="1.0" encoding="iso-8859-1"?>
<!-- Generator: Adobe Illustrator 18.0.0, SVG Export Plug-In . SVG Version: 6.00 Build 0)  -->
<!DOCTYPE svg PUBLIC "-//W3C//DTD SVG 1.1//EN" "http://www.w3.org/Graphics/SVG/1.1/DTD/svg11.dtd">
<svg version="1.1" id="Capa_1" xmlns="http://www.w3.org/2000/svg" xmlns:xlink="http://www.w3.org/1999/xlink" x="0px" y="0px"
	 viewBox="0 0 56 56" style="enable-background:new 0 0 56 56;" xml:space="preserve">
<g>
	<path style="fill:#F0D7B8;" d="M46,44l2-1V1l-2,2l-3-3l-3,3l-3-3l-3,3l-3-3l-3,3l-3-3l-3,3l-3-3l-3,3l-3-3l-3,3L8,1v41.286L10,44
		l-2.088,2l-2.697,8.562C5.102,55.319,5.689,56,6.454,56h43.091c0.766,0,1.352-0.681,1.239-1.438L48,46L46,44z"/>
	<g>
		<path style="fill:#CEB69E;" d="M15.717,43H11c-0.553,0-1,0.447-1,1s0.447,1,1,1h4.717c0.553,0,1-0.447,1-1S16.27,43,15.717,43z"/>
		<path style="fill:#CEB69E;" d="M25.907,43H19c-0.553,0-1,0.447-1,1s0.447,1,1,1h6.907c0.553,0,1-0.447,1-1S26.46,43,25.907,43z"/>
		<path style="fill:#CEB69E;" d="M34.145,43H30c-0.553,0-1,0.447-1,1s0.447,1,1,1h4.145c0.553,0,1-0.447,1-1S34.697,43,34.145,43z"
			/>
		<path style="fill:#CEB69E;" d="M46.592,43h-7.599c-0.553,0-1,0.447-1,1s0.447,1,1,1h7.599c0.553,0,1-0.447,1-1
			S47.145,43,46.592,43z"/>
	</g>
	<circle style="fill:#72543A;" cx="20" cy="15" r="3"/>
	<circle style="fill:#72543A;" cx="36" cy="15" r="3"/>
	<path style="fill:#CEB69E;" d="M28,30c-4.963,0-9-4.037-9-9v-6c0-0.553,0.447-1,1-1s1,0.447,1,1v6c0,3.859,3.141,7,7,7s7-3.141,7-7
		v-6c0-0.553,0.447-1,1-1s1,0.447,1,1v6C37,25.963,32.963,30,28,30z"/>
</g>
<g>
</g>
<g>
</g>
<g>
</g>
<g>
</g>
<g>
</g>
<g>
</g>
<g>
</g>
<g>
</g>
<g>
</g>
<g>
</g>
<g>
</g>
<g>
</g>
<g>
</g>
<g>
</g>
<g>
</g>
</svg>
