<?xml version="1.0" encoding="iso-8859-1"?>
<!-- Generator: Adobe Illustrator 18.0.0, SVG Export Plug-In . SVG Version: 6.00 Build 0)  -->
<!DOCTYPE svg PUBLIC "-//W3C//DTD SVG 1.1//EN" "http://www.w3.org/Graphics/SVG/1.1/DTD/svg11.dtd">
<svg version="1.1" id="Capa_1" xmlns="http://www.w3.org/2000/svg" xmlns:xlink="http://www.w3.org/1999/xlink" x="0px" y="0px"
	 viewBox="0 0 58 58" style="enable-background:new 0 0 58 58;" xml:space="preserve">
<g>
	<rect x="1" y="2" style="fill:#E0C6A9;" width="56" height="14"/>
	<polyline style="fill:#FFECD7;" points="50,8 56,2 58,2 58,16 56,16 50,8 	"/>
	<polygon style="fill:#CCB297;" points="50,8 50,16 56,16 	"/>
	<polyline style="fill:#FFECD7;" points="8,8 2,2 0,2 0,16 2,16 8,8 	"/>
	<polygon style="fill:#CCB297;" points="8,8 8,16 2,16 	"/>
	<path style="fill:#F0D7B8;" d="M54.258,56H3.742C1.675,56,0,54.325,0,52.258V16h58v36.258C58,54.325,56.325,56,54.258,56z"/>
	<circle style="fill:#72543A;" cx="17" cy="24" r="3"/>
	<circle style="fill:#72543A;" cx="41" cy="24" r="3"/>
	<path style="fill:#CEB69E;" d="M29,43c-7.168,0-13-5.832-13-13v-6c0-0.553,0.447-1,1-1s1,0.447,1,1v6c0,6.065,4.935,11,11,11
		s11-4.935,11-11v-6c0-0.553,0.447-1,1-1s1,0.447,1,1v6C42,37.168,36.168,43,29,43z"/>
</g>
<g>
</g>
<g>
</g>
<g>
</g>
<g>
</g>
<g>
</g>
<g>
</g>
<g>
</g>
<g>
</g>
<g>
</g>
<g>
</g>
<g>
</g>
<g>
</g>
<g>
</g>
<g>
</g>
<g>
</g>
</svg>
