<?xml version="1.0" encoding="iso-8859-1"?>
<!-- Generator: Adobe Illustrator 18.0.0, SVG Export Plug-In . SVG Version: 6.00 Build 0)  -->
<!DOCTYPE svg PUBLIC "-//W3C//DTD SVG 1.1//EN" "http://www.w3.org/Graphics/SVG/1.1/DTD/svg11.dtd">
<svg version="1.1" id="Capa_1" xmlns="http://www.w3.org/2000/svg" xmlns:xlink="http://www.w3.org/1999/xlink" x="0px" y="0px"
	 viewBox="0 0 58 58" style="enable-background:new 0 0 58 58;" xml:space="preserve">
<g>
	<path style="fill:#CE9965;" d="M50.868,11H7.132C3.193,11,0,14.193,0,18.132v9.512l5.981,2.063
		c5.532,1.908,10.362,2.758,16.019,3.212V25h14v7.905c5.424-0.509,10.801-1.4,16.019-3.199L58,27.644v-9.512
		C58,14.193,54.807,11,50.868,11z"/>
	<path style="fill:#986C48;" d="M36,32.905V25H22v7.918c-5.657-0.454-10.487-1.304-16.019-3.212L0,27.644l1,0.345v27.782
		C1,57.002,1.998,58,3.229,58h51.541C56.002,58,57,57.002,57,55.771V27.989l1-0.345l-5.981,2.063
		C46.801,31.506,41.424,32.397,36,32.905z"/>
	<rect x="16" y="8" style="fill:#FFD16C;" width="8" height="3"/>
	<rect x="34" y="8" style="fill:#FFD16C;" width="8" height="3"/>
	<path style="fill:#604530;" d="M36,5.444V8h4V5.889C40,2.636,37.364,0,34.111,0H23.889C20.636,0,18,2.636,18,5.889V8h4V5.444
		C22,4.331,23.13,3.575,24.159,4c3.1,1.281,6.582,1.281,9.682,0C34.87,3.575,36,4.331,36,5.444z"/>
	<rect x="42" y="49" style="fill:#FFD16C;" width="10" height="4"/>
	<polygon style="fill:#604530;" points="30,43 28,43 25,40 25,37 33,37 33,40 	"/>
	<rect x="25" y="11" style="fill:#604530;" width="8" height="14"/>
	<rect x="22" y="25" style="fill:#FFD16C;" width="14" height="12"/>
	<rect x="25" y="25" style="fill:#604530;" width="8" height="9"/>
	<path style="fill:#CBB292;" d="M29,35c-0.552,0-1-0.447-1-1v-4c0-0.553,0.448-1,1-1s1,0.447,1,1v4C30,34.553,29.552,35,29,35z"/>
</g>
<g>
</g>
<g>
</g>
<g>
</g>
<g>
</g>
<g>
</g>
<g>
</g>
<g>
</g>
<g>
</g>
<g>
</g>
<g>
</g>
<g>
</g>
<g>
</g>
<g>
</g>
<g>
</g>
<g>
</g>
</svg>
