<?xml version="1.0" encoding="iso-8859-1"?>
<!-- Generator: Adobe Illustrator 18.0.0, SVG Export Plug-In . SVG Version: 6.00 Build 0)  -->
<!DOCTYPE svg PUBLIC "-//W3C//DTD SVG 1.1//EN" "http://www.w3.org/Graphics/SVG/1.1/DTD/svg11.dtd">
<svg version="1.1" id="Capa_1" xmlns="http://www.w3.org/2000/svg" xmlns:xlink="http://www.w3.org/1999/xlink" x="0px" y="0px"
	 viewBox="0 0 58 58" style="enable-background:new 0 0 58 58;" xml:space="preserve">
<g>
	<g>
		<rect x="9" y="14.5" style="fill:#F3D55B;" width="48" height="25"/>
		<path style="fill:#556080;" d="M58,40.5H8v-27h50V40.5z M10,38.5h46v-23H10V38.5z"/>
	</g>
	<path style="fill:#556080;" d="M9,46.5c-0.552,0-1-0.447-1-1v-6c0-0.553,0.448-1,1-1s1,0.447,1,1v6C10,46.053,9.552,46.5,9,46.5z"
		/>
	<circle style="fill:#556080;" cx="19" cy="50.5" r="4"/>
	<circle style="fill:#556080;" cx="43" cy="50.5" r="4"/>
	<path style="fill:#556080;" d="M52,46.5H9c-0.552,0-1-0.447-1-1s0.448-1,1-1h43c0.552,0,1,0.447,1,1S52.552,46.5,52,46.5z"/>
	<path style="fill:#F29C1F;" d="M17,36.5c-0.552,0-1-0.447-1-1v-3c0-0.553,0.448-1,1-1s1,0.447,1,1v3C18,36.053,17.552,36.5,17,36.5
		z"/>
	<circle style="fill:#D8625E;" cx="3" cy="6.5" r="3"/>
	<path style="fill:#F29C1F;" d="M17,22.5c-0.552,0-1-0.447-1-1v-3c0-0.553,0.448-1,1-1s1,0.447,1,1v3C18,22.053,17.552,22.5,17,22.5
		z"/>
	<path style="fill:#F29C1F;" d="M17,29.5c-0.552,0-1-0.447-1-1v-3c0-0.553,0.448-1,1-1s1,0.447,1,1v3C18,29.053,17.552,29.5,17,29.5
		z"/>
	<path style="fill:#F29C1F;" d="M25,36.5c-0.552,0-1-0.447-1-1v-3c0-0.553,0.448-1,1-1s1,0.447,1,1v3C26,36.053,25.552,36.5,25,36.5
		z"/>
	<path style="fill:#F29C1F;" d="M25,22.5c-0.552,0-1-0.447-1-1v-3c0-0.553,0.448-1,1-1s1,0.447,1,1v3C26,22.053,25.552,22.5,25,22.5
		z"/>
	<path style="fill:#F29C1F;" d="M25,29.5c-0.552,0-1-0.447-1-1v-3c0-0.553,0.448-1,1-1s1,0.447,1,1v3C26,29.053,25.552,29.5,25,29.5
		z"/>
	<path style="fill:#F29C1F;" d="M33,36.5c-0.552,0-1-0.447-1-1v-3c0-0.553,0.448-1,1-1s1,0.447,1,1v3C34,36.053,33.552,36.5,33,36.5
		z"/>
	<path style="fill:#F29C1F;" d="M33,22.5c-0.552,0-1-0.447-1-1v-3c0-0.553,0.448-1,1-1s1,0.447,1,1v3C34,22.053,33.552,22.5,33,22.5
		z"/>
	<path style="fill:#F29C1F;" d="M33,29.5c-0.552,0-1-0.447-1-1v-3c0-0.553,0.448-1,1-1s1,0.447,1,1v3C34,29.053,33.552,29.5,33,29.5
		z"/>
	<path style="fill:#F29C1F;" d="M41,36.5c-0.552,0-1-0.447-1-1v-3c0-0.553,0.448-1,1-1s1,0.447,1,1v3C42,36.053,41.552,36.5,41,36.5
		z"/>
	<path style="fill:#F29C1F;" d="M41,22.5c-0.552,0-1-0.447-1-1v-3c0-0.553,0.448-1,1-1s1,0.447,1,1v3C42,22.053,41.552,22.5,41,22.5
		z"/>
	<path style="fill:#F29C1F;" d="M41,29.5c-0.552,0-1-0.447-1-1v-3c0-0.553,0.448-1,1-1s1,0.447,1,1v3C42,29.053,41.552,29.5,41,29.5
		z"/>
	<path style="fill:#F29C1F;" d="M49,36.5c-0.552,0-1-0.447-1-1v-3c0-0.553,0.448-1,1-1s1,0.447,1,1v3C50,36.053,49.552,36.5,49,36.5
		z"/>
	<path style="fill:#F29C1F;" d="M49,22.5c-0.552,0-1-0.447-1-1v-3c0-0.553,0.448-1,1-1s1,0.447,1,1v3C50,22.053,49.552,22.5,49,22.5
		z"/>
	<path style="fill:#F29C1F;" d="M49,29.5c-0.552,0-1-0.447-1-1v-3c0-0.553,0.448-1,1-1s1,0.447,1,1v3C50,29.053,49.552,29.5,49,29.5
		z"/>
	<path style="fill:#556080;" d="M9,7.5H4c-0.552,0-1-0.447-1-1s0.448-1,1-1h5c0.552,0,1,0.447,1,1S9.552,7.5,9,7.5z"/>
	<path style="fill:#556080;" d="M9,16.5c-0.552,0-1-0.447-1-1v-9c0-0.553,0.448-1,1-1s1,0.447,1,1v9C10,16.053,9.552,16.5,9,16.5z"
		/>
</g>
<g>
</g>
<g>
</g>
<g>
</g>
<g>
</g>
<g>
</g>
<g>
</g>
<g>
</g>
<g>
</g>
<g>
</g>
<g>
</g>
<g>
</g>
<g>
</g>
<g>
</g>
<g>
</g>
<g>
</g>
</svg>
