<?xml version="1.0" encoding="iso-8859-1"?>
<!-- Generator: Adobe Illustrator 18.0.0, SVG Export Plug-In . SVG Version: 6.00 Build 0)  -->
<!DOCTYPE svg PUBLIC "-//W3C//DTD SVG 1.1//EN" "http://www.w3.org/Graphics/SVG/1.1/DTD/svg11.dtd">
<svg version="1.1" id="Capa_1" xmlns="http://www.w3.org/2000/svg" xmlns:xlink="http://www.w3.org/1999/xlink" x="0px" y="0px"
	 viewBox="0 0 58 58" style="enable-background:new 0 0 58 58;" xml:space="preserve">
<g>
	<path style="fill:#BDC3C7;" d="M58,40.5H8v-26h50V40.5z M10,38.5h46v-22H10V38.5z"/>
	<path style="fill:#BDC3C7;" d="M9,47.5c-0.553,0-1-0.447-1-1v-7c0-0.553,0.447-1,1-1s1,0.447,1,1v7C10,47.053,9.553,47.5,9,47.5z"
		/>
	<circle style="fill:#556080;" cx="19" cy="51.5" r="4"/>
	<circle style="fill:#556080;" cx="43" cy="51.5" r="4"/>
	<path style="fill:#BDC3C7;" d="M52,47.5H9c-0.553,0-1-0.447-1-1s0.447-1,1-1h43c0.553,0,1,0.447,1,1S52.553,47.5,52,47.5z"/>
	<circle style="fill:#D25627;" cx="33" cy="15.5" r="13"/>
	<path style="fill:#FFFFFF;" d="M27.343,22.157c-0.256,0-0.512-0.098-0.707-0.293c-0.391-0.391-0.391-1.023,0-1.414L37.95,9.136
		c0.391-0.391,1.023-0.391,1.414,0s0.391,1.023,0,1.414L28.05,21.864C27.854,22.06,27.599,22.157,27.343,22.157z"/>
	<path style="fill:#FFFFFF;" d="M38.657,22.157c-0.256,0-0.512-0.098-0.707-0.293L26.636,10.55c-0.391-0.391-0.391-1.023,0-1.414
		s1.023-0.391,1.414,0L39.364,20.45c0.391,0.391,0.391,1.023,0,1.414C39.169,22.06,38.913,22.157,38.657,22.157z"/>
	<path style="fill:#BDC3C7;" d="M9,7.5H4c-0.553,0-1-0.447-1-1s0.447-1,1-1h5c0.553,0,1,0.447,1,1S9.553,7.5,9,7.5z"/>
	<path style="fill:#BDC3C7;" d="M9,16.5c-0.553,0-1-0.447-1-1v-9c0-0.553,0.447-1,1-1s1,0.447,1,1v9C10,16.053,9.553,16.5,9,16.5z"
		/>
	<circle style="fill:#D8625E;" cx="3" cy="6.5" r="3"/>
</g>
<g>
</g>
<g>
</g>
<g>
</g>
<g>
</g>
<g>
</g>
<g>
</g>
<g>
</g>
<g>
</g>
<g>
</g>
<g>
</g>
<g>
</g>
<g>
</g>
<g>
</g>
<g>
</g>
<g>
</g>
</svg>
