<?xml version="1.0" encoding="iso-8859-1"?>
<!-- Generator: Adobe Illustrator 19.0.0, SVG Export Plug-In . SVG Version: 6.00 Build 0)  -->
<svg version="1.1" id="Capa_1" xmlns="http://www.w3.org/2000/svg" xmlns:xlink="http://www.w3.org/1999/xlink" x="0px" y="0px"
	 viewBox="0 0 58 58" style="enable-background:new 0 0 58 58;" xml:space="preserve">
<g id="XMLID_16_">
	<path id="XMLID_137_" style="fill:#C0C9D2;" d="M46.393,7.08c9.568,9.568,8.46,26.188-2.475,37.123
		C32.983,55.138,16.363,56.246,6.795,46.678C-2.773,37.11-1.665,20.49,9.27,9.555C20.205-1.38,36.825-2.488,46.393,7.08"/>
	<path id="XMLID_120_" style="fill:#E9EFF5;" d="M23.961,48.102c-0.551,0-0.998-0.445-1-0.996c-0.002-0.552,0.444-1.002,0.996-1.004
		c0.625-0.002,1.259-0.035,1.884-0.098c0.552-0.051,1.04,0.346,1.095,0.896c0.055,0.549-0.346,1.039-0.896,1.094
		c-0.689,0.069-1.387,0.106-2.075,0.108H23.961z M18.106,47.206c-0.102,0-0.206-0.016-0.308-0.049
		c-0.666-0.217-1.324-0.472-1.954-0.76c-0.502-0.229-0.724-0.822-0.494-1.325c0.229-0.503,0.822-0.725,1.325-0.494
		c0.561,0.256,1.146,0.483,1.74,0.676c0.525,0.171,0.813,0.735,0.642,1.26C18.92,46.936,18.528,47.206,18.106,47.206 M31.704,46.6
		c-0.401,0-0.778-0.242-0.932-0.637c-0.201-0.514,0.053-1.095,0.568-1.295c0.582-0.227,1.166-0.485,1.735-0.766
		c0.496-0.243,1.095-0.04,1.339,0.455c0.244,0.495,0.041,1.094-0.454,1.339c-0.621,0.306-1.258,0.587-1.893,0.835
		C31.947,46.577,31.824,46.6,31.704,46.6 M11.38,43.115c-0.239,0-0.477-0.087-0.666-0.264c-0.025-0.023-0.07-0.069-0.092-0.094
		c-0.444-0.441-0.907-0.961-1.33-1.497c-0.342-0.434-0.267-1.063,0.166-1.405c0.434-0.341,1.062-0.268,1.404,0.166
		c0.375,0.476,0.785,0.937,1.219,1.37c0.386,0.386,0.402,1.02,0.024,1.413C11.905,43.01,11.643,43.115,11.38,43.115 M38.469,42.53
		c-0.283,0-0.564-0.12-0.761-0.351c-0.359-0.42-0.309-1.051,0.111-1.41c0.476-0.406,0.942-0.837,1.385-1.28
		c0.391-0.39,1.03-0.396,1.421-0.006c0.39,0.39,0.396,1.017,0.006,1.408l-0.013,0.012c-0.48,0.481-0.985,0.947-1.5,1.387
		C38.929,42.451,38.698,42.53,38.469,42.53 M43.579,36.511c-0.176,0-0.353-0.045-0.514-0.143c-0.474-0.284-0.627-0.898-0.342-1.372
		c0.326-0.544,0.632-1.104,0.908-1.666c0.244-0.494,0.843-0.698,1.339-0.456c0.496,0.244,0.7,0.844,0.456,1.339
		c-0.301,0.612-0.634,1.222-0.989,1.814C44.249,36.339,43.918,36.511,43.579,36.511 M7.286,36.423c-0.42,0-0.812-0.267-0.95-0.688
		c-0.215-0.658-0.397-1.337-0.541-2.02c-0.114-0.541,0.233-1.071,0.773-1.184c0.544-0.112,1.071,0.232,1.184,0.772
		c0.129,0.612,0.292,1.221,0.485,1.808c0.172,0.525-0.114,1.089-0.639,1.262C7.495,36.407,7.389,36.423,7.286,36.423 M46.43,29.156
		c-0.063,0-0.128-0.006-0.192-0.019c-0.542-0.105-0.896-0.63-0.79-1.172c0.121-0.621,0.213-1.249,0.274-1.868
		c0.055-0.549,0.544-0.951,1.094-0.897c0.549,0.055,0.951,0.544,0.897,1.094c-0.068,0.681-0.169,1.372-0.302,2.053
		C47.318,28.825,46.899,29.156,46.43,29.156 M6.468,28.592c-0.032,0-0.064-0.001-0.097-0.005c-0.55-0.053-0.952-0.542-0.899-1.092
		c0.066-0.681,0.167-1.372,0.299-2.054c0.105-0.542,0.629-0.896,1.172-0.792c0.542,0.105,0.897,0.63,0.792,1.172
		c-0.121,0.621-0.212,1.249-0.272,1.868C7.413,28.206,6.977,28.592,6.468,28.592 M46.419,21.278c-0.464,0-0.88-0.325-0.978-0.797
		c-0.127-0.611-0.289-1.219-0.481-1.808c-0.172-0.525,0.115-1.089,0.64-1.261c0.528-0.171,1.09,0.117,1.261,0.641
		c0.215,0.658,0.396,1.338,0.538,2.021c0.112,0.541-0.235,1.07-0.776,1.183C46.554,21.271,46.486,21.278,46.419,21.278
		 M8.645,21.012c-0.148,0-0.298-0.033-0.44-0.102c-0.496-0.243-0.701-0.842-0.457-1.338c0.301-0.615,0.633-1.226,0.987-1.815
		c0.283-0.475,0.898-0.627,1.372-0.343c0.473,0.284,0.627,0.897,0.342,1.372c-0.324,0.54-0.629,1.101-0.905,1.666
		C9.37,20.806,9.015,21.012,8.645,21.012 M13.251,14.57c-0.254,0-0.507-0.094-0.699-0.285c-0.39-0.39-0.407-1.006-0.016-1.397
		l0.707,0.707l-0.689-0.726c0.49-0.489,0.987-0.949,1.493-1.381c0.419-0.359,1.05-0.31,1.409,0.109c0.36,0.42,0.31,1.051-0.11,1.41
		c-0.466,0.399-0.924,0.823-1.362,1.261C13.784,14.468,13.517,14.57,13.251,14.57 M43.13,14.141c-0.296,0-0.589-0.131-0.787-0.382
		c-0.381-0.485-0.797-0.954-1.236-1.393c-0.391-0.391-0.412-1.045-0.022-1.436c0.391-0.39,1.002-0.412,1.393-0.021l-0.707,0.707
		l0.737-0.676c0.508,0.507,0.977,1.035,1.408,1.583c0.341,0.434,0.266,1.062-0.168,1.404C43.565,14.071,43.346,14.141,43.13,14.141
		 M19.644,9.972c-0.368,0-0.722-0.204-0.897-0.556c-0.245-0.495-0.043-1.095,0.452-1.34c0.616-0.305,1.253-0.587,1.892-0.838
		c0.514-0.204,1.094,0.051,1.296,0.565c0.202,0.515-0.051,1.095-0.566,1.296c-0.585,0.231-1.169,0.489-1.734,0.769
		C19.945,9.939,19.793,9.972,19.644,9.972 M36.9,9.259c-0.139,0-0.279-0.029-0.413-0.09c-0.563-0.256-1.149-0.483-1.742-0.673
		c-0.525-0.17-0.814-0.734-0.644-1.259c0.169-0.525,0.733-0.813,1.259-0.644c0.664,0.214,1.321,0.468,1.953,0.755
		c0.503,0.228,0.726,0.821,0.498,1.324C37.643,9.042,37.28,9.259,36.9,9.259 M27.216,7.761c-0.507,0-0.941-0.384-0.994-0.898
		c-0.056-0.55,0.344-1.041,0.893-1.097c0.689-0.07,1.388-0.108,2.076-0.111h0.005c0.55,0,0.998,0.444,1,0.995
		c0.003,0.552-0.442,1.002-0.994,1.005c-0.625,0.003-1.259,0.037-1.884,0.101C27.284,7.76,27.25,7.761,27.216,7.761"/>
	<path id="XMLID_119_" style="fill:#C0C9D2;" d="M5.715,57c-2.757,0-5-2.243-5-5c0-0.552,0.448-1,1-1c0.552,0,1,0.448,1,1
		c0,1.654,1.346,3,3,3c0.552,0,1,0.448,1,1C6.715,56.552,6.267,57,5.715,57"/>
	<path id="XMLID_118_" style="fill:#C0C9D2;" d="M55.715,7c-0.552,0-1-0.448-1-1c0-2.206-1.346-4-3-4c-0.552,0-1-0.448-1-1
		c0-0.552,0.448-1,1-1c2.757,0,5,2.691,5,6C56.715,6.552,56.267,7,55.715,7"/>
	<path id="XMLID_117_" style="fill:#C0C9D2;" d="M45.715,56c-0.552,0-1-0.448-1-1c0-0.552,0.448-1,1-1c4.962,0,9-4.038,9-9
		c0-0.552,0.448-1,1-1c0.552,0,1,0.448,1,1C56.715,51.065,51.78,56,45.715,56"/>
	<path id="XMLID_116_" style="fill:#C0C9D2;" d="M52.715,58c-0.552,0-1-0.448-1-1c0-0.552,0.448-1,1-1c1.626,0,3-0.916,3-2
		c0-0.552,0.448-1,1-1c0.552,0,1,0.448,1,1C57.715,56.206,55.472,58,52.715,58"/>
	<path id="XMLID_115_" style="fill:#A0AAB4;" d="M43.994,44.203C33.881,54.316,18.908,56.016,9.145,48.646
		c0.599,0.793,1.25,1.556,1.969,2.275c9.567,9.567,26.188,8.459,37.123-2.475c10.934-10.935,12.042-27.556,2.475-37.123
		c-0.719-0.719-1.482-1.37-2.275-1.969C55.807,19.117,54.107,34.09,43.994,44.203"/>
	<path id="XMLID_114_" style="fill:#C0C9D2;" d="M44.672,43.467l4.256,4.256c0.461-0.49,0.906-0.989,1.329-1.499l-4.249-4.249
		C45.585,42.484,45.132,42.977,44.672,43.467"/>
	<path id="XMLID_113_" style="fill:#C0C9D2;" d="M40.971,46.837l4.258,4.258c0.525-0.407,1.039-0.837,1.544-1.284l-4.251-4.251
		C42.015,46.007,41.497,46.429,40.971,46.837"/>
	<path id="XMLID_112_" style="fill:#C0C9D2;" d="M47.821,39.545l4.255,4.255c0.386-0.57,0.752-1.148,1.095-1.733l-4.246-4.246
		C48.583,38.406,48.208,38.978,47.821,39.545"/>
	<path id="XMLID_111_" style="fill:#C0C9D2;" d="M50.365,35.018l4.26,4.259c0.301-0.662,0.573-1.331,0.822-2.005l-4.254-4.254
		C50.945,33.691,50.666,34.357,50.365,35.018"/>
	<path id="XMLID_110_" style="fill:#C0C9D2;" d="M36.696,49.633l4.256,4.256c0.603-0.326,1.201-0.668,1.789-1.04l-4.259-4.258
		C37.894,48.962,37.299,49.307,36.696,49.633"/>
	<path id="XMLID_109_" style="fill:#C0C9D2;" d="M31.759,51.767l4.255,4.255c0.693-0.228,1.384-0.478,2.068-0.761l-4.254-4.253
		C33.144,51.29,32.454,51.54,31.759,51.767"/>
	<path id="XMLID_108_" style="fill:#C0C9D2;" d="M24.631,53.125l4.259,4.259c0.851-0.048,1.706-0.137,2.561-0.267l-4.261-4.261
		C26.335,52.985,25.482,53.078,24.631,53.125"/>
	<path id="XMLID_107_" style="fill:#C0C9D2;" d="M16.764,52.328l4.27,4.27c1.14,0.306,2.306,0.527,3.49,0.663l-4.268-4.269
		C19.071,52.854,17.905,52.636,16.764,52.328"/>
	<path id="XMLID_106_" style="fill:#C0C9D2;" d="M52.443,28.611l4.252,4.252c0.162-0.818,0.287-1.637,0.373-2.455l-4.257-4.257
		C52.726,26.971,52.606,27.791,52.443,28.611"/>
	<path id="XMLID_105_" style="fill:#C0C9D2;" d="M57.178,26.275c-0.057-1.079-0.176-2.148-0.37-3.198l-4.281-4.281
		c0.199,1.065,0.352,2.142,0.409,3.237L57.178,26.275z"/>
</g>
<g>
</g>
<g>
</g>
<g>
</g>
<g>
</g>
<g>
</g>
<g>
</g>
<g>
</g>
<g>
</g>
<g>
</g>
<g>
</g>
<g>
</g>
<g>
</g>
<g>
</g>
<g>
</g>
<g>
</g>
</svg>
