<?xml version="1.0" encoding="iso-8859-1"?>
<!-- Generator: Adobe Illustrator 19.0.0, SVG Export Plug-In . SVG Version: 6.00 Build 0)  -->
<svg version="1.1" id="Capa_1" xmlns="http://www.w3.org/2000/svg" xmlns:xlink="http://www.w3.org/1999/xlink" x="0px" y="0px"
	 viewBox="0 0 56 56" style="enable-background:new 0 0 56 56;" xml:space="preserve">
<g id="XMLID_18_">
	<path id="XMLID_139_" style="fill:#C0C9D2;" d="M31,56C17.469,56,6.5,43.464,6.5,28S17.469,0,31,0c13.531,0,24.5,12.536,24.5,28
		S44.531,56,31,56"/>
	<path id="XMLID_138_" style="fill:#A0AAB4;" d="M6.5,28C6.5,13.698,15.885,1.908,28,0.217C27.016,0.079,26.016,0,25,0
		C11.469,0,0.5,12.536,0.5,28S11.469,56,25,56c1.016,0,2.016-0.079,3-0.216C15.885,54.092,6.5,42.302,6.5,28"/>
	<path id="XMLID_137_" style="fill:#C0C9D2;" d="M6.499,29.001H0.501c0.019,0.673,0.058,1.34,0.119,2h6.003
		C6.56,30.342,6.519,29.675,6.499,29.001"/>
	<path id="XMLID_136_" style="fill:#C0C9D2;" d="M6.727,24.001H0.731c-0.083,0.659-0.142,1.327-0.184,2h6
		C6.588,25.329,6.645,24.661,6.727,24.001"/>
	<path id="XMLID_135_" style="fill:#C0C9D2;" d="M7.049,34.001H1.048c0.13,0.676,0.28,1.343,0.451,2h5.999
		C7.327,35.345,7.178,34.678,7.049,34.001"/>
	<path id="XMLID_134_" style="fill:#C0C9D2;" d="M8.448,39.001H2.444c0.255,0.682,0.537,1.347,0.837,2h6.002
		C8.982,40.35,8.703,39.683,8.448,39.001"/>
	<path id="XMLID_133_" style="fill:#C0C9D2;" d="M7.772,19.001H1.778c-0.194,0.657-0.376,1.322-0.528,2h6.007
		C7.408,20.326,7.578,19.657,7.772,19.001"/>
	<path id="XMLID_132_" style="fill:#C0C9D2;" d="M9.764,14.002H3.763c-0.329,0.651-0.64,1.317-0.924,2h6.004
		C9.127,15.319,9.434,14.652,9.764,14.002"/>
	<path id="XMLID_131_" style="fill:#C0C9D2;" d="M13.845,8.002H7.838c-0.569,0.636-1.11,1.303-1.622,2h6.005
		C12.733,9.305,13.275,8.638,13.845,8.002"/>
	<path id="XMLID_130_" style="fill:#C0C9D2;" d="M19.959,3.001h-6.014c-1.02,0.59-2.002,1.258-2.935,2h6.009
		C17.953,4.26,18.935,3.592,19.959,3.001"/>
	<path id="XMLID_129_" style="fill:#C0C9D2;" d="M11.519,45.001H5.517c0.465,0.693,0.954,1.36,1.473,2h6.007
		C12.477,46.361,11.985,45.694,11.519,45.001"/>
	<path id="XMLID_128_" style="fill:#C0C9D2;" d="M9.834,50.001c0.803,0.723,1.644,1.395,2.524,2h6.015
		c-0.885-0.607-1.734-1.274-2.542-2H9.834z"/>
	<path id="XMLID_111_" style="fill:#D6DEE4;" d="M31.085,50.524H31c-0.7,0-1.405-0.042-2.095-0.124
		c-0.548-0.066-0.941-0.563-0.874-1.112c0.064-0.548,0.547-0.93,1.111-0.874c0.61,0.073,1.236,0.11,1.857,0.11
		c0.553,0,1.042,0.448,1.042,1C32.042,50.076,31.638,50.524,31.085,50.524 M36.901,49.447c-0.404,0-0.785-0.247-0.937-0.648
		c-0.194-0.516,0.067-1.093,0.583-1.288c0.578-0.218,1.153-0.473,1.706-0.757c0.493-0.254,1.094-0.059,1.348,0.432
		c0.252,0.491,0.059,1.094-0.434,1.346c-0.621,0.32-1.265,0.605-1.915,0.85C37.137,49.426,37.018,49.447,36.901,49.447
		 M23.366,48.683c-0.153,0-0.308-0.035-0.452-0.109c-0.618-0.313-1.226-0.666-1.809-1.048c-0.463-0.302-0.592-0.922-0.289-1.384
		c0.304-0.461,0.922-0.591,1.385-0.288c0.521,0.341,1.065,0.657,1.618,0.937c0.493,0.25,0.689,0.852,0.439,1.344
		C24.082,48.483,23.731,48.683,23.366,48.683 M43.477,45.125c-0.255,0-0.509-0.096-0.703-0.288
		c-0.394-0.389-0.397-1.022-0.009-1.415c0.437-0.44,0.858-0.913,1.259-1.403c0.348-0.428,0.977-0.493,1.405-0.145
		c0.43,0.349,0.493,0.979,0.146,1.407c-0.44,0.54-0.907,1.061-1.387,1.547C43.992,45.026,43.734,45.125,43.477,45.125
		 M17.257,43.718c-0.29,0-0.576-0.125-0.773-0.366c-0.432-0.525-0.848-1.085-1.238-1.664c-0.31-0.457-0.19-1.079,0.267-1.389
		c0.459-0.308,1.079-0.188,1.39,0.27c0.356,0.527,0.736,1.038,1.129,1.516c0.349,0.427,0.288,1.057-0.141,1.407
		C17.705,43.644,17.48,43.718,17.257,43.718 M47.87,38.579c-0.133,0-0.268-0.027-0.399-0.083c-0.506-0.221-0.737-0.81-0.517-1.317
		c0.251-0.576,0.48-1.172,0.682-1.769c0.177-0.523,0.744-0.804,1.268-0.629c0.522,0.177,0.804,0.744,0.628,1.267
		c-0.221,0.652-0.471,1.301-0.743,1.93C48.623,38.354,48.256,38.579,47.87,38.579 M13.445,36.813c-0.416,0-0.806-0.262-0.947-0.678
		c-0.221-0.648-0.418-1.316-0.585-1.982c-0.132-0.536,0.194-1.078,0.729-1.211c0.535-0.136,1.078,0.192,1.213,0.728
		c0.151,0.611,0.332,1.224,0.535,1.82c0.18,0.521-0.101,1.091-0.623,1.269C13.661,36.795,13.552,36.813,13.445,36.813
		 M49.761,30.915c-0.024,0-0.052-0.001-0.078-0.003c-0.551-0.042-0.963-0.523-0.92-1.074c0.048-0.603,0.07-1.221,0.07-1.838
		c0-0.552,0.448-1.033,1-1.033c0.553,0,1,0.415,1,0.968V28c0,0.669-0.025,1.339-0.076,1.992
		C50.716,30.517,50.279,30.915,49.761,30.915 M12.166,29.011c-0.552,0-1-0.436-1-0.988V28c0-0.675,0.028-1.36,0.081-2.036
		c0.042-0.551,0.534-0.955,1.075-0.918c0.55,0.043,0.962,0.524,0.919,1.075c-0.049,0.624-0.075,1.256-0.075,1.879
		C13.166,28.552,12.719,29.011,12.166,29.011 M49.103,23.047c-0.447,0-0.856-0.302-0.97-0.756c-0.152-0.611-0.335-1.223-0.54-1.819
		c-0.179-0.523,0.1-1.092,0.621-1.271c0.529-0.181,1.092,0.099,1.273,0.621c0.222,0.649,0.42,1.316,0.587,1.981
		c0.134,0.536-0.191,1.079-0.728,1.213C49.265,23.038,49.184,23.047,49.103,23.047 M13.431,21.231c-0.106,0-0.215-0.018-0.32-0.054
		c-0.523-0.177-0.804-0.745-0.626-1.268c0.221-0.654,0.473-1.303,0.748-1.929c0.223-0.506,0.808-0.738,1.316-0.514
		c0.506,0.222,0.737,0.812,0.516,1.317c-0.252,0.574-0.483,1.169-0.687,1.768C14.237,20.968,13.848,21.231,13.431,21.231
		 M45.903,15.837c-0.321,0-0.637-0.154-0.829-0.439c-0.353-0.52-0.733-1.029-1.131-1.513c-0.352-0.426-0.289-1.057,0.137-1.408
		c0.427-0.35,1.056-0.289,1.408,0.137c0.437,0.532,0.854,1.092,1.242,1.662c0.309,0.458,0.188,1.079-0.269,1.389
		C46.29,15.781,46.096,15.837,45.903,15.837 M17.228,14.317c-0.223,0-0.446-0.073-0.633-0.225c-0.428-0.35-0.49-0.979-0.141-1.407
		c0.439-0.538,0.907-1.058,1.389-1.544c0.391-0.393,1.023-0.394,1.414-0.006c0.394,0.389,0.396,1.022,0.006,1.414
		c-0.437,0.441-0.86,0.913-1.261,1.401C17.806,14.192,17.518,14.317,17.228,14.317 M40.31,10.287c-0.188,0-0.377-0.053-0.546-0.162
		c-0.523-0.342-1.068-0.656-1.619-0.933c-0.493-0.248-0.691-0.851-0.442-1.344c0.248-0.493,0.847-0.692,1.342-0.442
		c0.617,0.31,1.227,0.662,1.813,1.044c0.463,0.301,0.594,0.921,0.292,1.384C40.957,10.127,40.637,10.287,40.31,10.287 M23.328,9.338
		c-0.365,0-0.715-0.199-0.893-0.545c-0.25-0.493-0.056-1.095,0.436-1.346c0.625-0.318,1.27-0.604,1.917-0.845
		c0.522-0.195,1.094,0.069,1.288,0.586c0.193,0.517-0.07,1.093-0.586,1.287c-0.577,0.216-1.153,0.469-1.708,0.753
		C23.636,9.302,23.481,9.338,23.328,9.338 M32.934,7.588c-0.037,0-0.076-0.002-0.115-0.007C32.216,7.511,31.605,7.476,31,7.476
		c-0.552,0-1.021-0.448-1.021-1c0-0.552,0.425-1,0.977-1H31c0.681,0,1.371,0.04,2.048,0.119c0.549,0.063,0.942,0.56,0.878,1.108
		C33.868,7.213,33.435,7.588,32.934,7.588"/>
	<path id="XMLID_105_" style="fill:#E9EFF5;" d="M31.009,41.757c-0.6,0-0.987-0.388-0.987-0.987v-1.406
		c-2.051-0.282-3.32-0.62-5.047-2.005v1.316c0,0.6-0.389,0.987-0.988,0.987c-0.599,0-0.986-0.388-0.986-0.987v-6.169
		c0-0.6,0.388-0.987,0.986-0.987c0.6,0,0.988,0.387,0.988,0.987v2.243c1.055,1.146,1.844,1.565,3.615,2.241
		c0.432,0.164,0.912,0.291,1.432,0.38v-9.564c-1.915-0.532-3.365-1.038-4.316-1.509c-1.052-0.52-1.877-1.176-2.453-1.952
		c-0.593-0.798-0.894-1.729-0.894-2.766c0-1.956,0.656-3.544,1.95-4.721c1.231-1.119,3.152-1.707,5.713-1.75V13.82
		c0-0.599,0.388-0.987,0.987-0.987s0.986,0.388,0.986,0.987v1.429c1.815,0.337,3.37,0.964,4.629,1.866
		c0.327,0.234,0.174,0.44,0.402,0.618l-0.001-1.315c0-0.6,0.388-0.987,0.987-0.987c0.6,0,0.987,0.387,0.987,0.987v6.169
		c0,0.6-0.388,0.987-0.987,0.987c-0.6,0-0.987-0.387-0.987-0.987v-2.082c-1.114-1.232-2.085-2.2-3.739-2.877
		c-0.404-0.174-0.837-0.307-1.291-0.396v8.936c0.308,0.082,0.816,0.216,1.526,0.401c1.229,0.321,2.364,0.737,3.375,1.237
		c1.051,0.52,1.876,1.176,2.452,1.952c0.593,0.8,0.894,1.763,0.894,2.863c0,2.094-0.748,3.785-2.223,5.025
		c-1.413,1.188-3.438,1.806-6.024,1.837v1.288C31.995,41.369,31.608,41.757,31.009,41.757 M27.117,37.449
		c0.165,0.08,0.331,0.155,0.498,0.226C27.446,37.602,27.28,37.526,27.117,37.449 M31.995,28.344v9.165
		c2.024-0.029,3.591-0.478,4.658-1.334c1.087-0.871,1.615-1.971,1.615-3.36c0-0.729-0.222-1.344-0.678-1.885
		c-0.479-0.567-1.075-1.014-1.771-1.327c-0.742-0.334-1.499-0.61-2.25-0.819L31.995,28.344z M37.734,36.551
		c-0.141,0.14-0.294,0.274-0.455,0.403c-0.24,0.193-0.5,0.368-0.779,0.525c0.318-0.176,0.61-0.376,0.875-0.6
		C37.502,36.773,37.621,36.664,37.734,36.551 M30.021,17.083c-1.921,0.04-3.357,0.456-4.272,1.24
		c-0.952,0.817-1.416,1.786-1.416,2.965c0,0.73,0.222,1.346,0.678,1.885c0.479,0.568,1.075,1.016,1.771,1.328
		c0.742,0.335,1.451,0.6,2.108,0.787c0.41,0.117,0.788,0.228,1.132,0.329V17.083z"/>
</g>
<g>
</g>
<g>
</g>
<g>
</g>
<g>
</g>
<g>
</g>
<g>
</g>
<g>
</g>
<g>
</g>
<g>
</g>
<g>
</g>
<g>
</g>
<g>
</g>
<g>
</g>
<g>
</g>
<g>
</g>
</svg>
