<?xml version="1.0" encoding="iso-8859-1"?>
<!-- Generator: Adobe Illustrator 18.0.0, SVG Export Plug-In . SVG Version: 6.00 Build 0)  -->
<!DOCTYPE svg PUBLIC "-//W3C//DTD SVG 1.1//EN" "http://www.w3.org/Graphics/SVG/1.1/DTD/svg11.dtd">
<svg version="1.1" id="Capa_1" xmlns="http://www.w3.org/2000/svg" xmlns:xlink="http://www.w3.org/1999/xlink" x="0px" y="0px"
	 viewBox="0 0 58 58" style="enable-background:new 0 0 58 58;" xml:space="preserve">
<g>
	<rect x="10" y="10" style="fill:#8F6127;" width="38" height="38"/>
	<g>
		<path style="fill:#70491E;" d="M39,47c-0.971,0-1.621-0.22-1.935-0.653c-0.444-0.616-0.236-1.672-0.12-2.021l0.054-0.291
			c0.056-1.644-0.522-3.002-1.671-3.929c-2.936-2.368-8.656-1.271-9.475-1.097c-4.18,0.389-4.795,8.05-4.852,8.927
			c-0.035,0.551,0.383,1.026,0.934,1.063C21.958,48.999,21.979,49,22.001,49c0.522,0,0.963-0.406,0.997-0.936
			c0.145-2.244,1.087-6.925,3.073-7.067l0.159-0.024c1.16-0.264,5.897-0.917,7.866,0.709c0.614,0.508,0.912,1.215,0.906,2.157
			c-0.162,0.563-0.543,2.299,0.432,3.664C36.143,48.496,37.343,49,39,49c0.553,0,1-0.447,1-1S39.553,47,39,47z"/>
		<path style="fill:#70491E;" d="M27,30c5.848,0,8.839-4.508,12.302-9.728c1.995-3.008,4.257-6.417,7.405-9.565
			c0.391-0.391,0.391-1.023,0-1.414s-1.023-0.391-1.414,0c-3.29,3.29-5.61,6.787-7.658,9.873C34.232,24.295,31.774,28,27,28
			c-9.252,0-10.93,19.104-10.997,19.918c-0.045,0.551,0.364,1.033,0.915,1.079C16.946,48.999,16.974,49,17.001,49
			c0.516,0,0.953-0.396,0.996-0.918C18.41,43.053,20.834,30,27,30z"/>
		<path style="fill:#70491E;" d="M42.366,22.589c-1.04,5.761-5.267,10.258-10.768,11.457c-3.162,0.689-5.256,0.014-5.278,0.007
			c-0.52-0.175-1.086,0.103-1.266,0.622c-0.18,0.522,0.098,1.092,0.62,1.271c0.07,0.024,1.229,0.412,3.123,0.412
			c0.917,0,2.006-0.091,3.227-0.356c6.294-1.373,11.126-6.497,12.311-13.057c0.603-3.342,1.847-5.021,3.631-4.945
			c0.555,0.032,1.016-0.413,1.033-0.965c0.019-0.553-0.413-1.015-0.965-1.033C46.017,15.956,43.371,17.018,42.366,22.589z"/>
		<path style="fill:#70491E;" d="M47.451,28.164c-0.31,0.203-7.546,5.042-5.395,11.167c1.104,3.143,0.441,5.247-0.052,6.223
			c-0.5,0.987-1.113,1.434-1.279,1.484c-0.531,0.151-0.839,0.705-0.688,1.236C40.164,48.714,40.564,49,40.999,49
			c0.091,0,0.184-0.013,0.275-0.038c0.882-0.252,1.834-1.188,2.483-2.445c0.655-1.265,1.549-3.966,0.186-7.848
			c-1.633-4.649,4.544-8.792,4.606-8.834c0.461-0.304,0.588-0.924,0.285-1.385C48.531,27.989,47.912,27.861,47.451,28.164z"/>
		<path style="fill:#70491E;" d="M18.982,23.815c-0.639-3.409-1.976-4.435-2.861-5.113c-0.725-0.557-1.089-0.836,2.766-8.24
			c0.255-0.49,0.064-1.094-0.425-1.349c-0.491-0.258-1.096-0.064-1.349,0.425c-4.067,7.813-4.336,9.119-2.209,10.751
			c0.72,0.552,1.614,1.238,2.113,3.896c1.365,7.281-7.521,13.944-7.611,14.011c-0.444,0.328-0.538,0.954-0.211,1.398
			C9.392,39.859,9.694,40,10.001,40c0.206,0,0.414-0.063,0.592-0.195C11.002,39.504,20.58,32.335,18.982,23.815z"/>
		<path style="fill:#70491E;" d="M25.951,23.999c0.206,0.01,0.409,0.015,0.608,0.015c4.125,0,6.629-2.127,8.021-3.961
			c2.5-3.294,3.176-7.947,2.368-10.369c-0.174-0.523-0.735-0.808-1.265-0.632c-0.523,0.174-0.807,0.74-0.632,1.265
			c0.549,1.649,0.131,5.635-2.064,8.527c-1.699,2.239-4.039,3.313-6.938,3.157c-1.639-0.08-2.731-0.611-3.341-1.623
			c-1.594-2.643,0.324-8.082,1.198-9.955c0.233-0.5,0.017-1.095-0.483-1.329c-0.497-0.231-1.095-0.019-1.329,0.482
			c-0.146,0.314-3.567,7.736-1.1,11.832C21.96,23.013,23.628,23.884,25.951,23.999z"/>
	</g>
	<rect x="10" y="0" style="fill:#AD7E4E;" width="48" height="10"/>
	<rect x="48" y="10" style="fill:#CA965A;" width="10" height="48"/>
	<rect x="0" y="48" style="fill:#AD7E4E;" width="48" height="10"/>
	<rect x="0" y="0" style="fill:#CA965A;" width="10" height="48"/>
	<g>
		<circle style="fill:#E6E7E8;" cx="54" cy="3" r="1"/>
		<circle style="fill:#E6E7E8;" cx="50" cy="3" r="1"/>
		<circle style="fill:#E6E7E8;" cx="54" cy="7" r="1"/>
		<circle style="fill:#E6E7E8;" cx="50" cy="7" r="1"/>
		<circle style="fill:#E6E7E8;" cx="55" cy="54" r="1"/>
		<circle style="fill:#E6E7E8;" cx="55" cy="50" r="1"/>
		<circle style="fill:#E6E7E8;" cx="51" cy="54" r="1"/>
		<circle style="fill:#E6E7E8;" cx="51" cy="50" r="1"/>
		<circle style="fill:#E6E7E8;" cx="4" cy="55" r="1"/>
		<circle style="fill:#E6E7E8;" cx="8" cy="55" r="1"/>
		<circle style="fill:#E6E7E8;" cx="4" cy="51" r="1"/>
		<circle style="fill:#E6E7E8;" cx="8" cy="51" r="1"/>
		<circle style="fill:#E6E7E8;" cx="3" cy="4" r="1"/>
		<circle style="fill:#E6E7E8;" cx="3" cy="8" r="1"/>
		<circle style="fill:#E6E7E8;" cx="7" cy="4" r="1"/>
		<circle style="fill:#E6E7E8;" cx="7" cy="8" r="1"/>
	</g>
	<g>
		<rect x="3" y="36" style="fill:#AD7E4E;" width="2" height="12"/>
		<rect x="6" y="42" style="fill:#AD7E4E;" width="2" height="6"/>
		<rect x="10" y="3" style="fill:#8F6127;" width="8" height="2"/>
		<rect x="10" y="6" style="fill:#8F6127;" width="7" height="2"/>
		<rect x="40" y="54" style="fill:#8F6127;" width="8" height="2"/>
		<rect x="38" y="51" style="fill:#8F6127;" width="10" height="2"/>
		<rect x="54" y="10" style="fill:#AD7E4E;" width="2" height="7"/>
		<rect x="51" y="10" style="fill:#AD7E4E;" width="2" height="9"/>
	</g>
</g>
<g>
</g>
<g>
</g>
<g>
</g>
<g>
</g>
<g>
</g>
<g>
</g>
<g>
</g>
<g>
</g>
<g>
</g>
<g>
</g>
<g>
</g>
<g>
</g>
<g>
</g>
<g>
</g>
<g>
</g>
</svg>
