<?xml version="1.0" encoding="iso-8859-1"?>
<!-- Generator: Adobe Illustrator 18.0.0, SVG Export Plug-In . SVG Version: 6.00 Build 0)  -->
<!DOCTYPE svg PUBLIC "-//W3C//DTD SVG 1.1//EN" "http://www.w3.org/Graphics/SVG/1.1/DTD/svg11.dtd">
<svg version="1.1" id="Capa_1" xmlns="http://www.w3.org/2000/svg" xmlns:xlink="http://www.w3.org/1999/xlink" x="0px" y="0px"
	 viewBox="0 0 59 59" style="enable-background:new 0 0 59 59;" xml:space="preserve">
<g>
	<rect x="27" y="21.5" style="fill:#8F6127;" width="18" height="18"/>
	<path style="fill:#70491E;" d="M40,42.069h-8V18.5h8V42.069z M34,40.069h4V20.5h-4V40.069z"/>
	<circle style="fill:#556080;" cx="19" cy="51.5" r="4"/>
	<circle style="fill:#556080;" cx="49" cy="51.5" r="4"/>
	<path style="fill:#556080;" d="M9,7.5H4c-0.553,0-1-0.447-1-1s0.447-1,1-1h5c0.553,0,1,0.447,1,1S9.553,7.5,9,7.5z"/>
	<path style="fill:#556080;" d="M9,47.5c-0.553,0-1-0.447-1-1v-40c0-0.553,0.447-1,1-1s1,0.447,1,1v40C10,47.053,9.553,47.5,9,47.5z
		"/>
	<path style="fill:#556080;" d="M58,47.5H9c-0.553,0-1-0.447-1-1s0.447-1,1-1h49c0.553,0,1,0.447,1,1S58.553,47.5,58,47.5z"/>
	<rect x="27" y="39.5" style="fill:#CA965A;" width="24" height="6"/>
	<rect x="21" y="21.5" style="fill:#AD7E4E;" width="6" height="24"/>
	<rect x="21" y="15.5" style="fill:#CA965A;" width="24" height="6"/>
	<rect x="45" y="15.5" style="fill:#AD7E4E;" width="6" height="24"/>
	<circle style="fill:#D8625E;" cx="3" cy="6.5" r="3"/>
	<path style="fill:#CA965A;" d="M49,37.5c0-0.553-0.447-1-1-1s-1,0.447-1,1v2h2V37.5z"/>
	<path style="fill:#AD7E4E;" d="M43,17.5c-0.553,0-1,0.447-1,1s0.447,1,1,1h2v-2H43z"/>
	<path style="fill:#AD7E4E;" d="M29,43.5c0.553,0,1-0.447,1-1s-0.447-1-1-1h-2v2H29z"/>
	<path style="fill:#CA965A;" d="M23,23.5c0,0.553,0.447,1,1,1s1-0.447,1-1v-2h-2V23.5z"/>
</g>
<g>
</g>
<g>
</g>
<g>
</g>
<g>
</g>
<g>
</g>
<g>
</g>
<g>
</g>
<g>
</g>
<g>
</g>
<g>
</g>
<g>
</g>
<g>
</g>
<g>
</g>
<g>
</g>
<g>
</g>
</svg>
