<?xml version="1.0" encoding="iso-8859-1"?>
<!-- Generator: Adobe Illustrator 18.0.0, SVG Export Plug-In . SVG Version: 6.00 Build 0)  -->
<!DOCTYPE svg PUBLIC "-//W3C//DTD SVG 1.1//EN" "http://www.w3.org/Graphics/SVG/1.1/DTD/svg11.dtd">
<svg version="1.1" id="Capa_1" xmlns="http://www.w3.org/2000/svg" xmlns:xlink="http://www.w3.org/1999/xlink" x="0px" y="0px"
	 viewBox="0 0 58 58" style="enable-background:new 0 0 58 58;" xml:space="preserve">
<g>
	<rect x="28" y="17" style="fill:#556080;" width="2" height="24"/>
	<polygon style="fill:#556080;" points="52,41 50,41 50,30 8,30 8,41 6,41 6,28 52,28 	"/>
	<rect y="41" style="fill:#46B29D;" width="14" height="14"/>
	<rect x="44" y="41" style="fill:#2B7F6F;" width="14" height="14"/>
	<rect x="22" y="41" style="fill:#3B9B89;" width="14" height="14"/>
	<path style="fill:#F0C419;" d="M29,17L29,17c-3.866,0-7-3.134-7-7v0c0-3.866,3.134-7,7-7h0c3.866,0,7,3.134,7,7v0
		C36,13.866,32.866,17,29,17z"/>
</g>
<g>
</g>
<g>
</g>
<g>
</g>
<g>
</g>
<g>
</g>
<g>
</g>
<g>
</g>
<g>
</g>
<g>
</g>
<g>
</g>
<g>
</g>
<g>
</g>
<g>
</g>
<g>
</g>
<g>
</g>
</svg>
