<?xml version="1.0" encoding="iso-8859-1"?>
<!-- Generator: Adobe Illustrator 18.0.0, SVG Export Plug-In . SVG Version: 6.00 Build 0)  -->
<!DOCTYPE svg PUBLIC "-//W3C//DTD SVG 1.1//EN" "http://www.w3.org/Graphics/SVG/1.1/DTD/svg11.dtd">
<svg version="1.1" id="Capa_1" xmlns="http://www.w3.org/2000/svg" xmlns:xlink="http://www.w3.org/1999/xlink" x="0px" y="0px"
	 viewBox="0 0 54 54" style="enable-background:new 0 0 54 54;" xml:space="preserve">
<g>
	<path style="fill:#48A0DC;" d="M46.534,54H7.466C3.343,54,0,50.657,0,46.534V7.466C0,3.343,3.343,0,7.466,0h39.067
		C50.657,0,54,3.343,54,7.466v39.067C54,50.657,50.657,54,46.534,54z"/>
	<g>
		<path style="fill:#FFFFFF;" d="M37,16c-0.553,0-1,0.447-1,1s0.447,1,1,1h6.586L29.119,32.467l1.414,1.414L45,19.414V26
			c0,0.553,0.447,1,1,1s1-0.447,1-1V16H37z"/>
		
			<rect x="10.514" y="26.414" transform="matrix(-0.7071 -0.7071 0.7071 -0.7071 12.0501 59.8194)" style="fill:#FFFFFF;" width="15.799" height="2"/>
		<polygon style="fill:#FFFFFF;" points="0,27.586 0,30.414 7.879,22.535 6.465,21.121 		"/>
	</g>
	<g>
		<path style="fill:#556080;" d="M27,31c-2.757,0-5,2.243-5,5s2.243,5,5,5s5-2.243,5-5S29.757,31,27,31z"/>
		<path style="fill:#556080;" d="M10,14c-2.757,0-5,2.243-5,5s2.243,5,5,5s5-2.243,5-5S12.757,14,10,14z"/>
	</g>
</g>
<g>
</g>
<g>
</g>
<g>
</g>
<g>
</g>
<g>
</g>
<g>
</g>
<g>
</g>
<g>
</g>
<g>
</g>
<g>
</g>
<g>
</g>
<g>
</g>
<g>
</g>
<g>
</g>
<g>
</g>
</svg>
