<?xml version="1.0" encoding="iso-8859-1"?>
<!-- Generator: Adobe Illustrator 18.0.0, SVG Export Plug-In . SVG Version: 6.00 Build 0)  -->
<!DOCTYPE svg PUBLIC "-//W3C//DTD SVG 1.1//EN" "http://www.w3.org/Graphics/SVG/1.1/DTD/svg11.dtd">
<svg version="1.1" id="Capa_1" xmlns="http://www.w3.org/2000/svg" xmlns:xlink="http://www.w3.org/1999/xlink" x="0px" y="0px"
	 viewBox="0 0 60 60" style="enable-background:new 0 0 60 60;" xml:space="preserve">
<g>
	<rect x="1" y="0.5" style="fill:#556080;" width="58" height="6"/>
	<rect x="3" y="6.5" style="fill:#ECF0F1;" width="54" height="42"/>
	<path style="fill:#24AE5F;" d="M14,29.723c-2.757,0-5-2.243-5-5c0-0.553,0.447-1,1-1s1,0.447,1,1c0,1.654,1.346,3,3,3
		c0.885,0,1.72-0.388,2.291-1.063c0.257-0.304,0.374-0.696,0.332-1.105c-0.046-0.439-0.272-0.848-0.622-1.119l-5.23-4.068
		c-0.777-0.605-1.281-1.514-1.383-2.492c-0.099-0.956,0.183-1.88,0.794-2.603C11.134,14.146,12.526,13.5,14,13.5
		c2.757,0,5,2.243,5,5c0,0.553-0.447,1-1,1s-1-0.447-1-1c0-1.654-1.346-3-3-3c-0.885,0-1.72,0.388-2.291,1.063
		c-0.257,0.304-0.374,0.695-0.332,1.104c0.046,0.439,0.272,0.848,0.622,1.12l5.23,4.068c0.776,0.604,1.28,1.512,1.383,2.489
		c0.1,0.957-0.183,1.882-0.794,2.604C16.866,29.077,15.474,29.723,14,29.723z"/>
	<path style="fill:#24AE5F;" d="M14,15.5c-0.553,0-1-0.447-1-1v-1.777c0-0.553,0.447-1,1-1s1,0.447,1,1V14.5
		C15,15.053,14.553,15.5,14,15.5z"/>
	<path style="fill:#24AE5F;" d="M14,31.5c-0.553,0-1-0.447-1-1v-1.777c0-0.553,0.447-1,1-1s1,0.447,1,1V30.5
		C15,31.053,14.553,31.5,14,31.5z"/>
	<path style="fill:#E57E25;" d="M51,15.5h-8c-0.553,0-1-0.447-1-1s0.447-1,1-1h8c0.553,0,1,0.447,1,1S51.553,15.5,51,15.5z"/>
	<path style="fill:#F0C419;" d="M51,21.5H36c-0.553,0-1-0.447-1-1s0.447-1,1-1h15c0.553,0,1,0.447,1,1S51.553,21.5,51,21.5z"/>
	<path style="fill:#F3D55B;" d="M51,27.5H39c-0.553,0-1-0.447-1-1s0.447-1,1-1h12c0.553,0,1,0.447,1,1S51.553,27.5,51,27.5z"/>
	<path style="fill:#E64C3C;" d="M51,33.5h-5c-0.553,0-1-0.447-1-1s0.447-1,1-1h5c0.553,0,1,0.447,1,1S51.553,33.5,51,33.5z"/>
	<path style="fill:#C03A2B;" d="M51,40.5h-8c-0.553,0-1-0.447-1-1s0.447-1,1-1h8c0.553,0,1,0.447,1,1S51.553,40.5,51,40.5z"/>
	<path style="fill:#D1D4D1;" d="M18,42.5h-8c-0.553,0-1-0.447-1-1s0.447-1,1-1h8c0.553,0,1,0.447,1,1S18.553,42.5,18,42.5z"/>
	<path style="fill:#D1D4D1;" d="M23,42.5c-0.26,0-0.521-0.11-0.71-0.29C22.109,42.02,22,41.77,22,41.5c0-0.26,0.109-0.521,0.29-0.71
		c0.37-0.37,1.05-0.37,1.42,0C23.89,40.979,24,41.24,24,41.5s-0.11,0.52-0.29,0.71C23.52,42.39,23.26,42.5,23,42.5z"/>
	<path style="fill:#D1D4D1;" d="M23,37.5h-3c-0.553,0-1-0.447-1-1s0.447-1,1-1h3c0.553,0,1,0.447,1,1S23.553,37.5,23,37.5z"/>
	<path style="fill:#D1D4D1;" d="M12,37.5h-2c-0.553,0-1-0.447-1-1s0.447-1,1-1h2c0.553,0,1,0.447,1,1S12.553,37.5,12,37.5z"/>
	<path style="fill:#D1D4D1;" d="M16,37.5c-0.26,0-0.521-0.101-0.71-0.29C15.109,37.02,15,36.76,15,36.5
		c0-0.271,0.109-0.521,0.29-0.71c0.38-0.37,1.05-0.37,1.42,0C16.89,35.979,17,36.24,17,36.5s-0.11,0.52-0.29,0.71
		C16.52,37.39,16.26,37.5,16,37.5z"/>
	<path style="fill:#D1D4D1;" d="M51,43.5c-0.553,0-1-0.447-1-1v-31c0-0.553,0.447-1,1-1s1,0.447,1,1v31
		C52,43.053,51.553,43.5,51,43.5z"/>
	<path style="fill:#556080;" d="M59,49.5H1c-0.553,0-1-0.447-1-1s0.447-1,1-1h58c0.553,0,1,0.447,1,1S59.553,49.5,59,49.5z"/>
	<path style="fill:#556080;" d="M30,52.5c-0.553,0-1-0.447-1-1v-3c0-0.553,0.447-1,1-1s1,0.447,1,1v3C31,52.053,30.553,52.5,30,52.5
		z"/>
	<path style="fill:#556080;" d="M30,59.5c-2.206,0-4-1.794-4-4s1.794-4,4-4s4,1.794,4,4S32.206,59.5,30,59.5z M30,53.5
		c-1.103,0-2,0.897-2,2s0.897,2,2,2s2-0.897,2-2S31.103,53.5,30,53.5z"/>
</g>
<g>
</g>
<g>
</g>
<g>
</g>
<g>
</g>
<g>
</g>
<g>
</g>
<g>
</g>
<g>
</g>
<g>
</g>
<g>
</g>
<g>
</g>
<g>
</g>
<g>
</g>
<g>
</g>
<g>
</g>
</svg>
