<?xml version="1.0" encoding="iso-8859-1"?>
<!-- Generator: Adobe Illustrator 18.0.0, SVG Export Plug-In . SVG Version: 6.00 Build 0)  -->
<!DOCTYPE svg PUBLIC "-//W3C//DTD SVG 1.1//EN" "http://www.w3.org/Graphics/SVG/1.1/DTD/svg11.dtd">
<svg version="1.1" id="Capa_1" xmlns="http://www.w3.org/2000/svg" xmlns:xlink="http://www.w3.org/1999/xlink" x="0px" y="0px"
	 viewBox="0 0 60 60" style="enable-background:new 0 0 60 60;" xml:space="preserve">
<g>
	<rect x="3" y="6.5" style="fill:#ECF0F1;" width="54" height="42"/>
	<path style="fill:#D1D4D1;" d="M13.554,36.945c-0.256,0-0.512-0.098-0.707-0.293c-0.391-0.391-0.391-1.023,0-1.414l2.892-2.891
		c0.391-0.391,1.023-0.391,1.414,0s0.391,1.023,0,1.414l-2.892,2.891C14.066,36.848,13.81,36.945,13.554,36.945z"/>
	<path style="fill:#D1D4D1;" d="M24.446,36.945c-0.256,0-0.512-0.098-0.707-0.293l-2.892-2.891c-0.391-0.391-0.391-1.023,0-1.414
		c0.39-0.391,1.023-0.391,1.414,0l2.892,2.891c0.391,0.391,0.391,1.023,0,1.414C24.958,36.848,24.702,36.945,24.446,36.945z"/>
	<path style="fill:#D1D4D1;" d="M28.121,37.379c-0.256,0-0.512-0.098-0.707-0.293c-0.391-0.391-0.391-1.023,0-1.414l8.325-8.324
		c0.391-0.391,1.023-0.391,1.414,0s0.391,1.023,0,1.414l-8.325,8.324C28.633,37.281,28.377,37.379,28.121,37.379z"/>
	<path style="fill:#D1D4D1;" d="M47.446,34.945c-0.256,0-0.512-0.098-0.707-0.293l-5.892-5.891c-0.391-0.391-0.391-1.023,0-1.414
		s1.023-0.391,1.414,0l5.892,5.891c0.391,0.391,0.391,1.023,0,1.414C47.958,34.848,47.702,34.945,47.446,34.945z"/>
	<rect x="1" y="0.5" style="fill:#556080;" width="58" height="6"/>
	<path style="fill:#8697CB;" d="M19,18.5H8c-0.552,0-1-0.447-1-1s0.448-1,1-1h11c0.552,0,1,0.447,1,1S19.552,18.5,19,18.5z"/>
	<path style="fill:#8697CB;" d="M13,14.5H8c-0.552,0-1-0.447-1-1s0.448-1,1-1h5c0.552,0,1,0.447,1,1S13.552,14.5,13,14.5z"/>
	<path style="fill:#8697CB;" d="M19,22.5H8c-0.552,0-1-0.447-1-1s0.448-1,1-1h11c0.552,0,1,0.447,1,1S19.552,22.5,19,22.5z"/>
	<circle style="fill:#71C285;" cx="19" cy="31.5" r="3"/>
	<circle style="fill:#71C285;" cx="39" cy="26.5" r="3"/>
	<circle style="fill:#F29C1F;" cx="49" cy="36.5" r="3"/>
	<circle style="fill:#F29C1F;" cx="26" cy="38.5" r="3"/>
	<circle style="fill:#F29C1F;" cx="12" cy="38.5" r="3"/>
	<path style="fill:#556080;" d="M59,49.5H1c-0.552,0-1-0.447-1-1s0.448-1,1-1h58c0.552,0,1,0.447,1,1S59.552,49.5,59,49.5z"/>
	<path style="fill:#556080;" d="M30,52.5c-0.552,0-1-0.447-1-1v-3c0-0.553,0.448-1,1-1s1,0.447,1,1v3C31,52.053,30.552,52.5,30,52.5
		z"/>
	<path style="fill:#556080;" d="M30,59.5c-2.206,0-4-1.794-4-4s1.794-4,4-4s4,1.794,4,4S32.206,59.5,30,59.5z M30,53.5
		c-1.103,0-2,0.897-2,2s0.897,2,2,2s2-0.897,2-2S31.103,53.5,30,53.5z"/>
</g>
<g>
</g>
<g>
</g>
<g>
</g>
<g>
</g>
<g>
</g>
<g>
</g>
<g>
</g>
<g>
</g>
<g>
</g>
<g>
</g>
<g>
</g>
<g>
</g>
<g>
</g>
<g>
</g>
<g>
</g>
</svg>
