<?xml version="1.0" encoding="iso-8859-1"?>
<!-- Generator: Adobe Illustrator 18.0.0, SVG Export Plug-In . SVG Version: 6.00 Build 0)  -->
<!DOCTYPE svg PUBLIC "-//W3C//DTD SVG 1.1//EN" "http://www.w3.org/Graphics/SVG/1.1/DTD/svg11.dtd">
<svg version="1.1" id="Capa_1" xmlns="http://www.w3.org/2000/svg" xmlns:xlink="http://www.w3.org/1999/xlink" x="0px" y="0px"
	 viewBox="0 0 60 60" style="enable-background:new 0 0 60 60;" xml:space="preserve">
<g>
	<path style="fill:#556080;" d="M30,6c-0.553,0-1-0.447-1-1V1c0-0.553,0.447-1,1-1s1,0.447,1,1v4C31,5.553,30.553,6,30,6z"/>
	<rect x="1" y="5" style="fill:#F0EDE0;" width="58" height="40"/>
	<path style="fill:#556080;" d="M30,58c-0.553,0-1-0.447-1-1V45c0-0.553,0.447-1,1-1s1,0.447,1,1v12C31,57.553,30.553,58,30,58z"/>
	<path style="fill:#556080;" d="M44,60c-0.256,0-0.512-0.098-0.707-0.293l-14-14c-0.391-0.391-0.391-1.023,0-1.414
		s1.023-0.391,1.414,0l14,14c0.391,0.391,0.391,1.023,0,1.414C44.512,59.902,44.256,60,44,60z"/>
	<path style="fill:#556080;" d="M16,60c-0.256,0-0.512-0.098-0.707-0.293c-0.391-0.391-0.391-1.023,0-1.414l14-14
		c0.391-0.391,1.023-0.391,1.414,0s0.391,1.023,0,1.414l-14,14C16.512,59.902,16.256,60,16,60z"/>
	<path style="fill:#D4C3A5;" d="M12,27.223c-2.757,0-5-2.243-5-5c0-0.553,0.447-1,1-1s1,0.447,1,1c0,1.654,1.346,3,3,3
		c0.885,0,1.72-0.388,2.291-1.063c0.257-0.304,0.374-0.696,0.332-1.105c-0.046-0.439-0.272-0.848-0.622-1.119l-5.23-4.068
		c-0.777-0.605-1.281-1.514-1.383-2.492c-0.099-0.956,0.183-1.88,0.794-2.603C9.134,11.646,10.526,11,12,11c2.757,0,5,2.243,5,5
		c0,0.553-0.447,1-1,1s-1-0.447-1-1c0-1.654-1.346-3-3-3c-0.885,0-1.72,0.388-2.291,1.063c-0.257,0.304-0.374,0.695-0.332,1.104
		c0.046,0.439,0.272,0.848,0.622,1.12l5.23,4.068c0.776,0.604,1.28,1.512,1.383,2.489c0.1,0.957-0.183,1.882-0.794,2.604
		C14.866,26.577,13.474,27.223,12,27.223z"/>
	<path style="fill:#D4C3A5;" d="M12,13c-0.553,0-1-0.447-1-1v-1.777c0-0.553,0.447-1,1-1s1,0.447,1,1V12C13,12.553,12.553,13,12,13z
		"/>
	<path style="fill:#D4C3A5;" d="M12,29c-0.553,0-1-0.447-1-1v-1.777c0-0.553,0.447-1,1-1s1,0.447,1,1V28C13,28.553,12.553,29,12,29z
		"/>
	<path style="fill:#D4C3A5;" d="M54,14h-8c-0.553,0-1-0.447-1-1s0.447-1,1-1h8c0.553,0,1,0.447,1,1S54.553,14,54,14z"/>
	<path style="fill:#D4C3A5;" d="M54,20H39c-0.553,0-1-0.447-1-1s0.447-1,1-1h15c0.553,0,1,0.447,1,1S54.553,20,54,20z"/>
	<path style="fill:#D4C3A5;" d="M54,26H42c-0.553,0-1-0.447-1-1s0.447-1,1-1h12c0.553,0,1,0.447,1,1S54.553,26,54,26z"/>
	<path style="fill:#D4C3A5;" d="M54,32h-5c-0.553,0-1-0.447-1-1s0.447-1,1-1h5c0.553,0,1,0.447,1,1S54.553,32,54,32z"/>
	<path style="fill:#D4C3A5;" d="M54,39h-8c-0.553,0-1-0.447-1-1s0.447-1,1-1h8c0.553,0,1,0.447,1,1S54.553,39,54,39z"/>
	<path style="fill:#D4C3A5;" d="M16,40H8c-0.553,0-1-0.447-1-1s0.447-1,1-1h8c0.553,0,1,0.447,1,1S16.553,40,16,40z"/>
	<path style="fill:#D4C3A5;" d="M21,40c-0.271,0-0.521-0.11-0.71-0.3C20.109,39.52,20,39.27,20,39c0-0.271,0.109-0.521,0.29-0.71
		c0.37-0.37,1.05-0.37,1.42,0C21.89,38.479,22,38.74,22,39s-0.11,0.52-0.29,0.71C21.52,39.89,21.26,40,21,40z"/>
	<path style="fill:#D4C3A5;" d="M21,35h-3c-0.553,0-1-0.447-1-1s0.447-1,1-1h3c0.553,0,1,0.447,1,1S21.553,35,21,35z"/>
	<path style="fill:#D4C3A5;" d="M10,35H8c-0.553,0-1-0.447-1-1s0.447-1,1-1h2c0.553,0,1,0.447,1,1S10.553,35,10,35z"/>
	<path style="fill:#D4C3A5;" d="M14,35c-0.26,0-0.521-0.11-0.71-0.29C13.109,34.52,13,34.27,13,34c0-0.26,0.109-0.521,0.29-0.71
		c0.38-0.37,1.04-0.37,1.42,0C14.89,33.479,15,33.74,15,34s-0.11,0.52-0.29,0.71C14.52,34.89,14.26,35,14,35z"/>
	<path style="fill:#D4C3A5;" d="M54,42c-0.553,0-1-0.447-1-1V10c0-0.553,0.447-1,1-1s1,0.447,1,1v31C55,41.553,54.553,42,54,42z"/>
</g>
<g>
</g>
<g>
</g>
<g>
</g>
<g>
</g>
<g>
</g>
<g>
</g>
<g>
</g>
<g>
</g>
<g>
</g>
<g>
</g>
<g>
</g>
<g>
</g>
<g>
</g>
<g>
</g>
<g>
</g>
</svg>
