<?xml version="1.0" encoding="iso-8859-1"?>
<!-- Generator: Adobe Illustrator 18.0.0, SVG Export Plug-In . SVG Version: 6.00 Build 0)  -->
<!DOCTYPE svg PUBLIC "-//W3C//DTD SVG 1.1//EN" "http://www.w3.org/Graphics/SVG/1.1/DTD/svg11.dtd">
<svg version="1.1" id="Capa_1" xmlns="http://www.w3.org/2000/svg" xmlns:xlink="http://www.w3.org/1999/xlink" x="0px" y="0px"
	 viewBox="0 0 60 60" style="enable-background:new 0 0 60 60;" xml:space="preserve">
<g>
	<path style="fill:#556080;" d="M30,6c-0.553,0-1-0.447-1-1V1c0-0.553,0.447-1,1-1s1,0.447,1,1v4C31,5.553,30.553,6,30,6z"/>
	<rect x="1" y="5" style="fill:#F0EDE0;" width="58" height="40"/>
	<path style="fill:#556080;" d="M30,58c-0.553,0-1-0.447-1-1V45c0-0.553,0.447-1,1-1s1,0.447,1,1v12C31,57.553,30.553,58,30,58z"/>
	<path style="fill:#556080;" d="M44,60c-0.256,0-0.512-0.098-0.707-0.293l-14-14c-0.391-0.391-0.391-1.023,0-1.414
		s1.023-0.391,1.414,0l14,14c0.391,0.391,0.391,1.023,0,1.414C44.512,59.902,44.256,60,44,60z"/>
	<path style="fill:#556080;" d="M16,60c-0.256,0-0.512-0.098-0.707-0.293c-0.391-0.391-0.391-1.023,0-1.414l14-14
		c0.391-0.391,1.023-0.391,1.414,0s0.391,1.023,0,1.414l-14,14C16.512,59.902,16.256,60,16,60z"/>
	<path style="fill:#D4C3A5;" d="M13,42H3v-7h10V42z M5,40h6v-3H5V40z"/>
	<path style="fill:#D4C3A5;" d="M24,42H14v-7h10V42z M16,40h6v-3h-6V40z"/>
	<path style="fill:#D4C3A5;" d="M35,42H25v-7h10V42z M27,40h6v-3h-6V40z"/>
	<path style="fill:#D4C3A5;" d="M46,42H36v-7h10V42z M38,40h6v-3h-6V40z"/>
	<path style="fill:#D4C3A5;" d="M57,42H47v-7h10V42z M49,40h6v-3h-6V40z"/>
	<path style="fill:#D4C3A5;" d="M13,37H3v-7h10V37z M5,35h6v-3H5V35z"/>
	<path style="fill:#D4C3A5;" d="M24,37H14V24h10V37z M16,35h6v-9h-6V35z"/>
	<path style="fill:#D4C3A5;" d="M35,37H25V18h10V37z M27,35h6V20h-6V35z"/>
	<path style="fill:#D4C3A5;" d="M46,37H36V25h10V37z M38,35h6v-8h-6V35z"/>
	<path style="fill:#D4C3A5;" d="M57,37H47V12h10V37z M49,35h6V14h-6V35z"/>
	<path style="fill:#D4C3A5;" d="M8,19c-0.256,0-0.512-0.098-0.707-0.293c-0.391-0.391-0.391-1.023,0-1.414l7-7
		c0.391-0.391,1.023-0.391,1.414,0s0.391,1.023,0,1.414l-7,7C8.512,18.902,8.256,19,8,19z"/>
	<path style="fill:#D4C3A5;" d="M15,17c-0.553,0-1-0.447-1-1v-5c0-0.553,0.447-1,1-1s1,0.447,1,1v5C16,16.553,15.553,17,15,17z"/>
	<path style="fill:#D4C3A5;" d="M15,12h-5c-0.553,0-1-0.447-1-1s0.447-1,1-1h5c0.553,0,1,0.447,1,1S15.553,12,15,12z"/>
</g>
<g>
</g>
<g>
</g>
<g>
</g>
<g>
</g>
<g>
</g>
<g>
</g>
<g>
</g>
<g>
</g>
<g>
</g>
<g>
</g>
<g>
</g>
<g>
</g>
<g>
</g>
<g>
</g>
<g>
</g>
</svg>
