<?xml version="1.0" encoding="iso-8859-1"?>
<!-- Generator: Adobe Illustrator 18.0.0, SVG Export Plug-In . SVG Version: 6.00 Build 0)  -->
<!DOCTYPE svg PUBLIC "-//W3C//DTD SVG 1.1//EN" "http://www.w3.org/Graphics/SVG/1.1/DTD/svg11.dtd">
<svg version="1.1" id="Capa_1" xmlns="http://www.w3.org/2000/svg" xmlns:xlink="http://www.w3.org/1999/xlink" x="0px" y="0px"
	 viewBox="0 0 60 60" style="enable-background:new 0 0 60 60;" xml:space="preserve">
<g>
	<path style="fill:#556080;" d="M30,6c-0.552,0-1-0.447-1-1V1c0-0.553,0.448-1,1-1s1,0.447,1,1v4C31,5.553,30.552,6,30,6z"/>
	<rect x="1" y="5" style="fill:#F0EDE0;" width="58" height="40"/>
	<path style="fill:#D4C3A5;" d="M21,15H6c-0.552,0-1-0.447-1-1s0.448-1,1-1h15c0.552,0,1,0.447,1,1S21.552,15,21,15z"/>
	<path style="fill:#D4C3A5;" d="M15,11H6c-0.552,0-1-0.447-1-1s0.448-1,1-1h9c0.552,0,1,0.447,1,1S15.552,11,15,11z"/>
	<path style="fill:#D4C3A5;" d="M21,19H6c-0.552,0-1-0.447-1-1s0.448-1,1-1h15c0.552,0,1,0.447,1,1S21.552,19,21,19z"/>
	<path style="fill:#D4C3A5;" d="M19,32c-2.206,0-4-1.794-4-4s1.794-4,4-4s4,1.794,4,4S21.206,32,19,32z M19,26c-1.103,0-2,0.897-2,2
		s0.897,2,2,2s2-0.897,2-2S20.103,26,19,26z"/>
	<path style="fill:#D4C3A5;" d="M39,27c-2.206,0-4-1.794-4-4s1.794-4,4-4s4,1.794,4,4S41.206,27,39,27z M39,21c-1.103,0-2,0.897-2,2
		s0.897,2,2,2s2-0.897,2-2S40.103,21,39,21z"/>
	<path style="fill:#D4C3A5;" d="M49,37c-2.206,0-4-1.794-4-4s1.794-4,4-4s4,1.794,4,4S51.206,37,49,37z M49,31c-1.103,0-2,0.897-2,2
		s0.897,2,2,2s2-0.897,2-2S50.103,31,49,31z"/>
	<path style="fill:#D4C3A5;" d="M26,39c-2.206,0-4-1.794-4-4s1.794-4,4-4s4,1.794,4,4S28.206,39,26,39z M26,33c-1.103,0-2,0.897-2,2
		s0.897,2,2,2s2-0.897,2-2S27.103,33,26,33z"/>
	<path style="fill:#D4C3A5;" d="M12,39c-2.206,0-4-1.794-4-4s1.794-4,4-4s4,1.794,4,4S14.206,39,12,39z M12,33c-1.103,0-2,0.897-2,2
		s0.897,2,2,2s2-0.897,2-2S13.103,33,12,33z"/>
	<path style="fill:#556080;" d="M30,58c-0.552,0-1-0.447-1-1V45c0-0.553,0.448-1,1-1s1,0.447,1,1v12C31,57.553,30.552,58,30,58z"/>
	<path style="fill:#556080;" d="M44,60c-0.256,0-0.512-0.098-0.707-0.293l-14-14c-0.391-0.391-0.391-1.023,0-1.414
		s1.023-0.391,1.414,0l14,14c0.391,0.391,0.391,1.023,0,1.414C44.512,59.902,44.256,60,44,60z"/>
	<path style="fill:#556080;" d="M16,60c-0.256,0-0.512-0.098-0.707-0.293c-0.391-0.391-0.391-1.023,0-1.414l14-14
		c0.391-0.391,1.023-0.391,1.414,0s0.391,1.023,0,1.414l-14,14C16.512,59.902,16.256,60,16,60z"/>
	<path style="fill:#D4C3A5;" d="M13.554,33.445c-0.256,0-0.512-0.098-0.707-0.293c-0.391-0.391-0.391-1.023,0-1.414l2.892-2.891
		c0.391-0.391,1.023-0.391,1.414,0s0.391,1.023,0,1.414l-2.892,2.891C14.066,33.348,13.81,33.445,13.554,33.445z"/>
	<path style="fill:#D4C3A5;" d="M24.446,33.445c-0.256,0-0.512-0.098-0.707-0.293l-2.892-2.891c-0.391-0.391-0.391-1.023,0-1.414
		c0.39-0.391,1.023-0.391,1.414,0l2.892,2.891c0.391,0.391,0.391,1.023,0,1.414C24.958,33.348,24.702,33.445,24.446,33.445z"/>
	<path style="fill:#D4C3A5;" d="M28.121,33.879c-0.256,0-0.512-0.098-0.707-0.293c-0.391-0.391-0.391-1.023,0-1.414l8.325-8.324
		c0.391-0.391,1.023-0.391,1.414,0s0.391,1.023,0,1.414l-8.325,8.324C28.633,33.781,28.377,33.879,28.121,33.879z"/>
	<path style="fill:#D4C3A5;" d="M47.446,31.445c-0.256,0-0.512-0.098-0.707-0.293l-5.892-5.891c-0.391-0.391-0.391-1.023,0-1.414
		s1.023-0.391,1.414,0l5.892,5.891c0.391,0.391,0.391,1.023,0,1.414C47.958,31.348,47.702,31.445,47.446,31.445z"/>
</g>
<g>
</g>
<g>
</g>
<g>
</g>
<g>
</g>
<g>
</g>
<g>
</g>
<g>
</g>
<g>
</g>
<g>
</g>
<g>
</g>
<g>
</g>
<g>
</g>
<g>
</g>
<g>
</g>
<g>
</g>
</svg>
