<?xml version="1.0" encoding="iso-8859-1"?>
<!-- Generator: Adobe Illustrator 18.0.0, SVG Export Plug-In . SVG Version: 6.00 Build 0)  -->
<!DOCTYPE svg PUBLIC "-//W3C//DTD SVG 1.1//EN" "http://www.w3.org/Graphics/SVG/1.1/DTD/svg11.dtd">
<svg version="1.1" id="Capa_1" xmlns="http://www.w3.org/2000/svg" xmlns:xlink="http://www.w3.org/1999/xlink" x="0px" y="0px"
	 viewBox="0 0 60 60" style="enable-background:new 0 0 60 60;" xml:space="preserve">
<g>
	<path style="fill:#556080;" d="M30,6c-0.552,0-1-0.447-1-1V1c0-0.553,0.448-1,1-1s1,0.447,1,1v4C31,5.553,30.552,6,30,6z"/>
	<rect x="1" y="5" style="fill:#F0EDE0;" width="58" height="40"/>
	<path style="fill:#556080;" d="M30,58c-0.552,0-1-0.447-1-1V45c0-0.553,0.448-1,1-1s1,0.447,1,1v12C31,57.553,30.552,58,30,58z"/>
	<path style="fill:#556080;" d="M44,60c-0.256,0-0.512-0.098-0.707-0.293l-14-14c-0.391-0.391-0.391-1.023,0-1.414
		s1.023-0.391,1.414,0l14,14c0.391,0.391,0.391,1.023,0,1.414C44.512,59.902,44.256,60,44,60z"/>
	<path style="fill:#556080;" d="M16,60c-0.256,0-0.512-0.098-0.707-0.293c-0.391-0.391-0.391-1.023,0-1.414l14-14
		c0.391-0.391,1.023-0.391,1.414,0s0.391,1.023,0,1.414l-14,14C16.512,59.902,16.256,60,16,60z"/>
	<path style="fill:#D4C3A5;" d="M50,40H35c-0.552,0-1-0.447-1-1s0.448-1,1-1h15c0.552,0,1,0.447,1,1S50.552,40,50,40z"/>
	<path style="fill:#D4C3A5;" d="M20,33H10c-0.552,0-1-0.447-1-1s0.448-1,1-1h10c0.552,0,1,0.447,1,1S20.552,33,20,33z"/>
	<path style="fill:#D4C3A5;" d="M45,33H30c-0.552,0-1-0.447-1-1s0.448-1,1-1h15c0.552,0,1,0.447,1,1S45.552,33,45,33z"/>
	<path style="fill:#D4C3A5;" d="M25,33c-0.26,0-0.52-0.11-0.71-0.29C24.11,32.52,24,32.26,24,32s0.11-0.521,0.29-0.71
		c0.37-0.37,1.05-0.37,1.42,0C25.89,31.47,26,31.729,26,32c0,0.27-0.11,0.52-0.29,0.71C25.52,32.89,25.26,33,25,33z"/>
	<path style="fill:#D4C3A5;" d="M30,40H15c-0.552,0-1-0.447-1-1s0.448-1,1-1h15c0.552,0,1,0.447,1,1S30.552,40,30,40z"/>
	<path style="fill:#D4C3A5;" d="M10,40c-0.27,0-0.52-0.11-0.71-0.3C9.11,39.52,9,39.26,9,39s0.11-0.521,0.29-0.71
		c0.37-0.37,1.04-0.37,1.42,0C10.89,38.479,11,38.74,11,39s-0.11,0.52-0.29,0.71C10.52,39.89,10.26,40,10,40z"/>
	<path style="fill:#D4C3A5;" d="M50,33c-0.26,0-0.52-0.11-0.71-0.29C49.11,32.52,49,32.26,49,32s0.11-0.521,0.29-0.71
		c0.37-0.37,1.05-0.37,1.42,0C50.89,31.479,51,31.729,51,32c0,0.27-0.11,0.52-0.29,0.71C50.52,32.89,50.26,33,50,33z"/>
	<path style="fill:#D4C3A5;" d="M50,19H35c-0.552,0-1-0.447-1-1s0.448-1,1-1h15c0.552,0,1,0.447,1,1S50.552,19,50,19z"/>
	<path style="fill:#D4C3A5;" d="M50,26H40c-0.552,0-1-0.447-1-1s0.448-1,1-1h10c0.552,0,1,0.447,1,1S50.552,26,50,26z"/>
	<path style="fill:#D4C3A5;" d="M32,26h-2c-0.552,0-1-0.447-1-1s0.448-1,1-1h2c0.552,0,1,0.447,1,1S32.552,26,32,26z"/>
	<path style="fill:#D4C3A5;" d="M45,12H30c-0.552,0-1-0.447-1-1s0.448-1,1-1h15c0.552,0,1,0.447,1,1S45.552,12,45,12z"/>
	<path style="fill:#D4C3A5;" d="M50,12c-0.27,0-0.52-0.11-0.71-0.29C49.11,11.52,49,11.27,49,11c0-0.271,0.11-0.521,0.29-0.71
		c0.37-0.37,1.05-0.37,1.42,0C50.89,10.479,51,10.729,51,11c0,0.27-0.11,0.52-0.29,0.71C50.52,11.89,50.27,12,50,12z"/>
	<path style="fill:#D4C3A5;" d="M31,19c-0.26,0-0.52-0.11-0.71-0.29C30.11,18.52,30,18.26,30,18s0.11-0.521,0.29-0.71
		c0.38-0.37,1.04-0.37,1.42,0C31.89,17.479,32,17.74,32,18s-0.11,0.52-0.29,0.71C31.52,18.89,31.26,19,31,19z"/>
	<path style="fill:#D4C3A5;" d="M36,26c-0.26,0-0.52-0.11-0.71-0.29C35.11,25.52,35,25.27,35,25c0-0.271,0.11-0.521,0.3-0.71
		c0.36-0.37,1.04-0.37,1.41,0C36.89,24.479,37,24.74,37,25s-0.11,0.52-0.29,0.71C36.52,25.89,36.27,26,36,26z"/>
	<g>
		<rect x="10" y="11" style="fill:#D4C3A5;" width="14" height="14"/>
		<path style="fill:#D4C3A5;" d="M25,26H9V10h16V26z M11,24h12V12H11V24z"/>
	</g>
</g>
<g>
</g>
<g>
</g>
<g>
</g>
<g>
</g>
<g>
</g>
<g>
</g>
<g>
</g>
<g>
</g>
<g>
</g>
<g>
</g>
<g>
</g>
<g>
</g>
<g>
</g>
<g>
</g>
<g>
</g>
</svg>
