<?xml version="1.0" encoding="iso-8859-1"?>
<!-- Generator: Adobe Illustrator 18.0.0, SVG Export Plug-In . SVG Version: 6.00 Build 0)  -->
<!DOCTYPE svg PUBLIC "-//W3C//DTD SVG 1.1//EN" "http://www.w3.org/Graphics/SVG/1.1/DTD/svg11.dtd">
<svg version="1.1" id="Capa_1" xmlns="http://www.w3.org/2000/svg" xmlns:xlink="http://www.w3.org/1999/xlink" x="0px" y="0px"
	 viewBox="0 0 59 59" style="enable-background:new 0 0 59 59;" xml:space="preserve">
<g>
	<path style="fill:#E8D5B2;" d="M30.22,5L1.241,34.218c-0.987,0.987-0.987,2.588,0,3.576l20.466,20.466
		c0.987,0.987,2.588,0.987,3.576,0L53.5,29.28L53.5,5H30.22z M43.5,19c-2.209,0-4-1.791-4-4c0-2.209,1.791-4,4-4s4,1.791,4,4
		C47.5,17.209,45.709,19,43.5,19z"/>
	<path style="fill:#D75A4A;" d="M43.5,16c-0.256,0-0.512-0.098-0.707-0.293c-0.391-0.391-0.391-1.023,0-1.414l14-14
		c0.391-0.391,1.023-0.391,1.414,0s0.391,1.023,0,1.414l-14,14C44.012,15.902,43.756,16,43.5,16z"/>
	<g>
		<path style="fill:#CBB292;" d="M42.247,31.281L31.641,41.888c-0.391,0.391-0.391,1.023,0,1.414
			c0.195,0.195,0.451,0.293,0.707,0.293s0.512-0.098,0.707-0.293l10.606-10.606c0.391-0.391,0.391-1.023,0-1.414
			S42.638,30.891,42.247,31.281z"/>
		<path style="fill:#CBB292;" d="M47.189,27.74c-0.37-0.37-1.029-0.37-1.409,0c-0.181,0.189-0.29,0.449-0.29,0.71
			c0,0.27,0.109,0.529,0.29,0.71c0.189,0.189,0.449,0.29,0.71,0.29c0.26,0,0.52-0.101,0.699-0.29c0.19-0.181,0.301-0.44,0.301-0.71
			C47.49,28.189,47.38,27.93,47.189,27.74z"/>
		<path style="fill:#CBB292;" d="M37.297,19.26c0.391-0.391,0.391-1.023,0-1.414c-0.391-0.391-1.023-0.391-1.414,0L25.276,28.453
			c-0.391,0.391-0.391,1.023,0,1.414c0.195,0.195,0.451,0.293,0.707,0.293s0.512-0.098,0.707-0.293L37.297,19.26z"/>
		<path style="fill:#CBB292;" d="M33.762,31.281c0.195,0.195,0.451,0.293,0.707,0.293s0.512-0.098,0.707-0.293l7.071-7.071
			c0.391-0.391,0.391-1.023,0-1.414s-1.023-0.391-1.414,0l-7.071,7.071C33.371,30.258,33.371,30.891,33.762,31.281z"/>
		<path style="fill:#CBB292;" d="M28.104,35.523l-1.414,1.414c-0.391,0.391-0.391,1.023,0,1.414
			c0.195,0.195,0.451,0.293,0.707,0.293s0.512-0.098,0.707-0.293l1.414-1.414c0.391-0.391,0.391-1.023,0-1.414
			S28.495,35.133,28.104,35.523z"/>
		<path style="fill:#CBB292;" d="M28.812,16.432c-0.391-0.391-1.023-0.391-1.414,0L16.791,27.038c-0.391,0.391-0.391,1.023,0,1.414
			c0.195,0.195,0.451,0.293,0.707,0.293s0.512-0.098,0.707-0.293l10.606-10.606C29.202,17.455,29.202,16.822,28.812,16.432z"/>
		<path style="fill:#CBB292;" d="M31.64,14.6c0.26,0,0.521-0.1,0.71-0.29c0.181-0.189,0.29-0.439,0.29-0.71
			c0-0.26-0.109-0.52-0.3-0.71c-0.37-0.37-1.03-0.37-1.41,0.01c-0.18,0.181-0.29,0.44-0.29,0.7s0.11,0.521,0.29,0.71
			C31.12,14.5,31.38,14.6,31.64,14.6z"/>
		<path style="fill:#CBB292;" d="M22.45,31.28c-0.19,0.189-0.29,0.439-0.29,0.71c0,0.27,0.1,0.52,0.29,0.699
			c0.18,0.19,0.439,0.301,0.71,0.301c0.26,0,0.52-0.11,0.699-0.29c0.19-0.19,0.301-0.45,0.301-0.71c0-0.261-0.11-0.521-0.301-0.71
			C23.49,30.91,22.819,30.91,22.45,31.28z"/>
		<path style="fill:#CBB292;" d="M32.35,34.109c0.181-0.18,0.29-0.439,0.29-0.71c0-0.26-0.109-0.52-0.29-0.71
			c-0.38-0.37-1.04-0.37-1.42,0c-0.18,0.19-0.29,0.45-0.29,0.71c0,0.271,0.11,0.521,0.29,0.71c0.19,0.19,0.45,0.29,0.71,0.29
			S32.16,34.3,32.35,34.109z"/>
	</g>
	<path style="fill:#4C8056;" d="M25.276,48.252l-0.625-0.625c0.615-0.929,0.909-2.041,0.814-3.172
		c-0.078-0.944-0.533-1.797-1.28-2.403c-0.765-0.619-1.769-0.903-2.738-0.781l-2.802,0.35l-3.846-3.846
		c1.114-0.529,2.485-0.344,3.406,0.577c0.391,0.391,1.023,0.391,1.414,0s0.391-1.023,0-1.414c-1.707-1.707-4.352-1.918-6.293-0.635
		l-0.779-0.779c-0.391-0.391-1.023-0.391-1.414,0s-0.391,1.023,0,1.414l0.781,0.781c-0.614,0.928-0.908,2.041-0.813,3.172
		c0.078,0.943,0.533,1.797,1.279,2.402c0.765,0.619,1.763,0.904,2.739,0.783l2.802-0.35l3.836,3.836
		c-1.111,0.501-2.51,0.318-3.396-0.568c-0.391-0.391-1.023-0.391-1.414,0c-0.391,0.39-0.391,1.023,0,1.414
		c0.943,0.944,2.199,1.465,3.535,1.465c0.996,0,1.946-0.291,2.757-0.829l0.622,0.622c0.195,0.195,0.451,0.293,0.707,0.293
		s0.512-0.098,0.707-0.293C25.667,49.275,25.667,48.643,25.276,48.252z M14.872,42.092c-0.438,0.054-0.889-0.072-1.231-0.352
		c-0.319-0.26-0.514-0.62-0.547-1.016c-0.044-0.536,0.07-1.059,0.295-1.532l2.742,2.742L14.872,42.092z M21.696,43.255
		c0.433-0.059,0.886,0.072,1.229,0.351c0.32,0.26,0.515,0.62,0.548,1.016c0.044,0.536-0.07,1.059-0.296,1.532l-2.741-2.741
		L21.696,43.255z"/>
</g>
<g>
</g>
<g>
</g>
<g>
</g>
<g>
</g>
<g>
</g>
<g>
</g>
<g>
</g>
<g>
</g>
<g>
</g>
<g>
</g>
<g>
</g>
<g>
</g>
<g>
</g>
<g>
</g>
<g>
</g>
</svg>
