<?xml version="1.0" encoding="iso-8859-1"?>
<!-- Generator: Adobe Illustrator 18.0.0, SVG Export Plug-In . SVG Version: 6.00 Build 0)  -->
<!DOCTYPE svg PUBLIC "-//W3C//DTD SVG 1.1//EN" "http://www.w3.org/Graphics/SVG/1.1/DTD/svg11.dtd">
<svg version="1.1" id="Capa_1" xmlns="http://www.w3.org/2000/svg" xmlns:xlink="http://www.w3.org/1999/xlink" x="0px" y="0px"
	 viewBox="0 0 59 59" style="enable-background:new 0 0 59 59;" xml:space="preserve">
<g>
	<path style="fill:#E8D5B2;" d="M30.72,5L16,20v5h5l0.038,7H27v7h6v5l6.776-0.02L54,29.28V5H30.72z M44,19c-2.209,0-4-1.791-4-4
		c0-2.209,1.791-4,4-4s4,1.791,4,4C48,17.209,46.209,19,44,19z"/>
	<path style="fill:#CBB292;" d="M44,7c-4.418,0-8,3.582-8,8s3.582,8,8,8s8-3.582,8-8S48.418,7,44,7z M44,19c-2.209,0-4-1.791-4-4
		c0-2.209,1.791-4,4-4s4,1.791,4,4C48,17.209,46.209,19,44,19z"/>
	<path style="fill:#E8D5B2;" d="M26,50.066V45h-6v-7h-6v-7.026H8v-3.943l-7.259,7.346c-0.987,0.987-0.987,2.588,0,3.576
		l21.306,20.306c0.987,0.987,2.588,0.987,3.576,0l8.102-8.194H26z"/>
	<path style="fill:#D75A4A;" d="M44,16c-0.256,0-0.512-0.098-0.707-0.293c-0.391-0.391-0.391-1.023,0-1.414l14-14
		c0.391-0.391,1.023-0.391,1.414,0s0.391,1.023,0,1.414l-14,14C44.512,15.902,44.256,16,44,16z"/>
</g>
<g>
</g>
<g>
</g>
<g>
</g>
<g>
</g>
<g>
</g>
<g>
</g>
<g>
</g>
<g>
</g>
<g>
</g>
<g>
</g>
<g>
</g>
<g>
</g>
<g>
</g>
<g>
</g>
<g>
</g>
</svg>
