<?xml version="1.0" encoding="iso-8859-1"?>
<!-- Generator: Adobe Illustrator 18.0.0, SVG Export Plug-In . SVG Version: 6.00 Build 0)  -->
<!DOCTYPE svg PUBLIC "-//W3C//DTD SVG 1.1//EN" "http://www.w3.org/Graphics/SVG/1.1/DTD/svg11.dtd">
<svg version="1.1" id="Capa_1" xmlns="http://www.w3.org/2000/svg" xmlns:xlink="http://www.w3.org/1999/xlink" x="0px" y="0px"
	 viewBox="0 0 59.284 59.284" style="enable-background:new 0 0 59.284 59.284;" xml:space="preserve">
<g>
	<g>
		<path style="fill:#E8D5B2;" d="M44.696,48.26l-4.913-5.086l-5.086,4.913l-4.913-5.086l-5.086,4.913l-4.913-5.086L14.7,47.74
			l-2.948-3.052l-0.216,12.438c-0.015,0.862,0.671,1.572,1.533,1.587l32.874,0.57c0.862,0.015,1.572-0.671,1.587-1.533l0.216-12.438
			L44.696,48.26z"/>
	</g>
	<path style="fill:#E8D5B2;" d="M46.089,5H13.21c-0.862,0-1.56,0.699-1.56,1.56V35l3,3l5-5l5,5l5-5l5,5l5-5l5,5l3-3V6.56
		C47.65,5.699,46.951,5,46.089,5z M29.65,17c-2.209,0-4-1.791-4-4c0-2.209,1.791-4,4-4s4,1.791,4,4C33.65,15.209,31.859,17,29.65,17
		z"/>
	<path style="fill:#CBB292;" d="M29.65,5c-4.418,0-8,3.582-8,8s3.582,8,8,8s8-3.582,8-8S34.068,5,29.65,5z M29.65,17
		c-2.209,0-4-1.791-4-4c0-2.209,1.791-4,4-4s4,1.791,4,4C33.65,15.209,31.859,17,29.65,17z"/>
	<path style="fill:#D75A4A;" d="M29.65,14c-0.553,0-1-0.447-1-1V1c0-0.553,0.447-1,1-1s1,0.447,1,1v12
		C30.65,13.553,30.202,14,29.65,14z"/>
</g>
<g>
</g>
<g>
</g>
<g>
</g>
<g>
</g>
<g>
</g>
<g>
</g>
<g>
</g>
<g>
</g>
<g>
</g>
<g>
</g>
<g>
</g>
<g>
</g>
<g>
</g>
<g>
</g>
<g>
</g>
</svg>
