<?xml version="1.0" encoding="iso-8859-1"?>
<!-- Generator: Adobe Illustrator 18.0.0, SVG Export Plug-In . SVG Version: 6.00 Build 0)  -->
<!DOCTYPE svg PUBLIC "-//W3C//DTD SVG 1.1//EN" "http://www.w3.org/Graphics/SVG/1.1/DTD/svg11.dtd">
<svg version="1.1" id="Capa_1" xmlns="http://www.w3.org/2000/svg" xmlns:xlink="http://www.w3.org/1999/xlink" x="0px" y="0px"
	 viewBox="0 0 59 59" style="enable-background:new 0 0 59 59;" xml:space="preserve">
<g>
	<path style="fill:#E8D5B2;" d="M30.22,5L1.241,34.218c-0.987,0.987-0.987,2.588,0,3.576l20.466,20.466
		c0.987,0.987,2.588,0.987,3.576,0L53.5,29.28L53.5,5H30.22z M43.5,19c-2.209,0-4-1.791-4-4c0-2.209,1.791-4,4-4s4,1.791,4,4
		C47.5,17.209,45.709,19,43.5,19z"/>
	<path style="fill:#CBB292;" d="M43.5,7c-4.418,0-8,3.582-8,8s3.582,8,8,8s8-3.582,8-8S47.918,7,43.5,7z M43.5,19
		c-2.209,0-4-1.791-4-4c0-2.209,1.791-4,4-4s4,1.791,4,4C47.5,17.209,45.709,19,43.5,19z"/>
	<path style="fill:#D75A4A;" d="M43.5,16c-0.256,0-0.512-0.098-0.707-0.293c-0.391-0.391-0.391-1.023,0-1.414l14-14
		c0.391-0.391,1.023-0.391,1.414,0s0.391,1.023,0,1.414l-14,14C44.012,15.902,43.756,16,43.5,16z"/>
	<path style="fill:#ECF0F1;" d="M12.65,22.715L1.241,34.218c-0.987,0.987-0.987,2.588,0,3.576l20.466,20.466
		c0.987,0.987,2.588,0.987,3.576,0l11.304-11.609L12.65,22.715z"/>
	<path style="fill:#95A5A5;" d="M5.472,37.688c-0.256,0-0.512-0.098-0.707-0.293c-0.391-0.391-0.391-1.023,0-1.414l8.485-8.485
		c0.391-0.391,1.023-0.391,1.414,0s0.391,1.023,0,1.414l-8.485,8.485C5.984,37.59,5.728,37.688,5.472,37.688z"/>
	<path style="fill:#95A5A5;" d="M11.836,35.566c-0.256,0-0.512-0.098-0.707-0.293c-0.391-0.391-0.391-1.023,0-1.414l4.243-4.243
		c0.391-0.391,1.023-0.391,1.414,0s0.391,1.023,0,1.414l-4.243,4.243C12.348,35.469,12.092,35.566,11.836,35.566z"/>
	<path style="fill:#95A5A5;" d="M14.665,38.395c-0.256,0-0.512-0.098-0.707-0.293c-0.391-0.391-0.391-1.023,0-1.414l4.243-4.242
		c0.391-0.391,1.023-0.391,1.414,0s0.391,1.023,0,1.414l-4.243,4.242C15.176,38.297,14.92,38.395,14.665,38.395z"/>
	<path style="fill:#95A5A5;" d="M16.786,40.516c-0.256,0-0.512-0.098-0.707-0.293c-0.391-0.391-0.391-1.023,0-1.414l4.242-4.242
		c0.391-0.391,1.023-0.391,1.414,0s0.391,1.023,0,1.414l-4.242,4.242C17.298,40.418,17.042,40.516,16.786,40.516z"/>
	<path style="fill:#95A5A5;" d="M20.321,44.052c-0.256,0-0.512-0.098-0.707-0.293c-0.391-0.391-0.391-1.023,0-1.414l4.243-4.243
		c0.391-0.391,1.023-0.391,1.414,0s0.391,1.023,0,1.414l-4.243,4.243C20.833,43.954,20.577,44.052,20.321,44.052z"/>
	<path style="fill:#95A5A5;" d="M22.443,46.173c-0.256,0-0.512-0.098-0.707-0.293c-0.391-0.391-0.391-1.023,0-1.414l4.243-4.243
		c0.391-0.391,1.023-0.391,1.414,0s0.391,1.023,0,1.414L23.15,45.88C22.955,46.075,22.699,46.173,22.443,46.173z"/>
	<path style="fill:#95A5A5;" d="M24.564,48.294c-0.256,0-0.512-0.098-0.707-0.293c-0.391-0.391-0.391-1.023,0-1.414l4.243-4.242
		c0.391-0.391,1.023-0.391,1.414,0s0.391,1.023,0,1.414l-4.243,4.242C25.076,48.196,24.82,48.294,24.564,48.294z"/>
	<path style="fill:#95A5A5;" d="M22.443,54.658c-0.256,0-0.512-0.098-0.707-0.293c-0.391-0.391-0.391-1.023,0-1.414l8.485-8.485
		c0.391-0.391,1.023-0.391,1.414,0s0.391,1.023,0,1.414l-8.485,8.485C22.955,54.561,22.699,54.658,22.443,54.658z"/>
	<path style="fill:#95A5A5;" d="M8.301,39.102c-0.256,0-0.512-0.098-0.707-0.293c-0.391-0.391-0.391-1.023,0-1.414l0.707-0.707
		c0.391-0.391,1.023-0.391,1.414,0s0.391,1.023,0,1.414l-0.707,0.707C8.812,39.004,8.557,39.102,8.301,39.102z"/>
	<path style="fill:#95A5A5;" d="M11.129,41.93c-0.256,0-0.512-0.098-0.707-0.293c-0.391-0.391-0.391-1.023,0-1.414l0.707-0.707
		c0.391-0.391,1.023-0.391,1.414,0s0.391,1.023,0,1.414l-0.707,0.707C11.641,41.832,11.385,41.93,11.129,41.93z"/>
	<path style="fill:#95A5A5;" d="M13.25,44.052c-0.256,0-0.512-0.098-0.707-0.293c-0.391-0.391-0.391-1.023,0-1.414l0.707-0.707
		c0.391-0.391,1.023-0.391,1.414,0s0.391,1.023,0,1.414l-0.707,0.707C13.762,43.954,13.506,44.052,13.25,44.052z"/>
	<path style="fill:#95A5A5;" d="M16.786,47.587c-0.256,0-0.512-0.098-0.707-0.293c-0.391-0.391-0.391-1.023,0-1.414l0.707-0.707
		c0.391-0.391,1.023-0.391,1.414,0s0.391,1.023,0,1.414l-0.707,0.707C17.298,47.489,17.042,47.587,16.786,47.587z"/>
	<path style="fill:#95A5A5;" d="M18.907,49.708c-0.256,0-0.512-0.098-0.707-0.293c-0.391-0.391-0.391-1.023,0-1.414l0.707-0.707
		c0.391-0.391,1.023-0.391,1.414,0s0.391,1.023,0,1.414l-0.707,0.707C19.419,49.61,19.163,49.708,18.907,49.708z"/>
	<path style="fill:#95A5A5;" d="M21.028,51.83c-0.256,0-0.512-0.098-0.707-0.293c-0.391-0.39-0.391-1.023,0-1.414l0.708-0.708
		c0.391-0.391,1.024-0.391,1.415,0c0.391,0.39,0.391,1.023,0,1.414l-0.708,0.708C21.541,51.732,21.284,51.83,21.028,51.83z"/>
</g>
<g>
</g>
<g>
</g>
<g>
</g>
<g>
</g>
<g>
</g>
<g>
</g>
<g>
</g>
<g>
</g>
<g>
</g>
<g>
</g>
<g>
</g>
<g>
</g>
<g>
</g>
<g>
</g>
<g>
</g>
</svg>
