<?xml version="1.0" encoding="iso-8859-1"?>
<!-- Generator: Adobe Illustrator 18.0.0, SVG Export Plug-In . SVG Version: 6.00 Build 0)  -->
<!DOCTYPE svg PUBLIC "-//W3C//DTD SVG 1.1//EN" "http://www.w3.org/Graphics/SVG/1.1/DTD/svg11.dtd">
<svg version="1.1" id="Capa_1" xmlns="http://www.w3.org/2000/svg" xmlns:xlink="http://www.w3.org/1999/xlink" x="0px" y="0px"
	 viewBox="0 0 58 58" style="enable-background:new 0 0 58 58;" xml:space="preserve">
<g>
	<path style="fill:#BDC3C7;" d="M5.001,13c-0.367,0-0.72-0.202-0.896-0.553c-0.247-0.494-0.047-1.095,0.447-1.342l6-3
		c0.495-0.245,1.094-0.047,1.342,0.447c0.247,0.494,0.047,1.095-0.447,1.342l-6,3C5.304,12.966,5.151,13,5.001,13z"/>
	<path style="fill:#BDC3C7;" d="M52.999,13c-0.15,0-0.303-0.034-0.446-0.105l-6-3c-0.494-0.247-0.694-0.848-0.447-1.342
		c0.248-0.494,0.849-0.692,1.342-0.447l6,3c0.494,0.247,0.694,0.848,0.447,1.342C53.719,12.798,53.366,13,52.999,13z"/>
	<rect x="16" y="9" style="fill:#ECF0F1;" width="8" height="3"/>
	<rect x="34" y="9" style="fill:#ECF0F1;" width="8" height="3"/>
	<path style="fill:#BDC3C7;" d="M36,6.444V9h4V6.889C40,3.636,37.364,1,34.111,1H23.889C20.636,1,18,3.636,18,6.889V9h4V6.444
		C22,5.331,23.13,4.575,24.159,5c3.1,1.281,6.582,1.281,9.682,0C34.87,4.575,36,5.331,36,6.444z"/>
	<path style="fill:#D1D3D3;" d="M53.426,54H4.574C2.048,54,0,51.952,0,49.426V16.574C0,14.048,2.048,12,4.574,12h48.852
		C55.952,12,58,14.048,58,16.574v32.852C58,51.952,55.952,54,53.426,54z"/>
	<rect x="4" y="54" style="fill:#ECF0F1;" width="7" height="3"/>
	<rect x="47" y="54" style="fill:#ECF0F1;" width="7" height="3"/>
	<path style="fill:#BDC3C7;" d="M13,12h-1c-0.553,0-1-0.447-1-1s0.447-1,1-1h1c0.553,0,1,0.447,1,1S13.553,12,13,12z"/>
	<path style="fill:#BDC3C7;" d="M46,12h-1c-0.553,0-1-0.447-1-1s0.447-1,1-1h1c0.553,0,1,0.447,1,1S46.553,12,46,12z"/>
	<g>
		<rect y="22" style="fill:#ECF0F1;" width="58" height="2"/>
		<rect y="25" style="fill:#ECF0F1;" width="58" height="2"/>
		<rect y="19" style="fill:#ECF0F1;" width="58" height="2"/>
	</g>
	<g>
		<rect y="45" style="fill:#ECF0F1;" width="58" height="2"/>
		<rect y="42" style="fill:#ECF0F1;" width="58" height="2"/>
		<rect y="39" style="fill:#ECF0F1;" width="58" height="2"/>
	</g>
</g>
<g>
</g>
<g>
</g>
<g>
</g>
<g>
</g>
<g>
</g>
<g>
</g>
<g>
</g>
<g>
</g>
<g>
</g>
<g>
</g>
<g>
</g>
<g>
</g>
<g>
</g>
<g>
</g>
<g>
</g>
</svg>
